M48
; DRILL file {KiCad (5.1.6-0-10_14)} date Saturday, August 01, 2020 at 01:31:04 AM
; FORMAT={-:-/ absolute / inch / decimal}
; #@! TF.CreationDate,2020-08-01T01:31:04+08:00
; #@! TF.GenerationSoftware,Kicad,Pcbnew,(5.1.6-0-10_14)
; #@! TF.FileFunction,NonPlated,1,2,NPTH
FMAT,2
INCH
T1C0.0670
T2C0.1570
%
G90
G05
T1
X11.3312Y-5.5312
X11.7312Y-5.5312
X7.2062Y-4.7812
X7.6063Y-4.7812
X10.7687Y-6.2812
X11.1687Y-6.2812
X9.8312Y-5.5312
X10.2312Y-5.5312
X3.6437Y-7.0312
X4.0438Y-7.0312
X13.3937Y-4.7812
X13.7937Y-4.7812
X9.2687Y-6.2812
X9.6687Y-6.2812
X4.5812Y-5.5312
X4.9813Y-5.5312
X2.1437Y-5.5312
X2.5437Y-5.5312
X2.2375Y-6.2812
X2.6375Y-6.2812
X11.8Y-7.0312
X12.2Y-7.0312
X7.9562Y-4.7812
X8.3562Y-4.7812
X4.2062Y-4.7812
X4.6063Y-4.7812
X14.1437Y-5.5312
X14.5437Y-5.5312
X12.6437Y-7.7812
X13.0437Y-7.7812
X10.3937Y-7.0312
X10.7937Y-7.0312
X13.3937Y-5.5312
X13.7937Y-5.5312
X11.7062Y-4.7812
X12.1062Y-4.7812
X4.7687Y-6.2812
X5.1688Y-6.2812
X10.0187Y-6.2812
X10.4187Y-6.2812
X14.1437Y-7.7812
X14.5437Y-7.7812
X9.4562Y-4.7812
X9.8562Y-4.7812
X8.7062Y-4.7812
X9.1062Y-4.7812
X14.1437Y-4.7812
X14.5437Y-4.7812
X10.2062Y-4.7812
X10.6062Y-4.7812
X5.3312Y-5.5312
X5.7313Y-5.5312
X8.1437Y-7.0312
X8.5437Y-7.0312
X13.3937Y-7.0312
X13.7937Y-7.0312
X8.3312Y-5.5312
X8.7312Y-5.5312
X11.9875Y-6.2812
X12.3875Y-6.2812
X3.4562Y-7.7812
X3.8562Y-7.7812
X7.5812Y-5.5312
X7.9813Y-5.5312
X12.4562Y-4.7812
X12.8562Y-4.7812
X4.0187Y-6.2812
X4.4188Y-6.2812
X2.7062Y-4.7812
X3.1062Y-4.7812
X3.2687Y-6.2812
X3.6687Y-6.2812
X9.4562Y-7.7812
X9.8562Y-7.7812
X5.7062Y-4.7812
X6.1063Y-4.7812
X10.9562Y-4.7812
X11.3562Y-4.7812
X7.3937Y-7.0312
X7.7938Y-7.0312
X10.2062Y-7.7812
X10.6062Y-7.7812
X4.9562Y-4.7812
X5.3563Y-4.7812
X1.9563Y-7.7812
X2.3562Y-7.7812
X3.8312Y-5.5312
X4.2313Y-5.5312
X1.9563Y-4.7812
X2.3562Y-4.7812
X5.8937Y-7.0312
X6.2938Y-7.0312
X5.5187Y-6.2812
X5.9188Y-6.2812
X4.2062Y-7.7812
X4.6063Y-7.7812
X13.3937Y-7.7812
X13.7937Y-7.7812
X6.8312Y-7.7812
X7.2313Y-7.7812
X12.2687Y-5.5312
X12.6687Y-5.5312
X11.7062Y-7.7812
X12.1062Y-7.7812
X6.4562Y-4.7812
X6.8563Y-4.7812
X10.9562Y-7.7812
X11.3562Y-7.7812
X4.3937Y-7.0312
X4.7938Y-7.0312
X6.2687Y-6.2812
X6.6688Y-6.2812
X2.7062Y-7.7812
X3.1062Y-7.7812
X7.7687Y-6.2812
X8.1687Y-6.2812
X6.0812Y-5.5312
X6.4813Y-5.5312
X3.4562Y-4.7812
X3.8562Y-4.7812
X6.6437Y-7.0312
X7.0438Y-7.0312
X3.0812Y-5.5312
X3.4812Y-5.5312
X9.0812Y-5.5312
X9.4812Y-5.5312
X2.425Y-7.0312
X2.825Y-7.0312
X6.8312Y-5.5312
X7.2313Y-5.5312
X7.0187Y-6.2812
X7.4188Y-6.2812
X10.5812Y-5.5312
X10.9812Y-5.5312
X8.5187Y-6.2812
X8.9187Y-6.2812
X8.8937Y-7.0312
X9.2937Y-7.0312
X9.6437Y-7.0312
X10.0437Y-7.0312
X5.1437Y-7.0312
X5.5438Y-7.0312
T2
X4.0312Y-5.5312
X2.1562Y-4.7812
X6.0938Y-7.0312
X5.7188Y-6.2812
X4.4062Y-7.7812
X13.5938Y-7.7812
X7.0312Y-7.7812
X12.4688Y-5.5312
X11.9062Y-7.7812
X6.6562Y-4.7812
X11.1562Y-7.7812
X4.5938Y-7.0312
X6.4688Y-6.2812
X2.9062Y-7.7812
X7.9688Y-6.2812
X6.2812Y-5.5312
X3.6562Y-4.7812
X6.8438Y-7.0312
X3.2812Y-5.5312
X9.2812Y-5.5312
X2.625Y-7.0312
X7.0312Y-5.5312
X7.2188Y-6.2812
X10.7812Y-5.5312
X8.7188Y-6.2812
X9.0938Y-7.0312
X9.8438Y-7.0312
X5.3438Y-7.0312
X11.5312Y-5.5312
X7.4062Y-4.7812
X10.9688Y-6.2812
X10.0312Y-5.5312
X3.8438Y-7.0312
X13.5938Y-4.7812
X9.4688Y-6.2812
X4.7812Y-5.5312
X2.3438Y-5.5312
X2.4375Y-6.2812
X12.0Y-7.0312
X8.1562Y-4.7812
X4.4062Y-4.7812
X14.3438Y-5.5312
X12.8438Y-7.7812
X10.5938Y-7.0312
X13.5938Y-5.5312
X11.9062Y-4.7812
X4.9688Y-6.2812
X10.2188Y-6.2812
X14.3438Y-7.7812
X9.6562Y-4.7812
X8.9062Y-4.7812
X14.3438Y-4.7812
X10.4062Y-4.7812
X5.5312Y-5.5312
X8.3438Y-7.0312
X13.5938Y-7.0312
X8.5312Y-5.5312
X12.1875Y-6.2812
X3.6562Y-7.7812
X7.7812Y-5.5312
X12.6562Y-4.7812
X4.2188Y-6.2812
X2.9062Y-4.7812
X3.4688Y-6.2812
X9.6562Y-7.7812
X5.9062Y-4.7812
X11.1562Y-4.7812
X7.5938Y-7.0312
X10.4062Y-7.7812
X5.1562Y-4.7812
X2.1562Y-7.7812
T0
M30
