%TF.GenerationSoftware,KiCad,Pcbnew,(5.1.6-0-10_14)*%
%TF.CreationDate,2020-08-01T01:29:04+08:00*%
%TF.ProjectId,K45.0,4b34352e-302e-46b6-9963-61645f706362,rev?*%
%TF.SameCoordinates,Original*%
%TF.FileFunction,Soldermask,Bot*%
%TF.FilePolarity,Negative*%
%FSLAX46Y46*%
G04 Gerber Fmt 4.6, Leading zero omitted, Abs format (unit mm)*
G04 Created by KiCad (PCBNEW (5.1.6-0-10_14)) date 2020-08-01 01:29:04*
%MOMM*%
%LPD*%
G01*
G04 APERTURE LIST*
%ADD10C,2.082800*%
%ADD11C,1.700000*%
%ADD12R,1.700000X1.700000*%
%ADD13R,1.300000X1.300000*%
G04 APERTURE END LIST*
D10*
%TO.C,B1*%
X342106250Y-151923750D03*
X344646250Y-151923750D03*
X347186250Y-151923750D03*
X349726250Y-151923750D03*
X352266250Y-151923750D03*
X354806250Y-151923750D03*
X357346250Y-151923750D03*
X359886250Y-151923750D03*
X362426250Y-151923750D03*
X364966250Y-151923750D03*
X367506250Y-151923750D03*
X370046250Y-151923750D03*
X370046250Y-167163750D03*
X367506250Y-167163750D03*
X364966250Y-167163750D03*
X362426250Y-167163750D03*
X359886250Y-167163750D03*
X357346250Y-167163750D03*
X354806250Y-167163750D03*
X352266250Y-167163750D03*
X349726250Y-167163750D03*
X347186250Y-167163750D03*
X344646250Y-167163750D03*
X342106250Y-167163750D03*
%TD*%
%TO.C,K_PGDN1*%
G36*
G01*
X359375379Y-137224076D02*
X360584303Y-135326446D01*
G75*
G02*
X362379201Y-134928526I1096409J-698489D01*
G01*
X362379201Y-134928526D01*
G75*
G02*
X362777121Y-136723424I-698489J-1096409D01*
G01*
X361568197Y-138621054D01*
G75*
G02*
X359773299Y-139018974I-1096409J698489D01*
G01*
X359773299Y-139018974D01*
G75*
G02*
X359375379Y-137224076I698489J1096409D01*
G01*
G37*
G36*
G01*
X365534536Y-135904659D02*
X365573984Y-135326002D01*
G75*
G02*
X366959394Y-134117432I1296990J-88420D01*
G01*
X366959394Y-134117432D01*
G75*
G02*
X368167964Y-135502842I-88420J-1296990D01*
G01*
X368128516Y-136081498D01*
G75*
G02*
X366743106Y-137290068I-1296990J88420D01*
G01*
X366743106Y-137290068D01*
G75*
G02*
X365534536Y-135904658I88420J1296990D01*
G01*
G37*
%TD*%
%TO.C,K_ESC1*%
G36*
G01*
X49812879Y-118174076D02*
X51021803Y-116276446D01*
G75*
G02*
X52816701Y-115878526I1096409J-698489D01*
G01*
X52816701Y-115878526D01*
G75*
G02*
X53214621Y-117673424I-698489J-1096409D01*
G01*
X52005697Y-119571054D01*
G75*
G02*
X50210799Y-119968974I-1096409J698489D01*
G01*
X50210799Y-119968974D01*
G75*
G02*
X49812879Y-118174076I698489J1096409D01*
G01*
G37*
G36*
G01*
X55972036Y-116854659D02*
X56011484Y-116276002D01*
G75*
G02*
X57396894Y-115067432I1296990J-88420D01*
G01*
X57396894Y-115067432D01*
G75*
G02*
X58605464Y-116452842I-88420J-1296990D01*
G01*
X58566016Y-117031498D01*
G75*
G02*
X57180606Y-118240068I-1296990J88420D01*
G01*
X57180606Y-118240068D01*
G75*
G02*
X55972036Y-116854658I88420J1296990D01*
G01*
G37*
%TD*%
D11*
%TO.C,D_0*%
X254793750Y-117543750D03*
D12*
X254793750Y-125343750D03*
D13*
X254793750Y-123018750D03*
X254793750Y-119868750D03*
%TD*%
D11*
%TO.C,D_1*%
X83343750Y-117543750D03*
D12*
X83343750Y-125343750D03*
D13*
X83343750Y-123018750D03*
X83343750Y-119868750D03*
%TD*%
D11*
%TO.C,D_2*%
X102393750Y-117543750D03*
D12*
X102393750Y-125343750D03*
D13*
X102393750Y-123018750D03*
X102393750Y-119868750D03*
%TD*%
D11*
%TO.C,D_3*%
X121443750Y-117543750D03*
D12*
X121443750Y-125343750D03*
D13*
X121443750Y-123018750D03*
X121443750Y-119868750D03*
%TD*%
D11*
%TO.C,D_4*%
X140493750Y-117543750D03*
D12*
X140493750Y-125343750D03*
D13*
X140493750Y-123018750D03*
X140493750Y-119868750D03*
%TD*%
D11*
%TO.C,D_5*%
X159543750Y-117543750D03*
D12*
X159543750Y-125343750D03*
D13*
X159543750Y-123018750D03*
X159543750Y-119868750D03*
%TD*%
D11*
%TO.C,D_6*%
X178593750Y-117543750D03*
D12*
X178593750Y-125343750D03*
D13*
X178593750Y-123018750D03*
X178593750Y-119868750D03*
%TD*%
D11*
%TO.C,D_7*%
X197643750Y-117543750D03*
D12*
X197643750Y-125343750D03*
D13*
X197643750Y-123018750D03*
X197643750Y-119868750D03*
%TD*%
D11*
%TO.C,D_8*%
X216693750Y-117543750D03*
D12*
X216693750Y-125343750D03*
D13*
X216693750Y-123018750D03*
X216693750Y-119868750D03*
%TD*%
D11*
%TO.C,D_9*%
X235743750Y-117543750D03*
D12*
X235743750Y-125343750D03*
D13*
X235743750Y-123018750D03*
X235743750Y-119868750D03*
%TD*%
D11*
%TO.C,D_A1*%
X97631250Y-155643750D03*
D12*
X97631250Y-163443750D03*
D13*
X97631250Y-161118750D03*
X97631250Y-157968750D03*
%TD*%
%TO.C,D_B1*%
X183356250Y-177018750D03*
X183356250Y-180168750D03*
D12*
X183356250Y-182493750D03*
D11*
X183356250Y-174693750D03*
%TD*%
%TO.C,D_backslash1*%
X326231250Y-136593750D03*
D12*
X326231250Y-144393750D03*
D13*
X326231250Y-142068750D03*
X326231250Y-138918750D03*
%TD*%
%TO.C,D_C1*%
X145256250Y-177018750D03*
X145256250Y-180168750D03*
D12*
X145256250Y-182493750D03*
D11*
X145256250Y-174693750D03*
%TD*%
%TO.C,D_CAPLK1*%
X71437500Y-155643750D03*
D12*
X71437500Y-163443750D03*
D13*
X71437500Y-161118750D03*
X71437500Y-157968750D03*
%TD*%
%TO.C,D_comma1*%
X240506250Y-177018750D03*
X240506250Y-180168750D03*
D12*
X240506250Y-182493750D03*
D11*
X240506250Y-174693750D03*
%TD*%
D13*
%TO.C,D_D1*%
X135731250Y-157968750D03*
X135731250Y-161118750D03*
D12*
X135731250Y-163443750D03*
D11*
X135731250Y-155643750D03*
%TD*%
%TO.C,D_DEL1*%
X330993750Y-117543750D03*
D12*
X330993750Y-125343750D03*
D13*
X330993750Y-123018750D03*
X330993750Y-119868750D03*
%TD*%
%TO.C,D_DN1*%
X335756250Y-196068750D03*
X335756250Y-199218750D03*
D12*
X335756250Y-201543750D03*
D11*
X335756250Y-193743750D03*
%TD*%
D13*
%TO.C,D_dot1*%
X259556250Y-177018750D03*
X259556250Y-180168750D03*
D12*
X259556250Y-182493750D03*
D11*
X259556250Y-174693750D03*
%TD*%
%TO.C,D_E1*%
X130968750Y-136593750D03*
D12*
X130968750Y-144393750D03*
D13*
X130968750Y-142068750D03*
X130968750Y-138918750D03*
%TD*%
D11*
%TO.C,D_END1*%
X335756250Y-136593750D03*
D12*
X335756250Y-144393750D03*
D13*
X335756250Y-142068750D03*
X335756250Y-138918750D03*
%TD*%
%TO.C,D_ENTER1*%
X319087500Y-157968750D03*
X319087500Y-161118750D03*
D12*
X319087500Y-163443750D03*
D11*
X319087500Y-155643750D03*
%TD*%
%TO.C,D_ESC1*%
X64293750Y-117543750D03*
D12*
X64293750Y-125343750D03*
D13*
X64293750Y-123018750D03*
X64293750Y-119868750D03*
%TD*%
%TO.C,D_F1*%
X154781250Y-157968750D03*
X154781250Y-161118750D03*
D12*
X154781250Y-163443750D03*
D11*
X154781250Y-155643750D03*
%TD*%
D13*
%TO.C,D_G1*%
X173831250Y-157968750D03*
X173831250Y-161118750D03*
D12*
X173831250Y-163443750D03*
D11*
X173831250Y-155643750D03*
%TD*%
D13*
%TO.C,D_H1*%
X192881250Y-157968750D03*
X192881250Y-161118750D03*
D12*
X192881250Y-163443750D03*
D11*
X192881250Y-155643750D03*
%TD*%
%TO.C,D_HOME1*%
X335756250Y-117543750D03*
D12*
X335756250Y-125343750D03*
D13*
X335756250Y-123018750D03*
X335756250Y-119868750D03*
%TD*%
D11*
%TO.C,D_I1*%
X226218750Y-136593750D03*
D12*
X226218750Y-144393750D03*
D13*
X226218750Y-142068750D03*
X226218750Y-138918750D03*
%TD*%
%TO.C,D_J1*%
X211931250Y-157968750D03*
X211931250Y-161118750D03*
D12*
X211931250Y-163443750D03*
D11*
X211931250Y-155643750D03*
%TD*%
D13*
%TO.C,D_K1*%
X230981250Y-157968750D03*
X230981250Y-161118750D03*
D12*
X230981250Y-163443750D03*
D11*
X230981250Y-155643750D03*
%TD*%
D13*
%TO.C,D_L1*%
X250031250Y-157968750D03*
X250031250Y-161118750D03*
D12*
X250031250Y-163443750D03*
D11*
X250031250Y-155643750D03*
%TD*%
D13*
%TO.C,D_LALT1*%
X102393750Y-196068750D03*
X102393750Y-199218750D03*
D12*
X102393750Y-201543750D03*
D11*
X102393750Y-193743750D03*
%TD*%
D13*
%TO.C,D_LCMD1*%
X121443750Y-196068750D03*
X121443750Y-199218750D03*
D12*
X121443750Y-201543750D03*
D11*
X121443750Y-193743750D03*
%TD*%
D13*
%TO.C,D_LCTRL1*%
X83343750Y-196068750D03*
X83343750Y-199218750D03*
D12*
X83343750Y-201543750D03*
D11*
X83343750Y-193743750D03*
%TD*%
%TO.C,D_leftsquare1*%
X283368750Y-136593750D03*
D12*
X283368750Y-144393750D03*
D13*
X283368750Y-142068750D03*
X283368750Y-138918750D03*
%TD*%
%TO.C,D_LFN1*%
X64293750Y-196068750D03*
X64293750Y-199218750D03*
D12*
X64293750Y-201543750D03*
D11*
X64293750Y-193743750D03*
%TD*%
D13*
%TO.C,D_LIFT1*%
X292893750Y-196068750D03*
X292893750Y-199218750D03*
D12*
X292893750Y-201543750D03*
D11*
X292893750Y-193743750D03*
%TD*%
D13*
%TO.C,D_LSHIFT1*%
X76200000Y-177018750D03*
X76200000Y-180168750D03*
D12*
X76200000Y-182493750D03*
D11*
X76200000Y-174693750D03*
%TD*%
D13*
%TO.C,D_LT1*%
X316706250Y-196068750D03*
X316706250Y-199218750D03*
D12*
X316706250Y-201543750D03*
D11*
X316706250Y-193743750D03*
%TD*%
D13*
%TO.C,D_M1*%
X221456250Y-177018750D03*
X221456250Y-180168750D03*
D12*
X221456250Y-182493750D03*
D11*
X221456250Y-174693750D03*
%TD*%
%TO.C,D_minus1*%
X273843750Y-117543750D03*
D12*
X273843750Y-125343750D03*
D13*
X273843750Y-123018750D03*
X273843750Y-119868750D03*
%TD*%
%TO.C,D_N1*%
X202406250Y-177018750D03*
X202406250Y-180168750D03*
D12*
X202406250Y-182493750D03*
D11*
X202406250Y-174693750D03*
%TD*%
%TO.C,D_O1*%
X245268750Y-136593750D03*
D12*
X245268750Y-144393750D03*
D13*
X245268750Y-142068750D03*
X245268750Y-138918750D03*
%TD*%
D11*
%TO.C,D_P1*%
X264318750Y-136593750D03*
D12*
X264318750Y-144393750D03*
D13*
X264318750Y-142068750D03*
X264318750Y-138918750D03*
%TD*%
D11*
%TO.C,D_PGDN1*%
X354806250Y-136593750D03*
D12*
X354806250Y-144393750D03*
D13*
X354806250Y-142068750D03*
X354806250Y-138918750D03*
%TD*%
D11*
%TO.C,D_PGUP1*%
X354806250Y-117543750D03*
D12*
X354806250Y-125343750D03*
D13*
X354806250Y-123018750D03*
X354806250Y-119868750D03*
%TD*%
D11*
%TO.C,D_plus1*%
X292893750Y-117543750D03*
D12*
X292893750Y-125343750D03*
D13*
X292893750Y-123018750D03*
X292893750Y-119868750D03*
%TD*%
D11*
%TO.C,D_Q1*%
X92868750Y-136593750D03*
D12*
X92868750Y-144393750D03*
D13*
X92868750Y-142068750D03*
X92868750Y-138918750D03*
%TD*%
%TO.C,D_quote1*%
X288131250Y-157968750D03*
X288131250Y-161118750D03*
D12*
X288131250Y-163443750D03*
D11*
X288131250Y-155643750D03*
%TD*%
%TO.C,D_R1*%
X150018750Y-136593750D03*
D12*
X150018750Y-144393750D03*
D13*
X150018750Y-142068750D03*
X150018750Y-138918750D03*
%TD*%
%TO.C,D_RALT1*%
X273843750Y-196068750D03*
X273843750Y-199218750D03*
D12*
X273843750Y-201543750D03*
D11*
X273843750Y-193743750D03*
%TD*%
D13*
%TO.C,D_RCMD1*%
X254793750Y-196068750D03*
X254793750Y-199218750D03*
D12*
X254793750Y-201543750D03*
D11*
X254793750Y-193743750D03*
%TD*%
D13*
%TO.C,D_RFN1*%
X311943750Y-196068750D03*
X311943750Y-199218750D03*
D12*
X311943750Y-201543750D03*
D11*
X311943750Y-193743750D03*
%TD*%
%TO.C,D_rightsquare1*%
X302418750Y-136593750D03*
D12*
X302418750Y-144393750D03*
D13*
X302418750Y-142068750D03*
X302418750Y-138918750D03*
%TD*%
%TO.C,D_RSHIFT1*%
X314325000Y-177018750D03*
X314325000Y-180168750D03*
D12*
X314325000Y-182493750D03*
D11*
X314325000Y-174693750D03*
%TD*%
D13*
%TO.C,D_RT1*%
X354806250Y-196068750D03*
X354806250Y-199218750D03*
D12*
X354806250Y-201543750D03*
D11*
X354806250Y-193743750D03*
%TD*%
D13*
%TO.C,D_S1*%
X116681250Y-157968750D03*
X116681250Y-161118750D03*
D12*
X116681250Y-163443750D03*
D11*
X116681250Y-155643750D03*
%TD*%
D13*
%TO.C,D_semicolon1*%
X269081250Y-157968750D03*
X269081250Y-161118750D03*
D12*
X269081250Y-163443750D03*
D11*
X269081250Y-155643750D03*
%TD*%
D13*
%TO.C,D_slash1*%
X278606250Y-177018750D03*
X278606250Y-180168750D03*
D12*
X278606250Y-182493750D03*
D11*
X278606250Y-174693750D03*
%TD*%
D13*
%TO.C,D_space1*%
X188118750Y-196068750D03*
X188118750Y-199218750D03*
D12*
X188118750Y-201543750D03*
D11*
X188118750Y-193743750D03*
%TD*%
%TO.C,D_T1*%
X169068750Y-136593750D03*
D12*
X169068750Y-144393750D03*
D13*
X169068750Y-142068750D03*
X169068750Y-138918750D03*
%TD*%
D11*
%TO.C,D_TAB1*%
X69056250Y-136593750D03*
D12*
X69056250Y-144393750D03*
D13*
X69056250Y-142068750D03*
X69056250Y-138918750D03*
%TD*%
D11*
%TO.C,D_tilde1*%
X311943750Y-117543750D03*
D12*
X311943750Y-125343750D03*
D13*
X311943750Y-123018750D03*
X311943750Y-119868750D03*
%TD*%
D11*
%TO.C,D_U1*%
X207168750Y-136593750D03*
D12*
X207168750Y-144393750D03*
D13*
X207168750Y-142068750D03*
X207168750Y-138918750D03*
%TD*%
%TO.C,D_UP1*%
X354806250Y-177018750D03*
X354806250Y-180168750D03*
D12*
X354806250Y-182493750D03*
D11*
X354806250Y-174693750D03*
%TD*%
D13*
%TO.C,D_V1*%
X164306250Y-177018750D03*
X164306250Y-180168750D03*
D12*
X164306250Y-182493750D03*
D11*
X164306250Y-174693750D03*
%TD*%
%TO.C,D_W1*%
X111918750Y-136593750D03*
D12*
X111918750Y-144393750D03*
D13*
X111918750Y-142068750D03*
X111918750Y-138918750D03*
%TD*%
%TO.C,D_X1*%
X126206250Y-177018750D03*
X126206250Y-180168750D03*
D12*
X126206250Y-182493750D03*
D11*
X126206250Y-174693750D03*
%TD*%
%TO.C,D_Y1*%
X188118750Y-136593750D03*
D12*
X188118750Y-144393750D03*
D13*
X188118750Y-142068750D03*
X188118750Y-138918750D03*
%TD*%
%TO.C,D_Z1*%
X107156250Y-177018750D03*
X107156250Y-180168750D03*
D12*
X107156250Y-182493750D03*
D11*
X107156250Y-174693750D03*
%TD*%
%TO.C,K_0*%
G36*
G01*
X246472036Y-116854659D02*
X246511484Y-116276002D01*
G75*
G02*
X247896894Y-115067432I1296990J-88420D01*
G01*
X247896894Y-115067432D01*
G75*
G02*
X249105464Y-116452842I-88420J-1296990D01*
G01*
X249066016Y-117031498D01*
G75*
G02*
X247680606Y-118240068I-1296990J88420D01*
G01*
X247680606Y-118240068D01*
G75*
G02*
X246472036Y-116854658I88420J1296990D01*
G01*
G37*
G36*
G01*
X240312879Y-118174076D02*
X241521803Y-116276446D01*
G75*
G02*
X243316701Y-115878526I1096409J-698489D01*
G01*
X243316701Y-115878526D01*
G75*
G02*
X243714621Y-117673424I-698489J-1096409D01*
G01*
X242505697Y-119571054D01*
G75*
G02*
X240710799Y-119968974I-1096409J698489D01*
G01*
X240710799Y-119968974D01*
G75*
G02*
X240312879Y-118174076I698489J1096409D01*
G01*
G37*
%TD*%
%TO.C,K_1*%
G36*
G01*
X75022036Y-116854659D02*
X75061484Y-116276002D01*
G75*
G02*
X76446894Y-115067432I1296990J-88420D01*
G01*
X76446894Y-115067432D01*
G75*
G02*
X77655464Y-116452842I-88420J-1296990D01*
G01*
X77616016Y-117031498D01*
G75*
G02*
X76230606Y-118240068I-1296990J88420D01*
G01*
X76230606Y-118240068D01*
G75*
G02*
X75022036Y-116854658I88420J1296990D01*
G01*
G37*
G36*
G01*
X68862879Y-118174076D02*
X70071803Y-116276446D01*
G75*
G02*
X71866701Y-115878526I1096409J-698489D01*
G01*
X71866701Y-115878526D01*
G75*
G02*
X72264621Y-117673424I-698489J-1096409D01*
G01*
X71055697Y-119571054D01*
G75*
G02*
X69260799Y-119968974I-1096409J698489D01*
G01*
X69260799Y-119968974D01*
G75*
G02*
X68862879Y-118174076I698489J1096409D01*
G01*
G37*
%TD*%
%TO.C,K_2*%
G36*
G01*
X94072036Y-116854659D02*
X94111484Y-116276002D01*
G75*
G02*
X95496894Y-115067432I1296990J-88420D01*
G01*
X95496894Y-115067432D01*
G75*
G02*
X96705464Y-116452842I-88420J-1296990D01*
G01*
X96666016Y-117031498D01*
G75*
G02*
X95280606Y-118240068I-1296990J88420D01*
G01*
X95280606Y-118240068D01*
G75*
G02*
X94072036Y-116854658I88420J1296990D01*
G01*
G37*
G36*
G01*
X87912879Y-118174076D02*
X89121803Y-116276446D01*
G75*
G02*
X90916701Y-115878526I1096409J-698489D01*
G01*
X90916701Y-115878526D01*
G75*
G02*
X91314621Y-117673424I-698489J-1096409D01*
G01*
X90105697Y-119571054D01*
G75*
G02*
X88310799Y-119968974I-1096409J698489D01*
G01*
X88310799Y-119968974D01*
G75*
G02*
X87912879Y-118174076I698489J1096409D01*
G01*
G37*
%TD*%
%TO.C,K_3*%
G36*
G01*
X113122036Y-116854659D02*
X113161484Y-116276002D01*
G75*
G02*
X114546894Y-115067432I1296990J-88420D01*
G01*
X114546894Y-115067432D01*
G75*
G02*
X115755464Y-116452842I-88420J-1296990D01*
G01*
X115716016Y-117031498D01*
G75*
G02*
X114330606Y-118240068I-1296990J88420D01*
G01*
X114330606Y-118240068D01*
G75*
G02*
X113122036Y-116854658I88420J1296990D01*
G01*
G37*
G36*
G01*
X106962879Y-118174076D02*
X108171803Y-116276446D01*
G75*
G02*
X109966701Y-115878526I1096409J-698489D01*
G01*
X109966701Y-115878526D01*
G75*
G02*
X110364621Y-117673424I-698489J-1096409D01*
G01*
X109155697Y-119571054D01*
G75*
G02*
X107360799Y-119968974I-1096409J698489D01*
G01*
X107360799Y-119968974D01*
G75*
G02*
X106962879Y-118174076I698489J1096409D01*
G01*
G37*
%TD*%
%TO.C,K_4*%
G36*
G01*
X132172036Y-116854659D02*
X132211484Y-116276002D01*
G75*
G02*
X133596894Y-115067432I1296990J-88420D01*
G01*
X133596894Y-115067432D01*
G75*
G02*
X134805464Y-116452842I-88420J-1296990D01*
G01*
X134766016Y-117031498D01*
G75*
G02*
X133380606Y-118240068I-1296990J88420D01*
G01*
X133380606Y-118240068D01*
G75*
G02*
X132172036Y-116854658I88420J1296990D01*
G01*
G37*
G36*
G01*
X126012879Y-118174076D02*
X127221803Y-116276446D01*
G75*
G02*
X129016701Y-115878526I1096409J-698489D01*
G01*
X129016701Y-115878526D01*
G75*
G02*
X129414621Y-117673424I-698489J-1096409D01*
G01*
X128205697Y-119571054D01*
G75*
G02*
X126410799Y-119968974I-1096409J698489D01*
G01*
X126410799Y-119968974D01*
G75*
G02*
X126012879Y-118174076I698489J1096409D01*
G01*
G37*
%TD*%
%TO.C,K_5*%
G36*
G01*
X151222036Y-116854659D02*
X151261484Y-116276002D01*
G75*
G02*
X152646894Y-115067432I1296990J-88420D01*
G01*
X152646894Y-115067432D01*
G75*
G02*
X153855464Y-116452842I-88420J-1296990D01*
G01*
X153816016Y-117031498D01*
G75*
G02*
X152430606Y-118240068I-1296990J88420D01*
G01*
X152430606Y-118240068D01*
G75*
G02*
X151222036Y-116854658I88420J1296990D01*
G01*
G37*
G36*
G01*
X145062879Y-118174076D02*
X146271803Y-116276446D01*
G75*
G02*
X148066701Y-115878526I1096409J-698489D01*
G01*
X148066701Y-115878526D01*
G75*
G02*
X148464621Y-117673424I-698489J-1096409D01*
G01*
X147255697Y-119571054D01*
G75*
G02*
X145460799Y-119968974I-1096409J698489D01*
G01*
X145460799Y-119968974D01*
G75*
G02*
X145062879Y-118174076I698489J1096409D01*
G01*
G37*
%TD*%
%TO.C,K_6*%
G36*
G01*
X170272036Y-116854659D02*
X170311484Y-116276002D01*
G75*
G02*
X171696894Y-115067432I1296990J-88420D01*
G01*
X171696894Y-115067432D01*
G75*
G02*
X172905464Y-116452842I-88420J-1296990D01*
G01*
X172866016Y-117031498D01*
G75*
G02*
X171480606Y-118240068I-1296990J88420D01*
G01*
X171480606Y-118240068D01*
G75*
G02*
X170272036Y-116854658I88420J1296990D01*
G01*
G37*
G36*
G01*
X164112879Y-118174076D02*
X165321803Y-116276446D01*
G75*
G02*
X167116701Y-115878526I1096409J-698489D01*
G01*
X167116701Y-115878526D01*
G75*
G02*
X167514621Y-117673424I-698489J-1096409D01*
G01*
X166305697Y-119571054D01*
G75*
G02*
X164510799Y-119968974I-1096409J698489D01*
G01*
X164510799Y-119968974D01*
G75*
G02*
X164112879Y-118174076I698489J1096409D01*
G01*
G37*
%TD*%
%TO.C,K_7*%
G36*
G01*
X189322036Y-116854659D02*
X189361484Y-116276002D01*
G75*
G02*
X190746894Y-115067432I1296990J-88420D01*
G01*
X190746894Y-115067432D01*
G75*
G02*
X191955464Y-116452842I-88420J-1296990D01*
G01*
X191916016Y-117031498D01*
G75*
G02*
X190530606Y-118240068I-1296990J88420D01*
G01*
X190530606Y-118240068D01*
G75*
G02*
X189322036Y-116854658I88420J1296990D01*
G01*
G37*
G36*
G01*
X183162879Y-118174076D02*
X184371803Y-116276446D01*
G75*
G02*
X186166701Y-115878526I1096409J-698489D01*
G01*
X186166701Y-115878526D01*
G75*
G02*
X186564621Y-117673424I-698489J-1096409D01*
G01*
X185355697Y-119571054D01*
G75*
G02*
X183560799Y-119968974I-1096409J698489D01*
G01*
X183560799Y-119968974D01*
G75*
G02*
X183162879Y-118174076I698489J1096409D01*
G01*
G37*
%TD*%
%TO.C,K_8*%
G36*
G01*
X208372036Y-116854659D02*
X208411484Y-116276002D01*
G75*
G02*
X209796894Y-115067432I1296990J-88420D01*
G01*
X209796894Y-115067432D01*
G75*
G02*
X211005464Y-116452842I-88420J-1296990D01*
G01*
X210966016Y-117031498D01*
G75*
G02*
X209580606Y-118240068I-1296990J88420D01*
G01*
X209580606Y-118240068D01*
G75*
G02*
X208372036Y-116854658I88420J1296990D01*
G01*
G37*
G36*
G01*
X202212879Y-118174076D02*
X203421803Y-116276446D01*
G75*
G02*
X205216701Y-115878526I1096409J-698489D01*
G01*
X205216701Y-115878526D01*
G75*
G02*
X205614621Y-117673424I-698489J-1096409D01*
G01*
X204405697Y-119571054D01*
G75*
G02*
X202610799Y-119968974I-1096409J698489D01*
G01*
X202610799Y-119968974D01*
G75*
G02*
X202212879Y-118174076I698489J1096409D01*
G01*
G37*
%TD*%
%TO.C,K_9*%
G36*
G01*
X227422036Y-116854659D02*
X227461484Y-116276002D01*
G75*
G02*
X228846894Y-115067432I1296990J-88420D01*
G01*
X228846894Y-115067432D01*
G75*
G02*
X230055464Y-116452842I-88420J-1296990D01*
G01*
X230016016Y-117031498D01*
G75*
G02*
X228630606Y-118240068I-1296990J88420D01*
G01*
X228630606Y-118240068D01*
G75*
G02*
X227422036Y-116854658I88420J1296990D01*
G01*
G37*
G36*
G01*
X221262879Y-118174076D02*
X222471803Y-116276446D01*
G75*
G02*
X224266701Y-115878526I1096409J-698489D01*
G01*
X224266701Y-115878526D01*
G75*
G02*
X224664621Y-117673424I-698489J-1096409D01*
G01*
X223455697Y-119571054D01*
G75*
G02*
X221660799Y-119968974I-1096409J698489D01*
G01*
X221660799Y-119968974D01*
G75*
G02*
X221262879Y-118174076I698489J1096409D01*
G01*
G37*
%TD*%
%TO.C,K_A1*%
G36*
G01*
X83150379Y-156274076D02*
X84359303Y-154376446D01*
G75*
G02*
X86154201Y-153978526I1096409J-698489D01*
G01*
X86154201Y-153978526D01*
G75*
G02*
X86552121Y-155773424I-698489J-1096409D01*
G01*
X85343197Y-157671054D01*
G75*
G02*
X83548299Y-158068974I-1096409J698489D01*
G01*
X83548299Y-158068974D01*
G75*
G02*
X83150379Y-156274076I698489J1096409D01*
G01*
G37*
G36*
G01*
X89309536Y-154954659D02*
X89348984Y-154376002D01*
G75*
G02*
X90734394Y-153167432I1296990J-88420D01*
G01*
X90734394Y-153167432D01*
G75*
G02*
X91942964Y-154552842I-88420J-1296990D01*
G01*
X91903516Y-155131498D01*
G75*
G02*
X90518106Y-156340068I-1296990J88420D01*
G01*
X90518106Y-156340068D01*
G75*
G02*
X89309536Y-154954658I88420J1296990D01*
G01*
G37*
%TD*%
%TO.C,K_B1*%
G36*
G01*
X175034536Y-174004659D02*
X175073984Y-173426002D01*
G75*
G02*
X176459394Y-172217432I1296990J-88420D01*
G01*
X176459394Y-172217432D01*
G75*
G02*
X177667964Y-173602842I-88420J-1296990D01*
G01*
X177628516Y-174181498D01*
G75*
G02*
X176243106Y-175390068I-1296990J88420D01*
G01*
X176243106Y-175390068D01*
G75*
G02*
X175034536Y-174004658I88420J1296990D01*
G01*
G37*
G36*
G01*
X168875379Y-175324076D02*
X170084303Y-173426446D01*
G75*
G02*
X171879201Y-173028526I1096409J-698489D01*
G01*
X171879201Y-173028526D01*
G75*
G02*
X172277121Y-174823424I-698489J-1096409D01*
G01*
X171068197Y-176721054D01*
G75*
G02*
X169273299Y-177118974I-1096409J698489D01*
G01*
X169273299Y-177118974D01*
G75*
G02*
X168875379Y-175324076I698489J1096409D01*
G01*
G37*
%TD*%
%TO.C,K_backslash1*%
G36*
G01*
X311750379Y-137224076D02*
X312959303Y-135326446D01*
G75*
G02*
X314754201Y-134928526I1096409J-698489D01*
G01*
X314754201Y-134928526D01*
G75*
G02*
X315152121Y-136723424I-698489J-1096409D01*
G01*
X313943197Y-138621054D01*
G75*
G02*
X312148299Y-139018974I-1096409J698489D01*
G01*
X312148299Y-139018974D01*
G75*
G02*
X311750379Y-137224076I698489J1096409D01*
G01*
G37*
G36*
G01*
X317909536Y-135904659D02*
X317948984Y-135326002D01*
G75*
G02*
X319334394Y-134117432I1296990J-88420D01*
G01*
X319334394Y-134117432D01*
G75*
G02*
X320542964Y-135502842I-88420J-1296990D01*
G01*
X320503516Y-136081498D01*
G75*
G02*
X319118106Y-137290068I-1296990J88420D01*
G01*
X319118106Y-137290068D01*
G75*
G02*
X317909536Y-135904658I88420J1296990D01*
G01*
G37*
%TD*%
%TO.C,K_C1*%
G36*
G01*
X136934536Y-174004659D02*
X136973984Y-173426002D01*
G75*
G02*
X138359394Y-172217432I1296990J-88420D01*
G01*
X138359394Y-172217432D01*
G75*
G02*
X139567964Y-173602842I-88420J-1296990D01*
G01*
X139528516Y-174181498D01*
G75*
G02*
X138143106Y-175390068I-1296990J88420D01*
G01*
X138143106Y-175390068D01*
G75*
G02*
X136934536Y-174004658I88420J1296990D01*
G01*
G37*
G36*
G01*
X130775379Y-175324076D02*
X131984303Y-173426446D01*
G75*
G02*
X133779201Y-173028526I1096409J-698489D01*
G01*
X133779201Y-173028526D01*
G75*
G02*
X134177121Y-174823424I-698489J-1096409D01*
G01*
X132968197Y-176721054D01*
G75*
G02*
X131173299Y-177118974I-1096409J698489D01*
G01*
X131173299Y-177118974D01*
G75*
G02*
X130775379Y-175324076I698489J1096409D01*
G01*
G37*
%TD*%
%TO.C,K_CAPLK1*%
G36*
G01*
X56956629Y-156274076D02*
X58165553Y-154376446D01*
G75*
G02*
X59960451Y-153978526I1096409J-698489D01*
G01*
X59960451Y-153978526D01*
G75*
G02*
X60358371Y-155773424I-698489J-1096409D01*
G01*
X59149447Y-157671054D01*
G75*
G02*
X57354549Y-158068974I-1096409J698489D01*
G01*
X57354549Y-158068974D01*
G75*
G02*
X56956629Y-156274076I698489J1096409D01*
G01*
G37*
G36*
G01*
X63115786Y-154954659D02*
X63155234Y-154376002D01*
G75*
G02*
X64540644Y-153167432I1296990J-88420D01*
G01*
X64540644Y-153167432D01*
G75*
G02*
X65749214Y-154552842I-88420J-1296990D01*
G01*
X65709766Y-155131498D01*
G75*
G02*
X64324356Y-156340068I-1296990J88420D01*
G01*
X64324356Y-156340068D01*
G75*
G02*
X63115786Y-154954658I88420J1296990D01*
G01*
G37*
%TD*%
%TO.C,K_comma1*%
G36*
G01*
X232184536Y-174004659D02*
X232223984Y-173426002D01*
G75*
G02*
X233609394Y-172217432I1296990J-88420D01*
G01*
X233609394Y-172217432D01*
G75*
G02*
X234817964Y-173602842I-88420J-1296990D01*
G01*
X234778516Y-174181498D01*
G75*
G02*
X233393106Y-175390068I-1296990J88420D01*
G01*
X233393106Y-175390068D01*
G75*
G02*
X232184536Y-174004658I88420J1296990D01*
G01*
G37*
G36*
G01*
X226025379Y-175324076D02*
X227234303Y-173426446D01*
G75*
G02*
X229029201Y-173028526I1096409J-698489D01*
G01*
X229029201Y-173028526D01*
G75*
G02*
X229427121Y-174823424I-698489J-1096409D01*
G01*
X228218197Y-176721054D01*
G75*
G02*
X226423299Y-177118974I-1096409J698489D01*
G01*
X226423299Y-177118974D01*
G75*
G02*
X226025379Y-175324076I698489J1096409D01*
G01*
G37*
%TD*%
%TO.C,K_D1*%
G36*
G01*
X127409536Y-154954659D02*
X127448984Y-154376002D01*
G75*
G02*
X128834394Y-153167432I1296990J-88420D01*
G01*
X128834394Y-153167432D01*
G75*
G02*
X130042964Y-154552842I-88420J-1296990D01*
G01*
X130003516Y-155131498D01*
G75*
G02*
X128618106Y-156340068I-1296990J88420D01*
G01*
X128618106Y-156340068D01*
G75*
G02*
X127409536Y-154954658I88420J1296990D01*
G01*
G37*
G36*
G01*
X121250379Y-156274076D02*
X122459303Y-154376446D01*
G75*
G02*
X124254201Y-153978526I1096409J-698489D01*
G01*
X124254201Y-153978526D01*
G75*
G02*
X124652121Y-155773424I-698489J-1096409D01*
G01*
X123443197Y-157671054D01*
G75*
G02*
X121648299Y-158068974I-1096409J698489D01*
G01*
X121648299Y-158068974D01*
G75*
G02*
X121250379Y-156274076I698489J1096409D01*
G01*
G37*
%TD*%
%TO.C,K_DEL1*%
G36*
G01*
X316512879Y-118174076D02*
X317721803Y-116276446D01*
G75*
G02*
X319516701Y-115878526I1096409J-698489D01*
G01*
X319516701Y-115878526D01*
G75*
G02*
X319914621Y-117673424I-698489J-1096409D01*
G01*
X318705697Y-119571054D01*
G75*
G02*
X316910799Y-119968974I-1096409J698489D01*
G01*
X316910799Y-119968974D01*
G75*
G02*
X316512879Y-118174076I698489J1096409D01*
G01*
G37*
G36*
G01*
X322672036Y-116854659D02*
X322711484Y-116276002D01*
G75*
G02*
X324096894Y-115067432I1296990J-88420D01*
G01*
X324096894Y-115067432D01*
G75*
G02*
X325305464Y-116452842I-88420J-1296990D01*
G01*
X325266016Y-117031498D01*
G75*
G02*
X323880606Y-118240068I-1296990J88420D01*
G01*
X323880606Y-118240068D01*
G75*
G02*
X322672036Y-116854658I88420J1296990D01*
G01*
G37*
%TD*%
%TO.C,K_DN1*%
G36*
G01*
X340325379Y-194374076D02*
X341534303Y-192476446D01*
G75*
G02*
X343329201Y-192078526I1096409J-698489D01*
G01*
X343329201Y-192078526D01*
G75*
G02*
X343727121Y-193873424I-698489J-1096409D01*
G01*
X342518197Y-195771054D01*
G75*
G02*
X340723299Y-196168974I-1096409J698489D01*
G01*
X340723299Y-196168974D01*
G75*
G02*
X340325379Y-194374076I698489J1096409D01*
G01*
G37*
G36*
G01*
X346484536Y-193054659D02*
X346523984Y-192476002D01*
G75*
G02*
X347909394Y-191267432I1296990J-88420D01*
G01*
X347909394Y-191267432D01*
G75*
G02*
X349117964Y-192652842I-88420J-1296990D01*
G01*
X349078516Y-193231498D01*
G75*
G02*
X347693106Y-194440068I-1296990J88420D01*
G01*
X347693106Y-194440068D01*
G75*
G02*
X346484536Y-193054658I88420J1296990D01*
G01*
G37*
%TD*%
%TO.C,K_dot1*%
G36*
G01*
X251234536Y-174004659D02*
X251273984Y-173426002D01*
G75*
G02*
X252659394Y-172217432I1296990J-88420D01*
G01*
X252659394Y-172217432D01*
G75*
G02*
X253867964Y-173602842I-88420J-1296990D01*
G01*
X253828516Y-174181498D01*
G75*
G02*
X252443106Y-175390068I-1296990J88420D01*
G01*
X252443106Y-175390068D01*
G75*
G02*
X251234536Y-174004658I88420J1296990D01*
G01*
G37*
G36*
G01*
X245075379Y-175324076D02*
X246284303Y-173426446D01*
G75*
G02*
X248079201Y-173028526I1096409J-698489D01*
G01*
X248079201Y-173028526D01*
G75*
G02*
X248477121Y-174823424I-698489J-1096409D01*
G01*
X247268197Y-176721054D01*
G75*
G02*
X245473299Y-177118974I-1096409J698489D01*
G01*
X245473299Y-177118974D01*
G75*
G02*
X245075379Y-175324076I698489J1096409D01*
G01*
G37*
%TD*%
%TO.C,K_E1*%
G36*
G01*
X116487879Y-137224076D02*
X117696803Y-135326446D01*
G75*
G02*
X119491701Y-134928526I1096409J-698489D01*
G01*
X119491701Y-134928526D01*
G75*
G02*
X119889621Y-136723424I-698489J-1096409D01*
G01*
X118680697Y-138621054D01*
G75*
G02*
X116885799Y-139018974I-1096409J698489D01*
G01*
X116885799Y-139018974D01*
G75*
G02*
X116487879Y-137224076I698489J1096409D01*
G01*
G37*
G36*
G01*
X122647036Y-135904659D02*
X122686484Y-135326002D01*
G75*
G02*
X124071894Y-134117432I1296990J-88420D01*
G01*
X124071894Y-134117432D01*
G75*
G02*
X125280464Y-135502842I-88420J-1296990D01*
G01*
X125241016Y-136081498D01*
G75*
G02*
X123855606Y-137290068I-1296990J88420D01*
G01*
X123855606Y-137290068D01*
G75*
G02*
X122647036Y-135904658I88420J1296990D01*
G01*
G37*
%TD*%
%TO.C,K_END1*%
G36*
G01*
X340325379Y-137224076D02*
X341534303Y-135326446D01*
G75*
G02*
X343329201Y-134928526I1096409J-698489D01*
G01*
X343329201Y-134928526D01*
G75*
G02*
X343727121Y-136723424I-698489J-1096409D01*
G01*
X342518197Y-138621054D01*
G75*
G02*
X340723299Y-139018974I-1096409J698489D01*
G01*
X340723299Y-139018974D01*
G75*
G02*
X340325379Y-137224076I698489J1096409D01*
G01*
G37*
G36*
G01*
X346484536Y-135904659D02*
X346523984Y-135326002D01*
G75*
G02*
X347909394Y-134117432I1296990J-88420D01*
G01*
X347909394Y-134117432D01*
G75*
G02*
X349117964Y-135502842I-88420J-1296990D01*
G01*
X349078516Y-136081498D01*
G75*
G02*
X347693106Y-137290068I-1296990J88420D01*
G01*
X347693106Y-137290068D01*
G75*
G02*
X346484536Y-135904658I88420J1296990D01*
G01*
G37*
%TD*%
%TO.C,K_ENTER1*%
G36*
G01*
X310765786Y-154954659D02*
X310805234Y-154376002D01*
G75*
G02*
X312190644Y-153167432I1296990J-88420D01*
G01*
X312190644Y-153167432D01*
G75*
G02*
X313399214Y-154552842I-88420J-1296990D01*
G01*
X313359766Y-155131498D01*
G75*
G02*
X311974356Y-156340068I-1296990J88420D01*
G01*
X311974356Y-156340068D01*
G75*
G02*
X310765786Y-154954658I88420J1296990D01*
G01*
G37*
G36*
G01*
X304606629Y-156274076D02*
X305815553Y-154376446D01*
G75*
G02*
X307610451Y-153978526I1096409J-698489D01*
G01*
X307610451Y-153978526D01*
G75*
G02*
X308008371Y-155773424I-698489J-1096409D01*
G01*
X306799447Y-157671054D01*
G75*
G02*
X305004549Y-158068974I-1096409J698489D01*
G01*
X305004549Y-158068974D01*
G75*
G02*
X304606629Y-156274076I698489J1096409D01*
G01*
G37*
%TD*%
%TO.C,K_F1*%
G36*
G01*
X146459536Y-154954659D02*
X146498984Y-154376002D01*
G75*
G02*
X147884394Y-153167432I1296990J-88420D01*
G01*
X147884394Y-153167432D01*
G75*
G02*
X149092964Y-154552842I-88420J-1296990D01*
G01*
X149053516Y-155131498D01*
G75*
G02*
X147668106Y-156340068I-1296990J88420D01*
G01*
X147668106Y-156340068D01*
G75*
G02*
X146459536Y-154954658I88420J1296990D01*
G01*
G37*
G36*
G01*
X140300379Y-156274076D02*
X141509303Y-154376446D01*
G75*
G02*
X143304201Y-153978526I1096409J-698489D01*
G01*
X143304201Y-153978526D01*
G75*
G02*
X143702121Y-155773424I-698489J-1096409D01*
G01*
X142493197Y-157671054D01*
G75*
G02*
X140698299Y-158068974I-1096409J698489D01*
G01*
X140698299Y-158068974D01*
G75*
G02*
X140300379Y-156274076I698489J1096409D01*
G01*
G37*
%TD*%
%TO.C,K_G1*%
G36*
G01*
X165509536Y-154954659D02*
X165548984Y-154376002D01*
G75*
G02*
X166934394Y-153167432I1296990J-88420D01*
G01*
X166934394Y-153167432D01*
G75*
G02*
X168142964Y-154552842I-88420J-1296990D01*
G01*
X168103516Y-155131498D01*
G75*
G02*
X166718106Y-156340068I-1296990J88420D01*
G01*
X166718106Y-156340068D01*
G75*
G02*
X165509536Y-154954658I88420J1296990D01*
G01*
G37*
G36*
G01*
X159350379Y-156274076D02*
X160559303Y-154376446D01*
G75*
G02*
X162354201Y-153978526I1096409J-698489D01*
G01*
X162354201Y-153978526D01*
G75*
G02*
X162752121Y-155773424I-698489J-1096409D01*
G01*
X161543197Y-157671054D01*
G75*
G02*
X159748299Y-158068974I-1096409J698489D01*
G01*
X159748299Y-158068974D01*
G75*
G02*
X159350379Y-156274076I698489J1096409D01*
G01*
G37*
%TD*%
%TO.C,K_H1*%
G36*
G01*
X184559536Y-154954659D02*
X184598984Y-154376002D01*
G75*
G02*
X185984394Y-153167432I1296990J-88420D01*
G01*
X185984394Y-153167432D01*
G75*
G02*
X187192964Y-154552842I-88420J-1296990D01*
G01*
X187153516Y-155131498D01*
G75*
G02*
X185768106Y-156340068I-1296990J88420D01*
G01*
X185768106Y-156340068D01*
G75*
G02*
X184559536Y-154954658I88420J1296990D01*
G01*
G37*
G36*
G01*
X178400379Y-156274076D02*
X179609303Y-154376446D01*
G75*
G02*
X181404201Y-153978526I1096409J-698489D01*
G01*
X181404201Y-153978526D01*
G75*
G02*
X181802121Y-155773424I-698489J-1096409D01*
G01*
X180593197Y-157671054D01*
G75*
G02*
X178798299Y-158068974I-1096409J698489D01*
G01*
X178798299Y-158068974D01*
G75*
G02*
X178400379Y-156274076I698489J1096409D01*
G01*
G37*
%TD*%
%TO.C,K_HOME1*%
G36*
G01*
X340325379Y-118174076D02*
X341534303Y-116276446D01*
G75*
G02*
X343329201Y-115878526I1096409J-698489D01*
G01*
X343329201Y-115878526D01*
G75*
G02*
X343727121Y-117673424I-698489J-1096409D01*
G01*
X342518197Y-119571054D01*
G75*
G02*
X340723299Y-119968974I-1096409J698489D01*
G01*
X340723299Y-119968974D01*
G75*
G02*
X340325379Y-118174076I698489J1096409D01*
G01*
G37*
G36*
G01*
X346484536Y-116854659D02*
X346523984Y-116276002D01*
G75*
G02*
X347909394Y-115067432I1296990J-88420D01*
G01*
X347909394Y-115067432D01*
G75*
G02*
X349117964Y-116452842I-88420J-1296990D01*
G01*
X349078516Y-117031498D01*
G75*
G02*
X347693106Y-118240068I-1296990J88420D01*
G01*
X347693106Y-118240068D01*
G75*
G02*
X346484536Y-116854658I88420J1296990D01*
G01*
G37*
%TD*%
%TO.C,K_I1*%
G36*
G01*
X211737879Y-137224076D02*
X212946803Y-135326446D01*
G75*
G02*
X214741701Y-134928526I1096409J-698489D01*
G01*
X214741701Y-134928526D01*
G75*
G02*
X215139621Y-136723424I-698489J-1096409D01*
G01*
X213930697Y-138621054D01*
G75*
G02*
X212135799Y-139018974I-1096409J698489D01*
G01*
X212135799Y-139018974D01*
G75*
G02*
X211737879Y-137224076I698489J1096409D01*
G01*
G37*
G36*
G01*
X217897036Y-135904659D02*
X217936484Y-135326002D01*
G75*
G02*
X219321894Y-134117432I1296990J-88420D01*
G01*
X219321894Y-134117432D01*
G75*
G02*
X220530464Y-135502842I-88420J-1296990D01*
G01*
X220491016Y-136081498D01*
G75*
G02*
X219105606Y-137290068I-1296990J88420D01*
G01*
X219105606Y-137290068D01*
G75*
G02*
X217897036Y-135904658I88420J1296990D01*
G01*
G37*
%TD*%
%TO.C,K_J1*%
G36*
G01*
X203609536Y-154954659D02*
X203648984Y-154376002D01*
G75*
G02*
X205034394Y-153167432I1296990J-88420D01*
G01*
X205034394Y-153167432D01*
G75*
G02*
X206242964Y-154552842I-88420J-1296990D01*
G01*
X206203516Y-155131498D01*
G75*
G02*
X204818106Y-156340068I-1296990J88420D01*
G01*
X204818106Y-156340068D01*
G75*
G02*
X203609536Y-154954658I88420J1296990D01*
G01*
G37*
G36*
G01*
X197450379Y-156274076D02*
X198659303Y-154376446D01*
G75*
G02*
X200454201Y-153978526I1096409J-698489D01*
G01*
X200454201Y-153978526D01*
G75*
G02*
X200852121Y-155773424I-698489J-1096409D01*
G01*
X199643197Y-157671054D01*
G75*
G02*
X197848299Y-158068974I-1096409J698489D01*
G01*
X197848299Y-158068974D01*
G75*
G02*
X197450379Y-156274076I698489J1096409D01*
G01*
G37*
%TD*%
%TO.C,K_K1*%
G36*
G01*
X222659536Y-154954659D02*
X222698984Y-154376002D01*
G75*
G02*
X224084394Y-153167432I1296990J-88420D01*
G01*
X224084394Y-153167432D01*
G75*
G02*
X225292964Y-154552842I-88420J-1296990D01*
G01*
X225253516Y-155131498D01*
G75*
G02*
X223868106Y-156340068I-1296990J88420D01*
G01*
X223868106Y-156340068D01*
G75*
G02*
X222659536Y-154954658I88420J1296990D01*
G01*
G37*
G36*
G01*
X216500379Y-156274076D02*
X217709303Y-154376446D01*
G75*
G02*
X219504201Y-153978526I1096409J-698489D01*
G01*
X219504201Y-153978526D01*
G75*
G02*
X219902121Y-155773424I-698489J-1096409D01*
G01*
X218693197Y-157671054D01*
G75*
G02*
X216898299Y-158068974I-1096409J698489D01*
G01*
X216898299Y-158068974D01*
G75*
G02*
X216500379Y-156274076I698489J1096409D01*
G01*
G37*
%TD*%
%TO.C,K_L1*%
G36*
G01*
X241709536Y-154954659D02*
X241748984Y-154376002D01*
G75*
G02*
X243134394Y-153167432I1296990J-88420D01*
G01*
X243134394Y-153167432D01*
G75*
G02*
X244342964Y-154552842I-88420J-1296990D01*
G01*
X244303516Y-155131498D01*
G75*
G02*
X242918106Y-156340068I-1296990J88420D01*
G01*
X242918106Y-156340068D01*
G75*
G02*
X241709536Y-154954658I88420J1296990D01*
G01*
G37*
G36*
G01*
X235550379Y-156274076D02*
X236759303Y-154376446D01*
G75*
G02*
X238554201Y-153978526I1096409J-698489D01*
G01*
X238554201Y-153978526D01*
G75*
G02*
X238952121Y-155773424I-698489J-1096409D01*
G01*
X237743197Y-157671054D01*
G75*
G02*
X235948299Y-158068974I-1096409J698489D01*
G01*
X235948299Y-158068974D01*
G75*
G02*
X235550379Y-156274076I698489J1096409D01*
G01*
G37*
%TD*%
%TO.C,K_LALT1*%
G36*
G01*
X87912879Y-194374076D02*
X89121803Y-192476446D01*
G75*
G02*
X90916701Y-192078526I1096409J-698489D01*
G01*
X90916701Y-192078526D01*
G75*
G02*
X91314621Y-193873424I-698489J-1096409D01*
G01*
X90105697Y-195771054D01*
G75*
G02*
X88310799Y-196168974I-1096409J698489D01*
G01*
X88310799Y-196168974D01*
G75*
G02*
X87912879Y-194374076I698489J1096409D01*
G01*
G37*
G36*
G01*
X94072036Y-193054659D02*
X94111484Y-192476002D01*
G75*
G02*
X95496894Y-191267432I1296990J-88420D01*
G01*
X95496894Y-191267432D01*
G75*
G02*
X96705464Y-192652842I-88420J-1296990D01*
G01*
X96666016Y-193231498D01*
G75*
G02*
X95280606Y-194440068I-1296990J88420D01*
G01*
X95280606Y-194440068D01*
G75*
G02*
X94072036Y-193054658I88420J1296990D01*
G01*
G37*
%TD*%
%TO.C,K_LCMD1*%
G36*
G01*
X106962879Y-194374076D02*
X108171803Y-192476446D01*
G75*
G02*
X109966701Y-192078526I1096409J-698489D01*
G01*
X109966701Y-192078526D01*
G75*
G02*
X110364621Y-193873424I-698489J-1096409D01*
G01*
X109155697Y-195771054D01*
G75*
G02*
X107360799Y-196168974I-1096409J698489D01*
G01*
X107360799Y-196168974D01*
G75*
G02*
X106962879Y-194374076I698489J1096409D01*
G01*
G37*
G36*
G01*
X113122036Y-193054659D02*
X113161484Y-192476002D01*
G75*
G02*
X114546894Y-191267432I1296990J-88420D01*
G01*
X114546894Y-191267432D01*
G75*
G02*
X115755464Y-192652842I-88420J-1296990D01*
G01*
X115716016Y-193231498D01*
G75*
G02*
X114330606Y-194440068I-1296990J88420D01*
G01*
X114330606Y-194440068D01*
G75*
G02*
X113122036Y-193054658I88420J1296990D01*
G01*
G37*
%TD*%
%TO.C,K_LCTRL1*%
G36*
G01*
X68862879Y-194374076D02*
X70071803Y-192476446D01*
G75*
G02*
X71866701Y-192078526I1096409J-698489D01*
G01*
X71866701Y-192078526D01*
G75*
G02*
X72264621Y-193873424I-698489J-1096409D01*
G01*
X71055697Y-195771054D01*
G75*
G02*
X69260799Y-196168974I-1096409J698489D01*
G01*
X69260799Y-196168974D01*
G75*
G02*
X68862879Y-194374076I698489J1096409D01*
G01*
G37*
G36*
G01*
X75022036Y-193054659D02*
X75061484Y-192476002D01*
G75*
G02*
X76446894Y-191267432I1296990J-88420D01*
G01*
X76446894Y-191267432D01*
G75*
G02*
X77655464Y-192652842I-88420J-1296990D01*
G01*
X77616016Y-193231498D01*
G75*
G02*
X76230606Y-194440068I-1296990J88420D01*
G01*
X76230606Y-194440068D01*
G75*
G02*
X75022036Y-193054658I88420J1296990D01*
G01*
G37*
%TD*%
%TO.C,K_leftsquare1*%
G36*
G01*
X268887879Y-137224076D02*
X270096803Y-135326446D01*
G75*
G02*
X271891701Y-134928526I1096409J-698489D01*
G01*
X271891701Y-134928526D01*
G75*
G02*
X272289621Y-136723424I-698489J-1096409D01*
G01*
X271080697Y-138621054D01*
G75*
G02*
X269285799Y-139018974I-1096409J698489D01*
G01*
X269285799Y-139018974D01*
G75*
G02*
X268887879Y-137224076I698489J1096409D01*
G01*
G37*
G36*
G01*
X275047036Y-135904659D02*
X275086484Y-135326002D01*
G75*
G02*
X276471894Y-134117432I1296990J-88420D01*
G01*
X276471894Y-134117432D01*
G75*
G02*
X277680464Y-135502842I-88420J-1296990D01*
G01*
X277641016Y-136081498D01*
G75*
G02*
X276255606Y-137290068I-1296990J88420D01*
G01*
X276255606Y-137290068D01*
G75*
G02*
X275047036Y-135904658I88420J1296990D01*
G01*
G37*
%TD*%
%TO.C,K_LFN1*%
G36*
G01*
X49812879Y-194374076D02*
X51021803Y-192476446D01*
G75*
G02*
X52816701Y-192078526I1096409J-698489D01*
G01*
X52816701Y-192078526D01*
G75*
G02*
X53214621Y-193873424I-698489J-1096409D01*
G01*
X52005697Y-195771054D01*
G75*
G02*
X50210799Y-196168974I-1096409J698489D01*
G01*
X50210799Y-196168974D01*
G75*
G02*
X49812879Y-194374076I698489J1096409D01*
G01*
G37*
G36*
G01*
X55972036Y-193054659D02*
X56011484Y-192476002D01*
G75*
G02*
X57396894Y-191267432I1296990J-88420D01*
G01*
X57396894Y-191267432D01*
G75*
G02*
X58605464Y-192652842I-88420J-1296990D01*
G01*
X58566016Y-193231498D01*
G75*
G02*
X57180606Y-194440068I-1296990J88420D01*
G01*
X57180606Y-194440068D01*
G75*
G02*
X55972036Y-193054658I88420J1296990D01*
G01*
G37*
%TD*%
%TO.C,K_LIFT1*%
G36*
G01*
X278412879Y-194374076D02*
X279621803Y-192476446D01*
G75*
G02*
X281416701Y-192078526I1096409J-698489D01*
G01*
X281416701Y-192078526D01*
G75*
G02*
X281814621Y-193873424I-698489J-1096409D01*
G01*
X280605697Y-195771054D01*
G75*
G02*
X278810799Y-196168974I-1096409J698489D01*
G01*
X278810799Y-196168974D01*
G75*
G02*
X278412879Y-194374076I698489J1096409D01*
G01*
G37*
G36*
G01*
X284572036Y-193054659D02*
X284611484Y-192476002D01*
G75*
G02*
X285996894Y-191267432I1296990J-88420D01*
G01*
X285996894Y-191267432D01*
G75*
G02*
X287205464Y-192652842I-88420J-1296990D01*
G01*
X287166016Y-193231498D01*
G75*
G02*
X285780606Y-194440068I-1296990J88420D01*
G01*
X285780606Y-194440068D01*
G75*
G02*
X284572036Y-193054658I88420J1296990D01*
G01*
G37*
%TD*%
%TO.C,K_LSHIFT1*%
G36*
G01*
X67878286Y-174004659D02*
X67917734Y-173426002D01*
G75*
G02*
X69303144Y-172217432I1296990J-88420D01*
G01*
X69303144Y-172217432D01*
G75*
G02*
X70511714Y-173602842I-88420J-1296990D01*
G01*
X70472266Y-174181498D01*
G75*
G02*
X69086856Y-175390068I-1296990J88420D01*
G01*
X69086856Y-175390068D01*
G75*
G02*
X67878286Y-174004658I88420J1296990D01*
G01*
G37*
G36*
G01*
X61719129Y-175324076D02*
X62928053Y-173426446D01*
G75*
G02*
X64722951Y-173028526I1096409J-698489D01*
G01*
X64722951Y-173028526D01*
G75*
G02*
X65120871Y-174823424I-698489J-1096409D01*
G01*
X63911947Y-176721054D01*
G75*
G02*
X62117049Y-177118974I-1096409J698489D01*
G01*
X62117049Y-177118974D01*
G75*
G02*
X61719129Y-175324076I698489J1096409D01*
G01*
G37*
%TD*%
%TO.C,K_LT1*%
G36*
G01*
X321275379Y-194374076D02*
X322484303Y-192476446D01*
G75*
G02*
X324279201Y-192078526I1096409J-698489D01*
G01*
X324279201Y-192078526D01*
G75*
G02*
X324677121Y-193873424I-698489J-1096409D01*
G01*
X323468197Y-195771054D01*
G75*
G02*
X321673299Y-196168974I-1096409J698489D01*
G01*
X321673299Y-196168974D01*
G75*
G02*
X321275379Y-194374076I698489J1096409D01*
G01*
G37*
G36*
G01*
X327434536Y-193054659D02*
X327473984Y-192476002D01*
G75*
G02*
X328859394Y-191267432I1296990J-88420D01*
G01*
X328859394Y-191267432D01*
G75*
G02*
X330067964Y-192652842I-88420J-1296990D01*
G01*
X330028516Y-193231498D01*
G75*
G02*
X328643106Y-194440068I-1296990J88420D01*
G01*
X328643106Y-194440068D01*
G75*
G02*
X327434536Y-193054658I88420J1296990D01*
G01*
G37*
%TD*%
%TO.C,K_M1*%
G36*
G01*
X213134536Y-174004659D02*
X213173984Y-173426002D01*
G75*
G02*
X214559394Y-172217432I1296990J-88420D01*
G01*
X214559394Y-172217432D01*
G75*
G02*
X215767964Y-173602842I-88420J-1296990D01*
G01*
X215728516Y-174181498D01*
G75*
G02*
X214343106Y-175390068I-1296990J88420D01*
G01*
X214343106Y-175390068D01*
G75*
G02*
X213134536Y-174004658I88420J1296990D01*
G01*
G37*
G36*
G01*
X206975379Y-175324076D02*
X208184303Y-173426446D01*
G75*
G02*
X209979201Y-173028526I1096409J-698489D01*
G01*
X209979201Y-173028526D01*
G75*
G02*
X210377121Y-174823424I-698489J-1096409D01*
G01*
X209168197Y-176721054D01*
G75*
G02*
X207373299Y-177118974I-1096409J698489D01*
G01*
X207373299Y-177118974D01*
G75*
G02*
X206975379Y-175324076I698489J1096409D01*
G01*
G37*
%TD*%
%TO.C,K_minus1*%
G36*
G01*
X265522036Y-116854659D02*
X265561484Y-116276002D01*
G75*
G02*
X266946894Y-115067432I1296990J-88420D01*
G01*
X266946894Y-115067432D01*
G75*
G02*
X268155464Y-116452842I-88420J-1296990D01*
G01*
X268116016Y-117031498D01*
G75*
G02*
X266730606Y-118240068I-1296990J88420D01*
G01*
X266730606Y-118240068D01*
G75*
G02*
X265522036Y-116854658I88420J1296990D01*
G01*
G37*
G36*
G01*
X259362879Y-118174076D02*
X260571803Y-116276446D01*
G75*
G02*
X262366701Y-115878526I1096409J-698489D01*
G01*
X262366701Y-115878526D01*
G75*
G02*
X262764621Y-117673424I-698489J-1096409D01*
G01*
X261555697Y-119571054D01*
G75*
G02*
X259760799Y-119968974I-1096409J698489D01*
G01*
X259760799Y-119968974D01*
G75*
G02*
X259362879Y-118174076I698489J1096409D01*
G01*
G37*
%TD*%
%TO.C,K_N1*%
G36*
G01*
X194084536Y-174004659D02*
X194123984Y-173426002D01*
G75*
G02*
X195509394Y-172217432I1296990J-88420D01*
G01*
X195509394Y-172217432D01*
G75*
G02*
X196717964Y-173602842I-88420J-1296990D01*
G01*
X196678516Y-174181498D01*
G75*
G02*
X195293106Y-175390068I-1296990J88420D01*
G01*
X195293106Y-175390068D01*
G75*
G02*
X194084536Y-174004658I88420J1296990D01*
G01*
G37*
G36*
G01*
X187925379Y-175324076D02*
X189134303Y-173426446D01*
G75*
G02*
X190929201Y-173028526I1096409J-698489D01*
G01*
X190929201Y-173028526D01*
G75*
G02*
X191327121Y-174823424I-698489J-1096409D01*
G01*
X190118197Y-176721054D01*
G75*
G02*
X188323299Y-177118974I-1096409J698489D01*
G01*
X188323299Y-177118974D01*
G75*
G02*
X187925379Y-175324076I698489J1096409D01*
G01*
G37*
%TD*%
%TO.C,K_O1*%
G36*
G01*
X230787879Y-137224076D02*
X231996803Y-135326446D01*
G75*
G02*
X233791701Y-134928526I1096409J-698489D01*
G01*
X233791701Y-134928526D01*
G75*
G02*
X234189621Y-136723424I-698489J-1096409D01*
G01*
X232980697Y-138621054D01*
G75*
G02*
X231185799Y-139018974I-1096409J698489D01*
G01*
X231185799Y-139018974D01*
G75*
G02*
X230787879Y-137224076I698489J1096409D01*
G01*
G37*
G36*
G01*
X236947036Y-135904659D02*
X236986484Y-135326002D01*
G75*
G02*
X238371894Y-134117432I1296990J-88420D01*
G01*
X238371894Y-134117432D01*
G75*
G02*
X239580464Y-135502842I-88420J-1296990D01*
G01*
X239541016Y-136081498D01*
G75*
G02*
X238155606Y-137290068I-1296990J88420D01*
G01*
X238155606Y-137290068D01*
G75*
G02*
X236947036Y-135904658I88420J1296990D01*
G01*
G37*
%TD*%
%TO.C,K_P1*%
G36*
G01*
X249837879Y-137224076D02*
X251046803Y-135326446D01*
G75*
G02*
X252841701Y-134928526I1096409J-698489D01*
G01*
X252841701Y-134928526D01*
G75*
G02*
X253239621Y-136723424I-698489J-1096409D01*
G01*
X252030697Y-138621054D01*
G75*
G02*
X250235799Y-139018974I-1096409J698489D01*
G01*
X250235799Y-139018974D01*
G75*
G02*
X249837879Y-137224076I698489J1096409D01*
G01*
G37*
G36*
G01*
X255997036Y-135904659D02*
X256036484Y-135326002D01*
G75*
G02*
X257421894Y-134117432I1296990J-88420D01*
G01*
X257421894Y-134117432D01*
G75*
G02*
X258630464Y-135502842I-88420J-1296990D01*
G01*
X258591016Y-136081498D01*
G75*
G02*
X257205606Y-137290068I-1296990J88420D01*
G01*
X257205606Y-137290068D01*
G75*
G02*
X255997036Y-135904658I88420J1296990D01*
G01*
G37*
%TD*%
%TO.C,K_PGUP1*%
G36*
G01*
X359375379Y-118174076D02*
X360584303Y-116276446D01*
G75*
G02*
X362379201Y-115878526I1096409J-698489D01*
G01*
X362379201Y-115878526D01*
G75*
G02*
X362777121Y-117673424I-698489J-1096409D01*
G01*
X361568197Y-119571054D01*
G75*
G02*
X359773299Y-119968974I-1096409J698489D01*
G01*
X359773299Y-119968974D01*
G75*
G02*
X359375379Y-118174076I698489J1096409D01*
G01*
G37*
G36*
G01*
X365534536Y-116854659D02*
X365573984Y-116276002D01*
G75*
G02*
X366959394Y-115067432I1296990J-88420D01*
G01*
X366959394Y-115067432D01*
G75*
G02*
X368167964Y-116452842I-88420J-1296990D01*
G01*
X368128516Y-117031498D01*
G75*
G02*
X366743106Y-118240068I-1296990J88420D01*
G01*
X366743106Y-118240068D01*
G75*
G02*
X365534536Y-116854658I88420J1296990D01*
G01*
G37*
%TD*%
%TO.C,K_plus1*%
G36*
G01*
X284572036Y-116854659D02*
X284611484Y-116276002D01*
G75*
G02*
X285996894Y-115067432I1296990J-88420D01*
G01*
X285996894Y-115067432D01*
G75*
G02*
X287205464Y-116452842I-88420J-1296990D01*
G01*
X287166016Y-117031498D01*
G75*
G02*
X285780606Y-118240068I-1296990J88420D01*
G01*
X285780606Y-118240068D01*
G75*
G02*
X284572036Y-116854658I88420J1296990D01*
G01*
G37*
G36*
G01*
X278412879Y-118174076D02*
X279621803Y-116276446D01*
G75*
G02*
X281416701Y-115878526I1096409J-698489D01*
G01*
X281416701Y-115878526D01*
G75*
G02*
X281814621Y-117673424I-698489J-1096409D01*
G01*
X280605697Y-119571054D01*
G75*
G02*
X278810799Y-119968974I-1096409J698489D01*
G01*
X278810799Y-119968974D01*
G75*
G02*
X278412879Y-118174076I698489J1096409D01*
G01*
G37*
%TD*%
%TO.C,K_Q1*%
G36*
G01*
X78387879Y-137224076D02*
X79596803Y-135326446D01*
G75*
G02*
X81391701Y-134928526I1096409J-698489D01*
G01*
X81391701Y-134928526D01*
G75*
G02*
X81789621Y-136723424I-698489J-1096409D01*
G01*
X80580697Y-138621054D01*
G75*
G02*
X78785799Y-139018974I-1096409J698489D01*
G01*
X78785799Y-139018974D01*
G75*
G02*
X78387879Y-137224076I698489J1096409D01*
G01*
G37*
G36*
G01*
X84547036Y-135904659D02*
X84586484Y-135326002D01*
G75*
G02*
X85971894Y-134117432I1296990J-88420D01*
G01*
X85971894Y-134117432D01*
G75*
G02*
X87180464Y-135502842I-88420J-1296990D01*
G01*
X87141016Y-136081498D01*
G75*
G02*
X85755606Y-137290068I-1296990J88420D01*
G01*
X85755606Y-137290068D01*
G75*
G02*
X84547036Y-135904658I88420J1296990D01*
G01*
G37*
%TD*%
%TO.C,K_quote1*%
G36*
G01*
X279809536Y-154954659D02*
X279848984Y-154376002D01*
G75*
G02*
X281234394Y-153167432I1296990J-88420D01*
G01*
X281234394Y-153167432D01*
G75*
G02*
X282442964Y-154552842I-88420J-1296990D01*
G01*
X282403516Y-155131498D01*
G75*
G02*
X281018106Y-156340068I-1296990J88420D01*
G01*
X281018106Y-156340068D01*
G75*
G02*
X279809536Y-154954658I88420J1296990D01*
G01*
G37*
G36*
G01*
X273650379Y-156274076D02*
X274859303Y-154376446D01*
G75*
G02*
X276654201Y-153978526I1096409J-698489D01*
G01*
X276654201Y-153978526D01*
G75*
G02*
X277052121Y-155773424I-698489J-1096409D01*
G01*
X275843197Y-157671054D01*
G75*
G02*
X274048299Y-158068974I-1096409J698489D01*
G01*
X274048299Y-158068974D01*
G75*
G02*
X273650379Y-156274076I698489J1096409D01*
G01*
G37*
%TD*%
%TO.C,K_R1*%
G36*
G01*
X135537879Y-137224076D02*
X136746803Y-135326446D01*
G75*
G02*
X138541701Y-134928526I1096409J-698489D01*
G01*
X138541701Y-134928526D01*
G75*
G02*
X138939621Y-136723424I-698489J-1096409D01*
G01*
X137730697Y-138621054D01*
G75*
G02*
X135935799Y-139018974I-1096409J698489D01*
G01*
X135935799Y-139018974D01*
G75*
G02*
X135537879Y-137224076I698489J1096409D01*
G01*
G37*
G36*
G01*
X141697036Y-135904659D02*
X141736484Y-135326002D01*
G75*
G02*
X143121894Y-134117432I1296990J-88420D01*
G01*
X143121894Y-134117432D01*
G75*
G02*
X144330464Y-135502842I-88420J-1296990D01*
G01*
X144291016Y-136081498D01*
G75*
G02*
X142905606Y-137290068I-1296990J88420D01*
G01*
X142905606Y-137290068D01*
G75*
G02*
X141697036Y-135904658I88420J1296990D01*
G01*
G37*
%TD*%
%TO.C,K_RALT1*%
G36*
G01*
X259362879Y-194374076D02*
X260571803Y-192476446D01*
G75*
G02*
X262366701Y-192078526I1096409J-698489D01*
G01*
X262366701Y-192078526D01*
G75*
G02*
X262764621Y-193873424I-698489J-1096409D01*
G01*
X261555697Y-195771054D01*
G75*
G02*
X259760799Y-196168974I-1096409J698489D01*
G01*
X259760799Y-196168974D01*
G75*
G02*
X259362879Y-194374076I698489J1096409D01*
G01*
G37*
G36*
G01*
X265522036Y-193054659D02*
X265561484Y-192476002D01*
G75*
G02*
X266946894Y-191267432I1296990J-88420D01*
G01*
X266946894Y-191267432D01*
G75*
G02*
X268155464Y-192652842I-88420J-1296990D01*
G01*
X268116016Y-193231498D01*
G75*
G02*
X266730606Y-194440068I-1296990J88420D01*
G01*
X266730606Y-194440068D01*
G75*
G02*
X265522036Y-193054658I88420J1296990D01*
G01*
G37*
%TD*%
%TO.C,K_RCMD1*%
G36*
G01*
X240312879Y-194374076D02*
X241521803Y-192476446D01*
G75*
G02*
X243316701Y-192078526I1096409J-698489D01*
G01*
X243316701Y-192078526D01*
G75*
G02*
X243714621Y-193873424I-698489J-1096409D01*
G01*
X242505697Y-195771054D01*
G75*
G02*
X240710799Y-196168974I-1096409J698489D01*
G01*
X240710799Y-196168974D01*
G75*
G02*
X240312879Y-194374076I698489J1096409D01*
G01*
G37*
G36*
G01*
X246472036Y-193054659D02*
X246511484Y-192476002D01*
G75*
G02*
X247896894Y-191267432I1296990J-88420D01*
G01*
X247896894Y-191267432D01*
G75*
G02*
X249105464Y-192652842I-88420J-1296990D01*
G01*
X249066016Y-193231498D01*
G75*
G02*
X247680606Y-194440068I-1296990J88420D01*
G01*
X247680606Y-194440068D01*
G75*
G02*
X246472036Y-193054658I88420J1296990D01*
G01*
G37*
%TD*%
%TO.C,K_RFN1*%
G36*
G01*
X297462879Y-194374076D02*
X298671803Y-192476446D01*
G75*
G02*
X300466701Y-192078526I1096409J-698489D01*
G01*
X300466701Y-192078526D01*
G75*
G02*
X300864621Y-193873424I-698489J-1096409D01*
G01*
X299655697Y-195771054D01*
G75*
G02*
X297860799Y-196168974I-1096409J698489D01*
G01*
X297860799Y-196168974D01*
G75*
G02*
X297462879Y-194374076I698489J1096409D01*
G01*
G37*
G36*
G01*
X303622036Y-193054659D02*
X303661484Y-192476002D01*
G75*
G02*
X305046894Y-191267432I1296990J-88420D01*
G01*
X305046894Y-191267432D01*
G75*
G02*
X306255464Y-192652842I-88420J-1296990D01*
G01*
X306216016Y-193231498D01*
G75*
G02*
X304830606Y-194440068I-1296990J88420D01*
G01*
X304830606Y-194440068D01*
G75*
G02*
X303622036Y-193054658I88420J1296990D01*
G01*
G37*
%TD*%
%TO.C,K_rightsquare1*%
G36*
G01*
X287937879Y-137224076D02*
X289146803Y-135326446D01*
G75*
G02*
X290941701Y-134928526I1096409J-698489D01*
G01*
X290941701Y-134928526D01*
G75*
G02*
X291339621Y-136723424I-698489J-1096409D01*
G01*
X290130697Y-138621054D01*
G75*
G02*
X288335799Y-139018974I-1096409J698489D01*
G01*
X288335799Y-139018974D01*
G75*
G02*
X287937879Y-137224076I698489J1096409D01*
G01*
G37*
G36*
G01*
X294097036Y-135904659D02*
X294136484Y-135326002D01*
G75*
G02*
X295521894Y-134117432I1296990J-88420D01*
G01*
X295521894Y-134117432D01*
G75*
G02*
X296730464Y-135502842I-88420J-1296990D01*
G01*
X296691016Y-136081498D01*
G75*
G02*
X295305606Y-137290068I-1296990J88420D01*
G01*
X295305606Y-137290068D01*
G75*
G02*
X294097036Y-135904658I88420J1296990D01*
G01*
G37*
%TD*%
%TO.C,K_RSHIFT1*%
G36*
G01*
X306003286Y-174004659D02*
X306042734Y-173426002D01*
G75*
G02*
X307428144Y-172217432I1296990J-88420D01*
G01*
X307428144Y-172217432D01*
G75*
G02*
X308636714Y-173602842I-88420J-1296990D01*
G01*
X308597266Y-174181498D01*
G75*
G02*
X307211856Y-175390068I-1296990J88420D01*
G01*
X307211856Y-175390068D01*
G75*
G02*
X306003286Y-174004658I88420J1296990D01*
G01*
G37*
G36*
G01*
X299844129Y-175324076D02*
X301053053Y-173426446D01*
G75*
G02*
X302847951Y-173028526I1096409J-698489D01*
G01*
X302847951Y-173028526D01*
G75*
G02*
X303245871Y-174823424I-698489J-1096409D01*
G01*
X302036947Y-176721054D01*
G75*
G02*
X300242049Y-177118974I-1096409J698489D01*
G01*
X300242049Y-177118974D01*
G75*
G02*
X299844129Y-175324076I698489J1096409D01*
G01*
G37*
%TD*%
%TO.C,K_RT1*%
G36*
G01*
X359375379Y-194374076D02*
X360584303Y-192476446D01*
G75*
G02*
X362379201Y-192078526I1096409J-698489D01*
G01*
X362379201Y-192078526D01*
G75*
G02*
X362777121Y-193873424I-698489J-1096409D01*
G01*
X361568197Y-195771054D01*
G75*
G02*
X359773299Y-196168974I-1096409J698489D01*
G01*
X359773299Y-196168974D01*
G75*
G02*
X359375379Y-194374076I698489J1096409D01*
G01*
G37*
G36*
G01*
X365534536Y-193054659D02*
X365573984Y-192476002D01*
G75*
G02*
X366959394Y-191267432I1296990J-88420D01*
G01*
X366959394Y-191267432D01*
G75*
G02*
X368167964Y-192652842I-88420J-1296990D01*
G01*
X368128516Y-193231498D01*
G75*
G02*
X366743106Y-194440068I-1296990J88420D01*
G01*
X366743106Y-194440068D01*
G75*
G02*
X365534536Y-193054658I88420J1296990D01*
G01*
G37*
%TD*%
%TO.C,K_S1*%
G36*
G01*
X102200379Y-156274076D02*
X103409303Y-154376446D01*
G75*
G02*
X105204201Y-153978526I1096409J-698489D01*
G01*
X105204201Y-153978526D01*
G75*
G02*
X105602121Y-155773424I-698489J-1096409D01*
G01*
X104393197Y-157671054D01*
G75*
G02*
X102598299Y-158068974I-1096409J698489D01*
G01*
X102598299Y-158068974D01*
G75*
G02*
X102200379Y-156274076I698489J1096409D01*
G01*
G37*
G36*
G01*
X108359536Y-154954659D02*
X108398984Y-154376002D01*
G75*
G02*
X109784394Y-153167432I1296990J-88420D01*
G01*
X109784394Y-153167432D01*
G75*
G02*
X110992964Y-154552842I-88420J-1296990D01*
G01*
X110953516Y-155131498D01*
G75*
G02*
X109568106Y-156340068I-1296990J88420D01*
G01*
X109568106Y-156340068D01*
G75*
G02*
X108359536Y-154954658I88420J1296990D01*
G01*
G37*
%TD*%
%TO.C,K_semicolon1*%
G36*
G01*
X260759536Y-154954659D02*
X260798984Y-154376002D01*
G75*
G02*
X262184394Y-153167432I1296990J-88420D01*
G01*
X262184394Y-153167432D01*
G75*
G02*
X263392964Y-154552842I-88420J-1296990D01*
G01*
X263353516Y-155131498D01*
G75*
G02*
X261968106Y-156340068I-1296990J88420D01*
G01*
X261968106Y-156340068D01*
G75*
G02*
X260759536Y-154954658I88420J1296990D01*
G01*
G37*
G36*
G01*
X254600379Y-156274076D02*
X255809303Y-154376446D01*
G75*
G02*
X257604201Y-153978526I1096409J-698489D01*
G01*
X257604201Y-153978526D01*
G75*
G02*
X258002121Y-155773424I-698489J-1096409D01*
G01*
X256793197Y-157671054D01*
G75*
G02*
X254998299Y-158068974I-1096409J698489D01*
G01*
X254998299Y-158068974D01*
G75*
G02*
X254600379Y-156274076I698489J1096409D01*
G01*
G37*
%TD*%
%TO.C,K_slash1*%
G36*
G01*
X270284536Y-174004659D02*
X270323984Y-173426002D01*
G75*
G02*
X271709394Y-172217432I1296990J-88420D01*
G01*
X271709394Y-172217432D01*
G75*
G02*
X272917964Y-173602842I-88420J-1296990D01*
G01*
X272878516Y-174181498D01*
G75*
G02*
X271493106Y-175390068I-1296990J88420D01*
G01*
X271493106Y-175390068D01*
G75*
G02*
X270284536Y-174004658I88420J1296990D01*
G01*
G37*
G36*
G01*
X264125379Y-175324076D02*
X265334303Y-173426446D01*
G75*
G02*
X267129201Y-173028526I1096409J-698489D01*
G01*
X267129201Y-173028526D01*
G75*
G02*
X267527121Y-174823424I-698489J-1096409D01*
G01*
X266318197Y-176721054D01*
G75*
G02*
X264523299Y-177118974I-1096409J698489D01*
G01*
X264523299Y-177118974D01*
G75*
G02*
X264125379Y-175324076I698489J1096409D01*
G01*
G37*
%TD*%
%TO.C,K_space1*%
G36*
G01*
X173637879Y-194374076D02*
X174846803Y-192476446D01*
G75*
G02*
X176641701Y-192078526I1096409J-698489D01*
G01*
X176641701Y-192078526D01*
G75*
G02*
X177039621Y-193873424I-698489J-1096409D01*
G01*
X175830697Y-195771054D01*
G75*
G02*
X174035799Y-196168974I-1096409J698489D01*
G01*
X174035799Y-196168974D01*
G75*
G02*
X173637879Y-194374076I698489J1096409D01*
G01*
G37*
G36*
G01*
X179797036Y-193054659D02*
X179836484Y-192476002D01*
G75*
G02*
X181221894Y-191267432I1296990J-88420D01*
G01*
X181221894Y-191267432D01*
G75*
G02*
X182430464Y-192652842I-88420J-1296990D01*
G01*
X182391016Y-193231498D01*
G75*
G02*
X181005606Y-194440068I-1296990J88420D01*
G01*
X181005606Y-194440068D01*
G75*
G02*
X179797036Y-193054658I88420J1296990D01*
G01*
G37*
%TD*%
%TO.C,K_T1*%
G36*
G01*
X154587879Y-137224076D02*
X155796803Y-135326446D01*
G75*
G02*
X157591701Y-134928526I1096409J-698489D01*
G01*
X157591701Y-134928526D01*
G75*
G02*
X157989621Y-136723424I-698489J-1096409D01*
G01*
X156780697Y-138621054D01*
G75*
G02*
X154985799Y-139018974I-1096409J698489D01*
G01*
X154985799Y-139018974D01*
G75*
G02*
X154587879Y-137224076I698489J1096409D01*
G01*
G37*
G36*
G01*
X160747036Y-135904659D02*
X160786484Y-135326002D01*
G75*
G02*
X162171894Y-134117432I1296990J-88420D01*
G01*
X162171894Y-134117432D01*
G75*
G02*
X163380464Y-135502842I-88420J-1296990D01*
G01*
X163341016Y-136081498D01*
G75*
G02*
X161955606Y-137290068I-1296990J88420D01*
G01*
X161955606Y-137290068D01*
G75*
G02*
X160747036Y-135904658I88420J1296990D01*
G01*
G37*
%TD*%
%TO.C,K_TAB1*%
G36*
G01*
X54575379Y-137224076D02*
X55784303Y-135326446D01*
G75*
G02*
X57579201Y-134928526I1096409J-698489D01*
G01*
X57579201Y-134928526D01*
G75*
G02*
X57977121Y-136723424I-698489J-1096409D01*
G01*
X56768197Y-138621054D01*
G75*
G02*
X54973299Y-139018974I-1096409J698489D01*
G01*
X54973299Y-139018974D01*
G75*
G02*
X54575379Y-137224076I698489J1096409D01*
G01*
G37*
G36*
G01*
X60734536Y-135904659D02*
X60773984Y-135326002D01*
G75*
G02*
X62159394Y-134117432I1296990J-88420D01*
G01*
X62159394Y-134117432D01*
G75*
G02*
X63367964Y-135502842I-88420J-1296990D01*
G01*
X63328516Y-136081498D01*
G75*
G02*
X61943106Y-137290068I-1296990J88420D01*
G01*
X61943106Y-137290068D01*
G75*
G02*
X60734536Y-135904658I88420J1296990D01*
G01*
G37*
%TD*%
%TO.C,K_tilde1*%
G36*
G01*
X303622036Y-116854659D02*
X303661484Y-116276002D01*
G75*
G02*
X305046894Y-115067432I1296990J-88420D01*
G01*
X305046894Y-115067432D01*
G75*
G02*
X306255464Y-116452842I-88420J-1296990D01*
G01*
X306216016Y-117031498D01*
G75*
G02*
X304830606Y-118240068I-1296990J88420D01*
G01*
X304830606Y-118240068D01*
G75*
G02*
X303622036Y-116854658I88420J1296990D01*
G01*
G37*
G36*
G01*
X297462879Y-118174076D02*
X298671803Y-116276446D01*
G75*
G02*
X300466701Y-115878526I1096409J-698489D01*
G01*
X300466701Y-115878526D01*
G75*
G02*
X300864621Y-117673424I-698489J-1096409D01*
G01*
X299655697Y-119571054D01*
G75*
G02*
X297860799Y-119968974I-1096409J698489D01*
G01*
X297860799Y-119968974D01*
G75*
G02*
X297462879Y-118174076I698489J1096409D01*
G01*
G37*
%TD*%
%TO.C,K_U1*%
G36*
G01*
X192687879Y-137224076D02*
X193896803Y-135326446D01*
G75*
G02*
X195691701Y-134928526I1096409J-698489D01*
G01*
X195691701Y-134928526D01*
G75*
G02*
X196089621Y-136723424I-698489J-1096409D01*
G01*
X194880697Y-138621054D01*
G75*
G02*
X193085799Y-139018974I-1096409J698489D01*
G01*
X193085799Y-139018974D01*
G75*
G02*
X192687879Y-137224076I698489J1096409D01*
G01*
G37*
G36*
G01*
X198847036Y-135904659D02*
X198886484Y-135326002D01*
G75*
G02*
X200271894Y-134117432I1296990J-88420D01*
G01*
X200271894Y-134117432D01*
G75*
G02*
X201480464Y-135502842I-88420J-1296990D01*
G01*
X201441016Y-136081498D01*
G75*
G02*
X200055606Y-137290068I-1296990J88420D01*
G01*
X200055606Y-137290068D01*
G75*
G02*
X198847036Y-135904658I88420J1296990D01*
G01*
G37*
%TD*%
%TO.C,K_UP1*%
G36*
G01*
X340325379Y-175324076D02*
X341534303Y-173426446D01*
G75*
G02*
X343329201Y-173028526I1096409J-698489D01*
G01*
X343329201Y-173028526D01*
G75*
G02*
X343727121Y-174823424I-698489J-1096409D01*
G01*
X342518197Y-176721054D01*
G75*
G02*
X340723299Y-177118974I-1096409J698489D01*
G01*
X340723299Y-177118974D01*
G75*
G02*
X340325379Y-175324076I698489J1096409D01*
G01*
G37*
G36*
G01*
X346484536Y-174004659D02*
X346523984Y-173426002D01*
G75*
G02*
X347909394Y-172217432I1296990J-88420D01*
G01*
X347909394Y-172217432D01*
G75*
G02*
X349117964Y-173602842I-88420J-1296990D01*
G01*
X349078516Y-174181498D01*
G75*
G02*
X347693106Y-175390068I-1296990J88420D01*
G01*
X347693106Y-175390068D01*
G75*
G02*
X346484536Y-174004658I88420J1296990D01*
G01*
G37*
%TD*%
%TO.C,K_V1*%
G36*
G01*
X155984536Y-174004659D02*
X156023984Y-173426002D01*
G75*
G02*
X157409394Y-172217432I1296990J-88420D01*
G01*
X157409394Y-172217432D01*
G75*
G02*
X158617964Y-173602842I-88420J-1296990D01*
G01*
X158578516Y-174181498D01*
G75*
G02*
X157193106Y-175390068I-1296990J88420D01*
G01*
X157193106Y-175390068D01*
G75*
G02*
X155984536Y-174004658I88420J1296990D01*
G01*
G37*
G36*
G01*
X149825379Y-175324076D02*
X151034303Y-173426446D01*
G75*
G02*
X152829201Y-173028526I1096409J-698489D01*
G01*
X152829201Y-173028526D01*
G75*
G02*
X153227121Y-174823424I-698489J-1096409D01*
G01*
X152018197Y-176721054D01*
G75*
G02*
X150223299Y-177118974I-1096409J698489D01*
G01*
X150223299Y-177118974D01*
G75*
G02*
X149825379Y-175324076I698489J1096409D01*
G01*
G37*
%TD*%
%TO.C,K_W1*%
G36*
G01*
X97437879Y-137224076D02*
X98646803Y-135326446D01*
G75*
G02*
X100441701Y-134928526I1096409J-698489D01*
G01*
X100441701Y-134928526D01*
G75*
G02*
X100839621Y-136723424I-698489J-1096409D01*
G01*
X99630697Y-138621054D01*
G75*
G02*
X97835799Y-139018974I-1096409J698489D01*
G01*
X97835799Y-139018974D01*
G75*
G02*
X97437879Y-137224076I698489J1096409D01*
G01*
G37*
G36*
G01*
X103597036Y-135904659D02*
X103636484Y-135326002D01*
G75*
G02*
X105021894Y-134117432I1296990J-88420D01*
G01*
X105021894Y-134117432D01*
G75*
G02*
X106230464Y-135502842I-88420J-1296990D01*
G01*
X106191016Y-136081498D01*
G75*
G02*
X104805606Y-137290068I-1296990J88420D01*
G01*
X104805606Y-137290068D01*
G75*
G02*
X103597036Y-135904658I88420J1296990D01*
G01*
G37*
%TD*%
%TO.C,K_X1*%
G36*
G01*
X117884536Y-174004659D02*
X117923984Y-173426002D01*
G75*
G02*
X119309394Y-172217432I1296990J-88420D01*
G01*
X119309394Y-172217432D01*
G75*
G02*
X120517964Y-173602842I-88420J-1296990D01*
G01*
X120478516Y-174181498D01*
G75*
G02*
X119093106Y-175390068I-1296990J88420D01*
G01*
X119093106Y-175390068D01*
G75*
G02*
X117884536Y-174004658I88420J1296990D01*
G01*
G37*
G36*
G01*
X111725379Y-175324076D02*
X112934303Y-173426446D01*
G75*
G02*
X114729201Y-173028526I1096409J-698489D01*
G01*
X114729201Y-173028526D01*
G75*
G02*
X115127121Y-174823424I-698489J-1096409D01*
G01*
X113918197Y-176721054D01*
G75*
G02*
X112123299Y-177118974I-1096409J698489D01*
G01*
X112123299Y-177118974D01*
G75*
G02*
X111725379Y-175324076I698489J1096409D01*
G01*
G37*
%TD*%
%TO.C,K_Y1*%
G36*
G01*
X173637879Y-137224076D02*
X174846803Y-135326446D01*
G75*
G02*
X176641701Y-134928526I1096409J-698489D01*
G01*
X176641701Y-134928526D01*
G75*
G02*
X177039621Y-136723424I-698489J-1096409D01*
G01*
X175830697Y-138621054D01*
G75*
G02*
X174035799Y-139018974I-1096409J698489D01*
G01*
X174035799Y-139018974D01*
G75*
G02*
X173637879Y-137224076I698489J1096409D01*
G01*
G37*
G36*
G01*
X179797036Y-135904659D02*
X179836484Y-135326002D01*
G75*
G02*
X181221894Y-134117432I1296990J-88420D01*
G01*
X181221894Y-134117432D01*
G75*
G02*
X182430464Y-135502842I-88420J-1296990D01*
G01*
X182391016Y-136081498D01*
G75*
G02*
X181005606Y-137290068I-1296990J88420D01*
G01*
X181005606Y-137290068D01*
G75*
G02*
X179797036Y-135904658I88420J1296990D01*
G01*
G37*
%TD*%
%TO.C,K_Z1*%
G36*
G01*
X98834536Y-174004659D02*
X98873984Y-173426002D01*
G75*
G02*
X100259394Y-172217432I1296990J-88420D01*
G01*
X100259394Y-172217432D01*
G75*
G02*
X101467964Y-173602842I-88420J-1296990D01*
G01*
X101428516Y-174181498D01*
G75*
G02*
X100043106Y-175390068I-1296990J88420D01*
G01*
X100043106Y-175390068D01*
G75*
G02*
X98834536Y-174004658I88420J1296990D01*
G01*
G37*
G36*
G01*
X92675379Y-175324076D02*
X93884303Y-173426446D01*
G75*
G02*
X95679201Y-173028526I1096409J-698489D01*
G01*
X95679201Y-173028526D01*
G75*
G02*
X96077121Y-174823424I-698489J-1096409D01*
G01*
X94868197Y-176721054D01*
G75*
G02*
X93073299Y-177118974I-1096409J698489D01*
G01*
X93073299Y-177118974D01*
G75*
G02*
X92675379Y-175324076I698489J1096409D01*
G01*
G37*
%TD*%
M02*
