M48
; DRILL file {KiCad (5.1.6-0-10_14)} date Saturday, August 01, 2020 at 01:31:04 AM
; FORMAT={-:-/ absolute / inch / decimal}
; #@! TF.CreationDate,2020-08-01T01:31:04+08:00
; #@! TF.GenerationSoftware,Kicad,Pcbnew,(5.1.6-0-10_14)
; #@! TF.FileFunction,Plated,1,2,PTH
FMAT,2
INCH
T1C0.0157
T2C0.0276
T3C0.0400
T4C0.0591
%
G90
G05
T1
X3.7156Y-6.8927
X4.0945Y-6.5059
X4.8406Y-6.504
X6.3386Y-6.4961
X7.8406Y-6.4901
X9.1535Y-5.7382
X9.5768Y-6.5354
X9.8425Y-6.5354
X9.9016Y-5.7382
X10.6496Y-5.8169
X10.8563Y-7.2933
X10.9055Y-7.5197
X11.0925Y-6.3976
X11.2798Y-7.1848
X11.5453Y-7.185
X11.565Y-5.9941
X11.6043Y-6.9685
X11.7028Y-6.4469
X12.0276Y-5.9055
X12.0965Y-5.7874
X12.313Y-6.437
X12.8445Y-7.2736
X13.435Y-5.748
X13.7795Y-5.0492
X13.7992Y-5.2067
X13.8976Y-5.7579
X13.9665Y-5.2067
X14.439Y-5.7677
X14.4685Y-7.1457
T2
X8.1562Y-5.3777
X8.1562Y-5.6848
X13.2188Y-5.3777
X13.2188Y-5.6848
X3.2812Y-4.6277
X3.2812Y-4.9348
X4.7812Y-7.6277
X4.7812Y-7.9348
X4.9688Y-6.8777
X4.9688Y-7.1848
X7.0312Y-4.6277
X7.0312Y-4.9348
X12.4688Y-7.6277
X12.4688Y-7.9348
X4.5938Y-6.1277
X4.5938Y-6.4348
X12.2812Y-4.6277
X12.2812Y-4.9348
X5.1562Y-5.3777
X5.1562Y-5.6848
X4.0312Y-7.6277
X4.0312Y-7.9348
X10.0312Y-7.6277
X10.0312Y-7.9348
X4.4062Y-5.3777
X4.4062Y-5.6848
X6.2812Y-4.6277
X6.2812Y-4.9348
X5.5312Y-4.6277
X5.5312Y-4.9348
X2.7188Y-5.3777
X2.7188Y-5.6848
X13.2188Y-4.6277
X13.2188Y-4.9348
X7.2188Y-6.8777
X7.2188Y-7.1848
X10.7812Y-7.6277
X10.7812Y-7.9348
X6.6562Y-5.3777
X6.6562Y-5.6848
X10.0312Y-4.6277
X10.0312Y-4.9348
X7.5938Y-6.1277
X7.5938Y-6.4348
X13.9688Y-4.6277
X13.9688Y-4.9348
X3.8438Y-6.1277
X3.8438Y-6.4348
X3.0Y-6.8777
X3.0Y-7.1848
X5.9062Y-5.3777
X5.9062Y-5.6848
X13.9688Y-7.6277
X13.9688Y-7.9348
X7.4062Y-7.6277
X7.4062Y-7.9348
X10.2188Y-6.8777
X10.2188Y-7.1848
X6.4688Y-6.8777
X6.4688Y-7.1848
X6.8438Y-6.1277
X6.8438Y-6.4348
X13.9688Y-5.3777
X13.9688Y-5.6848
X9.8438Y-6.1277
X9.8438Y-6.4348
X9.2812Y-4.6277
X9.2812Y-4.9348
X11.5312Y-7.6277
X11.5312Y-7.9348
X11.3438Y-6.1277
X11.3438Y-6.4348
X12.375Y-6.8777
X12.375Y-7.1848
X10.9688Y-6.8777
X10.9688Y-7.1848
X13.2188Y-7.6277
X13.2188Y-7.9348
X13.9688Y-6.8777
X13.9688Y-7.1848
X10.4062Y-5.3777
X10.4062Y-5.6848
X8.5312Y-4.6277
X8.5312Y-4.9348
X3.6562Y-5.3777
X3.6562Y-5.6848
X11.9062Y-5.3777
X11.9062Y-5.6848
X7.7812Y-4.6277
X7.7812Y-4.9348
X13.0312Y-4.6277
X13.0312Y-4.9348
X9.6562Y-5.3777
X9.6562Y-5.6848
X9.4688Y-6.8777
X9.4688Y-7.1848
X11.5312Y-4.6277
X11.5312Y-4.9348
X6.0938Y-6.1277
X6.0938Y-6.4348
X5.3438Y-6.1277
X5.3438Y-6.4348
X9.0938Y-6.1277
X9.0938Y-6.4348
X2.5312Y-7.6277
X2.5312Y-7.9348
X7.9688Y-6.8777
X7.9688Y-7.1848
X2.8125Y-6.1277
X2.8125Y-6.4348
X10.5938Y-6.1277
X10.5938Y-6.4348
X2.5312Y-4.6277
X2.5312Y-4.9348
X8.3438Y-6.1277
X8.3438Y-6.4348
X4.7812Y-4.6277
X4.7812Y-4.9348
X11.1562Y-5.3777
X11.1562Y-5.6848
X4.2188Y-6.8777
X4.2188Y-7.1848
X10.7812Y-4.6277
X10.7812Y-4.9348
X5.7188Y-6.8777
X5.7188Y-7.1848
X12.2812Y-7.6277
X12.2812Y-7.9348
X12.5625Y-6.1277
X12.5625Y-6.4348
X4.0312Y-4.6277
X4.0312Y-4.9348
X8.9062Y-5.3777
X8.9062Y-5.6848
X3.2812Y-7.6277
X3.2812Y-7.9348
X7.4062Y-5.3777
X7.4062Y-5.6848
X8.7188Y-6.8777
X8.7188Y-7.1848
X12.8438Y-5.3777
X12.8438Y-5.6848
T3
X13.4688Y-5.9813
X13.4688Y-6.5812
X13.5687Y-5.9813
X13.5687Y-6.5812
X13.6687Y-5.9813
X13.6687Y-6.5812
X13.7687Y-5.9813
X13.7687Y-6.5812
X13.8688Y-5.9813
X13.8688Y-6.5812
X13.9688Y-5.9813
X13.9688Y-6.5812
X14.0687Y-5.9813
X14.0687Y-6.5812
X14.1687Y-5.9813
X14.1687Y-6.5812
X14.2687Y-5.9813
X14.2687Y-6.5812
X14.3688Y-5.9813
X14.3688Y-6.5812
X14.4688Y-5.9813
X14.4688Y-6.5812
X14.5687Y-5.9813
X14.5687Y-6.5812
T4
G00X3.9269Y-5.3553
M15
G01X3.8793Y-5.43
M16
G05
G00X4.1312Y-5.3313
M15
G01X4.1297Y-5.3541
M16
G05
G00X2.0519Y-4.6053
M15
G01X2.0043Y-4.68
M16
G05
G00X2.2562Y-4.5813
M15
G01X2.2547Y-4.6041
M16
G05
G00X5.9894Y-6.8553
M15
G01X5.9418Y-6.93
M16
G05
G00X6.1937Y-6.8313
M15
G01X6.1922Y-6.8541
M16
G05
G00X5.6144Y-6.1053
M15
G01X5.5668Y-6.18
M16
G05
G00X5.8187Y-6.0813
M15
G01X5.8172Y-6.1041
M16
G05
G00X4.3019Y-7.6053
M15
G01X4.2543Y-7.68
M16
G05
G00X4.5062Y-7.5813
M15
G01X4.5047Y-7.6041
M16
G05
G00X13.4894Y-7.6053
M15
G01X13.4418Y-7.68
M16
G05
G00X13.6937Y-7.5813
M15
G01X13.6922Y-7.6041
M16
G05
G00X6.9269Y-7.6053
M15
G01X6.8793Y-7.68
M16
G05
G00X7.1312Y-7.5813
M15
G01X7.1297Y-7.6041
M16
G05
G00X12.3644Y-5.3553
M15
G01X12.3168Y-5.43
M16
G05
G00X12.5687Y-5.3313
M15
G01X12.5672Y-5.3541
M16
G05
G00X11.8019Y-7.6053
M15
G01X11.7543Y-7.68
M16
G05
G00X12.0062Y-7.5813
M15
G01X12.0047Y-7.6041
M16
G05
G00X6.5519Y-4.6053
M15
G01X6.5043Y-4.68
M16
G05
G00X6.7562Y-4.5813
M15
G01X6.7547Y-4.6041
M16
G05
G00X11.0519Y-7.6053
M15
G01X11.0043Y-7.68
M16
G05
G00X11.2562Y-7.5813
M15
G01X11.2547Y-7.6041
M16
G05
G00X4.4894Y-6.8553
M15
G01X4.4418Y-6.93
M16
G05
G00X4.6937Y-6.8313
M15
G01X4.6922Y-6.8541
M16
G05
G00X6.3644Y-6.1053
M15
G01X6.3168Y-6.18
M16
G05
G00X6.5687Y-6.0813
M15
G01X6.5672Y-6.1041
M16
G05
G00X2.8019Y-7.6053
M15
G01X2.7543Y-7.68
M16
G05
G00X3.0062Y-7.5813
M15
G01X3.0047Y-7.6041
M16
G05
G00X7.8644Y-6.1053
M15
G01X7.8168Y-6.18
M16
G05
G00X8.0687Y-6.0813
M15
G01X8.0672Y-6.1041
M16
G05
G00X6.1769Y-5.3553
M15
G01X6.1293Y-5.43
M16
G05
G00X6.3812Y-5.3313
M15
G01X6.3797Y-5.3541
M16
G05
G00X3.5519Y-4.6053
M15
G01X3.5043Y-4.68
M16
G05
G00X3.7562Y-4.5813
M15
G01X3.7547Y-4.6041
M16
G05
G00X6.7394Y-6.8553
M15
G01X6.6918Y-6.93
M16
G05
G00X6.9437Y-6.8313
M15
G01X6.9422Y-6.8541
M16
G05
G00X3.1769Y-5.3553
M15
G01X3.1293Y-5.43
M16
G05
G00X3.3812Y-5.3313
M15
G01X3.3797Y-5.3541
M16
G05
G00X9.1769Y-5.3553
M15
G01X9.1293Y-5.43
M16
G05
G00X9.3812Y-5.3313
M15
G01X9.3797Y-5.3541
M16
G05
G00X2.5206Y-6.8553
M15
G01X2.4731Y-6.93
M16
G05
G00X2.725Y-6.8313
M15
G01X2.7234Y-6.8541
M16
G05
G00X6.9269Y-5.3553
M15
G01X6.8793Y-5.43
M16
G05
G00X7.1312Y-5.3313
M15
G01X7.1297Y-5.3541
M16
G05
G00X7.1144Y-6.1053
M15
G01X7.0668Y-6.18
M16
G05
G00X7.3187Y-6.0813
M15
G01X7.3172Y-6.1041
M16
G05
G00X10.6769Y-5.3553
M15
G01X10.6293Y-5.43
M16
G05
G00X10.8812Y-5.3313
M15
G01X10.8797Y-5.3541
M16
G05
G00X8.6144Y-6.1053
M15
G01X8.5668Y-6.18
M16
G05
G00X8.8187Y-6.0813
M15
G01X8.8172Y-6.1041
M16
G05
G00X8.9894Y-6.8553
M15
G01X8.9418Y-6.93
M16
G05
G00X9.1937Y-6.8313
M15
G01X9.1922Y-6.8541
M16
G05
G00X9.7394Y-6.8553
M15
G01X9.6918Y-6.93
M16
G05
G00X9.9437Y-6.8313
M15
G01X9.9422Y-6.8541
M16
G05
G00X5.2394Y-6.8553
M15
G01X5.1918Y-6.93
M16
G05
G00X5.4437Y-6.8313
M15
G01X5.4422Y-6.8541
M16
G05
G00X11.4269Y-5.3553
M15
G01X11.3793Y-5.43
M16
G05
G00X11.6312Y-5.3313
M15
G01X11.6297Y-5.3541
M16
G05
G00X7.3019Y-4.6053
M15
G01X7.2543Y-4.68
M16
G05
G00X7.5062Y-4.5813
M15
G01X7.5047Y-4.6041
M16
G05
G00X10.8644Y-6.1053
M15
G01X10.8168Y-6.18
M16
G05
G00X11.0687Y-6.0813
M15
G01X11.0672Y-6.1041
M16
G05
G00X9.9269Y-5.3553
M15
G01X9.8793Y-5.43
M16
G05
G00X10.1312Y-5.3313
M15
G01X10.1297Y-5.3541
M16
G05
G00X3.7394Y-6.8553
M15
G01X3.6918Y-6.93
M16
G05
G00X3.9437Y-6.8313
M15
G01X3.9422Y-6.8541
M16
G05
G00X13.4894Y-4.6053
M15
G01X13.4418Y-4.68
M16
G05
G00X13.6937Y-4.5813
M15
G01X13.6922Y-4.6041
M16
G05
G00X9.3644Y-6.1053
M15
G01X9.3168Y-6.18
M16
G05
G00X9.5687Y-6.0813
M15
G01X9.5672Y-6.1041
M16
G05
G00X4.6769Y-5.3553
M15
G01X4.6293Y-5.43
M16
G05
G00X4.8812Y-5.3313
M15
G01X4.8797Y-5.3541
M16
G05
G00X2.2394Y-5.3553
M15
G01X2.1918Y-5.43
M16
G05
G00X2.4437Y-5.3313
M15
G01X2.4422Y-5.3541
M16
G05
G00X2.3331Y-6.1053
M15
G01X2.2856Y-6.18
M16
G05
G00X2.5375Y-6.0813
M15
G01X2.5359Y-6.1041
M16
G05
G00X11.8956Y-6.8553
M15
G01X11.8481Y-6.93
M16
G05
G00X12.1Y-6.8313
M15
G01X12.0984Y-6.8541
M16
G05
G00X8.0519Y-4.6053
M15
G01X8.0043Y-4.68
M16
G05
G00X8.2562Y-4.5813
M15
G01X8.2547Y-4.6041
M16
G05
G00X4.3019Y-4.6053
M15
G01X4.2543Y-4.68
M16
G05
G00X4.5062Y-4.5813
M15
G01X4.5047Y-4.6041
M16
G05
G00X14.2394Y-5.3553
M15
G01X14.1918Y-5.43
M16
G05
G00X14.4437Y-5.3313
M15
G01X14.4422Y-5.3541
M16
G05
G00X12.7394Y-7.6053
M15
G01X12.6918Y-7.68
M16
G05
G00X12.9437Y-7.5813
M15
G01X12.9422Y-7.6041
M16
G05
G00X10.4894Y-6.8553
M15
G01X10.4418Y-6.93
M16
G05
G00X10.6937Y-6.8313
M15
G01X10.6922Y-6.8541
M16
G05
G00X13.4894Y-5.3553
M15
G01X13.4418Y-5.43
M16
G05
G00X13.6937Y-5.3313
M15
G01X13.6922Y-5.3541
M16
G05
G00X11.8019Y-4.6053
M15
G01X11.7543Y-4.68
M16
G05
G00X12.0062Y-4.5813
M15
G01X12.0047Y-4.6041
M16
G05
G00X4.8644Y-6.1053
M15
G01X4.8168Y-6.18
M16
G05
G00X5.0687Y-6.0813
M15
G01X5.0672Y-6.1041
M16
G05
G00X10.1144Y-6.1053
M15
G01X10.0668Y-6.18
M16
G05
G00X10.3187Y-6.0813
M15
G01X10.3172Y-6.1041
M16
G05
G00X14.2394Y-7.6053
M15
G01X14.1918Y-7.68
M16
G05
G00X14.4437Y-7.5813
M15
G01X14.4422Y-7.6041
M16
G05
G00X9.5519Y-4.6053
M15
G01X9.5043Y-4.68
M16
G05
G00X9.7562Y-4.5813
M15
G01X9.7547Y-4.6041
M16
G05
G00X8.8019Y-4.6053
M15
G01X8.7543Y-4.68
M16
G05
G00X9.0062Y-4.5813
M15
G01X9.0047Y-4.6041
M16
G05
G00X14.2394Y-4.6053
M15
G01X14.1918Y-4.68
M16
G05
G00X14.4437Y-4.5813
M15
G01X14.4422Y-4.6041
M16
G05
G00X10.3019Y-4.6053
M15
G01X10.2543Y-4.68
M16
G05
G00X10.5062Y-4.5813
M15
G01X10.5047Y-4.6041
M16
G05
G00X5.4269Y-5.3553
M15
G01X5.3793Y-5.43
M16
G05
G00X5.6312Y-5.3313
M15
G01X5.6297Y-5.3541
M16
G05
G00X8.2394Y-6.8553
M15
G01X8.1918Y-6.93
M16
G05
G00X8.4437Y-6.8313
M15
G01X8.4422Y-6.8541
M16
G05
G00X13.4894Y-6.8553
M15
G01X13.4418Y-6.93
M16
G05
G00X13.6937Y-6.8313
M15
G01X13.6922Y-6.8541
M16
G05
G00X8.4269Y-5.3553
M15
G01X8.3793Y-5.43
M16
G05
G00X8.6312Y-5.3313
M15
G01X8.6297Y-5.3541
M16
G05
G00X12.0831Y-6.1053
M15
G01X12.0356Y-6.18
M16
G05
G00X12.2875Y-6.0813
M15
G01X12.2859Y-6.1041
M16
G05
G00X3.5519Y-7.6053
M15
G01X3.5043Y-7.68
M16
G05
G00X3.7562Y-7.5813
M15
G01X3.7547Y-7.6041
M16
G05
G00X7.6769Y-5.3553
M15
G01X7.6293Y-5.43
M16
G05
G00X7.8812Y-5.3313
M15
G01X7.8797Y-5.3541
M16
G05
G00X12.5519Y-4.6053
M15
G01X12.5043Y-4.68
M16
G05
G00X12.7562Y-4.5813
M15
G01X12.7547Y-4.6041
M16
G05
G00X4.1144Y-6.1053
M15
G01X4.0668Y-6.18
M16
G05
G00X4.3187Y-6.0813
M15
G01X4.3172Y-6.1041
M16
G05
G00X2.8019Y-4.6053
M15
G01X2.7543Y-4.68
M16
G05
G00X3.0062Y-4.5813
M15
G01X3.0047Y-4.6041
M16
G05
G00X3.3644Y-6.1053
M15
G01X3.3168Y-6.18
M16
G05
G00X3.5687Y-6.0813
M15
G01X3.5672Y-6.1041
M16
G05
G00X9.5519Y-7.6053
M15
G01X9.5043Y-7.68
M16
G05
G00X9.7562Y-7.5813
M15
G01X9.7547Y-7.6041
M16
G05
G00X5.8019Y-4.6053
M15
G01X5.7543Y-4.68
M16
G05
G00X6.0062Y-4.5813
M15
G01X6.0047Y-4.6041
M16
G05
G00X11.0519Y-4.6053
M15
G01X11.0043Y-4.68
M16
G05
G00X11.2562Y-4.5813
M15
G01X11.2547Y-4.6041
M16
G05
G00X7.4894Y-6.8553
M15
G01X7.4418Y-6.93
M16
G05
G00X7.6937Y-6.8313
M15
G01X7.6922Y-6.8541
M16
G05
G00X10.3019Y-7.6053
M15
G01X10.2543Y-7.68
M16
G05
G00X10.5062Y-7.5813
M15
G01X10.5047Y-7.6041
M16
G05
G00X5.0519Y-4.6053
M15
G01X5.0043Y-4.68
M16
G05
G00X5.2562Y-4.5813
M15
G01X5.2547Y-4.6041
M16
G05
G00X2.0519Y-7.6053
M15
G01X2.0043Y-7.68
M16
G05
G00X2.2562Y-7.5813
M15
G01X2.2547Y-7.6041
M16
G05
T0
M30
