%TF.GenerationSoftware,KiCad,Pcbnew,(5.1.6-0-10_14)*%
%TF.CreationDate,2020-08-01T01:29:04+08:00*%
%TF.ProjectId,K45.0,4b34352e-302e-46b6-9963-61645f706362,rev?*%
%TF.SameCoordinates,Original*%
%TF.FileFunction,Legend,Top*%
%TF.FilePolarity,Positive*%
%FSLAX46Y46*%
G04 Gerber Fmt 4.6, Leading zero omitted, Abs format (unit mm)*
G04 Created by KiCad (PCBNEW (5.1.6-0-10_14)) date 2020-08-01 01:29:04*
%MOMM*%
%LPD*%
G01*
G04 APERTURE LIST*
%ADD10C,0.150000*%
%ADD11C,0.381000*%
G04 APERTURE END LIST*
D10*
X135523809Y-198309523D02*
X135714285Y-198404761D01*
X136095238Y-198404761D01*
X136285714Y-198309523D01*
X136380952Y-198119047D01*
X136380952Y-198023809D01*
X136285714Y-197833333D01*
X136095238Y-197738095D01*
X135809523Y-197738095D01*
X135619047Y-197642857D01*
X135523809Y-197452380D01*
X135523809Y-197357142D01*
X135619047Y-197166666D01*
X135809523Y-197071428D01*
X136095238Y-197071428D01*
X136285714Y-197166666D01*
X137238095Y-198404761D02*
X137238095Y-197071428D01*
X137238095Y-197261904D02*
X137333333Y-197166666D01*
X137523809Y-197071428D01*
X137809523Y-197071428D01*
X138000000Y-197166666D01*
X138095238Y-197357142D01*
X138095238Y-198404761D01*
X138095238Y-197357142D02*
X138190476Y-197166666D01*
X138380952Y-197071428D01*
X138666666Y-197071428D01*
X138857142Y-197166666D01*
X138952380Y-197357142D01*
X138952380Y-198404761D01*
X139714285Y-197071428D02*
X140095238Y-198404761D01*
X140476190Y-197452380D01*
X140857142Y-198404761D01*
X141238095Y-197071428D01*
X142285714Y-198404761D02*
X142095238Y-198309523D01*
X142000000Y-198214285D01*
X141904761Y-198023809D01*
X141904761Y-197452380D01*
X142000000Y-197261904D01*
X142095238Y-197166666D01*
X142285714Y-197071428D01*
X142571428Y-197071428D01*
X142761904Y-197166666D01*
X142857142Y-197261904D01*
X142952380Y-197452380D01*
X142952380Y-198023809D01*
X142857142Y-198214285D01*
X142761904Y-198309523D01*
X142571428Y-198404761D01*
X142285714Y-198404761D01*
X144095238Y-198404761D02*
X143904761Y-198309523D01*
X143809523Y-198214285D01*
X143714285Y-198023809D01*
X143714285Y-197452380D01*
X143809523Y-197261904D01*
X143904761Y-197166666D01*
X144095238Y-197071428D01*
X144380952Y-197071428D01*
X144571428Y-197166666D01*
X144666666Y-197261904D01*
X144761904Y-197452380D01*
X144761904Y-198023809D01*
X144666666Y-198214285D01*
X144571428Y-198309523D01*
X144380952Y-198404761D01*
X144095238Y-198404761D01*
X146952380Y-197071428D02*
X147428571Y-198404761D01*
X147904761Y-197071428D01*
X149523809Y-197071428D02*
X149523809Y-198404761D01*
X149047619Y-196309523D02*
X148571428Y-197738095D01*
X149809523Y-197738095D01*
X151523809Y-196404761D02*
X150571428Y-196404761D01*
X150476190Y-197357142D01*
X150571428Y-197261904D01*
X150761904Y-197166666D01*
X151238095Y-197166666D01*
X151428571Y-197261904D01*
X151523809Y-197357142D01*
X151619047Y-197547619D01*
X151619047Y-198023809D01*
X151523809Y-198214285D01*
X151428571Y-198309523D01*
X151238095Y-198404761D01*
X150761904Y-198404761D01*
X150571428Y-198309523D01*
X150476190Y-198214285D01*
X152476190Y-198214285D02*
X152571428Y-198309523D01*
X152476190Y-198404761D01*
X152380952Y-198309523D01*
X152476190Y-198214285D01*
X152476190Y-198404761D01*
X153809523Y-196404761D02*
X154000000Y-196404761D01*
X154190476Y-196500000D01*
X154285714Y-196595238D01*
X154380952Y-196785714D01*
X154476190Y-197166666D01*
X154476190Y-197642857D01*
X154380952Y-198023809D01*
X154285714Y-198214285D01*
X154190476Y-198309523D01*
X154000000Y-198404761D01*
X153809523Y-198404761D01*
X153619047Y-198309523D01*
X153523809Y-198214285D01*
X153428571Y-198023809D01*
X153333333Y-197642857D01*
X153333333Y-197166666D01*
X153428571Y-196785714D01*
X153523809Y-196595238D01*
X153619047Y-196500000D01*
X153809523Y-196404761D01*
D11*
%TO.C,K_PGDN1*%
X357981250Y-135921750D02*
X357981250Y-134143750D01*
X357981250Y-146843750D02*
X357981250Y-145065750D01*
X359759250Y-146843750D02*
X357981250Y-146843750D01*
X370681250Y-146843750D02*
X368903250Y-146843750D01*
X370681250Y-145065750D02*
X370681250Y-146843750D01*
X370681250Y-134143750D02*
X370681250Y-135921750D01*
X368903250Y-134143750D02*
X370681250Y-134143750D01*
X357981250Y-134143750D02*
X359759250Y-134143750D01*
%TO.C,K_ESC1*%
X48418750Y-116871750D02*
X48418750Y-115093750D01*
X48418750Y-127793750D02*
X48418750Y-126015750D01*
X50196750Y-127793750D02*
X48418750Y-127793750D01*
X61118750Y-127793750D02*
X59340750Y-127793750D01*
X61118750Y-126015750D02*
X61118750Y-127793750D01*
X61118750Y-115093750D02*
X61118750Y-116871750D01*
X59340750Y-115093750D02*
X61118750Y-115093750D01*
X48418750Y-115093750D02*
X50196750Y-115093750D01*
%TO.C,K_0*%
X238918750Y-115093750D02*
X240696750Y-115093750D01*
X249840750Y-115093750D02*
X251618750Y-115093750D01*
X251618750Y-115093750D02*
X251618750Y-116871750D01*
X251618750Y-126015750D02*
X251618750Y-127793750D01*
X251618750Y-127793750D02*
X249840750Y-127793750D01*
X240696750Y-127793750D02*
X238918750Y-127793750D01*
X238918750Y-127793750D02*
X238918750Y-126015750D01*
X238918750Y-116871750D02*
X238918750Y-115093750D01*
%TO.C,K_1*%
X67468750Y-115093750D02*
X69246750Y-115093750D01*
X78390750Y-115093750D02*
X80168750Y-115093750D01*
X80168750Y-115093750D02*
X80168750Y-116871750D01*
X80168750Y-126015750D02*
X80168750Y-127793750D01*
X80168750Y-127793750D02*
X78390750Y-127793750D01*
X69246750Y-127793750D02*
X67468750Y-127793750D01*
X67468750Y-127793750D02*
X67468750Y-126015750D01*
X67468750Y-116871750D02*
X67468750Y-115093750D01*
%TO.C,K_2*%
X86518750Y-115093750D02*
X88296750Y-115093750D01*
X97440750Y-115093750D02*
X99218750Y-115093750D01*
X99218750Y-115093750D02*
X99218750Y-116871750D01*
X99218750Y-126015750D02*
X99218750Y-127793750D01*
X99218750Y-127793750D02*
X97440750Y-127793750D01*
X88296750Y-127793750D02*
X86518750Y-127793750D01*
X86518750Y-127793750D02*
X86518750Y-126015750D01*
X86518750Y-116871750D02*
X86518750Y-115093750D01*
%TO.C,K_3*%
X105568750Y-115093750D02*
X107346750Y-115093750D01*
X116490750Y-115093750D02*
X118268750Y-115093750D01*
X118268750Y-115093750D02*
X118268750Y-116871750D01*
X118268750Y-126015750D02*
X118268750Y-127793750D01*
X118268750Y-127793750D02*
X116490750Y-127793750D01*
X107346750Y-127793750D02*
X105568750Y-127793750D01*
X105568750Y-127793750D02*
X105568750Y-126015750D01*
X105568750Y-116871750D02*
X105568750Y-115093750D01*
%TO.C,K_4*%
X124618750Y-115093750D02*
X126396750Y-115093750D01*
X135540750Y-115093750D02*
X137318750Y-115093750D01*
X137318750Y-115093750D02*
X137318750Y-116871750D01*
X137318750Y-126015750D02*
X137318750Y-127793750D01*
X137318750Y-127793750D02*
X135540750Y-127793750D01*
X126396750Y-127793750D02*
X124618750Y-127793750D01*
X124618750Y-127793750D02*
X124618750Y-126015750D01*
X124618750Y-116871750D02*
X124618750Y-115093750D01*
%TO.C,K_5*%
X143668750Y-115093750D02*
X145446750Y-115093750D01*
X154590750Y-115093750D02*
X156368750Y-115093750D01*
X156368750Y-115093750D02*
X156368750Y-116871750D01*
X156368750Y-126015750D02*
X156368750Y-127793750D01*
X156368750Y-127793750D02*
X154590750Y-127793750D01*
X145446750Y-127793750D02*
X143668750Y-127793750D01*
X143668750Y-127793750D02*
X143668750Y-126015750D01*
X143668750Y-116871750D02*
X143668750Y-115093750D01*
%TO.C,K_6*%
X162718750Y-115093750D02*
X164496750Y-115093750D01*
X173640750Y-115093750D02*
X175418750Y-115093750D01*
X175418750Y-115093750D02*
X175418750Y-116871750D01*
X175418750Y-126015750D02*
X175418750Y-127793750D01*
X175418750Y-127793750D02*
X173640750Y-127793750D01*
X164496750Y-127793750D02*
X162718750Y-127793750D01*
X162718750Y-127793750D02*
X162718750Y-126015750D01*
X162718750Y-116871750D02*
X162718750Y-115093750D01*
%TO.C,K_7*%
X181768750Y-115093750D02*
X183546750Y-115093750D01*
X192690750Y-115093750D02*
X194468750Y-115093750D01*
X194468750Y-115093750D02*
X194468750Y-116871750D01*
X194468750Y-126015750D02*
X194468750Y-127793750D01*
X194468750Y-127793750D02*
X192690750Y-127793750D01*
X183546750Y-127793750D02*
X181768750Y-127793750D01*
X181768750Y-127793750D02*
X181768750Y-126015750D01*
X181768750Y-116871750D02*
X181768750Y-115093750D01*
%TO.C,K_8*%
X200818750Y-115093750D02*
X202596750Y-115093750D01*
X211740750Y-115093750D02*
X213518750Y-115093750D01*
X213518750Y-115093750D02*
X213518750Y-116871750D01*
X213518750Y-126015750D02*
X213518750Y-127793750D01*
X213518750Y-127793750D02*
X211740750Y-127793750D01*
X202596750Y-127793750D02*
X200818750Y-127793750D01*
X200818750Y-127793750D02*
X200818750Y-126015750D01*
X200818750Y-116871750D02*
X200818750Y-115093750D01*
%TO.C,K_9*%
X219868750Y-115093750D02*
X221646750Y-115093750D01*
X230790750Y-115093750D02*
X232568750Y-115093750D01*
X232568750Y-115093750D02*
X232568750Y-116871750D01*
X232568750Y-126015750D02*
X232568750Y-127793750D01*
X232568750Y-127793750D02*
X230790750Y-127793750D01*
X221646750Y-127793750D02*
X219868750Y-127793750D01*
X219868750Y-127793750D02*
X219868750Y-126015750D01*
X219868750Y-116871750D02*
X219868750Y-115093750D01*
%TO.C,K_A1*%
X81756250Y-154971750D02*
X81756250Y-153193750D01*
X81756250Y-165893750D02*
X81756250Y-164115750D01*
X83534250Y-165893750D02*
X81756250Y-165893750D01*
X94456250Y-165893750D02*
X92678250Y-165893750D01*
X94456250Y-164115750D02*
X94456250Y-165893750D01*
X94456250Y-153193750D02*
X94456250Y-154971750D01*
X92678250Y-153193750D02*
X94456250Y-153193750D01*
X81756250Y-153193750D02*
X83534250Y-153193750D01*
%TO.C,K_B1*%
X167481250Y-172243750D02*
X169259250Y-172243750D01*
X178403250Y-172243750D02*
X180181250Y-172243750D01*
X180181250Y-172243750D02*
X180181250Y-174021750D01*
X180181250Y-183165750D02*
X180181250Y-184943750D01*
X180181250Y-184943750D02*
X178403250Y-184943750D01*
X169259250Y-184943750D02*
X167481250Y-184943750D01*
X167481250Y-184943750D02*
X167481250Y-183165750D01*
X167481250Y-174021750D02*
X167481250Y-172243750D01*
%TO.C,K_backslash1*%
X310356250Y-135921750D02*
X310356250Y-134143750D01*
X310356250Y-146843750D02*
X310356250Y-145065750D01*
X312134250Y-146843750D02*
X310356250Y-146843750D01*
X323056250Y-146843750D02*
X321278250Y-146843750D01*
X323056250Y-145065750D02*
X323056250Y-146843750D01*
X323056250Y-134143750D02*
X323056250Y-135921750D01*
X321278250Y-134143750D02*
X323056250Y-134143750D01*
X310356250Y-134143750D02*
X312134250Y-134143750D01*
%TO.C,K_C1*%
X129381250Y-172243750D02*
X131159250Y-172243750D01*
X140303250Y-172243750D02*
X142081250Y-172243750D01*
X142081250Y-172243750D02*
X142081250Y-174021750D01*
X142081250Y-183165750D02*
X142081250Y-184943750D01*
X142081250Y-184943750D02*
X140303250Y-184943750D01*
X131159250Y-184943750D02*
X129381250Y-184943750D01*
X129381250Y-184943750D02*
X129381250Y-183165750D01*
X129381250Y-174021750D02*
X129381250Y-172243750D01*
%TO.C,K_CAPLK1*%
X55562500Y-154971750D02*
X55562500Y-153193750D01*
X55562500Y-165893750D02*
X55562500Y-164115750D01*
X57340500Y-165893750D02*
X55562500Y-165893750D01*
X68262500Y-165893750D02*
X66484500Y-165893750D01*
X68262500Y-164115750D02*
X68262500Y-165893750D01*
X68262500Y-153193750D02*
X68262500Y-154971750D01*
X66484500Y-153193750D02*
X68262500Y-153193750D01*
X55562500Y-153193750D02*
X57340500Y-153193750D01*
%TO.C,K_comma1*%
X224631250Y-172243750D02*
X226409250Y-172243750D01*
X235553250Y-172243750D02*
X237331250Y-172243750D01*
X237331250Y-172243750D02*
X237331250Y-174021750D01*
X237331250Y-183165750D02*
X237331250Y-184943750D01*
X237331250Y-184943750D02*
X235553250Y-184943750D01*
X226409250Y-184943750D02*
X224631250Y-184943750D01*
X224631250Y-184943750D02*
X224631250Y-183165750D01*
X224631250Y-174021750D02*
X224631250Y-172243750D01*
%TO.C,K_D1*%
X119856250Y-153193750D02*
X121634250Y-153193750D01*
X130778250Y-153193750D02*
X132556250Y-153193750D01*
X132556250Y-153193750D02*
X132556250Y-154971750D01*
X132556250Y-164115750D02*
X132556250Y-165893750D01*
X132556250Y-165893750D02*
X130778250Y-165893750D01*
X121634250Y-165893750D02*
X119856250Y-165893750D01*
X119856250Y-165893750D02*
X119856250Y-164115750D01*
X119856250Y-154971750D02*
X119856250Y-153193750D01*
%TO.C,K_DEL1*%
X315118750Y-116871750D02*
X315118750Y-115093750D01*
X315118750Y-127793750D02*
X315118750Y-126015750D01*
X316896750Y-127793750D02*
X315118750Y-127793750D01*
X327818750Y-127793750D02*
X326040750Y-127793750D01*
X327818750Y-126015750D02*
X327818750Y-127793750D01*
X327818750Y-115093750D02*
X327818750Y-116871750D01*
X326040750Y-115093750D02*
X327818750Y-115093750D01*
X315118750Y-115093750D02*
X316896750Y-115093750D01*
%TO.C,K_DN1*%
X338931250Y-193071750D02*
X338931250Y-191293750D01*
X338931250Y-203993750D02*
X338931250Y-202215750D01*
X340709250Y-203993750D02*
X338931250Y-203993750D01*
X351631250Y-203993750D02*
X349853250Y-203993750D01*
X351631250Y-202215750D02*
X351631250Y-203993750D01*
X351631250Y-191293750D02*
X351631250Y-193071750D01*
X349853250Y-191293750D02*
X351631250Y-191293750D01*
X338931250Y-191293750D02*
X340709250Y-191293750D01*
%TO.C,K_dot1*%
X243681250Y-172243750D02*
X245459250Y-172243750D01*
X254603250Y-172243750D02*
X256381250Y-172243750D01*
X256381250Y-172243750D02*
X256381250Y-174021750D01*
X256381250Y-183165750D02*
X256381250Y-184943750D01*
X256381250Y-184943750D02*
X254603250Y-184943750D01*
X245459250Y-184943750D02*
X243681250Y-184943750D01*
X243681250Y-184943750D02*
X243681250Y-183165750D01*
X243681250Y-174021750D02*
X243681250Y-172243750D01*
%TO.C,K_E1*%
X115093750Y-135921750D02*
X115093750Y-134143750D01*
X115093750Y-146843750D02*
X115093750Y-145065750D01*
X116871750Y-146843750D02*
X115093750Y-146843750D01*
X127793750Y-146843750D02*
X126015750Y-146843750D01*
X127793750Y-145065750D02*
X127793750Y-146843750D01*
X127793750Y-134143750D02*
X127793750Y-135921750D01*
X126015750Y-134143750D02*
X127793750Y-134143750D01*
X115093750Y-134143750D02*
X116871750Y-134143750D01*
%TO.C,K_END1*%
X338931250Y-135921750D02*
X338931250Y-134143750D01*
X338931250Y-146843750D02*
X338931250Y-145065750D01*
X340709250Y-146843750D02*
X338931250Y-146843750D01*
X351631250Y-146843750D02*
X349853250Y-146843750D01*
X351631250Y-145065750D02*
X351631250Y-146843750D01*
X351631250Y-134143750D02*
X351631250Y-135921750D01*
X349853250Y-134143750D02*
X351631250Y-134143750D01*
X338931250Y-134143750D02*
X340709250Y-134143750D01*
%TO.C,K_ENTER1*%
X303212500Y-153193750D02*
X304990500Y-153193750D01*
X314134500Y-153193750D02*
X315912500Y-153193750D01*
X315912500Y-153193750D02*
X315912500Y-154971750D01*
X315912500Y-164115750D02*
X315912500Y-165893750D01*
X315912500Y-165893750D02*
X314134500Y-165893750D01*
X304990500Y-165893750D02*
X303212500Y-165893750D01*
X303212500Y-165893750D02*
X303212500Y-164115750D01*
X303212500Y-154971750D02*
X303212500Y-153193750D01*
%TO.C,K_F1*%
X138906250Y-153193750D02*
X140684250Y-153193750D01*
X149828250Y-153193750D02*
X151606250Y-153193750D01*
X151606250Y-153193750D02*
X151606250Y-154971750D01*
X151606250Y-164115750D02*
X151606250Y-165893750D01*
X151606250Y-165893750D02*
X149828250Y-165893750D01*
X140684250Y-165893750D02*
X138906250Y-165893750D01*
X138906250Y-165893750D02*
X138906250Y-164115750D01*
X138906250Y-154971750D02*
X138906250Y-153193750D01*
%TO.C,K_G1*%
X157956250Y-153193750D02*
X159734250Y-153193750D01*
X168878250Y-153193750D02*
X170656250Y-153193750D01*
X170656250Y-153193750D02*
X170656250Y-154971750D01*
X170656250Y-164115750D02*
X170656250Y-165893750D01*
X170656250Y-165893750D02*
X168878250Y-165893750D01*
X159734250Y-165893750D02*
X157956250Y-165893750D01*
X157956250Y-165893750D02*
X157956250Y-164115750D01*
X157956250Y-154971750D02*
X157956250Y-153193750D01*
%TO.C,K_H1*%
X177006250Y-153193750D02*
X178784250Y-153193750D01*
X187928250Y-153193750D02*
X189706250Y-153193750D01*
X189706250Y-153193750D02*
X189706250Y-154971750D01*
X189706250Y-164115750D02*
X189706250Y-165893750D01*
X189706250Y-165893750D02*
X187928250Y-165893750D01*
X178784250Y-165893750D02*
X177006250Y-165893750D01*
X177006250Y-165893750D02*
X177006250Y-164115750D01*
X177006250Y-154971750D02*
X177006250Y-153193750D01*
%TO.C,K_HOME1*%
X338931250Y-116871750D02*
X338931250Y-115093750D01*
X338931250Y-127793750D02*
X338931250Y-126015750D01*
X340709250Y-127793750D02*
X338931250Y-127793750D01*
X351631250Y-127793750D02*
X349853250Y-127793750D01*
X351631250Y-126015750D02*
X351631250Y-127793750D01*
X351631250Y-115093750D02*
X351631250Y-116871750D01*
X349853250Y-115093750D02*
X351631250Y-115093750D01*
X338931250Y-115093750D02*
X340709250Y-115093750D01*
%TO.C,K_I1*%
X210343750Y-135921750D02*
X210343750Y-134143750D01*
X210343750Y-146843750D02*
X210343750Y-145065750D01*
X212121750Y-146843750D02*
X210343750Y-146843750D01*
X223043750Y-146843750D02*
X221265750Y-146843750D01*
X223043750Y-145065750D02*
X223043750Y-146843750D01*
X223043750Y-134143750D02*
X223043750Y-135921750D01*
X221265750Y-134143750D02*
X223043750Y-134143750D01*
X210343750Y-134143750D02*
X212121750Y-134143750D01*
%TO.C,K_J1*%
X196056250Y-153193750D02*
X197834250Y-153193750D01*
X206978250Y-153193750D02*
X208756250Y-153193750D01*
X208756250Y-153193750D02*
X208756250Y-154971750D01*
X208756250Y-164115750D02*
X208756250Y-165893750D01*
X208756250Y-165893750D02*
X206978250Y-165893750D01*
X197834250Y-165893750D02*
X196056250Y-165893750D01*
X196056250Y-165893750D02*
X196056250Y-164115750D01*
X196056250Y-154971750D02*
X196056250Y-153193750D01*
%TO.C,K_K1*%
X215106250Y-153193750D02*
X216884250Y-153193750D01*
X226028250Y-153193750D02*
X227806250Y-153193750D01*
X227806250Y-153193750D02*
X227806250Y-154971750D01*
X227806250Y-164115750D02*
X227806250Y-165893750D01*
X227806250Y-165893750D02*
X226028250Y-165893750D01*
X216884250Y-165893750D02*
X215106250Y-165893750D01*
X215106250Y-165893750D02*
X215106250Y-164115750D01*
X215106250Y-154971750D02*
X215106250Y-153193750D01*
%TO.C,K_L1*%
X234156250Y-153193750D02*
X235934250Y-153193750D01*
X245078250Y-153193750D02*
X246856250Y-153193750D01*
X246856250Y-153193750D02*
X246856250Y-154971750D01*
X246856250Y-164115750D02*
X246856250Y-165893750D01*
X246856250Y-165893750D02*
X245078250Y-165893750D01*
X235934250Y-165893750D02*
X234156250Y-165893750D01*
X234156250Y-165893750D02*
X234156250Y-164115750D01*
X234156250Y-154971750D02*
X234156250Y-153193750D01*
%TO.C,K_LALT1*%
X86518750Y-193071750D02*
X86518750Y-191293750D01*
X86518750Y-203993750D02*
X86518750Y-202215750D01*
X88296750Y-203993750D02*
X86518750Y-203993750D01*
X99218750Y-203993750D02*
X97440750Y-203993750D01*
X99218750Y-202215750D02*
X99218750Y-203993750D01*
X99218750Y-191293750D02*
X99218750Y-193071750D01*
X97440750Y-191293750D02*
X99218750Y-191293750D01*
X86518750Y-191293750D02*
X88296750Y-191293750D01*
%TO.C,K_LCMD1*%
X105568750Y-193071750D02*
X105568750Y-191293750D01*
X105568750Y-203993750D02*
X105568750Y-202215750D01*
X107346750Y-203993750D02*
X105568750Y-203993750D01*
X118268750Y-203993750D02*
X116490750Y-203993750D01*
X118268750Y-202215750D02*
X118268750Y-203993750D01*
X118268750Y-191293750D02*
X118268750Y-193071750D01*
X116490750Y-191293750D02*
X118268750Y-191293750D01*
X105568750Y-191293750D02*
X107346750Y-191293750D01*
%TO.C,K_LCTRL1*%
X67468750Y-193071750D02*
X67468750Y-191293750D01*
X67468750Y-203993750D02*
X67468750Y-202215750D01*
X69246750Y-203993750D02*
X67468750Y-203993750D01*
X80168750Y-203993750D02*
X78390750Y-203993750D01*
X80168750Y-202215750D02*
X80168750Y-203993750D01*
X80168750Y-191293750D02*
X80168750Y-193071750D01*
X78390750Y-191293750D02*
X80168750Y-191293750D01*
X67468750Y-191293750D02*
X69246750Y-191293750D01*
%TO.C,K_leftsquare1*%
X267493750Y-135921750D02*
X267493750Y-134143750D01*
X267493750Y-146843750D02*
X267493750Y-145065750D01*
X269271750Y-146843750D02*
X267493750Y-146843750D01*
X280193750Y-146843750D02*
X278415750Y-146843750D01*
X280193750Y-145065750D02*
X280193750Y-146843750D01*
X280193750Y-134143750D02*
X280193750Y-135921750D01*
X278415750Y-134143750D02*
X280193750Y-134143750D01*
X267493750Y-134143750D02*
X269271750Y-134143750D01*
%TO.C,K_LFN1*%
X48418750Y-193071750D02*
X48418750Y-191293750D01*
X48418750Y-203993750D02*
X48418750Y-202215750D01*
X50196750Y-203993750D02*
X48418750Y-203993750D01*
X61118750Y-203993750D02*
X59340750Y-203993750D01*
X61118750Y-202215750D02*
X61118750Y-203993750D01*
X61118750Y-191293750D02*
X61118750Y-193071750D01*
X59340750Y-191293750D02*
X61118750Y-191293750D01*
X48418750Y-191293750D02*
X50196750Y-191293750D01*
%TO.C,K_LIFT1*%
X277018750Y-193071750D02*
X277018750Y-191293750D01*
X277018750Y-203993750D02*
X277018750Y-202215750D01*
X278796750Y-203993750D02*
X277018750Y-203993750D01*
X289718750Y-203993750D02*
X287940750Y-203993750D01*
X289718750Y-202215750D02*
X289718750Y-203993750D01*
X289718750Y-191293750D02*
X289718750Y-193071750D01*
X287940750Y-191293750D02*
X289718750Y-191293750D01*
X277018750Y-191293750D02*
X278796750Y-191293750D01*
%TO.C,K_LSHIFT1*%
X60325000Y-172243750D02*
X62103000Y-172243750D01*
X71247000Y-172243750D02*
X73025000Y-172243750D01*
X73025000Y-172243750D02*
X73025000Y-174021750D01*
X73025000Y-183165750D02*
X73025000Y-184943750D01*
X73025000Y-184943750D02*
X71247000Y-184943750D01*
X62103000Y-184943750D02*
X60325000Y-184943750D01*
X60325000Y-184943750D02*
X60325000Y-183165750D01*
X60325000Y-174021750D02*
X60325000Y-172243750D01*
%TO.C,K_LT1*%
X319881250Y-193071750D02*
X319881250Y-191293750D01*
X319881250Y-203993750D02*
X319881250Y-202215750D01*
X321659250Y-203993750D02*
X319881250Y-203993750D01*
X332581250Y-203993750D02*
X330803250Y-203993750D01*
X332581250Y-202215750D02*
X332581250Y-203993750D01*
X332581250Y-191293750D02*
X332581250Y-193071750D01*
X330803250Y-191293750D02*
X332581250Y-191293750D01*
X319881250Y-191293750D02*
X321659250Y-191293750D01*
%TO.C,K_M1*%
X205581250Y-172243750D02*
X207359250Y-172243750D01*
X216503250Y-172243750D02*
X218281250Y-172243750D01*
X218281250Y-172243750D02*
X218281250Y-174021750D01*
X218281250Y-183165750D02*
X218281250Y-184943750D01*
X218281250Y-184943750D02*
X216503250Y-184943750D01*
X207359250Y-184943750D02*
X205581250Y-184943750D01*
X205581250Y-184943750D02*
X205581250Y-183165750D01*
X205581250Y-174021750D02*
X205581250Y-172243750D01*
%TO.C,K_minus1*%
X257968750Y-115093750D02*
X259746750Y-115093750D01*
X268890750Y-115093750D02*
X270668750Y-115093750D01*
X270668750Y-115093750D02*
X270668750Y-116871750D01*
X270668750Y-126015750D02*
X270668750Y-127793750D01*
X270668750Y-127793750D02*
X268890750Y-127793750D01*
X259746750Y-127793750D02*
X257968750Y-127793750D01*
X257968750Y-127793750D02*
X257968750Y-126015750D01*
X257968750Y-116871750D02*
X257968750Y-115093750D01*
%TO.C,K_N1*%
X186531250Y-172243750D02*
X188309250Y-172243750D01*
X197453250Y-172243750D02*
X199231250Y-172243750D01*
X199231250Y-172243750D02*
X199231250Y-174021750D01*
X199231250Y-183165750D02*
X199231250Y-184943750D01*
X199231250Y-184943750D02*
X197453250Y-184943750D01*
X188309250Y-184943750D02*
X186531250Y-184943750D01*
X186531250Y-184943750D02*
X186531250Y-183165750D01*
X186531250Y-174021750D02*
X186531250Y-172243750D01*
%TO.C,K_O1*%
X229393750Y-135921750D02*
X229393750Y-134143750D01*
X229393750Y-146843750D02*
X229393750Y-145065750D01*
X231171750Y-146843750D02*
X229393750Y-146843750D01*
X242093750Y-146843750D02*
X240315750Y-146843750D01*
X242093750Y-145065750D02*
X242093750Y-146843750D01*
X242093750Y-134143750D02*
X242093750Y-135921750D01*
X240315750Y-134143750D02*
X242093750Y-134143750D01*
X229393750Y-134143750D02*
X231171750Y-134143750D01*
%TO.C,K_P1*%
X248443750Y-135921750D02*
X248443750Y-134143750D01*
X248443750Y-146843750D02*
X248443750Y-145065750D01*
X250221750Y-146843750D02*
X248443750Y-146843750D01*
X261143750Y-146843750D02*
X259365750Y-146843750D01*
X261143750Y-145065750D02*
X261143750Y-146843750D01*
X261143750Y-134143750D02*
X261143750Y-135921750D01*
X259365750Y-134143750D02*
X261143750Y-134143750D01*
X248443750Y-134143750D02*
X250221750Y-134143750D01*
%TO.C,K_PGUP1*%
X357981250Y-116871750D02*
X357981250Y-115093750D01*
X357981250Y-127793750D02*
X357981250Y-126015750D01*
X359759250Y-127793750D02*
X357981250Y-127793750D01*
X370681250Y-127793750D02*
X368903250Y-127793750D01*
X370681250Y-126015750D02*
X370681250Y-127793750D01*
X370681250Y-115093750D02*
X370681250Y-116871750D01*
X368903250Y-115093750D02*
X370681250Y-115093750D01*
X357981250Y-115093750D02*
X359759250Y-115093750D01*
%TO.C,K_plus1*%
X277018750Y-115093750D02*
X278796750Y-115093750D01*
X287940750Y-115093750D02*
X289718750Y-115093750D01*
X289718750Y-115093750D02*
X289718750Y-116871750D01*
X289718750Y-126015750D02*
X289718750Y-127793750D01*
X289718750Y-127793750D02*
X287940750Y-127793750D01*
X278796750Y-127793750D02*
X277018750Y-127793750D01*
X277018750Y-127793750D02*
X277018750Y-126015750D01*
X277018750Y-116871750D02*
X277018750Y-115093750D01*
%TO.C,K_Q1*%
X76993750Y-135921750D02*
X76993750Y-134143750D01*
X76993750Y-146843750D02*
X76993750Y-145065750D01*
X78771750Y-146843750D02*
X76993750Y-146843750D01*
X89693750Y-146843750D02*
X87915750Y-146843750D01*
X89693750Y-145065750D02*
X89693750Y-146843750D01*
X89693750Y-134143750D02*
X89693750Y-135921750D01*
X87915750Y-134143750D02*
X89693750Y-134143750D01*
X76993750Y-134143750D02*
X78771750Y-134143750D01*
%TO.C,K_quote1*%
X272256250Y-153193750D02*
X274034250Y-153193750D01*
X283178250Y-153193750D02*
X284956250Y-153193750D01*
X284956250Y-153193750D02*
X284956250Y-154971750D01*
X284956250Y-164115750D02*
X284956250Y-165893750D01*
X284956250Y-165893750D02*
X283178250Y-165893750D01*
X274034250Y-165893750D02*
X272256250Y-165893750D01*
X272256250Y-165893750D02*
X272256250Y-164115750D01*
X272256250Y-154971750D02*
X272256250Y-153193750D01*
%TO.C,K_R1*%
X134143750Y-135921750D02*
X134143750Y-134143750D01*
X134143750Y-146843750D02*
X134143750Y-145065750D01*
X135921750Y-146843750D02*
X134143750Y-146843750D01*
X146843750Y-146843750D02*
X145065750Y-146843750D01*
X146843750Y-145065750D02*
X146843750Y-146843750D01*
X146843750Y-134143750D02*
X146843750Y-135921750D01*
X145065750Y-134143750D02*
X146843750Y-134143750D01*
X134143750Y-134143750D02*
X135921750Y-134143750D01*
%TO.C,K_RALT1*%
X257968750Y-193071750D02*
X257968750Y-191293750D01*
X257968750Y-203993750D02*
X257968750Y-202215750D01*
X259746750Y-203993750D02*
X257968750Y-203993750D01*
X270668750Y-203993750D02*
X268890750Y-203993750D01*
X270668750Y-202215750D02*
X270668750Y-203993750D01*
X270668750Y-191293750D02*
X270668750Y-193071750D01*
X268890750Y-191293750D02*
X270668750Y-191293750D01*
X257968750Y-191293750D02*
X259746750Y-191293750D01*
%TO.C,K_RCMD1*%
X238918750Y-193071750D02*
X238918750Y-191293750D01*
X238918750Y-203993750D02*
X238918750Y-202215750D01*
X240696750Y-203993750D02*
X238918750Y-203993750D01*
X251618750Y-203993750D02*
X249840750Y-203993750D01*
X251618750Y-202215750D02*
X251618750Y-203993750D01*
X251618750Y-191293750D02*
X251618750Y-193071750D01*
X249840750Y-191293750D02*
X251618750Y-191293750D01*
X238918750Y-191293750D02*
X240696750Y-191293750D01*
%TO.C,K_RFN1*%
X296068750Y-193071750D02*
X296068750Y-191293750D01*
X296068750Y-203993750D02*
X296068750Y-202215750D01*
X297846750Y-203993750D02*
X296068750Y-203993750D01*
X308768750Y-203993750D02*
X306990750Y-203993750D01*
X308768750Y-202215750D02*
X308768750Y-203993750D01*
X308768750Y-191293750D02*
X308768750Y-193071750D01*
X306990750Y-191293750D02*
X308768750Y-191293750D01*
X296068750Y-191293750D02*
X297846750Y-191293750D01*
%TO.C,K_rightsquare1*%
X286543750Y-135921750D02*
X286543750Y-134143750D01*
X286543750Y-146843750D02*
X286543750Y-145065750D01*
X288321750Y-146843750D02*
X286543750Y-146843750D01*
X299243750Y-146843750D02*
X297465750Y-146843750D01*
X299243750Y-145065750D02*
X299243750Y-146843750D01*
X299243750Y-134143750D02*
X299243750Y-135921750D01*
X297465750Y-134143750D02*
X299243750Y-134143750D01*
X286543750Y-134143750D02*
X288321750Y-134143750D01*
%TO.C,K_RSHIFT1*%
X298450000Y-172243750D02*
X300228000Y-172243750D01*
X309372000Y-172243750D02*
X311150000Y-172243750D01*
X311150000Y-172243750D02*
X311150000Y-174021750D01*
X311150000Y-183165750D02*
X311150000Y-184943750D01*
X311150000Y-184943750D02*
X309372000Y-184943750D01*
X300228000Y-184943750D02*
X298450000Y-184943750D01*
X298450000Y-184943750D02*
X298450000Y-183165750D01*
X298450000Y-174021750D02*
X298450000Y-172243750D01*
%TO.C,K_RT1*%
X357981250Y-193071750D02*
X357981250Y-191293750D01*
X357981250Y-203993750D02*
X357981250Y-202215750D01*
X359759250Y-203993750D02*
X357981250Y-203993750D01*
X370681250Y-203993750D02*
X368903250Y-203993750D01*
X370681250Y-202215750D02*
X370681250Y-203993750D01*
X370681250Y-191293750D02*
X370681250Y-193071750D01*
X368903250Y-191293750D02*
X370681250Y-191293750D01*
X357981250Y-191293750D02*
X359759250Y-191293750D01*
%TO.C,K_S1*%
X100806250Y-154971750D02*
X100806250Y-153193750D01*
X100806250Y-165893750D02*
X100806250Y-164115750D01*
X102584250Y-165893750D02*
X100806250Y-165893750D01*
X113506250Y-165893750D02*
X111728250Y-165893750D01*
X113506250Y-164115750D02*
X113506250Y-165893750D01*
X113506250Y-153193750D02*
X113506250Y-154971750D01*
X111728250Y-153193750D02*
X113506250Y-153193750D01*
X100806250Y-153193750D02*
X102584250Y-153193750D01*
%TO.C,K_semicolon1*%
X253206250Y-153193750D02*
X254984250Y-153193750D01*
X264128250Y-153193750D02*
X265906250Y-153193750D01*
X265906250Y-153193750D02*
X265906250Y-154971750D01*
X265906250Y-164115750D02*
X265906250Y-165893750D01*
X265906250Y-165893750D02*
X264128250Y-165893750D01*
X254984250Y-165893750D02*
X253206250Y-165893750D01*
X253206250Y-165893750D02*
X253206250Y-164115750D01*
X253206250Y-154971750D02*
X253206250Y-153193750D01*
%TO.C,K_slash1*%
X262731250Y-172243750D02*
X264509250Y-172243750D01*
X273653250Y-172243750D02*
X275431250Y-172243750D01*
X275431250Y-172243750D02*
X275431250Y-174021750D01*
X275431250Y-183165750D02*
X275431250Y-184943750D01*
X275431250Y-184943750D02*
X273653250Y-184943750D01*
X264509250Y-184943750D02*
X262731250Y-184943750D01*
X262731250Y-184943750D02*
X262731250Y-183165750D01*
X262731250Y-174021750D02*
X262731250Y-172243750D01*
%TO.C,K_space1*%
X172243750Y-193071750D02*
X172243750Y-191293750D01*
X172243750Y-203993750D02*
X172243750Y-202215750D01*
X174021750Y-203993750D02*
X172243750Y-203993750D01*
X184943750Y-203993750D02*
X183165750Y-203993750D01*
X184943750Y-202215750D02*
X184943750Y-203993750D01*
X184943750Y-191293750D02*
X184943750Y-193071750D01*
X183165750Y-191293750D02*
X184943750Y-191293750D01*
X172243750Y-191293750D02*
X174021750Y-191293750D01*
%TO.C,K_T1*%
X153193750Y-135921750D02*
X153193750Y-134143750D01*
X153193750Y-146843750D02*
X153193750Y-145065750D01*
X154971750Y-146843750D02*
X153193750Y-146843750D01*
X165893750Y-146843750D02*
X164115750Y-146843750D01*
X165893750Y-145065750D02*
X165893750Y-146843750D01*
X165893750Y-134143750D02*
X165893750Y-135921750D01*
X164115750Y-134143750D02*
X165893750Y-134143750D01*
X153193750Y-134143750D02*
X154971750Y-134143750D01*
%TO.C,K_TAB1*%
X53181250Y-135921750D02*
X53181250Y-134143750D01*
X53181250Y-146843750D02*
X53181250Y-145065750D01*
X54959250Y-146843750D02*
X53181250Y-146843750D01*
X65881250Y-146843750D02*
X64103250Y-146843750D01*
X65881250Y-145065750D02*
X65881250Y-146843750D01*
X65881250Y-134143750D02*
X65881250Y-135921750D01*
X64103250Y-134143750D02*
X65881250Y-134143750D01*
X53181250Y-134143750D02*
X54959250Y-134143750D01*
%TO.C,K_tilde1*%
X296068750Y-115093750D02*
X297846750Y-115093750D01*
X306990750Y-115093750D02*
X308768750Y-115093750D01*
X308768750Y-115093750D02*
X308768750Y-116871750D01*
X308768750Y-126015750D02*
X308768750Y-127793750D01*
X308768750Y-127793750D02*
X306990750Y-127793750D01*
X297846750Y-127793750D02*
X296068750Y-127793750D01*
X296068750Y-127793750D02*
X296068750Y-126015750D01*
X296068750Y-116871750D02*
X296068750Y-115093750D01*
%TO.C,K_U1*%
X191293750Y-135921750D02*
X191293750Y-134143750D01*
X191293750Y-146843750D02*
X191293750Y-145065750D01*
X193071750Y-146843750D02*
X191293750Y-146843750D01*
X203993750Y-146843750D02*
X202215750Y-146843750D01*
X203993750Y-145065750D02*
X203993750Y-146843750D01*
X203993750Y-134143750D02*
X203993750Y-135921750D01*
X202215750Y-134143750D02*
X203993750Y-134143750D01*
X191293750Y-134143750D02*
X193071750Y-134143750D01*
%TO.C,K_UP1*%
X338931250Y-174021750D02*
X338931250Y-172243750D01*
X338931250Y-184943750D02*
X338931250Y-183165750D01*
X340709250Y-184943750D02*
X338931250Y-184943750D01*
X351631250Y-184943750D02*
X349853250Y-184943750D01*
X351631250Y-183165750D02*
X351631250Y-184943750D01*
X351631250Y-172243750D02*
X351631250Y-174021750D01*
X349853250Y-172243750D02*
X351631250Y-172243750D01*
X338931250Y-172243750D02*
X340709250Y-172243750D01*
%TO.C,K_V1*%
X148431250Y-172243750D02*
X150209250Y-172243750D01*
X159353250Y-172243750D02*
X161131250Y-172243750D01*
X161131250Y-172243750D02*
X161131250Y-174021750D01*
X161131250Y-183165750D02*
X161131250Y-184943750D01*
X161131250Y-184943750D02*
X159353250Y-184943750D01*
X150209250Y-184943750D02*
X148431250Y-184943750D01*
X148431250Y-184943750D02*
X148431250Y-183165750D01*
X148431250Y-174021750D02*
X148431250Y-172243750D01*
%TO.C,K_W1*%
X96043750Y-135921750D02*
X96043750Y-134143750D01*
X96043750Y-146843750D02*
X96043750Y-145065750D01*
X97821750Y-146843750D02*
X96043750Y-146843750D01*
X108743750Y-146843750D02*
X106965750Y-146843750D01*
X108743750Y-145065750D02*
X108743750Y-146843750D01*
X108743750Y-134143750D02*
X108743750Y-135921750D01*
X106965750Y-134143750D02*
X108743750Y-134143750D01*
X96043750Y-134143750D02*
X97821750Y-134143750D01*
%TO.C,K_X1*%
X110331250Y-172243750D02*
X112109250Y-172243750D01*
X121253250Y-172243750D02*
X123031250Y-172243750D01*
X123031250Y-172243750D02*
X123031250Y-174021750D01*
X123031250Y-183165750D02*
X123031250Y-184943750D01*
X123031250Y-184943750D02*
X121253250Y-184943750D01*
X112109250Y-184943750D02*
X110331250Y-184943750D01*
X110331250Y-184943750D02*
X110331250Y-183165750D01*
X110331250Y-174021750D02*
X110331250Y-172243750D01*
%TO.C,K_Y1*%
X172243750Y-135921750D02*
X172243750Y-134143750D01*
X172243750Y-146843750D02*
X172243750Y-145065750D01*
X174021750Y-146843750D02*
X172243750Y-146843750D01*
X184943750Y-146843750D02*
X183165750Y-146843750D01*
X184943750Y-145065750D02*
X184943750Y-146843750D01*
X184943750Y-134143750D02*
X184943750Y-135921750D01*
X183165750Y-134143750D02*
X184943750Y-134143750D01*
X172243750Y-134143750D02*
X174021750Y-134143750D01*
%TO.C,K_Z1*%
X91281250Y-172243750D02*
X93059250Y-172243750D01*
X102203250Y-172243750D02*
X103981250Y-172243750D01*
X103981250Y-172243750D02*
X103981250Y-174021750D01*
X103981250Y-183165750D02*
X103981250Y-184943750D01*
X103981250Y-184943750D02*
X102203250Y-184943750D01*
X93059250Y-184943750D02*
X91281250Y-184943750D01*
X91281250Y-184943750D02*
X91281250Y-183165750D01*
X91281250Y-174021750D02*
X91281250Y-172243750D01*
%TD*%
M02*
