  0
SECTION
  2
HEADER
  9
$ACADVER
  1
AC1009
  9
$EXTMIN
 10
0.0
 20
0.0
 30
0.0
  9
$EXTMAX
 10
1000.0
 20
1000.0
 30
0.0
  9
$FILLMODE
 70
 0
  9
$SPLFRAME
 70
 1
  0
ENDSEC
  0
SECTION
  2
TABLES
  0
TABLE
  2
LAYER
 70
1
  0
LAYER
  2
0
 70
     0
 62
     7
  6
CONTINUOUS
  0
ENDTAB
  0
ENDSEC
  0
SECTION
  2
ENTITIES
  0
LINE
  8
0
 62
     0
 10
331.709
 20
99.3881
 30
0.0
 11
331.786
 21
99.3856
 31
0.0
  0
LINE
  8
0
 62
     0
 10
331.786
 20
99.3856
 30
0.0
 11
331.865
 21
99.3757
 31
0.0
  0
LINE
  8
0
 62
     0
 10
331.865
 20
99.3757
 30
0.0
 11
331.942
 21
99.3606
 31
0.0
  0
LINE
  8
0
 62
     0
 10
331.942
 20
99.3606
 30
0.0
 11
332.018
 21
99.3401
 31
0.0
  0
LINE
  8
0
 62
     0
 10
332.018
 20
99.3401
 30
0.0
 11
332.092
 21
99.3126
 31
0.0
  0
LINE
  8
0
 62
     0
 10
332.092
 20
99.3126
 30
0.0
 11
332.162
 21
99.2794
 31
0.0
  0
LINE
  8
0
 62
     0
 10
332.162
 20
99.2794
 30
0.0
 11
332.23
 21
99.241
 31
0.0
  0
LINE
  8
0
 62
     0
 10
332.23
 20
99.241
 30
0.0
 11
332.296
 21
99.1979
 31
0.0
  0
LINE
  8
0
 62
     0
 10
332.296
 20
99.1979
 30
0.0
 11
332.358
 21
99.1485
 31
0.0
  0
LINE
  8
0
 62
     0
 10
332.358
 20
99.1485
 30
0.0
 11
332.416
 21
99.096
 31
0.0
  0
LINE
  8
0
 62
     0
 10
332.416
 20
99.096
 30
0.0
 11
332.468
 21
99.0381
 31
0.0
  0
LINE
  8
0
 62
     0
 10
332.468
 20
99.0381
 30
0.0
 11
332.518
 21
98.9764
 31
0.0
  0
LINE
  8
0
 62
     0
 10
332.518
 20
98.9764
 30
0.0
 11
332.562
 21
98.9115
 31
0.0
  0
LINE
  8
0
 62
     0
 10
332.562
 20
98.9115
 30
0.0
 11
332.599
 21
98.8413
 31
0.0
  0
LINE
  8
0
 62
     0
 10
332.599
 20
98.8413
 30
0.0
 11
332.632
 21
98.7707
 31
0.0
  0
LINE
  8
0
 62
     0
 10
332.632
 20
98.7707
 30
0.0
 11
332.66
 21
98.6977
 31
0.0
  0
LINE
  8
0
 62
     0
 10
332.66
 20
98.6977
 30
0.0
 11
332.68
 21
98.6222
 31
0.0
  0
LINE
  8
0
 62
     0
 10
332.68
 20
98.6222
 30
0.0
 11
332.697
 21
98.5449
 31
0.0
  0
LINE
  8
0
 62
     0
 10
332.697
 20
98.5449
 30
0.0
 11
332.705
 21
98.4663
 31
0.0
  0
LINE
  8
0
 62
     0
 10
332.705
 20
98.4663
 30
0.0
 11
332.708
 21
98.388
 31
0.0
  0
LINE
  8
0
 62
     0
 10
332.708
 20
98.388
 30
0.0
 11
332.708
 21
1.13826
 31
0.0
  0
LINE
  8
0
 62
     0
 10
332.708
 20
1.13826
 30
0.0
 11
332.705
 21
1.05833
 31
0.0
  0
LINE
  8
0
 62
     0
 10
332.705
 20
1.05833
 30
0.0
 11
332.697
 21
0.981163
 31
0.0
  0
LINE
  8
0
 62
     0
 10
332.697
 20
0.981163
 30
0.0
 11
332.68
 21
0.903993
 31
0.0
  0
LINE
  8
0
 62
     0
 10
332.68
 20
0.903993
 30
0.0
 11
332.66
 21
0.828202
 31
0.0
  0
LINE
  8
0
 62
     0
 10
332.66
 20
0.828202
 30
0.0
 11
332.632
 21
0.755167
 31
0.0
  0
LINE
  8
0
 62
     0
 10
332.632
 20
0.755167
 30
0.0
 11
332.599
 21
0.683507
 31
0.0
  0
LINE
  8
0
 62
     0
 10
332.599
 20
0.683507
 30
0.0
 11
332.562
 21
0.614606
 31
0.0
  0
LINE
  8
0
 62
     0
 10
332.562
 20
0.614606
 30
0.0
 11
332.518
 21
0.549836
 31
0.0
  0
LINE
  8
0
 62
     0
 10
332.518
 20
0.549836
 30
0.0
 11
332.468
 21
0.487825
 31
0.0
  0
LINE
  8
0
 62
     0
 10
332.468
 20
0.487825
 30
0.0
 11
332.416
 21
0.429948
 31
0.0
  0
LINE
  8
0
 62
     0
 10
332.416
 20
0.429948
 30
0.0
 11
332.358
 21
0.376206
 31
0.0
  0
LINE
  8
0
 62
     0
 10
332.358
 20
0.376206
 30
0.0
 11
332.296
 21
0.327973
 31
0.0
  0
LINE
  8
0
 62
     0
 10
332.296
 20
0.327973
 30
0.0
 11
332.23
 21
0.285254
 31
0.0
  0
LINE
  8
0
 62
     0
 10
332.23
 20
0.285254
 30
0.0
 11
332.162
 21
0.245291
 31
0.0
  0
LINE
  8
0
 62
     0
 10
332.162
 20
0.245291
 30
0.0
 11
332.092
 21
0.213596
 31
0.0
  0
LINE
  8
0
 62
     0
 10
332.092
 20
0.213596
 30
0.0
 11
332.018
 21
0.186035
 31
0.0
  0
LINE
  8
0
 62
     0
 10
332.018
 20
0.186035
 30
0.0
 11
331.942
 21
0.165365
 31
0.0
  0
LINE
  8
0
 62
     0
 10
331.942
 20
0.165365
 30
0.0
 11
331.865
 21
0.150206
 31
0.0
  0
LINE
  8
0
 62
     0
 10
331.865
 20
0.150206
 30
0.0
 11
331.786
 21
0.14056
 31
0.0
  0
LINE
  8
0
 62
     0
 10
331.786
 20
0.14056
 30
0.0
 11
331.709
 21
0.136426
 31
0.0
  0
LINE
  8
0
 62
     0
 10
331.709
 20
0.136426
 30
0.0
 11
1.09554
 21
0.137804
 31
0.0
  0
LINE
  8
0
 62
     0
 10
1.09554
 20
0.137804
 30
0.0
 11
1.01699
 21
0.14056
 31
0.0
  0
LINE
  8
0
 62
     0
 10
1.01699
 20
0.14056
 30
0.0
 11
0.938445
 21
0.150206
 31
0.0
  0
LINE
  8
0
 62
     0
 10
0.938445
 20
0.150206
 30
0.0
 11
0.861275
 21
0.165365
 31
0.0
  0
LINE
  8
0
 62
     0
 10
0.861275
 20
0.165365
 30
0.0
 11
0.785481
 21
0.186035
 31
0.0
  0
LINE
  8
0
 62
     0
 10
0.785481
 20
0.186035
 30
0.0
 11
0.712445
 21
0.213596
 31
0.0
  0
LINE
  8
0
 62
     0
 10
0.712445
 20
0.213596
 30
0.0
 11
0.642165
 21
0.245291
 31
0.0
  0
LINE
  8
0
 62
     0
 10
0.642165
 20
0.245291
 30
0.0
 11
0.571885
 21
0.285254
 31
0.0
  0
LINE
  8
0
 62
     0
 10
0.571885
 20
0.285254
 30
0.0
 11
0.507118
 21
0.327973
 31
0.0
  0
LINE
  8
0
 62
     0
 10
0.507118
 20
0.327973
 30
0.0
 11
0.445107
 21
0.376206
 31
0.0
  0
LINE
  8
0
 62
     0
 10
0.445107
 20
0.376206
 30
0.0
 11
0.38723
 21
0.429948
 31
0.0
  0
LINE
  8
0
 62
     0
 10
0.38723
 20
0.429948
 30
0.0
 11
0.334863
 21
0.487825
 31
0.0
  0
LINE
  8
0
 62
     0
 10
0.334863
 20
0.487825
 30
0.0
 11
0.285254
 21
0.549836
 31
0.0
  0
LINE
  8
0
 62
     0
 10
0.285254
 20
0.549836
 30
0.0
 11
0.242535
 21
0.614606
 31
0.0
  0
LINE
  8
0
 62
     0
 10
0.242535
 20
0.614606
 30
0.0
 11
0.20395
 21
0.683507
 31
0.0
  0
LINE
  8
0
 62
     0
 10
0.20395
 20
0.683507
 30
0.0
 11
0.170877
 21
0.755167
 31
0.0
  0
LINE
  8
0
 62
     0
 10
0.170877
 20
0.755167
 30
0.0
 11
0.143316
 21
0.828202
 31
0.0
  0
LINE
  8
0
 62
     0
 10
0.143316
 20
0.828202
 30
0.0
 11
0.122645
 21
0.903993
 31
0.0
  0
LINE
  8
0
 62
     0
 10
0.122645
 20
0.903993
 30
0.0
 11
0.107487
 21
0.981163
 31
0.0
  0
LINE
  8
0
 62
     0
 10
0.107487
 20
0.981163
 30
0.0
 11
0.0978408
 21
1.05833
 31
0.0
  0
LINE
  8
0
 62
     0
 10
0.0978408
 20
1.05833
 30
0.0
 11
0.0950846
 21
1.13826
 31
0.0
  0
LINE
  8
0
 62
     0
 10
0.0950846
 20
1.13826
 30
0.0
 11
0.0950846
 21
98.388
 31
0.0
  0
LINE
  8
0
 62
     0
 10
0.0950846
 20
98.388
 30
0.0
 11
0.0978408
 21
98.4663
 31
0.0
  0
LINE
  8
0
 62
     0
 10
0.0978408
 20
98.4663
 30
0.0
 11
0.107487
 21
98.5449
 31
0.0
  0
LINE
  8
0
 62
     0
 10
0.107487
 20
98.5449
 30
0.0
 11
0.122645
 21
98.6222
 31
0.0
  0
LINE
  8
0
 62
     0
 10
0.122645
 20
98.6222
 30
0.0
 11
0.143316
 21
98.6977
 31
0.0
  0
LINE
  8
0
 62
     0
 10
0.143316
 20
98.6977
 30
0.0
 11
0.170877
 21
98.7707
 31
0.0
  0
LINE
  8
0
 62
     0
 10
0.170877
 20
98.7707
 30
0.0
 11
0.20395
 21
98.8413
 31
0.0
  0
LINE
  8
0
 62
     0
 10
0.20395
 20
98.8413
 30
0.0
 11
0.242535
 21
98.9115
 31
0.0
  0
LINE
  8
0
 62
     0
 10
0.242535
 20
98.9115
 30
0.0
 11
0.285254
 21
98.9764
 31
0.0
  0
LINE
  8
0
 62
     0
 10
0.285254
 20
98.9764
 30
0.0
 11
0.334863
 21
99.0381
 31
0.0
  0
LINE
  8
0
 62
     0
 10
0.334863
 20
99.0381
 30
0.0
 11
0.38723
 21
99.096
 31
0.0
  0
LINE
  8
0
 62
     0
 10
0.38723
 20
99.096
 30
0.0
 11
0.445107
 21
99.1485
 31
0.0
  0
LINE
  8
0
 62
     0
 10
0.445107
 20
99.1485
 30
0.0
 11
0.507118
 21
99.1979
 31
0.0
  0
LINE
  8
0
 62
     0
 10
0.507118
 20
99.1979
 30
0.0
 11
0.571885
 21
99.241
 31
0.0
  0
LINE
  8
0
 62
     0
 10
0.571885
 20
99.241
 30
0.0
 11
0.642165
 21
99.2794
 31
0.0
  0
LINE
  8
0
 62
     0
 10
0.642165
 20
99.2794
 30
0.0
 11
0.712445
 21
99.3126
 31
0.0
  0
LINE
  8
0
 62
     0
 10
0.712445
 20
99.3126
 30
0.0
 11
0.785481
 21
99.3401
 31
0.0
  0
LINE
  8
0
 62
     0
 10
0.785481
 20
99.3401
 30
0.0
 11
0.861275
 21
99.3606
 31
0.0
  0
LINE
  8
0
 62
     0
 10
0.861275
 20
99.3606
 30
0.0
 11
0.938445
 21
99.3757
 31
0.0
  0
LINE
  8
0
 62
     0
 10
0.938445
 20
99.3757
 30
0.0
 11
1.01699
 21
99.3856
 31
0.0
  0
LINE
  8
0
 62
     0
 10
1.01699
 20
99.3856
 30
0.0
 11
1.09554
 21
99.3881
 31
0.0
  0
LINE
  8
0
 62
     0
 10
1.09554
 20
99.3881
 30
0.0
 11
331.709
 21
99.3881
 31
0.0
  0
LINE
  8
0
 62
     0
 10
137.971
 20
18.6628
 30
0.0
 11
137.971
 21
17.6623
 31
0.0
  0
LINE
  8
0
 62
     0
 10
137.971
 20
17.6623
 30
0.0
 11
137.17
 21
17.6623
 31
0.0
  0
LINE
  8
0
 62
     0
 10
137.17
 20
17.6623
 30
0.0
 11
137.17
 21
14.5645
 31
0.0
  0
LINE
  8
0
 62
     0
 10
137.17
 20
14.5645
 30
0.0
 11
137.971
 21
14.5645
 31
0.0
  0
LINE
  8
0
 62
     0
 10
137.971
 20
14.5645
 30
0.0
 11
137.971
 21
13.9623
 31
0.0
  0
LINE
  8
0
 62
     0
 10
137.971
 20
13.9623
 30
0.0
 11
91.3197
 21
13.9623
 31
0.0
  0
LINE
  8
0
 62
     0
 10
91.3197
 20
13.9623
 30
0.0
 11
91.3197
 21
17.1924
 31
0.0
  0
LINE
  8
0
 62
     0
 10
91.3197
 20
17.1924
 30
0.0
 11
84.5704
 21
17.1924
 31
0.0
  0
LINE
  8
0
 62
     0
 10
84.5704
 20
17.1924
 30
0.0
 11
84.5704
 21
13.9623
 31
0.0
  0
LINE
  8
0
 62
     0
 10
84.5704
 20
13.9623
 30
0.0
 11
83.7463
 21
13.9623
 31
0.0
  0
LINE
  8
0
 62
     0
 10
83.7463
 20
13.9623
 30
0.0
 11
83.7463
 21
11.1635
 31
0.0
  0
LINE
  8
0
 62
     0
 10
83.7463
 20
11.1635
 30
0.0
 11
84.5704
 21
11.1635
 31
0.0
  0
LINE
  8
0
 62
     0
 10
84.5704
 20
11.1635
 30
0.0
 11
84.5704
 21
4.89342
 31
0.0
  0
LINE
  8
0
 62
     0
 10
84.5704
 20
4.89342
 30
0.0
 11
86.2954
 21
4.89342
 31
0.0
  0
LINE
  8
0
 62
     0
 10
86.2954
 20
4.89342
 30
0.0
 11
86.2954
 21
3.69316
 31
0.0
  0
LINE
  8
0
 62
     0
 10
86.2954
 20
3.69316
 30
0.0
 11
89.596
 21
3.69316
 31
0.0
  0
LINE
  8
0
 62
     0
 10
89.596
 20
3.69316
 30
0.0
 11
89.596
 21
4.89342
 31
0.0
  0
LINE
  8
0
 62
     0
 10
89.596
 20
4.89342
 30
0.0
 11
91.3197
 21
4.89342
 31
0.0
  0
LINE
  8
0
 62
     0
 10
91.3197
 20
4.89342
 30
0.0
 11
91.3197
 21
9.36378
 31
0.0
  0
LINE
  8
0
 62
     0
 10
91.3197
 20
9.36378
 30
0.0
 11
137.971
 21
9.36378
 31
0.0
  0
LINE
  8
0
 62
     0
 10
137.971
 20
9.36378
 30
0.0
 11
137.971
 21
8.76293
 31
0.0
  0
LINE
  8
0
 62
     0
 10
137.971
 20
8.76293
 30
0.0
 11
137.17
 21
8.76293
 31
0.0
  0
LINE
  8
0
 62
     0
 10
137.17
 20
8.76293
 30
0.0
 11
137.17
 21
5.66237
 31
0.0
  0
LINE
  8
0
 62
     0
 10
137.17
 20
5.66237
 30
0.0
 11
137.971
 21
5.66237
 31
0.0
  0
LINE
  8
0
 62
     0
 10
137.971
 20
5.66237
 30
0.0
 11
137.971
 21
4.6633
 31
0.0
  0
LINE
  8
0
 62
     0
 10
137.971
 20
4.6633
 30
0.0
 11
151.97
 21
4.6633
 31
0.0
  0
LINE
  8
0
 62
     0
 10
151.97
 20
4.6633
 30
0.0
 11
151.97
 21
5.66237
 31
0.0
  0
LINE
  8
0
 62
     0
 10
151.97
 20
5.66237
 30
0.0
 11
152.771
 21
5.66237
 31
0.0
  0
LINE
  8
0
 62
     0
 10
152.771
 20
5.66237
 30
0.0
 11
152.771
 21
8.76293
 31
0.0
  0
LINE
  8
0
 62
     0
 10
152.771
 20
8.76293
 30
0.0
 11
151.97
 21
8.76293
 31
0.0
  0
LINE
  8
0
 62
     0
 10
151.97
 20
8.76293
 30
0.0
 11
151.97
 21
9.36378
 31
0.0
  0
LINE
  8
0
 62
     0
 10
151.97
 20
9.36378
 30
0.0
 11
179.571
 21
9.36378
 31
0.0
  0
LINE
  8
0
 62
     0
 10
179.571
 20
9.36378
 30
0.0
 11
179.571
 21
4.89342
 31
0.0
  0
LINE
  8
0
 62
     0
 10
179.571
 20
4.89342
 30
0.0
 11
181.296
 21
4.89342
 31
0.0
  0
LINE
  8
0
 62
     0
 10
181.296
 20
4.89342
 30
0.0
 11
181.296
 21
3.69316
 31
0.0
  0
LINE
  8
0
 62
     0
 10
181.296
 20
3.69316
 30
0.0
 11
184.595
 21
3.69316
 31
0.0
  0
LINE
  8
0
 62
     0
 10
184.595
 20
3.69316
 30
0.0
 11
184.595
 21
4.89342
 31
0.0
  0
LINE
  8
0
 62
     0
 10
184.595
 20
4.89342
 30
0.0
 11
186.32
 21
4.89342
 31
0.0
  0
LINE
  8
0
 62
     0
 10
186.32
 20
4.89342
 30
0.0
 11
186.32
 21
11.1635
 31
0.0
  0
LINE
  8
0
 62
     0
 10
186.32
 20
11.1635
 30
0.0
 11
187.146
 21
11.1635
 31
0.0
  0
LINE
  8
0
 62
     0
 10
187.146
 20
11.1635
 30
0.0
 11
187.146
 21
13.9623
 31
0.0
  0
LINE
  8
0
 62
     0
 10
187.146
 20
13.9623
 30
0.0
 11
186.32
 21
13.9623
 31
0.0
  0
LINE
  8
0
 62
     0
 10
186.32
 20
13.9623
 30
0.0
 11
186.32
 21
17.1924
 31
0.0
  0
LINE
  8
0
 62
     0
 10
186.32
 20
17.1924
 30
0.0
 11
179.571
 21
17.1924
 31
0.0
  0
LINE
  8
0
 62
     0
 10
179.571
 20
17.1924
 30
0.0
 11
179.571
 21
13.9623
 31
0.0
  0
LINE
  8
0
 62
     0
 10
179.571
 20
13.9623
 30
0.0
 11
151.97
 21
13.9623
 31
0.0
  0
LINE
  8
0
 62
     0
 10
151.97
 20
13.9623
 30
0.0
 11
151.97
 21
14.5645
 31
0.0
  0
LINE
  8
0
 62
     0
 10
151.97
 20
14.5645
 30
0.0
 11
152.771
 21
14.5645
 31
0.0
  0
LINE
  8
0
 62
     0
 10
152.771
 20
14.5645
 30
0.0
 11
152.771
 21
17.6623
 31
0.0
  0
LINE
  8
0
 62
     0
 10
152.771
 20
17.6623
 30
0.0
 11
151.97
 21
17.6623
 31
0.0
  0
LINE
  8
0
 62
     0
 10
151.97
 20
17.6623
 30
0.0
 11
151.97
 21
18.6628
 31
0.0
  0
LINE
  8
0
 62
     0
 10
151.97
 20
18.6628
 30
0.0
 11
137.971
 21
18.6628
 31
0.0
  0
LINE
  8
0
 62
     0
 10
314.183
 20
18.6628
 30
0.0
 11
314.183
 21
17.6623
 31
0.0
  0
LINE
  8
0
 62
     0
 10
314.183
 20
17.6623
 30
0.0
 11
313.382
 21
17.6623
 31
0.0
  0
LINE
  8
0
 62
     0
 10
313.382
 20
17.6623
 30
0.0
 11
313.382
 21
14.5645
 31
0.0
  0
LINE
  8
0
 62
     0
 10
313.382
 20
14.5645
 30
0.0
 11
314.183
 21
14.5645
 31
0.0
  0
LINE
  8
0
 62
     0
 10
314.183
 20
14.5645
 30
0.0
 11
314.183
 21
8.76293
 31
0.0
  0
LINE
  8
0
 62
     0
 10
314.183
 20
8.76293
 30
0.0
 11
313.382
 21
8.76293
 31
0.0
  0
LINE
  8
0
 62
     0
 10
313.382
 20
8.76293
 30
0.0
 11
313.382
 21
5.66237
 31
0.0
  0
LINE
  8
0
 62
     0
 10
313.382
 20
5.66237
 30
0.0
 11
314.183
 21
5.66237
 31
0.0
  0
LINE
  8
0
 62
     0
 10
314.183
 20
5.66237
 30
0.0
 11
314.183
 21
4.6633
 31
0.0
  0
LINE
  8
0
 62
     0
 10
314.183
 20
4.6633
 30
0.0
 11
328.182
 21
4.6633
 31
0.0
  0
LINE
  8
0
 62
     0
 10
328.182
 20
4.6633
 30
0.0
 11
328.182
 21
5.66237
 31
0.0
  0
LINE
  8
0
 62
     0
 10
328.182
 20
5.66237
 30
0.0
 11
328.982
 21
5.66237
 31
0.0
  0
LINE
  8
0
 62
     0
 10
328.982
 20
5.66237
 30
0.0
 11
328.982
 21
8.76293
 31
0.0
  0
LINE
  8
0
 62
     0
 10
328.982
 20
8.76293
 30
0.0
 11
328.182
 21
8.76293
 31
0.0
  0
LINE
  8
0
 62
     0
 10
328.182
 20
8.76293
 30
0.0
 11
328.182
 21
14.5645
 31
0.0
  0
LINE
  8
0
 62
     0
 10
328.182
 20
14.5645
 30
0.0
 11
328.982
 21
14.5645
 31
0.0
  0
LINE
  8
0
 62
     0
 10
328.982
 20
14.5645
 30
0.0
 11
328.982
 21
17.6623
 31
0.0
  0
LINE
  8
0
 62
     0
 10
328.982
 20
17.6623
 30
0.0
 11
328.182
 21
17.6623
 31
0.0
  0
LINE
  8
0
 62
     0
 10
328.182
 20
17.6623
 30
0.0
 11
328.182
 21
18.6628
 31
0.0
  0
LINE
  8
0
 62
     0
 10
328.182
 20
18.6628
 30
0.0
 11
314.183
 21
18.6628
 31
0.0
  0
LINE
  8
0
 62
     0
 10
295.133
 20
18.6628
 30
0.0
 11
295.133
 21
17.6623
 31
0.0
  0
LINE
  8
0
 62
     0
 10
295.133
 20
17.6623
 30
0.0
 11
294.332
 21
17.6623
 31
0.0
  0
LINE
  8
0
 62
     0
 10
294.332
 20
17.6623
 30
0.0
 11
294.332
 21
14.5645
 31
0.0
  0
LINE
  8
0
 62
     0
 10
294.332
 20
14.5645
 30
0.0
 11
295.133
 21
14.5645
 31
0.0
  0
LINE
  8
0
 62
     0
 10
295.133
 20
14.5645
 30
0.0
 11
295.133
 21
8.76293
 31
0.0
  0
LINE
  8
0
 62
     0
 10
295.133
 20
8.76293
 30
0.0
 11
294.332
 21
8.76293
 31
0.0
  0
LINE
  8
0
 62
     0
 10
294.332
 20
8.76293
 30
0.0
 11
294.332
 21
5.66237
 31
0.0
  0
LINE
  8
0
 62
     0
 10
294.332
 20
5.66237
 30
0.0
 11
295.133
 21
5.66237
 31
0.0
  0
LINE
  8
0
 62
     0
 10
295.133
 20
5.66237
 30
0.0
 11
295.133
 21
4.6633
 31
0.0
  0
LINE
  8
0
 62
     0
 10
295.133
 20
4.6633
 30
0.0
 11
309.132
 21
4.6633
 31
0.0
  0
LINE
  8
0
 62
     0
 10
309.132
 20
4.6633
 30
0.0
 11
309.132
 21
5.66237
 31
0.0
  0
LINE
  8
0
 62
     0
 10
309.132
 20
5.66237
 30
0.0
 11
309.932
 21
5.66237
 31
0.0
  0
LINE
  8
0
 62
     0
 10
309.932
 20
5.66237
 30
0.0
 11
309.932
 21
8.76293
 31
0.0
  0
LINE
  8
0
 62
     0
 10
309.932
 20
8.76293
 30
0.0
 11
309.132
 21
8.76293
 31
0.0
  0
LINE
  8
0
 62
     0
 10
309.132
 20
8.76293
 30
0.0
 11
309.132
 21
14.5645
 31
0.0
  0
LINE
  8
0
 62
     0
 10
309.132
 20
14.5645
 30
0.0
 11
309.932
 21
14.5645
 31
0.0
  0
LINE
  8
0
 62
     0
 10
309.932
 20
14.5645
 30
0.0
 11
309.932
 21
17.6623
 31
0.0
  0
LINE
  8
0
 62
     0
 10
309.932
 20
17.6623
 30
0.0
 11
309.132
 21
17.6623
 31
0.0
  0
LINE
  8
0
 62
     0
 10
309.132
 20
17.6623
 30
0.0
 11
309.132
 21
18.6628
 31
0.0
  0
LINE
  8
0
 62
     0
 10
309.132
 20
18.6628
 30
0.0
 11
295.133
 21
18.6628
 31
0.0
  0
LINE
  8
0
 62
     0
 10
276.083
 20
18.6628
 30
0.0
 11
276.083
 21
17.6623
 31
0.0
  0
LINE
  8
0
 62
     0
 10
276.083
 20
17.6623
 30
0.0
 11
275.282
 21
17.6623
 31
0.0
  0
LINE
  8
0
 62
     0
 10
275.282
 20
17.6623
 30
0.0
 11
275.282
 21
14.5645
 31
0.0
  0
LINE
  8
0
 62
     0
 10
275.282
 20
14.5645
 30
0.0
 11
276.083
 21
14.5645
 31
0.0
  0
LINE
  8
0
 62
     0
 10
276.083
 20
14.5645
 30
0.0
 11
276.083
 21
8.76293
 31
0.0
  0
LINE
  8
0
 62
     0
 10
276.083
 20
8.76293
 30
0.0
 11
275.282
 21
8.76293
 31
0.0
  0
LINE
  8
0
 62
     0
 10
275.282
 20
8.76293
 30
0.0
 11
275.282
 21
5.66237
 31
0.0
  0
LINE
  8
0
 62
     0
 10
275.282
 20
5.66237
 30
0.0
 11
276.083
 21
5.66237
 31
0.0
  0
LINE
  8
0
 62
     0
 10
276.083
 20
5.66237
 30
0.0
 11
276.083
 21
4.6633
 31
0.0
  0
LINE
  8
0
 62
     0
 10
276.083
 20
4.6633
 30
0.0
 11
290.082
 21
4.6633
 31
0.0
  0
LINE
  8
0
 62
     0
 10
290.082
 20
4.6633
 30
0.0
 11
290.082
 21
5.66237
 31
0.0
  0
LINE
  8
0
 62
     0
 10
290.082
 20
5.66237
 30
0.0
 11
290.882
 21
5.66237
 31
0.0
  0
LINE
  8
0
 62
     0
 10
290.882
 20
5.66237
 30
0.0
 11
290.882
 21
8.76293
 31
0.0
  0
LINE
  8
0
 62
     0
 10
290.882
 20
8.76293
 30
0.0
 11
290.082
 21
8.76293
 31
0.0
  0
LINE
  8
0
 62
     0
 10
290.082
 20
8.76293
 30
0.0
 11
290.082
 21
14.5645
 31
0.0
  0
LINE
  8
0
 62
     0
 10
290.082
 20
14.5645
 30
0.0
 11
290.882
 21
14.5645
 31
0.0
  0
LINE
  8
0
 62
     0
 10
290.882
 20
14.5645
 30
0.0
 11
290.882
 21
17.6623
 31
0.0
  0
LINE
  8
0
 62
     0
 10
290.882
 20
17.6623
 30
0.0
 11
290.082
 21
17.6623
 31
0.0
  0
LINE
  8
0
 62
     0
 10
290.082
 20
17.6623
 30
0.0
 11
290.082
 21
18.6628
 31
0.0
  0
LINE
  8
0
 62
     0
 10
290.082
 20
18.6628
 30
0.0
 11
276.083
 21
18.6628
 31
0.0
  0
LINE
  8
0
 62
     0
 10
252.271
 20
18.6628
 30
0.0
 11
252.271
 21
17.6623
 31
0.0
  0
LINE
  8
0
 62
     0
 10
252.271
 20
17.6623
 30
0.0
 11
251.47
 21
17.6623
 31
0.0
  0
LINE
  8
0
 62
     0
 10
251.47
 20
17.6623
 30
0.0
 11
251.47
 21
14.5645
 31
0.0
  0
LINE
  8
0
 62
     0
 10
251.47
 20
14.5645
 30
0.0
 11
252.271
 21
14.5645
 31
0.0
  0
LINE
  8
0
 62
     0
 10
252.271
 20
14.5645
 30
0.0
 11
252.271
 21
8.76293
 31
0.0
  0
LINE
  8
0
 62
     0
 10
252.271
 20
8.76293
 30
0.0
 11
251.47
 21
8.76293
 31
0.0
  0
LINE
  8
0
 62
     0
 10
251.47
 20
8.76293
 30
0.0
 11
251.47
 21
5.66237
 31
0.0
  0
LINE
  8
0
 62
     0
 10
251.47
 20
5.66237
 30
0.0
 11
252.271
 21
5.66237
 31
0.0
  0
LINE
  8
0
 62
     0
 10
252.271
 20
5.66237
 30
0.0
 11
252.271
 21
4.6633
 31
0.0
  0
LINE
  8
0
 62
     0
 10
252.271
 20
4.6633
 30
0.0
 11
266.27
 21
4.6633
 31
0.0
  0
LINE
  8
0
 62
     0
 10
266.27
 20
4.6633
 30
0.0
 11
266.27
 21
5.66237
 31
0.0
  0
LINE
  8
0
 62
     0
 10
266.27
 20
5.66237
 30
0.0
 11
267.071
 21
5.66237
 31
0.0
  0
LINE
  8
0
 62
     0
 10
267.071
 20
5.66237
 30
0.0
 11
267.071
 21
8.76293
 31
0.0
  0
LINE
  8
0
 62
     0
 10
267.071
 20
8.76293
 30
0.0
 11
266.27
 21
8.76293
 31
0.0
  0
LINE
  8
0
 62
     0
 10
266.27
 20
8.76293
 30
0.0
 11
266.27
 21
14.5645
 31
0.0
  0
LINE
  8
0
 62
     0
 10
266.27
 20
14.5645
 30
0.0
 11
267.071
 21
14.5645
 31
0.0
  0
LINE
  8
0
 62
     0
 10
267.071
 20
14.5645
 30
0.0
 11
267.071
 21
17.6623
 31
0.0
  0
LINE
  8
0
 62
     0
 10
267.071
 20
17.6623
 30
0.0
 11
266.27
 21
17.6623
 31
0.0
  0
LINE
  8
0
 62
     0
 10
266.27
 20
17.6623
 30
0.0
 11
266.27
 21
18.6628
 31
0.0
  0
LINE
  8
0
 62
     0
 10
266.27
 20
18.6628
 30
0.0
 11
252.271
 21
18.6628
 31
0.0
  0
LINE
  8
0
 62
     0
 10
233.221
 20
18.6628
 30
0.0
 11
233.221
 21
17.6623
 31
0.0
  0
LINE
  8
0
 62
     0
 10
233.221
 20
17.6623
 30
0.0
 11
232.42
 21
17.6623
 31
0.0
  0
LINE
  8
0
 62
     0
 10
232.42
 20
17.6623
 30
0.0
 11
232.42
 21
14.5645
 31
0.0
  0
LINE
  8
0
 62
     0
 10
232.42
 20
14.5645
 30
0.0
 11
233.221
 21
14.5645
 31
0.0
  0
LINE
  8
0
 62
     0
 10
233.221
 20
14.5645
 30
0.0
 11
233.221
 21
8.76293
 31
0.0
  0
LINE
  8
0
 62
     0
 10
233.221
 20
8.76293
 30
0.0
 11
232.42
 21
8.76293
 31
0.0
  0
LINE
  8
0
 62
     0
 10
232.42
 20
8.76293
 30
0.0
 11
232.42
 21
5.66237
 31
0.0
  0
LINE
  8
0
 62
     0
 10
232.42
 20
5.66237
 30
0.0
 11
233.221
 21
5.66237
 31
0.0
  0
LINE
  8
0
 62
     0
 10
233.221
 20
5.66237
 30
0.0
 11
233.221
 21
4.6633
 31
0.0
  0
LINE
  8
0
 62
     0
 10
233.221
 20
4.6633
 30
0.0
 11
247.22
 21
4.6633
 31
0.0
  0
LINE
  8
0
 62
     0
 10
247.22
 20
4.6633
 30
0.0
 11
247.22
 21
5.66237
 31
0.0
  0
LINE
  8
0
 62
     0
 10
247.22
 20
5.66237
 30
0.0
 11
248.021
 21
5.66237
 31
0.0
  0
LINE
  8
0
 62
     0
 10
248.021
 20
5.66237
 30
0.0
 11
248.021
 21
8.76293
 31
0.0
  0
LINE
  8
0
 62
     0
 10
248.021
 20
8.76293
 30
0.0
 11
247.22
 21
8.76293
 31
0.0
  0
LINE
  8
0
 62
     0
 10
247.22
 20
8.76293
 30
0.0
 11
247.22
 21
14.5645
 31
0.0
  0
LINE
  8
0
 62
     0
 10
247.22
 20
14.5645
 30
0.0
 11
248.021
 21
14.5645
 31
0.0
  0
LINE
  8
0
 62
     0
 10
248.021
 20
14.5645
 30
0.0
 11
248.021
 21
17.6623
 31
0.0
  0
LINE
  8
0
 62
     0
 10
248.021
 20
17.6623
 30
0.0
 11
247.22
 21
17.6623
 31
0.0
  0
LINE
  8
0
 62
     0
 10
247.22
 20
17.6623
 30
0.0
 11
247.22
 21
18.6628
 31
0.0
  0
LINE
  8
0
 62
     0
 10
247.22
 20
18.6628
 30
0.0
 11
233.221
 21
18.6628
 31
0.0
  0
LINE
  8
0
 62
     0
 10
214.171
 20
18.6628
 30
0.0
 11
214.171
 21
17.6623
 31
0.0
  0
LINE
  8
0
 62
     0
 10
214.171
 20
17.6623
 30
0.0
 11
213.37
 21
17.6623
 31
0.0
  0
LINE
  8
0
 62
     0
 10
213.37
 20
17.6623
 30
0.0
 11
213.37
 21
14.5645
 31
0.0
  0
LINE
  8
0
 62
     0
 10
213.37
 20
14.5645
 30
0.0
 11
214.171
 21
14.5645
 31
0.0
  0
LINE
  8
0
 62
     0
 10
214.171
 20
14.5645
 30
0.0
 11
214.171
 21
8.76293
 31
0.0
  0
LINE
  8
0
 62
     0
 10
214.171
 20
8.76293
 30
0.0
 11
213.37
 21
8.76293
 31
0.0
  0
LINE
  8
0
 62
     0
 10
213.37
 20
8.76293
 30
0.0
 11
213.37
 21
5.66237
 31
0.0
  0
LINE
  8
0
 62
     0
 10
213.37
 20
5.66237
 30
0.0
 11
214.171
 21
5.66237
 31
0.0
  0
LINE
  8
0
 62
     0
 10
214.171
 20
5.66237
 30
0.0
 11
214.171
 21
4.6633
 31
0.0
  0
LINE
  8
0
 62
     0
 10
214.171
 20
4.6633
 30
0.0
 11
228.17
 21
4.6633
 31
0.0
  0
LINE
  8
0
 62
     0
 10
228.17
 20
4.6633
 30
0.0
 11
228.17
 21
5.66237
 31
0.0
  0
LINE
  8
0
 62
     0
 10
228.17
 20
5.66237
 30
0.0
 11
228.971
 21
5.66237
 31
0.0
  0
LINE
  8
0
 62
     0
 10
228.971
 20
5.66237
 30
0.0
 11
228.971
 21
8.76293
 31
0.0
  0
LINE
  8
0
 62
     0
 10
228.971
 20
8.76293
 30
0.0
 11
228.17
 21
8.76293
 31
0.0
  0
LINE
  8
0
 62
     0
 10
228.17
 20
8.76293
 30
0.0
 11
228.17
 21
14.5645
 31
0.0
  0
LINE
  8
0
 62
     0
 10
228.17
 20
14.5645
 30
0.0
 11
228.971
 21
14.5645
 31
0.0
  0
LINE
  8
0
 62
     0
 10
228.971
 20
14.5645
 30
0.0
 11
228.971
 21
17.6623
 31
0.0
  0
LINE
  8
0
 62
     0
 10
228.971
 20
17.6623
 30
0.0
 11
228.17
 21
17.6623
 31
0.0
  0
LINE
  8
0
 62
     0
 10
228.17
 20
17.6623
 30
0.0
 11
228.17
 21
18.6628
 31
0.0
  0
LINE
  8
0
 62
     0
 10
228.17
 20
18.6628
 30
0.0
 11
214.171
 21
18.6628
 31
0.0
  0
LINE
  8
0
 62
     0
 10
195.121
 20
18.6628
 30
0.0
 11
195.121
 21
17.6623
 31
0.0
  0
LINE
  8
0
 62
     0
 10
195.121
 20
17.6623
 30
0.0
 11
194.32
 21
17.6623
 31
0.0
  0
LINE
  8
0
 62
     0
 10
194.32
 20
17.6623
 30
0.0
 11
194.32
 21
14.5645
 31
0.0
  0
LINE
  8
0
 62
     0
 10
194.32
 20
14.5645
 30
0.0
 11
195.121
 21
14.5645
 31
0.0
  0
LINE
  8
0
 62
     0
 10
195.121
 20
14.5645
 30
0.0
 11
195.121
 21
8.76293
 31
0.0
  0
LINE
  8
0
 62
     0
 10
195.121
 20
8.76293
 30
0.0
 11
194.32
 21
8.76293
 31
0.0
  0
LINE
  8
0
 62
     0
 10
194.32
 20
8.76293
 30
0.0
 11
194.32
 21
5.66237
 31
0.0
  0
LINE
  8
0
 62
     0
 10
194.32
 20
5.66237
 30
0.0
 11
195.121
 21
5.66237
 31
0.0
  0
LINE
  8
0
 62
     0
 10
195.121
 20
5.66237
 30
0.0
 11
195.121
 21
4.6633
 31
0.0
  0
LINE
  8
0
 62
     0
 10
195.121
 20
4.6633
 30
0.0
 11
209.12
 21
4.6633
 31
0.0
  0
LINE
  8
0
 62
     0
 10
209.12
 20
4.6633
 30
0.0
 11
209.12
 21
5.66237
 31
0.0
  0
LINE
  8
0
 62
     0
 10
209.12
 20
5.66237
 30
0.0
 11
209.921
 21
5.66237
 31
0.0
  0
LINE
  8
0
 62
     0
 10
209.921
 20
5.66237
 30
0.0
 11
209.921
 21
8.76293
 31
0.0
  0
LINE
  8
0
 62
     0
 10
209.921
 20
8.76293
 30
0.0
 11
209.12
 21
8.76293
 31
0.0
  0
LINE
  8
0
 62
     0
 10
209.12
 20
8.76293
 30
0.0
 11
209.12
 21
14.5645
 31
0.0
  0
LINE
  8
0
 62
     0
 10
209.12
 20
14.5645
 30
0.0
 11
209.921
 21
14.5645
 31
0.0
  0
LINE
  8
0
 62
     0
 10
209.921
 20
14.5645
 30
0.0
 11
209.921
 21
17.6623
 31
0.0
  0
LINE
  8
0
 62
     0
 10
209.921
 20
17.6623
 30
0.0
 11
209.12
 21
17.6623
 31
0.0
  0
LINE
  8
0
 62
     0
 10
209.12
 20
17.6623
 30
0.0
 11
209.12
 21
18.6628
 31
0.0
  0
LINE
  8
0
 62
     0
 10
209.12
 20
18.6628
 30
0.0
 11
195.121
 21
18.6628
 31
0.0
  0
LINE
  8
0
 62
     0
 10
61.7707
 20
18.6628
 30
0.0
 11
61.7707
 21
17.6623
 31
0.0
  0
LINE
  8
0
 62
     0
 10
61.7707
 20
17.6623
 30
0.0
 11
60.9699
 21
17.6623
 31
0.0
  0
LINE
  8
0
 62
     0
 10
60.9699
 20
17.6623
 30
0.0
 11
60.9699
 21
14.5645
 31
0.0
  0
LINE
  8
0
 62
     0
 10
60.9699
 20
14.5645
 30
0.0
 11
61.7707
 21
14.5645
 31
0.0
  0
LINE
  8
0
 62
     0
 10
61.7707
 20
14.5645
 30
0.0
 11
61.7707
 21
8.76293
 31
0.0
  0
LINE
  8
0
 62
     0
 10
61.7707
 20
8.76293
 30
0.0
 11
60.9699
 21
8.76293
 31
0.0
  0
LINE
  8
0
 62
     0
 10
60.9699
 20
8.76293
 30
0.0
 11
60.9699
 21
5.66237
 31
0.0
  0
LINE
  8
0
 62
     0
 10
60.9699
 20
5.66237
 30
0.0
 11
61.7707
 21
5.66237
 31
0.0
  0
LINE
  8
0
 62
     0
 10
61.7707
 20
5.66237
 30
0.0
 11
61.7707
 21
4.6633
 31
0.0
  0
LINE
  8
0
 62
     0
 10
61.7707
 20
4.6633
 30
0.0
 11
75.77
 21
4.6633
 31
0.0
  0
LINE
  8
0
 62
     0
 10
75.77
 20
4.6633
 30
0.0
 11
75.77
 21
5.66237
 31
0.0
  0
LINE
  8
0
 62
     0
 10
75.77
 20
5.66237
 30
0.0
 11
76.5708
 21
5.66237
 31
0.0
  0
LINE
  8
0
 62
     0
 10
76.5708
 20
5.66237
 30
0.0
 11
76.5708
 21
8.76293
 31
0.0
  0
LINE
  8
0
 62
     0
 10
76.5708
 20
8.76293
 30
0.0
 11
75.77
 21
8.76293
 31
0.0
  0
LINE
  8
0
 62
     0
 10
75.77
 20
8.76293
 30
0.0
 11
75.77
 21
14.5645
 31
0.0
  0
LINE
  8
0
 62
     0
 10
75.77
 20
14.5645
 30
0.0
 11
76.5708
 21
14.5645
 31
0.0
  0
LINE
  8
0
 62
     0
 10
76.5708
 20
14.5645
 30
0.0
 11
76.5708
 21
17.6623
 31
0.0
  0
LINE
  8
0
 62
     0
 10
76.5708
 20
17.6623
 30
0.0
 11
75.77
 21
17.6623
 31
0.0
  0
LINE
  8
0
 62
     0
 10
75.77
 20
17.6623
 30
0.0
 11
75.77
 21
18.6628
 31
0.0
  0
LINE
  8
0
 62
     0
 10
75.77
 20
18.6628
 30
0.0
 11
61.7707
 21
18.6628
 31
0.0
  0
LINE
  8
0
 62
     0
 10
42.7207
 20
18.6628
 30
0.0
 11
42.7207
 21
17.6623
 31
0.0
  0
LINE
  8
0
 62
     0
 10
42.7207
 20
17.6623
 30
0.0
 11
41.9199
 21
17.6623
 31
0.0
  0
LINE
  8
0
 62
     0
 10
41.9199
 20
17.6623
 30
0.0
 11
41.9199
 21
14.5645
 31
0.0
  0
LINE
  8
0
 62
     0
 10
41.9199
 20
14.5645
 30
0.0
 11
42.7207
 21
14.5645
 31
0.0
  0
LINE
  8
0
 62
     0
 10
42.7207
 20
14.5645
 30
0.0
 11
42.7207
 21
8.76293
 31
0.0
  0
LINE
  8
0
 62
     0
 10
42.7207
 20
8.76293
 30
0.0
 11
41.9199
 21
8.76293
 31
0.0
  0
LINE
  8
0
 62
     0
 10
41.9199
 20
8.76293
 30
0.0
 11
41.9199
 21
5.66237
 31
0.0
  0
LINE
  8
0
 62
     0
 10
41.9199
 20
5.66237
 30
0.0
 11
42.7207
 21
5.66237
 31
0.0
  0
LINE
  8
0
 62
     0
 10
42.7207
 20
5.66237
 30
0.0
 11
42.7207
 21
4.6633
 31
0.0
  0
LINE
  8
0
 62
     0
 10
42.7207
 20
4.6633
 30
0.0
 11
56.72
 21
4.6633
 31
0.0
  0
LINE
  8
0
 62
     0
 10
56.72
 20
4.6633
 30
0.0
 11
56.72
 21
5.66237
 31
0.0
  0
LINE
  8
0
 62
     0
 10
56.72
 20
5.66237
 30
0.0
 11
57.5208
 21
5.66237
 31
0.0
  0
LINE
  8
0
 62
     0
 10
57.5208
 20
5.66237
 30
0.0
 11
57.5208
 21
8.76293
 31
0.0
  0
LINE
  8
0
 62
     0
 10
57.5208
 20
8.76293
 30
0.0
 11
56.72
 21
8.76293
 31
0.0
  0
LINE
  8
0
 62
     0
 10
56.72
 20
8.76293
 30
0.0
 11
56.72
 21
14.5645
 31
0.0
  0
LINE
  8
0
 62
     0
 10
56.72
 20
14.5645
 30
0.0
 11
57.5208
 21
14.5645
 31
0.0
  0
LINE
  8
0
 62
     0
 10
57.5208
 20
14.5645
 30
0.0
 11
57.5208
 21
17.6623
 31
0.0
  0
LINE
  8
0
 62
     0
 10
57.5208
 20
17.6623
 30
0.0
 11
56.72
 21
17.6623
 31
0.0
  0
LINE
  8
0
 62
     0
 10
56.72
 20
17.6623
 30
0.0
 11
56.72
 21
18.6628
 31
0.0
  0
LINE
  8
0
 62
     0
 10
56.72
 20
18.6628
 30
0.0
 11
42.7207
 21
18.6628
 31
0.0
  0
LINE
  8
0
 62
     0
 10
23.6706
 20
18.6628
 30
0.0
 11
23.6706
 21
17.6623
 31
0.0
  0
LINE
  8
0
 62
     0
 10
23.6706
 20
17.6623
 30
0.0
 11
22.8699
 21
17.6623
 31
0.0
  0
LINE
  8
0
 62
     0
 10
22.8699
 20
17.6623
 30
0.0
 11
22.8699
 21
14.5645
 31
0.0
  0
LINE
  8
0
 62
     0
 10
22.8699
 20
14.5645
 30
0.0
 11
23.6706
 21
14.5645
 31
0.0
  0
LINE
  8
0
 62
     0
 10
23.6706
 20
14.5645
 30
0.0
 11
23.6706
 21
8.76293
 31
0.0
  0
LINE
  8
0
 62
     0
 10
23.6706
 20
8.76293
 30
0.0
 11
22.8699
 21
8.76293
 31
0.0
  0
LINE
  8
0
 62
     0
 10
22.8699
 20
8.76293
 30
0.0
 11
22.8699
 21
5.66237
 31
0.0
  0
LINE
  8
0
 62
     0
 10
22.8699
 20
5.66237
 30
0.0
 11
23.6706
 21
5.66237
 31
0.0
  0
LINE
  8
0
 62
     0
 10
23.6706
 20
5.66237
 30
0.0
 11
23.6706
 21
4.6633
 31
0.0
  0
LINE
  8
0
 62
     0
 10
23.6706
 20
4.6633
 30
0.0
 11
37.67
 21
4.6633
 31
0.0
  0
LINE
  8
0
 62
     0
 10
37.67
 20
4.6633
 30
0.0
 11
37.67
 21
5.66237
 31
0.0
  0
LINE
  8
0
 62
     0
 10
37.67
 20
5.66237
 30
0.0
 11
38.4708
 21
5.66237
 31
0.0
  0
LINE
  8
0
 62
     0
 10
38.4708
 20
5.66237
 30
0.0
 11
38.4708
 21
8.76293
 31
0.0
  0
LINE
  8
0
 62
     0
 10
38.4708
 20
8.76293
 30
0.0
 11
37.67
 21
8.76293
 31
0.0
  0
LINE
  8
0
 62
     0
 10
37.67
 20
8.76293
 30
0.0
 11
37.67
 21
14.5645
 31
0.0
  0
LINE
  8
0
 62
     0
 10
37.67
 20
14.5645
 30
0.0
 11
38.4708
 21
14.5645
 31
0.0
  0
LINE
  8
0
 62
     0
 10
38.4708
 20
14.5645
 30
0.0
 11
38.4708
 21
17.6623
 31
0.0
  0
LINE
  8
0
 62
     0
 10
38.4708
 20
17.6623
 30
0.0
 11
37.67
 21
17.6623
 31
0.0
  0
LINE
  8
0
 62
     0
 10
37.67
 20
17.6623
 30
0.0
 11
37.67
 21
18.6628
 31
0.0
  0
LINE
  8
0
 62
     0
 10
37.67
 20
18.6628
 30
0.0
 11
23.6706
 21
18.6628
 31
0.0
  0
LINE
  8
0
 62
     0
 10
4.6192
 20
18.6628
 30
0.0
 11
4.6192
 21
17.6623
 31
0.0
  0
LINE
  8
0
 62
     0
 10
4.6192
 20
17.6623
 30
0.0
 11
3.81991
 21
17.6623
 31
0.0
  0
LINE
  8
0
 62
     0
 10
3.81991
 20
17.6623
 30
0.0
 11
3.81991
 21
14.5645
 31
0.0
  0
LINE
  8
0
 62
     0
 10
3.81991
 20
14.5645
 30
0.0
 11
4.6192
 21
14.5645
 31
0.0
  0
LINE
  8
0
 62
     0
 10
4.6192
 20
14.5645
 30
0.0
 11
4.6192
 21
8.76293
 31
0.0
  0
LINE
  8
0
 62
     0
 10
4.6192
 20
8.76293
 30
0.0
 11
3.81991
 21
8.76293
 31
0.0
  0
LINE
  8
0
 62
     0
 10
3.81991
 20
8.76293
 30
0.0
 11
3.81991
 21
5.66237
 31
0.0
  0
LINE
  8
0
 62
     0
 10
3.81991
 20
5.66237
 30
0.0
 11
4.6192
 21
5.66237
 31
0.0
  0
LINE
  8
0
 62
     0
 10
4.6192
 20
5.66237
 30
0.0
 11
4.6192
 21
4.6633
 31
0.0
  0
LINE
  8
0
 62
     0
 10
4.6192
 20
4.6633
 30
0.0
 11
18.6201
 21
4.6633
 31
0.0
  0
LINE
  8
0
 62
     0
 10
18.6201
 20
4.6633
 30
0.0
 11
18.6201
 21
5.66237
 31
0.0
  0
LINE
  8
0
 62
     0
 10
18.6201
 20
5.66237
 30
0.0
 11
19.4207
 21
5.66237
 31
0.0
  0
LINE
  8
0
 62
     0
 10
19.4207
 20
5.66237
 30
0.0
 11
19.4207
 21
8.76293
 31
0.0
  0
LINE
  8
0
 62
     0
 10
19.4207
 20
8.76293
 30
0.0
 11
18.6201
 21
8.76293
 31
0.0
  0
LINE
  8
0
 62
     0
 10
18.6201
 20
8.76293
 30
0.0
 11
18.6201
 21
14.5645
 31
0.0
  0
LINE
  8
0
 62
     0
 10
18.6201
 20
14.5645
 30
0.0
 11
19.4207
 21
14.5645
 31
0.0
  0
LINE
  8
0
 62
     0
 10
19.4207
 20
14.5645
 30
0.0
 11
19.4207
 21
17.6623
 31
0.0
  0
LINE
  8
0
 62
     0
 10
19.4207
 20
17.6623
 30
0.0
 11
18.6201
 21
17.6623
 31
0.0
  0
LINE
  8
0
 62
     0
 10
18.6201
 20
17.6623
 30
0.0
 11
18.6201
 21
18.6628
 31
0.0
  0
LINE
  8
0
 62
     0
 10
18.6201
 20
18.6628
 30
0.0
 11
4.6192
 21
18.6628
 31
0.0
  0
LINE
  8
0
 62
     0
 10
254.651
 20
37.7127
 30
0.0
 11
254.651
 21
36.7122
 31
0.0
  0
LINE
  8
0
 62
     0
 10
254.651
 20
36.7122
 30
0.0
 11
253.851
 21
36.7122
 31
0.0
  0
LINE
  8
0
 62
     0
 10
253.851
 20
36.7122
 30
0.0
 11
253.851
 21
33.6145
 31
0.0
  0
LINE
  8
0
 62
     0
 10
253.851
 20
33.6145
 30
0.0
 11
254.651
 21
33.6145
 31
0.0
  0
LINE
  8
0
 62
     0
 10
254.651
 20
33.6145
 30
0.0
 11
254.651
 21
33.0123
 31
0.0
  0
LINE
  8
0
 62
     0
 10
254.651
 20
33.0123
 30
0.0
 11
253.126
 21
33.0123
 31
0.0
  0
LINE
  8
0
 62
     0
 10
253.126
 20
33.0123
 30
0.0
 11
253.126
 21
36.2423
 31
0.0
  0
LINE
  8
0
 62
     0
 10
253.126
 20
36.2423
 30
0.0
 11
246.377
 21
36.2423
 31
0.0
  0
LINE
  8
0
 62
     0
 10
246.377
 20
36.2423
 30
0.0
 11
246.377
 21
33.0123
 31
0.0
  0
LINE
  8
0
 62
     0
 10
246.377
 20
33.0123
 30
0.0
 11
245.551
 21
33.0123
 31
0.0
  0
LINE
  8
0
 62
     0
 10
245.551
 20
33.0123
 30
0.0
 11
245.551
 21
30.2135
 31
0.0
  0
LINE
  8
0
 62
     0
 10
245.551
 20
30.2135
 30
0.0
 11
246.377
 21
30.2135
 31
0.0
  0
LINE
  8
0
 62
     0
 10
246.377
 20
30.2135
 30
0.0
 11
246.377
 21
23.9434
 31
0.0
  0
LINE
  8
0
 62
     0
 10
246.377
 20
23.9434
 30
0.0
 11
248.102
 21
23.9434
 31
0.0
  0
LINE
  8
0
 62
     0
 10
248.102
 20
23.9434
 30
0.0
 11
248.102
 21
22.7432
 31
0.0
  0
LINE
  8
0
 62
     0
 10
248.102
 20
22.7432
 30
0.0
 11
251.401
 21
22.7432
 31
0.0
  0
LINE
  8
0
 62
     0
 10
251.401
 20
22.7432
 30
0.0
 11
251.401
 21
23.9434
 31
0.0
  0
LINE
  8
0
 62
     0
 10
251.401
 20
23.9434
 30
0.0
 11
253.126
 21
23.9434
 31
0.0
  0
LINE
  8
0
 62
     0
 10
253.126
 20
23.9434
 30
0.0
 11
253.126
 21
28.4124
 31
0.0
  0
LINE
  8
0
 62
     0
 10
253.126
 20
28.4124
 30
0.0
 11
254.651
 21
28.4124
 31
0.0
  0
LINE
  8
0
 62
     0
 10
254.651
 20
28.4124
 30
0.0
 11
254.651
 21
27.8129
 31
0.0
  0
LINE
  8
0
 62
     0
 10
254.651
 20
27.8129
 30
0.0
 11
253.851
 21
27.8129
 31
0.0
  0
LINE
  8
0
 62
     0
 10
253.851
 20
27.8129
 30
0.0
 11
253.851
 21
24.7124
 31
0.0
  0
LINE
  8
0
 62
     0
 10
253.851
 20
24.7124
 30
0.0
 11
254.651
 21
24.7124
 31
0.0
  0
LINE
  8
0
 62
     0
 10
254.651
 20
24.7124
 30
0.0
 11
254.651
 21
23.7133
 31
0.0
  0
LINE
  8
0
 62
     0
 10
254.651
 20
23.7133
 30
0.0
 11
268.651
 21
23.7133
 31
0.0
  0
LINE
  8
0
 62
     0
 10
268.651
 20
23.7133
 30
0.0
 11
268.651
 21
24.7124
 31
0.0
  0
LINE
  8
0
 62
     0
 10
268.651
 20
24.7124
 30
0.0
 11
269.452
 21
24.7124
 31
0.0
  0
LINE
  8
0
 62
     0
 10
269.452
 20
24.7124
 30
0.0
 11
269.452
 21
27.8129
 31
0.0
  0
LINE
  8
0
 62
     0
 10
269.452
 20
27.8129
 30
0.0
 11
268.651
 21
27.8129
 31
0.0
  0
LINE
  8
0
 62
     0
 10
268.651
 20
27.8129
 30
0.0
 11
268.651
 21
28.4124
 31
0.0
  0
LINE
  8
0
 62
     0
 10
268.651
 20
28.4124
 30
0.0
 11
270.177
 21
28.4124
 31
0.0
  0
LINE
  8
0
 62
     0
 10
270.177
 20
28.4124
 30
0.0
 11
270.177
 21
23.9434
 31
0.0
  0
LINE
  8
0
 62
     0
 10
270.177
 20
23.9434
 30
0.0
 11
271.902
 21
23.9434
 31
0.0
  0
LINE
  8
0
 62
     0
 10
271.902
 20
23.9434
 30
0.0
 11
271.902
 21
22.7432
 31
0.0
  0
LINE
  8
0
 62
     0
 10
271.902
 20
22.7432
 30
0.0
 11
275.201
 21
22.7432
 31
0.0
  0
LINE
  8
0
 62
     0
 10
275.201
 20
22.7432
 30
0.0
 11
275.201
 21
23.9434
 31
0.0
  0
LINE
  8
0
 62
     0
 10
275.201
 20
23.9434
 30
0.0
 11
276.926
 21
23.9434
 31
0.0
  0
LINE
  8
0
 62
     0
 10
276.926
 20
23.9434
 30
0.0
 11
276.926
 21
30.2135
 31
0.0
  0
LINE
  8
0
 62
     0
 10
276.926
 20
30.2135
 30
0.0
 11
277.752
 21
30.2135
 31
0.0
  0
LINE
  8
0
 62
     0
 10
277.752
 20
30.2135
 30
0.0
 11
277.752
 21
33.0123
 31
0.0
  0
LINE
  8
0
 62
     0
 10
277.752
 20
33.0123
 30
0.0
 11
276.926
 21
33.0123
 31
0.0
  0
LINE
  8
0
 62
     0
 10
276.926
 20
33.0123
 30
0.0
 11
276.926
 21
36.2423
 31
0.0
  0
LINE
  8
0
 62
     0
 10
276.926
 20
36.2423
 30
0.0
 11
270.177
 21
36.2423
 31
0.0
  0
LINE
  8
0
 62
     0
 10
270.177
 20
36.2423
 30
0.0
 11
270.177
 21
33.0123
 31
0.0
  0
LINE
  8
0
 62
     0
 10
270.177
 20
33.0123
 30
0.0
 11
268.651
 21
33.0123
 31
0.0
  0
LINE
  8
0
 62
     0
 10
268.651
 20
33.0123
 30
0.0
 11
268.651
 21
33.6145
 31
0.0
  0
LINE
  8
0
 62
     0
 10
268.651
 20
33.6145
 30
0.0
 11
269.452
 21
33.6145
 31
0.0
  0
LINE
  8
0
 62
     0
 10
269.452
 20
33.6145
 30
0.0
 11
269.452
 21
36.7122
 31
0.0
  0
LINE
  8
0
 62
     0
 10
269.452
 20
36.7122
 30
0.0
 11
268.651
 21
36.7122
 31
0.0
  0
LINE
  8
0
 62
     0
 10
268.651
 20
36.7122
 30
0.0
 11
268.651
 21
37.7127
 31
0.0
  0
LINE
  8
0
 62
     0
 10
268.651
 20
37.7127
 30
0.0
 11
254.651
 21
37.7127
 31
0.0
  0
LINE
  8
0
 62
     0
 10
16.5268
 20
37.7127
 30
0.0
 11
16.5268
 21
36.7122
 31
0.0
  0
LINE
  8
0
 62
     0
 10
16.5268
 20
36.7122
 30
0.0
 11
15.7262
 21
36.7122
 31
0.0
  0
LINE
  8
0
 62
     0
 10
15.7262
 20
36.7122
 30
0.0
 11
15.7262
 21
33.6145
 31
0.0
  0
LINE
  8
0
 62
     0
 10
15.7262
 20
33.6145
 30
0.0
 11
16.5268
 21
33.6145
 31
0.0
  0
LINE
  8
0
 62
     0
 10
16.5268
 20
33.6145
 30
0.0
 11
16.5268
 21
33.0123
 31
0.0
  0
LINE
  8
0
 62
     0
 10
16.5268
 20
33.0123
 30
0.0
 11
15.0013
 21
33.0123
 31
0.0
  0
LINE
  8
0
 62
     0
 10
15.0013
 20
33.0123
 30
0.0
 11
15.0013
 21
36.2423
 31
0.0
  0
LINE
  8
0
 62
     0
 10
15.0013
 20
36.2423
 30
0.0
 11
8.25168
 21
36.2423
 31
0.0
  0
LINE
  8
0
 62
     0
 10
8.25168
 20
36.2423
 30
0.0
 11
8.25168
 21
33.0123
 31
0.0
  0
LINE
  8
0
 62
     0
 10
8.25168
 20
33.0123
 30
0.0
 11
7.42625
 21
33.0123
 31
0.0
  0
LINE
  8
0
 62
     0
 10
7.42625
 20
33.0123
 30
0.0
 11
7.42625
 21
30.2135
 31
0.0
  0
LINE
  8
0
 62
     0
 10
7.42625
 20
30.2135
 30
0.0
 11
8.25168
 21
30.2135
 31
0.0
  0
LINE
  8
0
 62
     0
 10
8.25168
 20
30.2135
 30
0.0
 11
8.25168
 21
23.9434
 31
0.0
  0
LINE
  8
0
 62
     0
 10
8.25168
 20
23.9434
 30
0.0
 11
9.97701
 21
23.9434
 31
0.0
  0
LINE
  8
0
 62
     0
 10
9.97701
 20
23.9434
 30
0.0
 11
9.97701
 21
22.7432
 31
0.0
  0
LINE
  8
0
 62
     0
 10
9.97701
 20
22.7432
 30
0.0
 11
13.276
 21
22.7432
 31
0.0
  0
LINE
  8
0
 62
     0
 10
13.276
 20
22.7432
 30
0.0
 11
13.276
 21
23.9434
 31
0.0
  0
LINE
  8
0
 62
     0
 10
13.276
 20
23.9434
 30
0.0
 11
15.0013
 21
23.9434
 31
0.0
  0
LINE
  8
0
 62
     0
 10
15.0013
 20
23.9434
 30
0.0
 11
15.0013
 21
28.4124
 31
0.0
  0
LINE
  8
0
 62
     0
 10
15.0013
 20
28.4124
 30
0.0
 11
16.5268
 21
28.4124
 31
0.0
  0
LINE
  8
0
 62
     0
 10
16.5268
 20
28.4124
 30
0.0
 11
16.5268
 21
27.8129
 31
0.0
  0
LINE
  8
0
 62
     0
 10
16.5268
 20
27.8129
 30
0.0
 11
15.7262
 21
27.8129
 31
0.0
  0
LINE
  8
0
 62
     0
 10
15.7262
 20
27.8129
 30
0.0
 11
15.7262
 21
24.7124
 31
0.0
  0
LINE
  8
0
 62
     0
 10
15.7262
 20
24.7124
 30
0.0
 11
16.5268
 21
24.7124
 31
0.0
  0
LINE
  8
0
 62
     0
 10
16.5268
 20
24.7124
 30
0.0
 11
16.5268
 21
23.7133
 31
0.0
  0
LINE
  8
0
 62
     0
 10
16.5268
 20
23.7133
 30
0.0
 11
30.5263
 21
23.7133
 31
0.0
  0
LINE
  8
0
 62
     0
 10
30.5263
 20
23.7133
 30
0.0
 11
30.5263
 21
24.7124
 31
0.0
  0
LINE
  8
0
 62
     0
 10
30.5263
 20
24.7124
 30
0.0
 11
31.3269
 21
24.7124
 31
0.0
  0
LINE
  8
0
 62
     0
 10
31.3269
 20
24.7124
 30
0.0
 11
31.3269
 21
27.8129
 31
0.0
  0
LINE
  8
0
 62
     0
 10
31.3269
 20
27.8129
 30
0.0
 11
30.5263
 21
27.8129
 31
0.0
  0
LINE
  8
0
 62
     0
 10
30.5263
 20
27.8129
 30
0.0
 11
30.5263
 21
28.4124
 31
0.0
  0
LINE
  8
0
 62
     0
 10
30.5263
 20
28.4124
 30
0.0
 11
32.0518
 21
28.4124
 31
0.0
  0
LINE
  8
0
 62
     0
 10
32.0518
 20
28.4124
 30
0.0
 11
32.0518
 21
23.9434
 31
0.0
  0
LINE
  8
0
 62
     0
 10
32.0518
 20
23.9434
 30
0.0
 11
33.7771
 21
23.9434
 31
0.0
  0
LINE
  8
0
 62
     0
 10
33.7771
 20
23.9434
 30
0.0
 11
33.7771
 21
22.7432
 31
0.0
  0
LINE
  8
0
 62
     0
 10
33.7771
 20
22.7432
 30
0.0
 11
37.0762
 21
22.7432
 31
0.0
  0
LINE
  8
0
 62
     0
 10
37.0762
 20
22.7432
 30
0.0
 11
37.0762
 21
23.9434
 31
0.0
  0
LINE
  8
0
 62
     0
 10
37.0762
 20
23.9434
 30
0.0
 11
38.8013
 21
23.9434
 31
0.0
  0
LINE
  8
0
 62
     0
 10
38.8013
 20
23.9434
 30
0.0
 11
38.8013
 21
30.2135
 31
0.0
  0
LINE
  8
0
 62
     0
 10
38.8013
 20
30.2135
 30
0.0
 11
39.6268
 21
30.2135
 31
0.0
  0
LINE
  8
0
 62
     0
 10
39.6268
 20
30.2135
 30
0.0
 11
39.6268
 21
33.0123
 31
0.0
  0
LINE
  8
0
 62
     0
 10
39.6268
 20
33.0123
 30
0.0
 11
38.8013
 21
33.0123
 31
0.0
  0
LINE
  8
0
 62
     0
 10
38.8013
 20
33.0123
 30
0.0
 11
38.8013
 21
36.2423
 31
0.0
  0
LINE
  8
0
 62
     0
 10
38.8013
 20
36.2423
 30
0.0
 11
32.0518
 21
36.2423
 31
0.0
  0
LINE
  8
0
 62
     0
 10
32.0518
 20
36.2423
 30
0.0
 11
32.0518
 21
33.0123
 31
0.0
  0
LINE
  8
0
 62
     0
 10
32.0518
 20
33.0123
 30
0.0
 11
30.5263
 21
33.0123
 31
0.0
  0
LINE
  8
0
 62
     0
 10
30.5263
 20
33.0123
 30
0.0
 11
30.5263
 21
33.6145
 31
0.0
  0
LINE
  8
0
 62
     0
 10
30.5263
 20
33.6145
 30
0.0
 11
31.3269
 21
33.6145
 31
0.0
  0
LINE
  8
0
 62
     0
 10
31.3269
 20
33.6145
 30
0.0
 11
31.3269
 21
36.7122
 31
0.0
  0
LINE
  8
0
 62
     0
 10
31.3269
 20
36.7122
 30
0.0
 11
30.5263
 21
36.7122
 31
0.0
  0
LINE
  8
0
 62
     0
 10
30.5263
 20
36.7122
 30
0.0
 11
30.5263
 21
37.7127
 31
0.0
  0
LINE
  8
0
 62
     0
 10
30.5263
 20
37.7127
 30
0.0
 11
16.5268
 21
37.7127
 31
0.0
  0
LINE
  8
0
 62
     0
 10
295.133
 20
37.7127
 30
0.0
 11
295.133
 21
36.7122
 31
0.0
  0
LINE
  8
0
 62
     0
 10
295.133
 20
36.7122
 30
0.0
 11
294.332
 21
36.7122
 31
0.0
  0
LINE
  8
0
 62
     0
 10
294.332
 20
36.7122
 30
0.0
 11
294.332
 21
33.6145
 31
0.0
  0
LINE
  8
0
 62
     0
 10
294.332
 20
33.6145
 30
0.0
 11
295.133
 21
33.6145
 31
0.0
  0
LINE
  8
0
 62
     0
 10
295.133
 20
33.6145
 30
0.0
 11
295.133
 21
27.8129
 31
0.0
  0
LINE
  8
0
 62
     0
 10
295.133
 20
27.8129
 30
0.0
 11
294.332
 21
27.8129
 31
0.0
  0
LINE
  8
0
 62
     0
 10
294.332
 20
27.8129
 30
0.0
 11
294.332
 21
24.7124
 31
0.0
  0
LINE
  8
0
 62
     0
 10
294.332
 20
24.7124
 30
0.0
 11
295.133
 21
24.7124
 31
0.0
  0
LINE
  8
0
 62
     0
 10
295.133
 20
24.7124
 30
0.0
 11
295.133
 21
23.7133
 31
0.0
  0
LINE
  8
0
 62
     0
 10
295.133
 20
23.7133
 30
0.0
 11
309.132
 21
23.7133
 31
0.0
  0
LINE
  8
0
 62
     0
 10
309.132
 20
23.7133
 30
0.0
 11
309.132
 21
24.7124
 31
0.0
  0
LINE
  8
0
 62
     0
 10
309.132
 20
24.7124
 30
0.0
 11
309.932
 21
24.7124
 31
0.0
  0
LINE
  8
0
 62
     0
 10
309.932
 20
24.7124
 30
0.0
 11
309.932
 21
27.8129
 31
0.0
  0
LINE
  8
0
 62
     0
 10
309.932
 20
27.8129
 30
0.0
 11
309.132
 21
27.8129
 31
0.0
  0
LINE
  8
0
 62
     0
 10
309.132
 20
27.8129
 30
0.0
 11
309.132
 21
33.6145
 31
0.0
  0
LINE
  8
0
 62
     0
 10
309.132
 20
33.6145
 30
0.0
 11
309.932
 21
33.6145
 31
0.0
  0
LINE
  8
0
 62
     0
 10
309.932
 20
33.6145
 30
0.0
 11
309.932
 21
36.7122
 31
0.0
  0
LINE
  8
0
 62
     0
 10
309.932
 20
36.7122
 30
0.0
 11
309.132
 21
36.7122
 31
0.0
  0
LINE
  8
0
 62
     0
 10
309.132
 20
36.7122
 30
0.0
 11
309.132
 21
37.7127
 31
0.0
  0
LINE
  8
0
 62
     0
 10
309.132
 20
37.7127
 30
0.0
 11
295.133
 21
37.7127
 31
0.0
  0
LINE
  8
0
 62
     0
 10
218.933
 20
37.7127
 30
0.0
 11
218.933
 21
36.7122
 31
0.0
  0
LINE
  8
0
 62
     0
 10
218.933
 20
36.7122
 30
0.0
 11
218.132
 21
36.7122
 31
0.0
  0
LINE
  8
0
 62
     0
 10
218.132
 20
36.7122
 30
0.0
 11
218.132
 21
33.6145
 31
0.0
  0
LINE
  8
0
 62
     0
 10
218.132
 20
33.6145
 30
0.0
 11
218.933
 21
33.6145
 31
0.0
  0
LINE
  8
0
 62
     0
 10
218.933
 20
33.6145
 30
0.0
 11
218.933
 21
27.8129
 31
0.0
  0
LINE
  8
0
 62
     0
 10
218.933
 20
27.8129
 30
0.0
 11
218.132
 21
27.8129
 31
0.0
  0
LINE
  8
0
 62
     0
 10
218.132
 20
27.8129
 30
0.0
 11
218.132
 21
24.7124
 31
0.0
  0
LINE
  8
0
 62
     0
 10
218.132
 20
24.7124
 30
0.0
 11
218.933
 21
24.7124
 31
0.0
  0
LINE
  8
0
 62
     0
 10
218.933
 20
24.7124
 30
0.0
 11
218.933
 21
23.7133
 31
0.0
  0
LINE
  8
0
 62
     0
 10
218.933
 20
23.7133
 30
0.0
 11
232.932
 21
23.7133
 31
0.0
  0
LINE
  8
0
 62
     0
 10
232.932
 20
23.7133
 30
0.0
 11
232.932
 21
24.7124
 31
0.0
  0
LINE
  8
0
 62
     0
 10
232.932
 20
24.7124
 30
0.0
 11
233.732
 21
24.7124
 31
0.0
  0
LINE
  8
0
 62
     0
 10
233.732
 20
24.7124
 30
0.0
 11
233.732
 21
27.8129
 31
0.0
  0
LINE
  8
0
 62
     0
 10
233.732
 20
27.8129
 30
0.0
 11
232.932
 21
27.8129
 31
0.0
  0
LINE
  8
0
 62
     0
 10
232.932
 20
27.8129
 30
0.0
 11
232.932
 21
33.6145
 31
0.0
  0
LINE
  8
0
 62
     0
 10
232.932
 20
33.6145
 30
0.0
 11
233.732
 21
33.6145
 31
0.0
  0
LINE
  8
0
 62
     0
 10
233.732
 20
33.6145
 30
0.0
 11
233.732
 21
36.7122
 31
0.0
  0
LINE
  8
0
 62
     0
 10
233.732
 20
36.7122
 30
0.0
 11
232.932
 21
36.7122
 31
0.0
  0
LINE
  8
0
 62
     0
 10
232.932
 20
36.7122
 30
0.0
 11
232.932
 21
37.7127
 31
0.0
  0
LINE
  8
0
 62
     0
 10
232.932
 20
37.7127
 30
0.0
 11
218.933
 21
37.7127
 31
0.0
  0
LINE
  8
0
 62
     0
 10
199.883
 20
37.7127
 30
0.0
 11
199.883
 21
36.7122
 31
0.0
  0
LINE
  8
0
 62
     0
 10
199.883
 20
36.7122
 30
0.0
 11
199.082
 21
36.7122
 31
0.0
  0
LINE
  8
0
 62
     0
 10
199.082
 20
36.7122
 30
0.0
 11
199.082
 21
33.6145
 31
0.0
  0
LINE
  8
0
 62
     0
 10
199.082
 20
33.6145
 30
0.0
 11
199.883
 21
33.6145
 31
0.0
  0
LINE
  8
0
 62
     0
 10
199.883
 20
33.6145
 30
0.0
 11
199.883
 21
27.8129
 31
0.0
  0
LINE
  8
0
 62
     0
 10
199.883
 20
27.8129
 30
0.0
 11
199.082
 21
27.8129
 31
0.0
  0
LINE
  8
0
 62
     0
 10
199.082
 20
27.8129
 30
0.0
 11
199.082
 21
24.7124
 31
0.0
  0
LINE
  8
0
 62
     0
 10
199.082
 20
24.7124
 30
0.0
 11
199.883
 21
24.7124
 31
0.0
  0
LINE
  8
0
 62
     0
 10
199.883
 20
24.7124
 30
0.0
 11
199.883
 21
23.7133
 31
0.0
  0
LINE
  8
0
 62
     0
 10
199.883
 20
23.7133
 30
0.0
 11
213.882
 21
23.7133
 31
0.0
  0
LINE
  8
0
 62
     0
 10
213.882
 20
23.7133
 30
0.0
 11
213.882
 21
24.7124
 31
0.0
  0
LINE
  8
0
 62
     0
 10
213.882
 20
24.7124
 30
0.0
 11
214.682
 21
24.7124
 31
0.0
  0
LINE
  8
0
 62
     0
 10
214.682
 20
24.7124
 30
0.0
 11
214.682
 21
27.8129
 31
0.0
  0
LINE
  8
0
 62
     0
 10
214.682
 20
27.8129
 30
0.0
 11
213.882
 21
27.8129
 31
0.0
  0
LINE
  8
0
 62
     0
 10
213.882
 20
27.8129
 30
0.0
 11
213.882
 21
33.6145
 31
0.0
  0
LINE
  8
0
 62
     0
 10
213.882
 20
33.6145
 30
0.0
 11
214.682
 21
33.6145
 31
0.0
  0
LINE
  8
0
 62
     0
 10
214.682
 20
33.6145
 30
0.0
 11
214.682
 21
36.7122
 31
0.0
  0
LINE
  8
0
 62
     0
 10
214.682
 20
36.7122
 30
0.0
 11
213.882
 21
36.7122
 31
0.0
  0
LINE
  8
0
 62
     0
 10
213.882
 20
36.7122
 30
0.0
 11
213.882
 21
37.7127
 31
0.0
  0
LINE
  8
0
 62
     0
 10
213.882
 20
37.7127
 30
0.0
 11
199.883
 21
37.7127
 31
0.0
  0
LINE
  8
0
 62
     0
 10
180.833
 20
37.7127
 30
0.0
 11
180.833
 21
36.7122
 31
0.0
  0
LINE
  8
0
 62
     0
 10
180.833
 20
36.7122
 30
0.0
 11
180.032
 21
36.7122
 31
0.0
  0
LINE
  8
0
 62
     0
 10
180.032
 20
36.7122
 30
0.0
 11
180.032
 21
33.6145
 31
0.0
  0
LINE
  8
0
 62
     0
 10
180.032
 20
33.6145
 30
0.0
 11
180.833
 21
33.6145
 31
0.0
  0
LINE
  8
0
 62
     0
 10
180.833
 20
33.6145
 30
0.0
 11
180.833
 21
27.8129
 31
0.0
  0
LINE
  8
0
 62
     0
 10
180.833
 20
27.8129
 30
0.0
 11
180.032
 21
27.8129
 31
0.0
  0
LINE
  8
0
 62
     0
 10
180.032
 20
27.8129
 30
0.0
 11
180.032
 21
24.7124
 31
0.0
  0
LINE
  8
0
 62
     0
 10
180.032
 20
24.7124
 30
0.0
 11
180.833
 21
24.7124
 31
0.0
  0
LINE
  8
0
 62
     0
 10
180.833
 20
24.7124
 30
0.0
 11
180.833
 21
23.7133
 31
0.0
  0
LINE
  8
0
 62
     0
 10
180.833
 20
23.7133
 30
0.0
 11
194.832
 21
23.7133
 31
0.0
  0
LINE
  8
0
 62
     0
 10
194.832
 20
23.7133
 30
0.0
 11
194.832
 21
24.7124
 31
0.0
  0
LINE
  8
0
 62
     0
 10
194.832
 20
24.7124
 30
0.0
 11
195.632
 21
24.7124
 31
0.0
  0
LINE
  8
0
 62
     0
 10
195.632
 20
24.7124
 30
0.0
 11
195.632
 21
27.8129
 31
0.0
  0
LINE
  8
0
 62
     0
 10
195.632
 20
27.8129
 30
0.0
 11
194.832
 21
27.8129
 31
0.0
  0
LINE
  8
0
 62
     0
 10
194.832
 20
27.8129
 30
0.0
 11
194.832
 21
33.6145
 31
0.0
  0
LINE
  8
0
 62
     0
 10
194.832
 20
33.6145
 30
0.0
 11
195.632
 21
33.6145
 31
0.0
  0
LINE
  8
0
 62
     0
 10
195.632
 20
33.6145
 30
0.0
 11
195.632
 21
36.7122
 31
0.0
  0
LINE
  8
0
 62
     0
 10
195.632
 20
36.7122
 30
0.0
 11
194.832
 21
36.7122
 31
0.0
  0
LINE
  8
0
 62
     0
 10
194.832
 20
36.7122
 30
0.0
 11
194.832
 21
37.7127
 31
0.0
  0
LINE
  8
0
 62
     0
 10
194.832
 20
37.7127
 30
0.0
 11
180.833
 21
37.7127
 31
0.0
  0
LINE
  8
0
 62
     0
 10
161.783
 20
37.7127
 30
0.0
 11
161.783
 21
36.7122
 31
0.0
  0
LINE
  8
0
 62
     0
 10
161.783
 20
36.7122
 30
0.0
 11
160.982
 21
36.7122
 31
0.0
  0
LINE
  8
0
 62
     0
 10
160.982
 20
36.7122
 30
0.0
 11
160.982
 21
33.6145
 31
0.0
  0
LINE
  8
0
 62
     0
 10
160.982
 20
33.6145
 30
0.0
 11
161.783
 21
33.6145
 31
0.0
  0
LINE
  8
0
 62
     0
 10
161.783
 20
33.6145
 30
0.0
 11
161.783
 21
27.8129
 31
0.0
  0
LINE
  8
0
 62
     0
 10
161.783
 20
27.8129
 30
0.0
 11
160.982
 21
27.8129
 31
0.0
  0
LINE
  8
0
 62
     0
 10
160.982
 20
27.8129
 30
0.0
 11
160.982
 21
24.7124
 31
0.0
  0
LINE
  8
0
 62
     0
 10
160.982
 20
24.7124
 30
0.0
 11
161.783
 21
24.7124
 31
0.0
  0
LINE
  8
0
 62
     0
 10
161.783
 20
24.7124
 30
0.0
 11
161.783
 21
23.7133
 31
0.0
  0
LINE
  8
0
 62
     0
 10
161.783
 20
23.7133
 30
0.0
 11
175.782
 21
23.7133
 31
0.0
  0
LINE
  8
0
 62
     0
 10
175.782
 20
23.7133
 30
0.0
 11
175.782
 21
24.7124
 31
0.0
  0
LINE
  8
0
 62
     0
 10
175.782
 20
24.7124
 30
0.0
 11
176.582
 21
24.7124
 31
0.0
  0
LINE
  8
0
 62
     0
 10
176.582
 20
24.7124
 30
0.0
 11
176.582
 21
27.8129
 31
0.0
  0
LINE
  8
0
 62
     0
 10
176.582
 20
27.8129
 30
0.0
 11
175.782
 21
27.8129
 31
0.0
  0
LINE
  8
0
 62
     0
 10
175.782
 20
27.8129
 30
0.0
 11
175.782
 21
33.6145
 31
0.0
  0
LINE
  8
0
 62
     0
 10
175.782
 20
33.6145
 30
0.0
 11
176.582
 21
33.6145
 31
0.0
  0
LINE
  8
0
 62
     0
 10
176.582
 20
33.6145
 30
0.0
 11
176.582
 21
36.7122
 31
0.0
  0
LINE
  8
0
 62
     0
 10
176.582
 20
36.7122
 30
0.0
 11
175.782
 21
36.7122
 31
0.0
  0
LINE
  8
0
 62
     0
 10
175.782
 20
36.7122
 30
0.0
 11
175.782
 21
37.7127
 31
0.0
  0
LINE
  8
0
 62
     0
 10
175.782
 20
37.7127
 30
0.0
 11
161.783
 21
37.7127
 31
0.0
  0
LINE
  8
0
 62
     0
 10
142.733
 20
37.7127
 30
0.0
 11
142.733
 21
36.7122
 31
0.0
  0
LINE
  8
0
 62
     0
 10
142.733
 20
36.7122
 30
0.0
 11
141.932
 21
36.7122
 31
0.0
  0
LINE
  8
0
 62
     0
 10
141.932
 20
36.7122
 30
0.0
 11
141.932
 21
33.6145
 31
0.0
  0
LINE
  8
0
 62
     0
 10
141.932
 20
33.6145
 30
0.0
 11
142.733
 21
33.6145
 31
0.0
  0
LINE
  8
0
 62
     0
 10
142.733
 20
33.6145
 30
0.0
 11
142.733
 21
27.8129
 31
0.0
  0
LINE
  8
0
 62
     0
 10
142.733
 20
27.8129
 30
0.0
 11
141.932
 21
27.8129
 31
0.0
  0
LINE
  8
0
 62
     0
 10
141.932
 20
27.8129
 30
0.0
 11
141.932
 21
24.7124
 31
0.0
  0
LINE
  8
0
 62
     0
 10
141.932
 20
24.7124
 30
0.0
 11
142.733
 21
24.7124
 31
0.0
  0
LINE
  8
0
 62
     0
 10
142.733
 20
24.7124
 30
0.0
 11
142.733
 21
23.7133
 31
0.0
  0
LINE
  8
0
 62
     0
 10
142.733
 20
23.7133
 30
0.0
 11
156.732
 21
23.7133
 31
0.0
  0
LINE
  8
0
 62
     0
 10
156.732
 20
23.7133
 30
0.0
 11
156.732
 21
24.7124
 31
0.0
  0
LINE
  8
0
 62
     0
 10
156.732
 20
24.7124
 30
0.0
 11
157.532
 21
24.7124
 31
0.0
  0
LINE
  8
0
 62
     0
 10
157.532
 20
24.7124
 30
0.0
 11
157.532
 21
27.8129
 31
0.0
  0
LINE
  8
0
 62
     0
 10
157.532
 20
27.8129
 30
0.0
 11
156.732
 21
27.8129
 31
0.0
  0
LINE
  8
0
 62
     0
 10
156.732
 20
27.8129
 30
0.0
 11
156.732
 21
33.6145
 31
0.0
  0
LINE
  8
0
 62
     0
 10
156.732
 20
33.6145
 30
0.0
 11
157.532
 21
33.6145
 31
0.0
  0
LINE
  8
0
 62
     0
 10
157.532
 20
33.6145
 30
0.0
 11
157.532
 21
36.7122
 31
0.0
  0
LINE
  8
0
 62
     0
 10
157.532
 20
36.7122
 30
0.0
 11
156.732
 21
36.7122
 31
0.0
  0
LINE
  8
0
 62
     0
 10
156.732
 20
36.7122
 30
0.0
 11
156.732
 21
37.7127
 31
0.0
  0
LINE
  8
0
 62
     0
 10
156.732
 20
37.7127
 30
0.0
 11
142.733
 21
37.7127
 31
0.0
  0
LINE
  8
0
 62
     0
 10
123.682
 20
37.7127
 30
0.0
 11
123.682
 21
36.7122
 31
0.0
  0
LINE
  8
0
 62
     0
 10
123.682
 20
36.7122
 30
0.0
 11
122.882
 21
36.7122
 31
0.0
  0
LINE
  8
0
 62
     0
 10
122.882
 20
36.7122
 30
0.0
 11
122.882
 21
33.6145
 31
0.0
  0
LINE
  8
0
 62
     0
 10
122.882
 20
33.6145
 30
0.0
 11
123.682
 21
33.6145
 31
0.0
  0
LINE
  8
0
 62
     0
 10
123.682
 20
33.6145
 30
0.0
 11
123.682
 21
27.8129
 31
0.0
  0
LINE
  8
0
 62
     0
 10
123.682
 20
27.8129
 30
0.0
 11
122.882
 21
27.8129
 31
0.0
  0
LINE
  8
0
 62
     0
 10
122.882
 20
27.8129
 30
0.0
 11
122.882
 21
24.7124
 31
0.0
  0
LINE
  8
0
 62
     0
 10
122.882
 20
24.7124
 30
0.0
 11
123.682
 21
24.7124
 31
0.0
  0
LINE
  8
0
 62
     0
 10
123.682
 20
24.7124
 30
0.0
 11
123.682
 21
23.7133
 31
0.0
  0
LINE
  8
0
 62
     0
 10
123.682
 20
23.7133
 30
0.0
 11
137.682
 21
23.7133
 31
0.0
  0
LINE
  8
0
 62
     0
 10
137.682
 20
23.7133
 30
0.0
 11
137.682
 21
24.7124
 31
0.0
  0
LINE
  8
0
 62
     0
 10
137.682
 20
24.7124
 30
0.0
 11
138.482
 21
24.7124
 31
0.0
  0
LINE
  8
0
 62
     0
 10
138.482
 20
24.7124
 30
0.0
 11
138.482
 21
27.8129
 31
0.0
  0
LINE
  8
0
 62
     0
 10
138.482
 20
27.8129
 30
0.0
 11
137.682
 21
27.8129
 31
0.0
  0
LINE
  8
0
 62
     0
 10
137.682
 20
27.8129
 30
0.0
 11
137.682
 21
33.6145
 31
0.0
  0
LINE
  8
0
 62
     0
 10
137.682
 20
33.6145
 30
0.0
 11
138.482
 21
33.6145
 31
0.0
  0
LINE
  8
0
 62
     0
 10
138.482
 20
33.6145
 30
0.0
 11
138.482
 21
36.7122
 31
0.0
  0
LINE
  8
0
 62
     0
 10
138.482
 20
36.7122
 30
0.0
 11
137.682
 21
36.7122
 31
0.0
  0
LINE
  8
0
 62
     0
 10
137.682
 20
36.7122
 30
0.0
 11
137.682
 21
37.7127
 31
0.0
  0
LINE
  8
0
 62
     0
 10
137.682
 20
37.7127
 30
0.0
 11
123.682
 21
37.7127
 31
0.0
  0
LINE
  8
0
 62
     0
 10
104.633
 20
37.7127
 30
0.0
 11
104.633
 21
36.7122
 31
0.0
  0
LINE
  8
0
 62
     0
 10
104.633
 20
36.7122
 30
0.0
 11
103.832
 21
36.7122
 31
0.0
  0
LINE
  8
0
 62
     0
 10
103.832
 20
36.7122
 30
0.0
 11
103.832
 21
33.6145
 31
0.0
  0
LINE
  8
0
 62
     0
 10
103.832
 20
33.6145
 30
0.0
 11
104.633
 21
33.6145
 31
0.0
  0
LINE
  8
0
 62
     0
 10
104.633
 20
33.6145
 30
0.0
 11
104.633
 21
27.8129
 31
0.0
  0
LINE
  8
0
 62
     0
 10
104.633
 20
27.8129
 30
0.0
 11
103.832
 21
27.8129
 31
0.0
  0
LINE
  8
0
 62
     0
 10
103.832
 20
27.8129
 30
0.0
 11
103.832
 21
24.7124
 31
0.0
  0
LINE
  8
0
 62
     0
 10
103.832
 20
24.7124
 30
0.0
 11
104.633
 21
24.7124
 31
0.0
  0
LINE
  8
0
 62
     0
 10
104.633
 20
24.7124
 30
0.0
 11
104.633
 21
23.7133
 31
0.0
  0
LINE
  8
0
 62
     0
 10
104.633
 20
23.7133
 30
0.0
 11
118.632
 21
23.7133
 31
0.0
  0
LINE
  8
0
 62
     0
 10
118.632
 20
23.7133
 30
0.0
 11
118.632
 21
24.7124
 31
0.0
  0
LINE
  8
0
 62
     0
 10
118.632
 20
24.7124
 30
0.0
 11
119.432
 21
24.7124
 31
0.0
  0
LINE
  8
0
 62
     0
 10
119.432
 20
24.7124
 30
0.0
 11
119.432
 21
27.8129
 31
0.0
  0
LINE
  8
0
 62
     0
 10
119.432
 20
27.8129
 30
0.0
 11
118.632
 21
27.8129
 31
0.0
  0
LINE
  8
0
 62
     0
 10
118.632
 20
27.8129
 30
0.0
 11
118.632
 21
33.6145
 31
0.0
  0
LINE
  8
0
 62
     0
 10
118.632
 20
33.6145
 30
0.0
 11
119.432
 21
33.6145
 31
0.0
  0
LINE
  8
0
 62
     0
 10
119.432
 20
33.6145
 30
0.0
 11
119.432
 21
36.7122
 31
0.0
  0
LINE
  8
0
 62
     0
 10
119.432
 20
36.7122
 30
0.0
 11
118.632
 21
36.7122
 31
0.0
  0
LINE
  8
0
 62
     0
 10
118.632
 20
36.7122
 30
0.0
 11
118.632
 21
37.7127
 31
0.0
  0
LINE
  8
0
 62
     0
 10
118.632
 20
37.7127
 30
0.0
 11
104.633
 21
37.7127
 31
0.0
  0
LINE
  8
0
 62
     0
 10
85.5832
 20
37.7127
 30
0.0
 11
85.5832
 21
36.7122
 31
0.0
  0
LINE
  8
0
 62
     0
 10
85.5832
 20
36.7122
 30
0.0
 11
84.7824
 21
36.7122
 31
0.0
  0
LINE
  8
0
 62
     0
 10
84.7824
 20
36.7122
 30
0.0
 11
84.7824
 21
33.6145
 31
0.0
  0
LINE
  8
0
 62
     0
 10
84.7824
 20
33.6145
 30
0.0
 11
85.5832
 21
33.6145
 31
0.0
  0
LINE
  8
0
 62
     0
 10
85.5832
 20
33.6145
 30
0.0
 11
85.5832
 21
27.8129
 31
0.0
  0
LINE
  8
0
 62
     0
 10
85.5832
 20
27.8129
 30
0.0
 11
84.7824
 21
27.8129
 31
0.0
  0
LINE
  8
0
 62
     0
 10
84.7824
 20
27.8129
 30
0.0
 11
84.7824
 21
24.7124
 31
0.0
  0
LINE
  8
0
 62
     0
 10
84.7824
 20
24.7124
 30
0.0
 11
85.5832
 21
24.7124
 31
0.0
  0
LINE
  8
0
 62
     0
 10
85.5832
 20
24.7124
 30
0.0
 11
85.5832
 21
23.7133
 31
0.0
  0
LINE
  8
0
 62
     0
 10
85.5832
 20
23.7133
 30
0.0
 11
99.5825
 21
23.7133
 31
0.0
  0
LINE
  8
0
 62
     0
 10
99.5825
 20
23.7133
 30
0.0
 11
99.5825
 21
24.7124
 31
0.0
  0
LINE
  8
0
 62
     0
 10
99.5825
 20
24.7124
 30
0.0
 11
100.382
 21
24.7124
 31
0.0
  0
LINE
  8
0
 62
     0
 10
100.382
 20
24.7124
 30
0.0
 11
100.382
 21
27.8129
 31
0.0
  0
LINE
  8
0
 62
     0
 10
100.382
 20
27.8129
 30
0.0
 11
99.5825
 21
27.8129
 31
0.0
  0
LINE
  8
0
 62
     0
 10
99.5825
 20
27.8129
 30
0.0
 11
99.5825
 21
33.6145
 31
0.0
  0
LINE
  8
0
 62
     0
 10
99.5825
 20
33.6145
 30
0.0
 11
100.382
 21
33.6145
 31
0.0
  0
LINE
  8
0
 62
     0
 10
100.382
 20
33.6145
 30
0.0
 11
100.382
 21
36.7122
 31
0.0
  0
LINE
  8
0
 62
     0
 10
100.382
 20
36.7122
 30
0.0
 11
99.5825
 21
36.7122
 31
0.0
  0
LINE
  8
0
 62
     0
 10
99.5825
 20
36.7122
 30
0.0
 11
99.5825
 21
37.7127
 31
0.0
  0
LINE
  8
0
 62
     0
 10
99.5825
 20
37.7127
 30
0.0
 11
85.5832
 21
37.7127
 31
0.0
  0
LINE
  8
0
 62
     0
 10
66.5332
 20
37.7127
 30
0.0
 11
66.5332
 21
36.7122
 31
0.0
  0
LINE
  8
0
 62
     0
 10
66.5332
 20
36.7122
 30
0.0
 11
65.7324
 21
36.7122
 31
0.0
  0
LINE
  8
0
 62
     0
 10
65.7324
 20
36.7122
 30
0.0
 11
65.7324
 21
33.6145
 31
0.0
  0
LINE
  8
0
 62
     0
 10
65.7324
 20
33.6145
 30
0.0
 11
66.5332
 21
33.6145
 31
0.0
  0
LINE
  8
0
 62
     0
 10
66.5332
 20
33.6145
 30
0.0
 11
66.5332
 21
27.8129
 31
0.0
  0
LINE
  8
0
 62
     0
 10
66.5332
 20
27.8129
 30
0.0
 11
65.7324
 21
27.8129
 31
0.0
  0
LINE
  8
0
 62
     0
 10
65.7324
 20
27.8129
 30
0.0
 11
65.7324
 21
24.7124
 31
0.0
  0
LINE
  8
0
 62
     0
 10
65.7324
 20
24.7124
 30
0.0
 11
66.5332
 21
24.7124
 31
0.0
  0
LINE
  8
0
 62
     0
 10
66.5332
 20
24.7124
 30
0.0
 11
66.5332
 21
23.7133
 31
0.0
  0
LINE
  8
0
 62
     0
 10
66.5332
 20
23.7133
 30
0.0
 11
80.5325
 21
23.7133
 31
0.0
  0
LINE
  8
0
 62
     0
 10
80.5325
 20
23.7133
 30
0.0
 11
80.5325
 21
24.7124
 31
0.0
  0
LINE
  8
0
 62
     0
 10
80.5325
 20
24.7124
 30
0.0
 11
81.3319
 21
24.7124
 31
0.0
  0
LINE
  8
0
 62
     0
 10
81.3319
 20
24.7124
 30
0.0
 11
81.3319
 21
27.8129
 31
0.0
  0
LINE
  8
0
 62
     0
 10
81.3319
 20
27.8129
 30
0.0
 11
80.5325
 21
27.8129
 31
0.0
  0
LINE
  8
0
 62
     0
 10
80.5325
 20
27.8129
 30
0.0
 11
80.5325
 21
33.6145
 31
0.0
  0
LINE
  8
0
 62
     0
 10
80.5325
 20
33.6145
 30
0.0
 11
81.3319
 21
33.6145
 31
0.0
  0
LINE
  8
0
 62
     0
 10
81.3319
 20
33.6145
 30
0.0
 11
81.3319
 21
36.7122
 31
0.0
  0
LINE
  8
0
 62
     0
 10
81.3319
 20
36.7122
 30
0.0
 11
80.5325
 21
36.7122
 31
0.0
  0
LINE
  8
0
 62
     0
 10
80.5325
 20
36.7122
 30
0.0
 11
80.5325
 21
37.7127
 31
0.0
  0
LINE
  8
0
 62
     0
 10
80.5325
 20
37.7127
 30
0.0
 11
66.5332
 21
37.7127
 31
0.0
  0
LINE
  8
0
 62
     0
 10
47.4832
 20
37.7127
 30
0.0
 11
47.4832
 21
36.7122
 31
0.0
  0
LINE
  8
0
 62
     0
 10
47.4832
 20
36.7122
 30
0.0
 11
46.6824
 21
36.7122
 31
0.0
  0
LINE
  8
0
 62
     0
 10
46.6824
 20
36.7122
 30
0.0
 11
46.6824
 21
33.6145
 31
0.0
  0
LINE
  8
0
 62
     0
 10
46.6824
 20
33.6145
 30
0.0
 11
47.4832
 21
33.6145
 31
0.0
  0
LINE
  8
0
 62
     0
 10
47.4832
 20
33.6145
 30
0.0
 11
47.4832
 21
27.8129
 31
0.0
  0
LINE
  8
0
 62
     0
 10
47.4832
 20
27.8129
 30
0.0
 11
46.6824
 21
27.8129
 31
0.0
  0
LINE
  8
0
 62
     0
 10
46.6824
 20
27.8129
 30
0.0
 11
46.6824
 21
24.7124
 31
0.0
  0
LINE
  8
0
 62
     0
 10
46.6824
 20
24.7124
 30
0.0
 11
47.4832
 21
24.7124
 31
0.0
  0
LINE
  8
0
 62
     0
 10
47.4832
 20
24.7124
 30
0.0
 11
47.4832
 21
23.7133
 31
0.0
  0
LINE
  8
0
 62
     0
 10
47.4832
 20
23.7133
 30
0.0
 11
61.4825
 21
23.7133
 31
0.0
  0
LINE
  8
0
 62
     0
 10
61.4825
 20
23.7133
 30
0.0
 11
61.4825
 21
24.7124
 31
0.0
  0
LINE
  8
0
 62
     0
 10
61.4825
 20
24.7124
 30
0.0
 11
62.2819
 21
24.7124
 31
0.0
  0
LINE
  8
0
 62
     0
 10
62.2819
 20
24.7124
 30
0.0
 11
62.2819
 21
27.8129
 31
0.0
  0
LINE
  8
0
 62
     0
 10
62.2819
 20
27.8129
 30
0.0
 11
61.4825
 21
27.8129
 31
0.0
  0
LINE
  8
0
 62
     0
 10
61.4825
 20
27.8129
 30
0.0
 11
61.4825
 21
33.6145
 31
0.0
  0
LINE
  8
0
 62
     0
 10
61.4825
 20
33.6145
 30
0.0
 11
62.2819
 21
33.6145
 31
0.0
  0
LINE
  8
0
 62
     0
 10
62.2819
 20
33.6145
 30
0.0
 11
62.2819
 21
36.7122
 31
0.0
  0
LINE
  8
0
 62
     0
 10
62.2819
 20
36.7122
 30
0.0
 11
61.4825
 21
36.7122
 31
0.0
  0
LINE
  8
0
 62
     0
 10
61.4825
 20
36.7122
 30
0.0
 11
61.4825
 21
37.7127
 31
0.0
  0
LINE
  8
0
 62
     0
 10
61.4825
 20
37.7127
 30
0.0
 11
47.4832
 21
37.7127
 31
0.0
  0
LINE
  8
0
 62
     0
 10
259.413
 20
56.7626
 30
0.0
 11
259.413
 21
55.7622
 31
0.0
  0
LINE
  8
0
 62
     0
 10
259.413
 20
55.7622
 30
0.0
 11
258.614
 21
55.7622
 31
0.0
  0
LINE
  8
0
 62
     0
 10
258.614
 20
55.7622
 30
0.0
 11
258.614
 21
52.663
 31
0.0
  0
LINE
  8
0
 62
     0
 10
258.614
 20
52.663
 30
0.0
 11
259.413
 21
52.663
 31
0.0
  0
LINE
  8
0
 62
     0
 10
259.413
 20
52.663
 30
0.0
 11
259.413
 21
52.0622
 31
0.0
  0
LINE
  8
0
 62
     0
 10
259.413
 20
52.0622
 30
0.0
 11
257.889
 21
52.0622
 31
0.0
  0
LINE
  8
0
 62
     0
 10
257.889
 20
52.0622
 30
0.0
 11
257.889
 21
55.2923
 31
0.0
  0
LINE
  8
0
 62
     0
 10
257.889
 20
55.2923
 30
0.0
 11
251.138
 21
55.2923
 31
0.0
  0
LINE
  8
0
 62
     0
 10
251.138
 20
55.2923
 30
0.0
 11
251.138
 21
52.0622
 31
0.0
  0
LINE
  8
0
 62
     0
 10
251.138
 20
52.0622
 30
0.0
 11
250.314
 21
52.0622
 31
0.0
  0
LINE
  8
0
 62
     0
 10
250.314
 20
52.0622
 30
0.0
 11
250.314
 21
49.2637
 31
0.0
  0
LINE
  8
0
 62
     0
 10
250.314
 20
49.2637
 30
0.0
 11
251.138
 21
49.2637
 31
0.0
  0
LINE
  8
0
 62
     0
 10
251.138
 20
49.2637
 30
0.0
 11
251.138
 21
42.9934
 31
0.0
  0
LINE
  8
0
 62
     0
 10
251.138
 20
42.9934
 30
0.0
 11
252.863
 21
42.9934
 31
0.0
  0
LINE
  8
0
 62
     0
 10
252.863
 20
42.9934
 30
0.0
 11
252.863
 21
41.7932
 31
0.0
  0
LINE
  8
0
 62
     0
 10
252.863
 20
41.7932
 30
0.0
 11
256.162
 21
41.7932
 31
0.0
  0
LINE
  8
0
 62
     0
 10
256.162
 20
41.7932
 30
0.0
 11
256.162
 21
42.9934
 31
0.0
  0
LINE
  8
0
 62
     0
 10
256.162
 20
42.9934
 30
0.0
 11
257.889
 21
42.9934
 31
0.0
  0
LINE
  8
0
 62
     0
 10
257.889
 20
42.9934
 30
0.0
 11
257.889
 21
47.4624
 31
0.0
  0
LINE
  8
0
 62
     0
 10
257.889
 20
47.4624
 30
0.0
 11
259.413
 21
47.4624
 31
0.0
  0
LINE
  8
0
 62
     0
 10
259.413
 20
47.4624
 30
0.0
 11
259.413
 21
46.863
 31
0.0
  0
LINE
  8
0
 62
     0
 10
259.413
 20
46.863
 30
0.0
 11
258.614
 21
46.863
 31
0.0
  0
LINE
  8
0
 62
     0
 10
258.614
 20
46.863
 30
0.0
 11
258.614
 21
43.7624
 31
0.0
  0
LINE
  8
0
 62
     0
 10
258.614
 20
43.7624
 30
0.0
 11
259.413
 21
43.7624
 31
0.0
  0
LINE
  8
0
 62
     0
 10
259.413
 20
43.7624
 30
0.0
 11
259.413
 21
42.7634
 31
0.0
  0
LINE
  8
0
 62
     0
 10
259.413
 20
42.7634
 30
0.0
 11
273.414
 21
42.7634
 31
0.0
  0
LINE
  8
0
 62
     0
 10
273.414
 20
42.7634
 30
0.0
 11
273.414
 21
43.7624
 31
0.0
  0
LINE
  8
0
 62
     0
 10
273.414
 20
43.7624
 30
0.0
 11
274.213
 21
43.7624
 31
0.0
  0
LINE
  8
0
 62
     0
 10
274.213
 20
43.7624
 30
0.0
 11
274.213
 21
46.863
 31
0.0
  0
LINE
  8
0
 62
     0
 10
274.213
 20
46.863
 30
0.0
 11
273.414
 21
46.863
 31
0.0
  0
LINE
  8
0
 62
     0
 10
273.414
 20
46.863
 30
0.0
 11
273.414
 21
47.4624
 31
0.0
  0
LINE
  8
0
 62
     0
 10
273.414
 20
47.4624
 30
0.0
 11
274.938
 21
47.4624
 31
0.0
  0
LINE
  8
0
 62
     0
 10
274.938
 20
47.4624
 30
0.0
 11
274.938
 21
42.9934
 31
0.0
  0
LINE
  8
0
 62
     0
 10
274.938
 20
42.9934
 30
0.0
 11
276.663
 21
42.9934
 31
0.0
  0
LINE
  8
0
 62
     0
 10
276.663
 20
42.9934
 30
0.0
 11
276.663
 21
41.7932
 31
0.0
  0
LINE
  8
0
 62
     0
 10
276.663
 20
41.7932
 30
0.0
 11
279.964
 21
41.7932
 31
0.0
  0
LINE
  8
0
 62
     0
 10
279.964
 20
41.7932
 30
0.0
 11
279.964
 21
42.9934
 31
0.0
  0
LINE
  8
0
 62
     0
 10
279.964
 20
42.9934
 30
0.0
 11
281.689
 21
42.9934
 31
0.0
  0
LINE
  8
0
 62
     0
 10
281.689
 20
42.9934
 30
0.0
 11
281.689
 21
49.2637
 31
0.0
  0
LINE
  8
0
 62
     0
 10
281.689
 20
49.2637
 30
0.0
 11
282.513
 21
49.2637
 31
0.0
  0
LINE
  8
0
 62
     0
 10
282.513
 20
49.2637
 30
0.0
 11
282.513
 21
52.0622
 31
0.0
  0
LINE
  8
0
 62
     0
 10
282.513
 20
52.0622
 30
0.0
 11
281.689
 21
52.0622
 31
0.0
  0
LINE
  8
0
 62
     0
 10
281.689
 20
52.0622
 30
0.0
 11
281.689
 21
55.2923
 31
0.0
  0
LINE
  8
0
 62
     0
 10
281.689
 20
55.2923
 30
0.0
 11
274.938
 21
55.2923
 31
0.0
  0
LINE
  8
0
 62
     0
 10
274.938
 20
55.2923
 30
0.0
 11
274.938
 21
52.0622
 31
0.0
  0
LINE
  8
0
 62
     0
 10
274.938
 20
52.0622
 30
0.0
 11
273.414
 21
52.0622
 31
0.0
  0
LINE
  8
0
 62
     0
 10
273.414
 20
52.0622
 30
0.0
 11
273.414
 21
52.663
 31
0.0
  0
LINE
  8
0
 62
     0
 10
273.414
 20
52.663
 30
0.0
 11
274.213
 21
52.663
 31
0.0
  0
LINE
  8
0
 62
     0
 10
274.213
 20
52.663
 30
0.0
 11
274.213
 21
55.7622
 31
0.0
  0
LINE
  8
0
 62
     0
 10
274.213
 20
55.7622
 30
0.0
 11
273.414
 21
55.7622
 31
0.0
  0
LINE
  8
0
 62
     0
 10
273.414
 20
55.7622
 30
0.0
 11
273.414
 21
56.7626
 31
0.0
  0
LINE
  8
0
 62
     0
 10
273.414
 20
56.7626
 30
0.0
 11
259.413
 21
56.7626
 31
0.0
  0
LINE
  8
0
 62
     0
 10
228.458
 20
56.7626
 30
0.0
 11
228.458
 21
55.7622
 31
0.0
  0
LINE
  8
0
 62
     0
 10
228.458
 20
55.7622
 30
0.0
 11
227.657
 21
55.7622
 31
0.0
  0
LINE
  8
0
 62
     0
 10
227.657
 20
55.7622
 30
0.0
 11
227.657
 21
52.663
 31
0.0
  0
LINE
  8
0
 62
     0
 10
227.657
 20
52.663
 30
0.0
 11
228.458
 21
52.663
 31
0.0
  0
LINE
  8
0
 62
     0
 10
228.458
 20
52.663
 30
0.0
 11
228.458
 21
46.863
 31
0.0
  0
LINE
  8
0
 62
     0
 10
228.458
 20
46.863
 30
0.0
 11
227.657
 21
46.863
 31
0.0
  0
LINE
  8
0
 62
     0
 10
227.657
 20
46.863
 30
0.0
 11
227.657
 21
43.7624
 31
0.0
  0
LINE
  8
0
 62
     0
 10
227.657
 20
43.7624
 30
0.0
 11
228.458
 21
43.7624
 31
0.0
  0
LINE
  8
0
 62
     0
 10
228.458
 20
43.7624
 30
0.0
 11
228.458
 21
42.7634
 31
0.0
  0
LINE
  8
0
 62
     0
 10
228.458
 20
42.7634
 30
0.0
 11
242.457
 21
42.7634
 31
0.0
  0
LINE
  8
0
 62
     0
 10
242.457
 20
42.7634
 30
0.0
 11
242.457
 21
43.7624
 31
0.0
  0
LINE
  8
0
 62
     0
 10
242.457
 20
43.7624
 30
0.0
 11
243.257
 21
43.7624
 31
0.0
  0
LINE
  8
0
 62
     0
 10
243.257
 20
43.7624
 30
0.0
 11
243.257
 21
46.863
 31
0.0
  0
LINE
  8
0
 62
     0
 10
243.257
 20
46.863
 30
0.0
 11
242.457
 21
46.863
 31
0.0
  0
LINE
  8
0
 62
     0
 10
242.457
 20
46.863
 30
0.0
 11
242.457
 21
52.663
 31
0.0
  0
LINE
  8
0
 62
     0
 10
242.457
 20
52.663
 30
0.0
 11
243.257
 21
52.663
 31
0.0
  0
LINE
  8
0
 62
     0
 10
243.257
 20
52.663
 30
0.0
 11
243.257
 21
55.7622
 31
0.0
  0
LINE
  8
0
 62
     0
 10
243.257
 20
55.7622
 30
0.0
 11
242.457
 21
55.7622
 31
0.0
  0
LINE
  8
0
 62
     0
 10
242.457
 20
55.7622
 30
0.0
 11
242.457
 21
56.7626
 31
0.0
  0
LINE
  8
0
 62
     0
 10
242.457
 20
56.7626
 30
0.0
 11
228.458
 21
56.7626
 31
0.0
  0
LINE
  8
0
 62
     0
 10
209.408
 20
56.7626
 30
0.0
 11
209.408
 21
55.7622
 31
0.0
  0
LINE
  8
0
 62
     0
 10
209.408
 20
55.7622
 30
0.0
 11
208.607
 21
55.7622
 31
0.0
  0
LINE
  8
0
 62
     0
 10
208.607
 20
55.7622
 30
0.0
 11
208.607
 21
52.663
 31
0.0
  0
LINE
  8
0
 62
     0
 10
208.607
 20
52.663
 30
0.0
 11
209.408
 21
52.663
 31
0.0
  0
LINE
  8
0
 62
     0
 10
209.408
 20
52.663
 30
0.0
 11
209.408
 21
46.863
 31
0.0
  0
LINE
  8
0
 62
     0
 10
209.408
 20
46.863
 30
0.0
 11
208.607
 21
46.863
 31
0.0
  0
LINE
  8
0
 62
     0
 10
208.607
 20
46.863
 30
0.0
 11
208.607
 21
43.7624
 31
0.0
  0
LINE
  8
0
 62
     0
 10
208.607
 20
43.7624
 30
0.0
 11
209.408
 21
43.7624
 31
0.0
  0
LINE
  8
0
 62
     0
 10
209.408
 20
43.7624
 30
0.0
 11
209.408
 21
42.7634
 31
0.0
  0
LINE
  8
0
 62
     0
 10
209.408
 20
42.7634
 30
0.0
 11
223.407
 21
42.7634
 31
0.0
  0
LINE
  8
0
 62
     0
 10
223.407
 20
42.7634
 30
0.0
 11
223.407
 21
43.7624
 31
0.0
  0
LINE
  8
0
 62
     0
 10
223.407
 20
43.7624
 30
0.0
 11
224.207
 21
43.7624
 31
0.0
  0
LINE
  8
0
 62
     0
 10
224.207
 20
43.7624
 30
0.0
 11
224.207
 21
46.863
 31
0.0
  0
LINE
  8
0
 62
     0
 10
224.207
 20
46.863
 30
0.0
 11
223.407
 21
46.863
 31
0.0
  0
LINE
  8
0
 62
     0
 10
223.407
 20
46.863
 30
0.0
 11
223.407
 21
52.663
 31
0.0
  0
LINE
  8
0
 62
     0
 10
223.407
 20
52.663
 30
0.0
 11
224.207
 21
52.663
 31
0.0
  0
LINE
  8
0
 62
     0
 10
224.207
 20
52.663
 30
0.0
 11
224.207
 21
55.7622
 31
0.0
  0
LINE
  8
0
 62
     0
 10
224.207
 20
55.7622
 30
0.0
 11
223.407
 21
55.7622
 31
0.0
  0
LINE
  8
0
 62
     0
 10
223.407
 20
55.7622
 30
0.0
 11
223.407
 21
56.7626
 31
0.0
  0
LINE
  8
0
 62
     0
 10
223.407
 20
56.7626
 30
0.0
 11
209.408
 21
56.7626
 31
0.0
  0
LINE
  8
0
 62
     0
 10
190.358
 20
56.7626
 30
0.0
 11
190.358
 21
55.7622
 31
0.0
  0
LINE
  8
0
 62
     0
 10
190.358
 20
55.7622
 30
0.0
 11
189.557
 21
55.7622
 31
0.0
  0
LINE
  8
0
 62
     0
 10
189.557
 20
55.7622
 30
0.0
 11
189.557
 21
52.663
 31
0.0
  0
LINE
  8
0
 62
     0
 10
189.557
 20
52.663
 30
0.0
 11
190.358
 21
52.663
 31
0.0
  0
LINE
  8
0
 62
     0
 10
190.358
 20
52.663
 30
0.0
 11
190.358
 21
46.863
 31
0.0
  0
LINE
  8
0
 62
     0
 10
190.358
 20
46.863
 30
0.0
 11
189.557
 21
46.863
 31
0.0
  0
LINE
  8
0
 62
     0
 10
189.557
 20
46.863
 30
0.0
 11
189.557
 21
43.7624
 31
0.0
  0
LINE
  8
0
 62
     0
 10
189.557
 20
43.7624
 30
0.0
 11
190.358
 21
43.7624
 31
0.0
  0
LINE
  8
0
 62
     0
 10
190.358
 20
43.7624
 30
0.0
 11
190.358
 21
42.7634
 31
0.0
  0
LINE
  8
0
 62
     0
 10
190.358
 20
42.7634
 30
0.0
 11
204.357
 21
42.7634
 31
0.0
  0
LINE
  8
0
 62
     0
 10
204.357
 20
42.7634
 30
0.0
 11
204.357
 21
43.7624
 31
0.0
  0
LINE
  8
0
 62
     0
 10
204.357
 20
43.7624
 30
0.0
 11
205.157
 21
43.7624
 31
0.0
  0
LINE
  8
0
 62
     0
 10
205.157
 20
43.7624
 30
0.0
 11
205.157
 21
46.863
 31
0.0
  0
LINE
  8
0
 62
     0
 10
205.157
 20
46.863
 30
0.0
 11
204.357
 21
46.863
 31
0.0
  0
LINE
  8
0
 62
     0
 10
204.357
 20
46.863
 30
0.0
 11
204.357
 21
52.663
 31
0.0
  0
LINE
  8
0
 62
     0
 10
204.357
 20
52.663
 30
0.0
 11
205.157
 21
52.663
 31
0.0
  0
LINE
  8
0
 62
     0
 10
205.157
 20
52.663
 30
0.0
 11
205.157
 21
55.7622
 31
0.0
  0
LINE
  8
0
 62
     0
 10
205.157
 20
55.7622
 30
0.0
 11
204.357
 21
55.7622
 31
0.0
  0
LINE
  8
0
 62
     0
 10
204.357
 20
55.7622
 30
0.0
 11
204.357
 21
56.7626
 31
0.0
  0
LINE
  8
0
 62
     0
 10
204.357
 20
56.7626
 30
0.0
 11
190.358
 21
56.7626
 31
0.0
  0
LINE
  8
0
 62
     0
 10
171.308
 20
56.7626
 30
0.0
 11
171.308
 21
55.7622
 31
0.0
  0
LINE
  8
0
 62
     0
 10
171.308
 20
55.7622
 30
0.0
 11
170.507
 21
55.7622
 31
0.0
  0
LINE
  8
0
 62
     0
 10
170.507
 20
55.7622
 30
0.0
 11
170.507
 21
52.663
 31
0.0
  0
LINE
  8
0
 62
     0
 10
170.507
 20
52.663
 30
0.0
 11
171.308
 21
52.663
 31
0.0
  0
LINE
  8
0
 62
     0
 10
171.308
 20
52.663
 30
0.0
 11
171.308
 21
46.863
 31
0.0
  0
LINE
  8
0
 62
     0
 10
171.308
 20
46.863
 30
0.0
 11
170.507
 21
46.863
 31
0.0
  0
LINE
  8
0
 62
     0
 10
170.507
 20
46.863
 30
0.0
 11
170.507
 21
43.7624
 31
0.0
  0
LINE
  8
0
 62
     0
 10
170.507
 20
43.7624
 30
0.0
 11
171.308
 21
43.7624
 31
0.0
  0
LINE
  8
0
 62
     0
 10
171.308
 20
43.7624
 30
0.0
 11
171.308
 21
42.7634
 31
0.0
  0
LINE
  8
0
 62
     0
 10
171.308
 20
42.7634
 30
0.0
 11
185.307
 21
42.7634
 31
0.0
  0
LINE
  8
0
 62
     0
 10
185.307
 20
42.7634
 30
0.0
 11
185.307
 21
43.7624
 31
0.0
  0
LINE
  8
0
 62
     0
 10
185.307
 20
43.7624
 30
0.0
 11
186.107
 21
43.7624
 31
0.0
  0
LINE
  8
0
 62
     0
 10
186.107
 20
43.7624
 30
0.0
 11
186.107
 21
46.863
 31
0.0
  0
LINE
  8
0
 62
     0
 10
186.107
 20
46.863
 30
0.0
 11
185.307
 21
46.863
 31
0.0
  0
LINE
  8
0
 62
     0
 10
185.307
 20
46.863
 30
0.0
 11
185.307
 21
52.663
 31
0.0
  0
LINE
  8
0
 62
     0
 10
185.307
 20
52.663
 30
0.0
 11
186.107
 21
52.663
 31
0.0
  0
LINE
  8
0
 62
     0
 10
186.107
 20
52.663
 30
0.0
 11
186.107
 21
55.7622
 31
0.0
  0
LINE
  8
0
 62
     0
 10
186.107
 20
55.7622
 30
0.0
 11
185.307
 21
55.7622
 31
0.0
  0
LINE
  8
0
 62
     0
 10
185.307
 20
55.7622
 30
0.0
 11
185.307
 21
56.7626
 31
0.0
  0
LINE
  8
0
 62
     0
 10
185.307
 20
56.7626
 30
0.0
 11
171.308
 21
56.7626
 31
0.0
  0
LINE
  8
0
 62
     0
 10
152.258
 20
56.7626
 30
0.0
 11
152.258
 21
55.7622
 31
0.0
  0
LINE
  8
0
 62
     0
 10
152.258
 20
55.7622
 30
0.0
 11
151.457
 21
55.7622
 31
0.0
  0
LINE
  8
0
 62
     0
 10
151.457
 20
55.7622
 30
0.0
 11
151.457
 21
52.663
 31
0.0
  0
LINE
  8
0
 62
     0
 10
151.457
 20
52.663
 30
0.0
 11
152.258
 21
52.663
 31
0.0
  0
LINE
  8
0
 62
     0
 10
152.258
 20
52.663
 30
0.0
 11
152.258
 21
46.863
 31
0.0
  0
LINE
  8
0
 62
     0
 10
152.258
 20
46.863
 30
0.0
 11
151.457
 21
46.863
 31
0.0
  0
LINE
  8
0
 62
     0
 10
151.457
 20
46.863
 30
0.0
 11
151.457
 21
43.7624
 31
0.0
  0
LINE
  8
0
 62
     0
 10
151.457
 20
43.7624
 30
0.0
 11
152.258
 21
43.7624
 31
0.0
  0
LINE
  8
0
 62
     0
 10
152.258
 20
43.7624
 30
0.0
 11
152.258
 21
42.7634
 31
0.0
  0
LINE
  8
0
 62
     0
 10
152.258
 20
42.7634
 30
0.0
 11
166.257
 21
42.7634
 31
0.0
  0
LINE
  8
0
 62
     0
 10
166.257
 20
42.7634
 30
0.0
 11
166.257
 21
43.7624
 31
0.0
  0
LINE
  8
0
 62
     0
 10
166.257
 20
43.7624
 30
0.0
 11
167.057
 21
43.7624
 31
0.0
  0
LINE
  8
0
 62
     0
 10
167.057
 20
43.7624
 30
0.0
 11
167.057
 21
46.863
 31
0.0
  0
LINE
  8
0
 62
     0
 10
167.057
 20
46.863
 30
0.0
 11
166.257
 21
46.863
 31
0.0
  0
LINE
  8
0
 62
     0
 10
166.257
 20
46.863
 30
0.0
 11
166.257
 21
52.663
 31
0.0
  0
LINE
  8
0
 62
     0
 10
166.257
 20
52.663
 30
0.0
 11
167.057
 21
52.663
 31
0.0
  0
LINE
  8
0
 62
     0
 10
167.057
 20
52.663
 30
0.0
 11
167.057
 21
55.7622
 31
0.0
  0
LINE
  8
0
 62
     0
 10
167.057
 20
55.7622
 30
0.0
 11
166.257
 21
55.7622
 31
0.0
  0
LINE
  8
0
 62
     0
 10
166.257
 20
55.7622
 30
0.0
 11
166.257
 21
56.7626
 31
0.0
  0
LINE
  8
0
 62
     0
 10
166.257
 20
56.7626
 30
0.0
 11
152.258
 21
56.7626
 31
0.0
  0
LINE
  8
0
 62
     0
 10
133.208
 20
56.7626
 30
0.0
 11
133.208
 21
55.7622
 31
0.0
  0
LINE
  8
0
 62
     0
 10
133.208
 20
55.7622
 30
0.0
 11
132.407
 21
55.7622
 31
0.0
  0
LINE
  8
0
 62
     0
 10
132.407
 20
55.7622
 30
0.0
 11
132.407
 21
52.663
 31
0.0
  0
LINE
  8
0
 62
     0
 10
132.407
 20
52.663
 30
0.0
 11
133.208
 21
52.663
 31
0.0
  0
LINE
  8
0
 62
     0
 10
133.208
 20
52.663
 30
0.0
 11
133.208
 21
46.863
 31
0.0
  0
LINE
  8
0
 62
     0
 10
133.208
 20
46.863
 30
0.0
 11
132.407
 21
46.863
 31
0.0
  0
LINE
  8
0
 62
     0
 10
132.407
 20
46.863
 30
0.0
 11
132.407
 21
43.7624
 31
0.0
  0
LINE
  8
0
 62
     0
 10
132.407
 20
43.7624
 30
0.0
 11
133.208
 21
43.7624
 31
0.0
  0
LINE
  8
0
 62
     0
 10
133.208
 20
43.7624
 30
0.0
 11
133.208
 21
42.7634
 31
0.0
  0
LINE
  8
0
 62
     0
 10
133.208
 20
42.7634
 30
0.0
 11
147.207
 21
42.7634
 31
0.0
  0
LINE
  8
0
 62
     0
 10
147.207
 20
42.7634
 30
0.0
 11
147.207
 21
43.7624
 31
0.0
  0
LINE
  8
0
 62
     0
 10
147.207
 20
43.7624
 30
0.0
 11
148.007
 21
43.7624
 31
0.0
  0
LINE
  8
0
 62
     0
 10
148.007
 20
43.7624
 30
0.0
 11
148.007
 21
46.863
 31
0.0
  0
LINE
  8
0
 62
     0
 10
148.007
 20
46.863
 30
0.0
 11
147.207
 21
46.863
 31
0.0
  0
LINE
  8
0
 62
     0
 10
147.207
 20
46.863
 30
0.0
 11
147.207
 21
52.663
 31
0.0
  0
LINE
  8
0
 62
     0
 10
147.207
 20
52.663
 30
0.0
 11
148.007
 21
52.663
 31
0.0
  0
LINE
  8
0
 62
     0
 10
148.007
 20
52.663
 30
0.0
 11
148.007
 21
55.7622
 31
0.0
  0
LINE
  8
0
 62
     0
 10
148.007
 20
55.7622
 30
0.0
 11
147.207
 21
55.7622
 31
0.0
  0
LINE
  8
0
 62
     0
 10
147.207
 20
55.7622
 30
0.0
 11
147.207
 21
56.7626
 31
0.0
  0
LINE
  8
0
 62
     0
 10
147.207
 20
56.7626
 30
0.0
 11
133.208
 21
56.7626
 31
0.0
  0
LINE
  8
0
 62
     0
 10
114.158
 20
56.7626
 30
0.0
 11
114.158
 21
55.7622
 31
0.0
  0
LINE
  8
0
 62
     0
 10
114.158
 20
55.7622
 30
0.0
 11
113.357
 21
55.7622
 31
0.0
  0
LINE
  8
0
 62
     0
 10
113.357
 20
55.7622
 30
0.0
 11
113.357
 21
52.663
 31
0.0
  0
LINE
  8
0
 62
     0
 10
113.357
 20
52.663
 30
0.0
 11
114.158
 21
52.663
 31
0.0
  0
LINE
  8
0
 62
     0
 10
114.158
 20
52.663
 30
0.0
 11
114.158
 21
46.863
 31
0.0
  0
LINE
  8
0
 62
     0
 10
114.158
 20
46.863
 30
0.0
 11
113.357
 21
46.863
 31
0.0
  0
LINE
  8
0
 62
     0
 10
113.357
 20
46.863
 30
0.0
 11
113.357
 21
43.7624
 31
0.0
  0
LINE
  8
0
 62
     0
 10
113.357
 20
43.7624
 30
0.0
 11
114.158
 21
43.7624
 31
0.0
  0
LINE
  8
0
 62
     0
 10
114.158
 20
43.7624
 30
0.0
 11
114.158
 21
42.7634
 31
0.0
  0
LINE
  8
0
 62
     0
 10
114.158
 20
42.7634
 30
0.0
 11
128.157
 21
42.7634
 31
0.0
  0
LINE
  8
0
 62
     0
 10
128.157
 20
42.7634
 30
0.0
 11
128.157
 21
43.7624
 31
0.0
  0
LINE
  8
0
 62
     0
 10
128.157
 20
43.7624
 30
0.0
 11
128.957
 21
43.7624
 31
0.0
  0
LINE
  8
0
 62
     0
 10
128.957
 20
43.7624
 30
0.0
 11
128.957
 21
46.863
 31
0.0
  0
LINE
  8
0
 62
     0
 10
128.957
 20
46.863
 30
0.0
 11
128.157
 21
46.863
 31
0.0
  0
LINE
  8
0
 62
     0
 10
128.157
 20
46.863
 30
0.0
 11
128.157
 21
52.663
 31
0.0
  0
LINE
  8
0
 62
     0
 10
128.157
 20
52.663
 30
0.0
 11
128.957
 21
52.663
 31
0.0
  0
LINE
  8
0
 62
     0
 10
128.957
 20
52.663
 30
0.0
 11
128.957
 21
55.7622
 31
0.0
  0
LINE
  8
0
 62
     0
 10
128.957
 20
55.7622
 30
0.0
 11
128.157
 21
55.7622
 31
0.0
  0
LINE
  8
0
 62
     0
 10
128.157
 20
55.7622
 30
0.0
 11
128.157
 21
56.7626
 31
0.0
  0
LINE
  8
0
 62
     0
 10
128.157
 20
56.7626
 30
0.0
 11
114.158
 21
56.7626
 31
0.0
  0
LINE
  8
0
 62
     0
 10
95.1082
 20
56.7626
 30
0.0
 11
95.1082
 21
55.7622
 31
0.0
  0
LINE
  8
0
 62
     0
 10
95.1082
 20
55.7622
 30
0.0
 11
94.3074
 21
55.7622
 31
0.0
  0
LINE
  8
0
 62
     0
 10
94.3074
 20
55.7622
 30
0.0
 11
94.3074
 21
52.663
 31
0.0
  0
LINE
  8
0
 62
     0
 10
94.3074
 20
52.663
 30
0.0
 11
95.1082
 21
52.663
 31
0.0
  0
LINE
  8
0
 62
     0
 10
95.1082
 20
52.663
 30
0.0
 11
95.1082
 21
46.863
 31
0.0
  0
LINE
  8
0
 62
     0
 10
95.1082
 20
46.863
 30
0.0
 11
94.3074
 21
46.863
 31
0.0
  0
LINE
  8
0
 62
     0
 10
94.3074
 20
46.863
 30
0.0
 11
94.3074
 21
43.7624
 31
0.0
  0
LINE
  8
0
 62
     0
 10
94.3074
 20
43.7624
 30
0.0
 11
95.1082
 21
43.7624
 31
0.0
  0
LINE
  8
0
 62
     0
 10
95.1082
 20
43.7624
 30
0.0
 11
95.1082
 21
42.7634
 31
0.0
  0
LINE
  8
0
 62
     0
 10
95.1082
 20
42.7634
 30
0.0
 11
109.107
 21
42.7634
 31
0.0
  0
LINE
  8
0
 62
     0
 10
109.107
 20
42.7634
 30
0.0
 11
109.107
 21
43.7624
 31
0.0
  0
LINE
  8
0
 62
     0
 10
109.107
 20
43.7624
 30
0.0
 11
109.907
 21
43.7624
 31
0.0
  0
LINE
  8
0
 62
     0
 10
109.907
 20
43.7624
 30
0.0
 11
109.907
 21
46.863
 31
0.0
  0
LINE
  8
0
 62
     0
 10
109.907
 20
46.863
 30
0.0
 11
109.107
 21
46.863
 31
0.0
  0
LINE
  8
0
 62
     0
 10
109.107
 20
46.863
 30
0.0
 11
109.107
 21
52.663
 31
0.0
  0
LINE
  8
0
 62
     0
 10
109.107
 20
52.663
 30
0.0
 11
109.907
 21
52.663
 31
0.0
  0
LINE
  8
0
 62
     0
 10
109.907
 20
52.663
 30
0.0
 11
109.907
 21
55.7622
 31
0.0
  0
LINE
  8
0
 62
     0
 10
109.907
 20
55.7622
 30
0.0
 11
109.107
 21
55.7622
 31
0.0
  0
LINE
  8
0
 62
     0
 10
109.107
 20
55.7622
 30
0.0
 11
109.107
 21
56.7626
 31
0.0
  0
LINE
  8
0
 62
     0
 10
109.107
 20
56.7626
 30
0.0
 11
95.1082
 21
56.7626
 31
0.0
  0
LINE
  8
0
 62
     0
 10
76.0582
 20
56.7626
 30
0.0
 11
76.0582
 21
55.7622
 31
0.0
  0
LINE
  8
0
 62
     0
 10
76.0582
 20
55.7622
 30
0.0
 11
75.2574
 21
55.7622
 31
0.0
  0
LINE
  8
0
 62
     0
 10
75.2574
 20
55.7622
 30
0.0
 11
75.2574
 21
52.663
 31
0.0
  0
LINE
  8
0
 62
     0
 10
75.2574
 20
52.663
 30
0.0
 11
76.0582
 21
52.663
 31
0.0
  0
LINE
  8
0
 62
     0
 10
76.0582
 20
52.663
 30
0.0
 11
76.0582
 21
46.863
 31
0.0
  0
LINE
  8
0
 62
     0
 10
76.0582
 20
46.863
 30
0.0
 11
75.2574
 21
46.863
 31
0.0
  0
LINE
  8
0
 62
     0
 10
75.2574
 20
46.863
 30
0.0
 11
75.2574
 21
43.7624
 31
0.0
  0
LINE
  8
0
 62
     0
 10
75.2574
 20
43.7624
 30
0.0
 11
76.0582
 21
43.7624
 31
0.0
  0
LINE
  8
0
 62
     0
 10
76.0582
 20
43.7624
 30
0.0
 11
76.0582
 21
42.7634
 31
0.0
  0
LINE
  8
0
 62
     0
 10
76.0582
 20
42.7634
 30
0.0
 11
90.0575
 21
42.7634
 31
0.0
  0
LINE
  8
0
 62
     0
 10
90.0575
 20
42.7634
 30
0.0
 11
90.0575
 21
43.7624
 31
0.0
  0
LINE
  8
0
 62
     0
 10
90.0575
 20
43.7624
 30
0.0
 11
90.8569
 21
43.7624
 31
0.0
  0
LINE
  8
0
 62
     0
 10
90.8569
 20
43.7624
 30
0.0
 11
90.8569
 21
46.863
 31
0.0
  0
LINE
  8
0
 62
     0
 10
90.8569
 20
46.863
 30
0.0
 11
90.0575
 21
46.863
 31
0.0
  0
LINE
  8
0
 62
     0
 10
90.0575
 20
46.863
 30
0.0
 11
90.0575
 21
52.663
 31
0.0
  0
LINE
  8
0
 62
     0
 10
90.0575
 20
52.663
 30
0.0
 11
90.8569
 21
52.663
 31
0.0
  0
LINE
  8
0
 62
     0
 10
90.8569
 20
52.663
 30
0.0
 11
90.8569
 21
55.7622
 31
0.0
  0
LINE
  8
0
 62
     0
 10
90.8569
 20
55.7622
 30
0.0
 11
90.0575
 21
55.7622
 31
0.0
  0
LINE
  8
0
 62
     0
 10
90.0575
 20
55.7622
 30
0.0
 11
90.0575
 21
56.7626
 31
0.0
  0
LINE
  8
0
 62
     0
 10
90.0575
 20
56.7626
 30
0.0
 11
76.0582
 21
56.7626
 31
0.0
  0
LINE
  8
0
 62
     0
 10
57.0082
 20
56.7626
 30
0.0
 11
57.0082
 21
55.7622
 31
0.0
  0
LINE
  8
0
 62
     0
 10
57.0082
 20
55.7622
 30
0.0
 11
56.2074
 21
55.7622
 31
0.0
  0
LINE
  8
0
 62
     0
 10
56.2074
 20
55.7622
 30
0.0
 11
56.2074
 21
52.663
 31
0.0
  0
LINE
  8
0
 62
     0
 10
56.2074
 20
52.663
 30
0.0
 11
57.0082
 21
52.663
 31
0.0
  0
LINE
  8
0
 62
     0
 10
57.0082
 20
52.663
 30
0.0
 11
57.0082
 21
46.863
 31
0.0
  0
LINE
  8
0
 62
     0
 10
57.0082
 20
46.863
 30
0.0
 11
56.2074
 21
46.863
 31
0.0
  0
LINE
  8
0
 62
     0
 10
56.2074
 20
46.863
 30
0.0
 11
56.2074
 21
43.7624
 31
0.0
  0
LINE
  8
0
 62
     0
 10
56.2074
 20
43.7624
 30
0.0
 11
57.0082
 21
43.7624
 31
0.0
  0
LINE
  8
0
 62
     0
 10
57.0082
 20
43.7624
 30
0.0
 11
57.0082
 21
42.7634
 31
0.0
  0
LINE
  8
0
 62
     0
 10
57.0082
 20
42.7634
 30
0.0
 11
71.0075
 21
42.7634
 31
0.0
  0
LINE
  8
0
 62
     0
 10
71.0075
 20
42.7634
 30
0.0
 11
71.0075
 21
43.7624
 31
0.0
  0
LINE
  8
0
 62
     0
 10
71.0075
 20
43.7624
 30
0.0
 11
71.8069
 21
43.7624
 31
0.0
  0
LINE
  8
0
 62
     0
 10
71.8069
 20
43.7624
 30
0.0
 11
71.8069
 21
46.863
 31
0.0
  0
LINE
  8
0
 62
     0
 10
71.8069
 20
46.863
 30
0.0
 11
71.0075
 21
46.863
 31
0.0
  0
LINE
  8
0
 62
     0
 10
71.0075
 20
46.863
 30
0.0
 11
71.0075
 21
52.663
 31
0.0
  0
LINE
  8
0
 62
     0
 10
71.0075
 20
52.663
 30
0.0
 11
71.8069
 21
52.663
 31
0.0
  0
LINE
  8
0
 62
     0
 10
71.8069
 20
52.663
 30
0.0
 11
71.8069
 21
55.7622
 31
0.0
  0
LINE
  8
0
 62
     0
 10
71.8069
 20
55.7622
 30
0.0
 11
71.0075
 21
55.7622
 31
0.0
  0
LINE
  8
0
 62
     0
 10
71.0075
 20
55.7622
 30
0.0
 11
71.0075
 21
56.7626
 31
0.0
  0
LINE
  8
0
 62
     0
 10
71.0075
 20
56.7626
 30
0.0
 11
57.0082
 21
56.7626
 31
0.0
  0
LINE
  8
0
 62
     0
 10
37.9582
 20
56.7626
 30
0.0
 11
37.9582
 21
55.7622
 31
0.0
  0
LINE
  8
0
 62
     0
 10
37.9582
 20
55.7622
 30
0.0
 11
37.1574
 21
55.7622
 31
0.0
  0
LINE
  8
0
 62
     0
 10
37.1574
 20
55.7622
 30
0.0
 11
37.1574
 21
52.663
 31
0.0
  0
LINE
  8
0
 62
     0
 10
37.1574
 20
52.663
 30
0.0
 11
37.9582
 21
52.663
 31
0.0
  0
LINE
  8
0
 62
     0
 10
37.9582
 20
52.663
 30
0.0
 11
37.9582
 21
46.863
 31
0.0
  0
LINE
  8
0
 62
     0
 10
37.9582
 20
46.863
 30
0.0
 11
37.1574
 21
46.863
 31
0.0
  0
LINE
  8
0
 62
     0
 10
37.1574
 20
46.863
 30
0.0
 11
37.1574
 21
43.7624
 31
0.0
  0
LINE
  8
0
 62
     0
 10
37.1574
 20
43.7624
 30
0.0
 11
37.9582
 21
43.7624
 31
0.0
  0
LINE
  8
0
 62
     0
 10
37.9582
 20
43.7624
 30
0.0
 11
37.9582
 21
42.7634
 31
0.0
  0
LINE
  8
0
 62
     0
 10
37.9582
 20
42.7634
 30
0.0
 11
51.9575
 21
42.7634
 31
0.0
  0
LINE
  8
0
 62
     0
 10
51.9575
 20
42.7634
 30
0.0
 11
51.9575
 21
43.7624
 31
0.0
  0
LINE
  8
0
 62
     0
 10
51.9575
 20
43.7624
 30
0.0
 11
52.7569
 21
43.7624
 31
0.0
  0
LINE
  8
0
 62
     0
 10
52.7569
 20
43.7624
 30
0.0
 11
52.7569
 21
46.863
 31
0.0
  0
LINE
  8
0
 62
     0
 10
52.7569
 20
46.863
 30
0.0
 11
51.9575
 21
46.863
 31
0.0
  0
LINE
  8
0
 62
     0
 10
51.9575
 20
46.863
 30
0.0
 11
51.9575
 21
52.663
 31
0.0
  0
LINE
  8
0
 62
     0
 10
51.9575
 20
52.663
 30
0.0
 11
52.7569
 21
52.663
 31
0.0
  0
LINE
  8
0
 62
     0
 10
52.7569
 20
52.663
 30
0.0
 11
52.7569
 21
55.7622
 31
0.0
  0
LINE
  8
0
 62
     0
 10
52.7569
 20
55.7622
 30
0.0
 11
51.9575
 21
55.7622
 31
0.0
  0
LINE
  8
0
 62
     0
 10
51.9575
 20
55.7622
 30
0.0
 11
51.9575
 21
56.7626
 31
0.0
  0
LINE
  8
0
 62
     0
 10
51.9575
 20
56.7626
 30
0.0
 11
37.9582
 21
56.7626
 31
0.0
  0
LINE
  8
0
 62
     0
 10
11.763
 20
56.7626
 30
0.0
 11
11.763
 21
55.7622
 31
0.0
  0
LINE
  8
0
 62
     0
 10
11.763
 20
55.7622
 30
0.0
 11
10.9637
 21
55.7622
 31
0.0
  0
LINE
  8
0
 62
     0
 10
10.9637
 20
55.7622
 30
0.0
 11
10.9637
 21
52.663
 31
0.0
  0
LINE
  8
0
 62
     0
 10
10.9637
 20
52.663
 30
0.0
 11
11.763
 21
52.663
 31
0.0
  0
LINE
  8
0
 62
     0
 10
11.763
 20
52.663
 30
0.0
 11
11.763
 21
46.863
 31
0.0
  0
LINE
  8
0
 62
     0
 10
11.763
 20
46.863
 30
0.0
 11
10.9637
 21
46.863
 31
0.0
  0
LINE
  8
0
 62
     0
 10
10.9637
 20
46.863
 30
0.0
 11
10.9637
 21
43.7624
 31
0.0
  0
LINE
  8
0
 62
     0
 10
10.9637
 20
43.7624
 30
0.0
 11
11.763
 21
43.7624
 31
0.0
  0
LINE
  8
0
 62
     0
 10
11.763
 20
43.7624
 30
0.0
 11
11.763
 21
42.7634
 31
0.0
  0
LINE
  8
0
 62
     0
 10
11.763
 20
42.7634
 30
0.0
 11
25.7638
 21
42.7634
 31
0.0
  0
LINE
  8
0
 62
     0
 10
25.7638
 20
42.7634
 30
0.0
 11
25.7638
 21
43.7624
 31
0.0
  0
LINE
  8
0
 62
     0
 10
25.7638
 20
43.7624
 30
0.0
 11
26.5631
 21
43.7624
 31
0.0
  0
LINE
  8
0
 62
     0
 10
26.5631
 20
43.7624
 30
0.0
 11
26.5631
 21
46.863
 31
0.0
  0
LINE
  8
0
 62
     0
 10
26.5631
 20
46.863
 30
0.0
 11
25.7638
 21
46.863
 31
0.0
  0
LINE
  8
0
 62
     0
 10
25.7638
 20
46.863
 30
0.0
 11
25.7638
 21
52.663
 31
0.0
  0
LINE
  8
0
 62
     0
 10
25.7638
 20
52.663
 30
0.0
 11
26.5631
 21
52.663
 31
0.0
  0
LINE
  8
0
 62
     0
 10
26.5631
 20
52.663
 30
0.0
 11
26.5631
 21
55.7622
 31
0.0
  0
LINE
  8
0
 62
     0
 10
26.5631
 20
55.7622
 30
0.0
 11
25.7638
 21
55.7622
 31
0.0
  0
LINE
  8
0
 62
     0
 10
25.7638
 20
55.7622
 30
0.0
 11
25.7638
 21
56.7626
 31
0.0
  0
LINE
  8
0
 62
     0
 10
25.7638
 20
56.7626
 30
0.0
 11
11.763
 21
56.7626
 31
0.0
  0
LINE
  8
0
 62
     0
 10
314.183
 20
75.8126
 30
0.0
 11
314.183
 21
74.8122
 31
0.0
  0
LINE
  8
0
 62
     0
 10
314.183
 20
74.8122
 30
0.0
 11
313.382
 21
74.8122
 31
0.0
  0
LINE
  8
0
 62
     0
 10
313.382
 20
74.8122
 30
0.0
 11
313.382
 21
71.7144
 31
0.0
  0
LINE
  8
0
 62
     0
 10
313.382
 20
71.7144
 30
0.0
 11
314.183
 21
71.7144
 31
0.0
  0
LINE
  8
0
 62
     0
 10
314.183
 20
71.7144
 30
0.0
 11
314.183
 21
65.913
 31
0.0
  0
LINE
  8
0
 62
     0
 10
314.183
 20
65.913
 30
0.0
 11
313.382
 21
65.913
 31
0.0
  0
LINE
  8
0
 62
     0
 10
313.382
 20
65.913
 30
0.0
 11
313.382
 21
62.8124
 31
0.0
  0
LINE
  8
0
 62
     0
 10
313.382
 20
62.8124
 30
0.0
 11
314.183
 21
62.8124
 31
0.0
  0
LINE
  8
0
 62
     0
 10
314.183
 20
62.8124
 30
0.0
 11
314.183
 21
61.8134
 31
0.0
  0
LINE
  8
0
 62
     0
 10
314.183
 20
61.8134
 30
0.0
 11
328.182
 21
61.8134
 31
0.0
  0
LINE
  8
0
 62
     0
 10
328.182
 20
61.8134
 30
0.0
 11
328.182
 21
62.8124
 31
0.0
  0
LINE
  8
0
 62
     0
 10
328.182
 20
62.8124
 30
0.0
 11
328.982
 21
62.8124
 31
0.0
  0
LINE
  8
0
 62
     0
 10
328.982
 20
62.8124
 30
0.0
 11
328.982
 21
65.913
 31
0.0
  0
LINE
  8
0
 62
     0
 10
328.982
 20
65.913
 30
0.0
 11
328.182
 21
65.913
 31
0.0
  0
LINE
  8
0
 62
     0
 10
328.182
 20
65.913
 30
0.0
 11
328.182
 21
71.7144
 31
0.0
  0
LINE
  8
0
 62
     0
 10
328.182
 20
71.7144
 30
0.0
 11
328.982
 21
71.7144
 31
0.0
  0
LINE
  8
0
 62
     0
 10
328.982
 20
71.7144
 30
0.0
 11
328.982
 21
74.8122
 31
0.0
  0
LINE
  8
0
 62
     0
 10
328.982
 20
74.8122
 30
0.0
 11
328.182
 21
74.8122
 31
0.0
  0
LINE
  8
0
 62
     0
 10
328.182
 20
74.8122
 30
0.0
 11
328.182
 21
75.8126
 31
0.0
  0
LINE
  8
0
 62
     0
 10
328.182
 20
75.8126
 30
0.0
 11
314.183
 21
75.8126
 31
0.0
  0
LINE
  8
0
 62
     0
 10
295.133
 20
75.8126
 30
0.0
 11
295.133
 21
74.8122
 31
0.0
  0
LINE
  8
0
 62
     0
 10
295.133
 20
74.8122
 30
0.0
 11
294.332
 21
74.8122
 31
0.0
  0
LINE
  8
0
 62
     0
 10
294.332
 20
74.8122
 30
0.0
 11
294.332
 21
71.7144
 31
0.0
  0
LINE
  8
0
 62
     0
 10
294.332
 20
71.7144
 30
0.0
 11
295.133
 21
71.7144
 31
0.0
  0
LINE
  8
0
 62
     0
 10
295.133
 20
71.7144
 30
0.0
 11
295.133
 21
65.913
 31
0.0
  0
LINE
  8
0
 62
     0
 10
295.133
 20
65.913
 30
0.0
 11
294.332
 21
65.913
 31
0.0
  0
LINE
  8
0
 62
     0
 10
294.332
 20
65.913
 30
0.0
 11
294.332
 21
62.8124
 31
0.0
  0
LINE
  8
0
 62
     0
 10
294.332
 20
62.8124
 30
0.0
 11
295.133
 21
62.8124
 31
0.0
  0
LINE
  8
0
 62
     0
 10
295.133
 20
62.8124
 30
0.0
 11
295.133
 21
61.8134
 31
0.0
  0
LINE
  8
0
 62
     0
 10
295.133
 20
61.8134
 30
0.0
 11
309.132
 21
61.8134
 31
0.0
  0
LINE
  8
0
 62
     0
 10
309.132
 20
61.8134
 30
0.0
 11
309.132
 21
62.8124
 31
0.0
  0
LINE
  8
0
 62
     0
 10
309.132
 20
62.8124
 30
0.0
 11
309.932
 21
62.8124
 31
0.0
  0
LINE
  8
0
 62
     0
 10
309.932
 20
62.8124
 30
0.0
 11
309.932
 21
65.913
 31
0.0
  0
LINE
  8
0
 62
     0
 10
309.932
 20
65.913
 30
0.0
 11
309.132
 21
65.913
 31
0.0
  0
LINE
  8
0
 62
     0
 10
309.132
 20
65.913
 30
0.0
 11
309.132
 21
71.7144
 31
0.0
  0
LINE
  8
0
 62
     0
 10
309.132
 20
71.7144
 30
0.0
 11
309.932
 21
71.7144
 31
0.0
  0
LINE
  8
0
 62
     0
 10
309.932
 20
71.7144
 30
0.0
 11
309.932
 21
74.8122
 31
0.0
  0
LINE
  8
0
 62
     0
 10
309.932
 20
74.8122
 30
0.0
 11
309.132
 21
74.8122
 31
0.0
  0
LINE
  8
0
 62
     0
 10
309.132
 20
74.8122
 30
0.0
 11
309.132
 21
75.8126
 31
0.0
  0
LINE
  8
0
 62
     0
 10
309.132
 20
75.8126
 30
0.0
 11
295.133
 21
75.8126
 31
0.0
  0
LINE
  8
0
 62
     0
 10
266.558
 20
75.8126
 30
0.0
 11
266.558
 21
74.8122
 31
0.0
  0
LINE
  8
0
 62
     0
 10
266.558
 20
74.8122
 30
0.0
 11
265.757
 21
74.8122
 31
0.0
  0
LINE
  8
0
 62
     0
 10
265.757
 20
74.8122
 30
0.0
 11
265.757
 21
71.7144
 31
0.0
  0
LINE
  8
0
 62
     0
 10
265.757
 20
71.7144
 30
0.0
 11
266.558
 21
71.7144
 31
0.0
  0
LINE
  8
0
 62
     0
 10
266.558
 20
71.7144
 30
0.0
 11
266.558
 21
65.913
 31
0.0
  0
LINE
  8
0
 62
     0
 10
266.558
 20
65.913
 30
0.0
 11
265.757
 21
65.913
 31
0.0
  0
LINE
  8
0
 62
     0
 10
265.757
 20
65.913
 30
0.0
 11
265.757
 21
62.8124
 31
0.0
  0
LINE
  8
0
 62
     0
 10
265.757
 20
62.8124
 30
0.0
 11
266.558
 21
62.8124
 31
0.0
  0
LINE
  8
0
 62
     0
 10
266.558
 20
62.8124
 30
0.0
 11
266.558
 21
61.8134
 31
0.0
  0
LINE
  8
0
 62
     0
 10
266.558
 20
61.8134
 30
0.0
 11
280.557
 21
61.8134
 31
0.0
  0
LINE
  8
0
 62
     0
 10
280.557
 20
61.8134
 30
0.0
 11
280.557
 21
62.8124
 31
0.0
  0
LINE
  8
0
 62
     0
 10
280.557
 20
62.8124
 30
0.0
 11
281.357
 21
62.8124
 31
0.0
  0
LINE
  8
0
 62
     0
 10
281.357
 20
62.8124
 30
0.0
 11
281.357
 21
65.913
 31
0.0
  0
LINE
  8
0
 62
     0
 10
281.357
 20
65.913
 30
0.0
 11
280.557
 21
65.913
 31
0.0
  0
LINE
  8
0
 62
     0
 10
280.557
 20
65.913
 30
0.0
 11
280.557
 21
71.7144
 31
0.0
  0
LINE
  8
0
 62
     0
 10
280.557
 20
71.7144
 30
0.0
 11
281.357
 21
71.7144
 31
0.0
  0
LINE
  8
0
 62
     0
 10
281.357
 20
71.7144
 30
0.0
 11
281.357
 21
74.8122
 31
0.0
  0
LINE
  8
0
 62
     0
 10
281.357
 20
74.8122
 30
0.0
 11
280.557
 21
74.8122
 31
0.0
  0
LINE
  8
0
 62
     0
 10
280.557
 20
74.8122
 30
0.0
 11
280.557
 21
75.8126
 31
0.0
  0
LINE
  8
0
 62
     0
 10
280.557
 20
75.8126
 30
0.0
 11
266.558
 21
75.8126
 31
0.0
  0
LINE
  8
0
 62
     0
 10
242.746
 20
75.8126
 30
0.0
 11
242.746
 21
74.8122
 31
0.0
  0
LINE
  8
0
 62
     0
 10
242.746
 20
74.8122
 30
0.0
 11
241.945
 21
74.8122
 31
0.0
  0
LINE
  8
0
 62
     0
 10
241.945
 20
74.8122
 30
0.0
 11
241.945
 21
71.7144
 31
0.0
  0
LINE
  8
0
 62
     0
 10
241.945
 20
71.7144
 30
0.0
 11
242.746
 21
71.7144
 31
0.0
  0
LINE
  8
0
 62
     0
 10
242.746
 20
71.7144
 30
0.0
 11
242.746
 21
65.913
 31
0.0
  0
LINE
  8
0
 62
     0
 10
242.746
 20
65.913
 30
0.0
 11
241.945
 21
65.913
 31
0.0
  0
LINE
  8
0
 62
     0
 10
241.945
 20
65.913
 30
0.0
 11
241.945
 21
62.8124
 31
0.0
  0
LINE
  8
0
 62
     0
 10
241.945
 20
62.8124
 30
0.0
 11
242.746
 21
62.8124
 31
0.0
  0
LINE
  8
0
 62
     0
 10
242.746
 20
62.8124
 30
0.0
 11
242.746
 21
61.8134
 31
0.0
  0
LINE
  8
0
 62
     0
 10
242.746
 20
61.8134
 30
0.0
 11
256.745
 21
61.8134
 31
0.0
  0
LINE
  8
0
 62
     0
 10
256.745
 20
61.8134
 30
0.0
 11
256.745
 21
62.8124
 31
0.0
  0
LINE
  8
0
 62
     0
 10
256.745
 20
62.8124
 30
0.0
 11
257.546
 21
62.8124
 31
0.0
  0
LINE
  8
0
 62
     0
 10
257.546
 20
62.8124
 30
0.0
 11
257.546
 21
65.913
 31
0.0
  0
LINE
  8
0
 62
     0
 10
257.546
 20
65.913
 30
0.0
 11
256.745
 21
65.913
 31
0.0
  0
LINE
  8
0
 62
     0
 10
256.745
 20
65.913
 30
0.0
 11
256.745
 21
71.7144
 31
0.0
  0
LINE
  8
0
 62
     0
 10
256.745
 20
71.7144
 30
0.0
 11
257.546
 21
71.7144
 31
0.0
  0
LINE
  8
0
 62
     0
 10
257.546
 20
71.7144
 30
0.0
 11
257.546
 21
74.8122
 31
0.0
  0
LINE
  8
0
 62
     0
 10
257.546
 20
74.8122
 30
0.0
 11
256.745
 21
74.8122
 31
0.0
  0
LINE
  8
0
 62
     0
 10
256.745
 20
74.8122
 30
0.0
 11
256.745
 21
75.8126
 31
0.0
  0
LINE
  8
0
 62
     0
 10
256.745
 20
75.8126
 30
0.0
 11
242.746
 21
75.8126
 31
0.0
  0
LINE
  8
0
 62
     0
 10
223.696
 20
75.8126
 30
0.0
 11
223.696
 21
74.8122
 31
0.0
  0
LINE
  8
0
 62
     0
 10
223.696
 20
74.8122
 30
0.0
 11
222.895
 21
74.8122
 31
0.0
  0
LINE
  8
0
 62
     0
 10
222.895
 20
74.8122
 30
0.0
 11
222.895
 21
71.7144
 31
0.0
  0
LINE
  8
0
 62
     0
 10
222.895
 20
71.7144
 30
0.0
 11
223.696
 21
71.7144
 31
0.0
  0
LINE
  8
0
 62
     0
 10
223.696
 20
71.7144
 30
0.0
 11
223.696
 21
65.913
 31
0.0
  0
LINE
  8
0
 62
     0
 10
223.696
 20
65.913
 30
0.0
 11
222.895
 21
65.913
 31
0.0
  0
LINE
  8
0
 62
     0
 10
222.895
 20
65.913
 30
0.0
 11
222.895
 21
62.8124
 31
0.0
  0
LINE
  8
0
 62
     0
 10
222.895
 20
62.8124
 30
0.0
 11
223.696
 21
62.8124
 31
0.0
  0
LINE
  8
0
 62
     0
 10
223.696
 20
62.8124
 30
0.0
 11
223.696
 21
61.8134
 31
0.0
  0
LINE
  8
0
 62
     0
 10
223.696
 20
61.8134
 30
0.0
 11
237.695
 21
61.8134
 31
0.0
  0
LINE
  8
0
 62
     0
 10
237.695
 20
61.8134
 30
0.0
 11
237.695
 21
62.8124
 31
0.0
  0
LINE
  8
0
 62
     0
 10
237.695
 20
62.8124
 30
0.0
 11
238.496
 21
62.8124
 31
0.0
  0
LINE
  8
0
 62
     0
 10
238.496
 20
62.8124
 30
0.0
 11
238.496
 21
65.913
 31
0.0
  0
LINE
  8
0
 62
     0
 10
238.496
 20
65.913
 30
0.0
 11
237.695
 21
65.913
 31
0.0
  0
LINE
  8
0
 62
     0
 10
237.695
 20
65.913
 30
0.0
 11
237.695
 21
71.7144
 31
0.0
  0
LINE
  8
0
 62
     0
 10
237.695
 20
71.7144
 30
0.0
 11
238.496
 21
71.7144
 31
0.0
  0
LINE
  8
0
 62
     0
 10
238.496
 20
71.7144
 30
0.0
 11
238.496
 21
74.8122
 31
0.0
  0
LINE
  8
0
 62
     0
 10
238.496
 20
74.8122
 30
0.0
 11
237.695
 21
74.8122
 31
0.0
  0
LINE
  8
0
 62
     0
 10
237.695
 20
74.8122
 30
0.0
 11
237.695
 21
75.8126
 31
0.0
  0
LINE
  8
0
 62
     0
 10
237.695
 20
75.8126
 30
0.0
 11
223.696
 21
75.8126
 31
0.0
  0
LINE
  8
0
 62
     0
 10
204.646
 20
75.8126
 30
0.0
 11
204.646
 21
74.8122
 31
0.0
  0
LINE
  8
0
 62
     0
 10
204.646
 20
74.8122
 30
0.0
 11
203.845
 21
74.8122
 31
0.0
  0
LINE
  8
0
 62
     0
 10
203.845
 20
74.8122
 30
0.0
 11
203.845
 21
71.7144
 31
0.0
  0
LINE
  8
0
 62
     0
 10
203.845
 20
71.7144
 30
0.0
 11
204.646
 21
71.7144
 31
0.0
  0
LINE
  8
0
 62
     0
 10
204.646
 20
71.7144
 30
0.0
 11
204.646
 21
65.913
 31
0.0
  0
LINE
  8
0
 62
     0
 10
204.646
 20
65.913
 30
0.0
 11
203.845
 21
65.913
 31
0.0
  0
LINE
  8
0
 62
     0
 10
203.845
 20
65.913
 30
0.0
 11
203.845
 21
62.8124
 31
0.0
  0
LINE
  8
0
 62
     0
 10
203.845
 20
62.8124
 30
0.0
 11
204.646
 21
62.8124
 31
0.0
  0
LINE
  8
0
 62
     0
 10
204.646
 20
62.8124
 30
0.0
 11
204.646
 21
61.8134
 31
0.0
  0
LINE
  8
0
 62
     0
 10
204.646
 20
61.8134
 30
0.0
 11
218.645
 21
61.8134
 31
0.0
  0
LINE
  8
0
 62
     0
 10
218.645
 20
61.8134
 30
0.0
 11
218.645
 21
62.8124
 31
0.0
  0
LINE
  8
0
 62
     0
 10
218.645
 20
62.8124
 30
0.0
 11
219.446
 21
62.8124
 31
0.0
  0
LINE
  8
0
 62
     0
 10
219.446
 20
62.8124
 30
0.0
 11
219.446
 21
65.913
 31
0.0
  0
LINE
  8
0
 62
     0
 10
219.446
 20
65.913
 30
0.0
 11
218.645
 21
65.913
 31
0.0
  0
LINE
  8
0
 62
     0
 10
218.645
 20
65.913
 30
0.0
 11
218.645
 21
71.7144
 31
0.0
  0
LINE
  8
0
 62
     0
 10
218.645
 20
71.7144
 30
0.0
 11
219.446
 21
71.7144
 31
0.0
  0
LINE
  8
0
 62
     0
 10
219.446
 20
71.7144
 30
0.0
 11
219.446
 21
74.8122
 31
0.0
  0
LINE
  8
0
 62
     0
 10
219.446
 20
74.8122
 30
0.0
 11
218.645
 21
74.8122
 31
0.0
  0
LINE
  8
0
 62
     0
 10
218.645
 20
74.8122
 30
0.0
 11
218.645
 21
75.8126
 31
0.0
  0
LINE
  8
0
 62
     0
 10
218.645
 20
75.8126
 30
0.0
 11
204.646
 21
75.8126
 31
0.0
  0
LINE
  8
0
 62
     0
 10
185.596
 20
75.8126
 30
0.0
 11
185.596
 21
74.8122
 31
0.0
  0
LINE
  8
0
 62
     0
 10
185.596
 20
74.8122
 30
0.0
 11
184.795
 21
74.8122
 31
0.0
  0
LINE
  8
0
 62
     0
 10
184.795
 20
74.8122
 30
0.0
 11
184.795
 21
71.7144
 31
0.0
  0
LINE
  8
0
 62
     0
 10
184.795
 20
71.7144
 30
0.0
 11
185.596
 21
71.7144
 31
0.0
  0
LINE
  8
0
 62
     0
 10
185.596
 20
71.7144
 30
0.0
 11
185.596
 21
65.913
 31
0.0
  0
LINE
  8
0
 62
     0
 10
185.596
 20
65.913
 30
0.0
 11
184.795
 21
65.913
 31
0.0
  0
LINE
  8
0
 62
     0
 10
184.795
 20
65.913
 30
0.0
 11
184.795
 21
62.8124
 31
0.0
  0
LINE
  8
0
 62
     0
 10
184.795
 20
62.8124
 30
0.0
 11
185.596
 21
62.8124
 31
0.0
  0
LINE
  8
0
 62
     0
 10
185.596
 20
62.8124
 30
0.0
 11
185.596
 21
61.8134
 31
0.0
  0
LINE
  8
0
 62
     0
 10
185.596
 20
61.8134
 30
0.0
 11
199.595
 21
61.8134
 31
0.0
  0
LINE
  8
0
 62
     0
 10
199.595
 20
61.8134
 30
0.0
 11
199.595
 21
62.8124
 31
0.0
  0
LINE
  8
0
 62
     0
 10
199.595
 20
62.8124
 30
0.0
 11
200.396
 21
62.8124
 31
0.0
  0
LINE
  8
0
 62
     0
 10
200.396
 20
62.8124
 30
0.0
 11
200.396
 21
65.913
 31
0.0
  0
LINE
  8
0
 62
     0
 10
200.396
 20
65.913
 30
0.0
 11
199.595
 21
65.913
 31
0.0
  0
LINE
  8
0
 62
     0
 10
199.595
 20
65.913
 30
0.0
 11
199.595
 21
71.7144
 31
0.0
  0
LINE
  8
0
 62
     0
 10
199.595
 20
71.7144
 30
0.0
 11
200.396
 21
71.7144
 31
0.0
  0
LINE
  8
0
 62
     0
 10
200.396
 20
71.7144
 30
0.0
 11
200.396
 21
74.8122
 31
0.0
  0
LINE
  8
0
 62
     0
 10
200.396
 20
74.8122
 30
0.0
 11
199.595
 21
74.8122
 31
0.0
  0
LINE
  8
0
 62
     0
 10
199.595
 20
74.8122
 30
0.0
 11
199.595
 21
75.8126
 31
0.0
  0
LINE
  8
0
 62
     0
 10
199.595
 20
75.8126
 30
0.0
 11
185.596
 21
75.8126
 31
0.0
  0
LINE
  8
0
 62
     0
 10
166.546
 20
75.8126
 30
0.0
 11
166.546
 21
74.8122
 31
0.0
  0
LINE
  8
0
 62
     0
 10
166.546
 20
74.8122
 30
0.0
 11
165.745
 21
74.8122
 31
0.0
  0
LINE
  8
0
 62
     0
 10
165.745
 20
74.8122
 30
0.0
 11
165.745
 21
71.7144
 31
0.0
  0
LINE
  8
0
 62
     0
 10
165.745
 20
71.7144
 30
0.0
 11
166.546
 21
71.7144
 31
0.0
  0
LINE
  8
0
 62
     0
 10
166.546
 20
71.7144
 30
0.0
 11
166.546
 21
65.913
 31
0.0
  0
LINE
  8
0
 62
     0
 10
166.546
 20
65.913
 30
0.0
 11
165.745
 21
65.913
 31
0.0
  0
LINE
  8
0
 62
     0
 10
165.745
 20
65.913
 30
0.0
 11
165.745
 21
62.8124
 31
0.0
  0
LINE
  8
0
 62
     0
 10
165.745
 20
62.8124
 30
0.0
 11
166.546
 21
62.8124
 31
0.0
  0
LINE
  8
0
 62
     0
 10
166.546
 20
62.8124
 30
0.0
 11
166.546
 21
61.8134
 31
0.0
  0
LINE
  8
0
 62
     0
 10
166.546
 20
61.8134
 30
0.0
 11
180.545
 21
61.8134
 31
0.0
  0
LINE
  8
0
 62
     0
 10
180.545
 20
61.8134
 30
0.0
 11
180.545
 21
62.8124
 31
0.0
  0
LINE
  8
0
 62
     0
 10
180.545
 20
62.8124
 30
0.0
 11
181.346
 21
62.8124
 31
0.0
  0
LINE
  8
0
 62
     0
 10
181.346
 20
62.8124
 30
0.0
 11
181.346
 21
65.913
 31
0.0
  0
LINE
  8
0
 62
     0
 10
181.346
 20
65.913
 30
0.0
 11
180.545
 21
65.913
 31
0.0
  0
LINE
  8
0
 62
     0
 10
180.545
 20
65.913
 30
0.0
 11
180.545
 21
71.7144
 31
0.0
  0
LINE
  8
0
 62
     0
 10
180.545
 20
71.7144
 30
0.0
 11
181.346
 21
71.7144
 31
0.0
  0
LINE
  8
0
 62
     0
 10
181.346
 20
71.7144
 30
0.0
 11
181.346
 21
74.8122
 31
0.0
  0
LINE
  8
0
 62
     0
 10
181.346
 20
74.8122
 30
0.0
 11
180.545
 21
74.8122
 31
0.0
  0
LINE
  8
0
 62
     0
 10
180.545
 20
74.8122
 30
0.0
 11
180.545
 21
75.8126
 31
0.0
  0
LINE
  8
0
 62
     0
 10
180.545
 20
75.8126
 30
0.0
 11
166.546
 21
75.8126
 31
0.0
  0
LINE
  8
0
 62
     0
 10
147.496
 20
75.8126
 30
0.0
 11
147.496
 21
74.8122
 31
0.0
  0
LINE
  8
0
 62
     0
 10
147.496
 20
74.8122
 30
0.0
 11
146.695
 21
74.8122
 31
0.0
  0
LINE
  8
0
 62
     0
 10
146.695
 20
74.8122
 30
0.0
 11
146.695
 21
71.7144
 31
0.0
  0
LINE
  8
0
 62
     0
 10
146.695
 20
71.7144
 30
0.0
 11
147.496
 21
71.7144
 31
0.0
  0
LINE
  8
0
 62
     0
 10
147.496
 20
71.7144
 30
0.0
 11
147.496
 21
65.913
 31
0.0
  0
LINE
  8
0
 62
     0
 10
147.496
 20
65.913
 30
0.0
 11
146.695
 21
65.913
 31
0.0
  0
LINE
  8
0
 62
     0
 10
146.695
 20
65.913
 30
0.0
 11
146.695
 21
62.8124
 31
0.0
  0
LINE
  8
0
 62
     0
 10
146.695
 20
62.8124
 30
0.0
 11
147.496
 21
62.8124
 31
0.0
  0
LINE
  8
0
 62
     0
 10
147.496
 20
62.8124
 30
0.0
 11
147.496
 21
61.8134
 31
0.0
  0
LINE
  8
0
 62
     0
 10
147.496
 20
61.8134
 30
0.0
 11
161.495
 21
61.8134
 31
0.0
  0
LINE
  8
0
 62
     0
 10
161.495
 20
61.8134
 30
0.0
 11
161.495
 21
62.8124
 31
0.0
  0
LINE
  8
0
 62
     0
 10
161.495
 20
62.8124
 30
0.0
 11
162.296
 21
62.8124
 31
0.0
  0
LINE
  8
0
 62
     0
 10
162.296
 20
62.8124
 30
0.0
 11
162.296
 21
65.913
 31
0.0
  0
LINE
  8
0
 62
     0
 10
162.296
 20
65.913
 30
0.0
 11
161.495
 21
65.913
 31
0.0
  0
LINE
  8
0
 62
     0
 10
161.495
 20
65.913
 30
0.0
 11
161.495
 21
71.7144
 31
0.0
  0
LINE
  8
0
 62
     0
 10
161.495
 20
71.7144
 30
0.0
 11
162.296
 21
71.7144
 31
0.0
  0
LINE
  8
0
 62
     0
 10
162.296
 20
71.7144
 30
0.0
 11
162.296
 21
74.8122
 31
0.0
  0
LINE
  8
0
 62
     0
 10
162.296
 20
74.8122
 30
0.0
 11
161.495
 21
74.8122
 31
0.0
  0
LINE
  8
0
 62
     0
 10
161.495
 20
74.8122
 30
0.0
 11
161.495
 21
75.8126
 31
0.0
  0
LINE
  8
0
 62
     0
 10
161.495
 20
75.8126
 30
0.0
 11
147.496
 21
75.8126
 31
0.0
  0
LINE
  8
0
 62
     0
 10
128.446
 20
75.8126
 30
0.0
 11
128.446
 21
74.8122
 31
0.0
  0
LINE
  8
0
 62
     0
 10
128.446
 20
74.8122
 30
0.0
 11
127.645
 21
74.8122
 31
0.0
  0
LINE
  8
0
 62
     0
 10
127.645
 20
74.8122
 30
0.0
 11
127.645
 21
71.7144
 31
0.0
  0
LINE
  8
0
 62
     0
 10
127.645
 20
71.7144
 30
0.0
 11
128.446
 21
71.7144
 31
0.0
  0
LINE
  8
0
 62
     0
 10
128.446
 20
71.7144
 30
0.0
 11
128.446
 21
65.913
 31
0.0
  0
LINE
  8
0
 62
     0
 10
128.446
 20
65.913
 30
0.0
 11
127.645
 21
65.913
 31
0.0
  0
LINE
  8
0
 62
     0
 10
127.645
 20
65.913
 30
0.0
 11
127.645
 21
62.8124
 31
0.0
  0
LINE
  8
0
 62
     0
 10
127.645
 20
62.8124
 30
0.0
 11
128.446
 21
62.8124
 31
0.0
  0
LINE
  8
0
 62
     0
 10
128.446
 20
62.8124
 30
0.0
 11
128.446
 21
61.8134
 31
0.0
  0
LINE
  8
0
 62
     0
 10
128.446
 20
61.8134
 30
0.0
 11
142.445
 21
61.8134
 31
0.0
  0
LINE
  8
0
 62
     0
 10
142.445
 20
61.8134
 30
0.0
 11
142.445
 21
62.8124
 31
0.0
  0
LINE
  8
0
 62
     0
 10
142.445
 20
62.8124
 30
0.0
 11
143.246
 21
62.8124
 31
0.0
  0
LINE
  8
0
 62
     0
 10
143.246
 20
62.8124
 30
0.0
 11
143.246
 21
65.913
 31
0.0
  0
LINE
  8
0
 62
     0
 10
143.246
 20
65.913
 30
0.0
 11
142.445
 21
65.913
 31
0.0
  0
LINE
  8
0
 62
     0
 10
142.445
 20
65.913
 30
0.0
 11
142.445
 21
71.7144
 31
0.0
  0
LINE
  8
0
 62
     0
 10
142.445
 20
71.7144
 30
0.0
 11
143.246
 21
71.7144
 31
0.0
  0
LINE
  8
0
 62
     0
 10
143.246
 20
71.7144
 30
0.0
 11
143.246
 21
74.8122
 31
0.0
  0
LINE
  8
0
 62
     0
 10
143.246
 20
74.8122
 30
0.0
 11
142.445
 21
74.8122
 31
0.0
  0
LINE
  8
0
 62
     0
 10
142.445
 20
74.8122
 30
0.0
 11
142.445
 21
75.8126
 31
0.0
  0
LINE
  8
0
 62
     0
 10
142.445
 20
75.8126
 30
0.0
 11
128.446
 21
75.8126
 31
0.0
  0
LINE
  8
0
 62
     0
 10
109.396
 20
75.8126
 30
0.0
 11
109.396
 21
74.8122
 31
0.0
  0
LINE
  8
0
 62
     0
 10
109.396
 20
74.8122
 30
0.0
 11
108.595
 21
74.8122
 31
0.0
  0
LINE
  8
0
 62
     0
 10
108.595
 20
74.8122
 30
0.0
 11
108.595
 21
71.7144
 31
0.0
  0
LINE
  8
0
 62
     0
 10
108.595
 20
71.7144
 30
0.0
 11
109.396
 21
71.7144
 31
0.0
  0
LINE
  8
0
 62
     0
 10
109.396
 20
71.7144
 30
0.0
 11
109.396
 21
65.913
 31
0.0
  0
LINE
  8
0
 62
     0
 10
109.396
 20
65.913
 30
0.0
 11
108.595
 21
65.913
 31
0.0
  0
LINE
  8
0
 62
     0
 10
108.595
 20
65.913
 30
0.0
 11
108.595
 21
62.8124
 31
0.0
  0
LINE
  8
0
 62
     0
 10
108.595
 20
62.8124
 30
0.0
 11
109.396
 21
62.8124
 31
0.0
  0
LINE
  8
0
 62
     0
 10
109.396
 20
62.8124
 30
0.0
 11
109.396
 21
61.8134
 31
0.0
  0
LINE
  8
0
 62
     0
 10
109.396
 20
61.8134
 30
0.0
 11
123.395
 21
61.8134
 31
0.0
  0
LINE
  8
0
 62
     0
 10
123.395
 20
61.8134
 30
0.0
 11
123.395
 21
62.8124
 31
0.0
  0
LINE
  8
0
 62
     0
 10
123.395
 20
62.8124
 30
0.0
 11
124.196
 21
62.8124
 31
0.0
  0
LINE
  8
0
 62
     0
 10
124.196
 20
62.8124
 30
0.0
 11
124.196
 21
65.913
 31
0.0
  0
LINE
  8
0
 62
     0
 10
124.196
 20
65.913
 30
0.0
 11
123.395
 21
65.913
 31
0.0
  0
LINE
  8
0
 62
     0
 10
123.395
 20
65.913
 30
0.0
 11
123.395
 21
71.7144
 31
0.0
  0
LINE
  8
0
 62
     0
 10
123.395
 20
71.7144
 30
0.0
 11
124.196
 21
71.7144
 31
0.0
  0
LINE
  8
0
 62
     0
 10
124.196
 20
71.7144
 30
0.0
 11
124.196
 21
74.8122
 31
0.0
  0
LINE
  8
0
 62
     0
 10
124.196
 20
74.8122
 30
0.0
 11
123.395
 21
74.8122
 31
0.0
  0
LINE
  8
0
 62
     0
 10
123.395
 20
74.8122
 30
0.0
 11
123.395
 21
75.8126
 31
0.0
  0
LINE
  8
0
 62
     0
 10
123.395
 20
75.8126
 30
0.0
 11
109.396
 21
75.8126
 31
0.0
  0
LINE
  8
0
 62
     0
 10
90.3457
 20
75.8126
 30
0.0
 11
90.3457
 21
74.8122
 31
0.0
  0
LINE
  8
0
 62
     0
 10
90.3457
 20
74.8122
 30
0.0
 11
89.5449
 21
74.8122
 31
0.0
  0
LINE
  8
0
 62
     0
 10
89.5449
 20
74.8122
 30
0.0
 11
89.5449
 21
71.7144
 31
0.0
  0
LINE
  8
0
 62
     0
 10
89.5449
 20
71.7144
 30
0.0
 11
90.3457
 21
71.7144
 31
0.0
  0
LINE
  8
0
 62
     0
 10
90.3457
 20
71.7144
 30
0.0
 11
90.3457
 21
65.913
 31
0.0
  0
LINE
  8
0
 62
     0
 10
90.3457
 20
65.913
 30
0.0
 11
89.5449
 21
65.913
 31
0.0
  0
LINE
  8
0
 62
     0
 10
89.5449
 20
65.913
 30
0.0
 11
89.5449
 21
62.8124
 31
0.0
  0
LINE
  8
0
 62
     0
 10
89.5449
 20
62.8124
 30
0.0
 11
90.3457
 21
62.8124
 31
0.0
  0
LINE
  8
0
 62
     0
 10
90.3457
 20
62.8124
 30
0.0
 11
90.3457
 21
61.8134
 31
0.0
  0
LINE
  8
0
 62
     0
 10
90.3457
 20
61.8134
 30
0.0
 11
104.345
 21
61.8134
 31
0.0
  0
LINE
  8
0
 62
     0
 10
104.345
 20
61.8134
 30
0.0
 11
104.345
 21
62.8124
 31
0.0
  0
LINE
  8
0
 62
     0
 10
104.345
 20
62.8124
 30
0.0
 11
105.146
 21
62.8124
 31
0.0
  0
LINE
  8
0
 62
     0
 10
105.146
 20
62.8124
 30
0.0
 11
105.146
 21
65.913
 31
0.0
  0
LINE
  8
0
 62
     0
 10
105.146
 20
65.913
 30
0.0
 11
104.345
 21
65.913
 31
0.0
  0
LINE
  8
0
 62
     0
 10
104.345
 20
65.913
 30
0.0
 11
104.345
 21
71.7144
 31
0.0
  0
LINE
  8
0
 62
     0
 10
104.345
 20
71.7144
 30
0.0
 11
105.146
 21
71.7144
 31
0.0
  0
LINE
  8
0
 62
     0
 10
105.146
 20
71.7144
 30
0.0
 11
105.146
 21
74.8122
 31
0.0
  0
LINE
  8
0
 62
     0
 10
105.146
 20
74.8122
 30
0.0
 11
104.345
 21
74.8122
 31
0.0
  0
LINE
  8
0
 62
     0
 10
104.345
 20
74.8122
 30
0.0
 11
104.345
 21
75.8126
 31
0.0
  0
LINE
  8
0
 62
     0
 10
104.345
 20
75.8126
 30
0.0
 11
90.3457
 21
75.8126
 31
0.0
  0
LINE
  8
0
 62
     0
 10
71.2957
 20
75.8126
 30
0.0
 11
71.2957
 21
74.8122
 31
0.0
  0
LINE
  8
0
 62
     0
 10
71.2957
 20
74.8122
 30
0.0
 11
70.4949
 21
74.8122
 31
0.0
  0
LINE
  8
0
 62
     0
 10
70.4949
 20
74.8122
 30
0.0
 11
70.4949
 21
71.7144
 31
0.0
  0
LINE
  8
0
 62
     0
 10
70.4949
 20
71.7144
 30
0.0
 11
71.2957
 21
71.7144
 31
0.0
  0
LINE
  8
0
 62
     0
 10
71.2957
 20
71.7144
 30
0.0
 11
71.2957
 21
65.913
 31
0.0
  0
LINE
  8
0
 62
     0
 10
71.2957
 20
65.913
 30
0.0
 11
70.4949
 21
65.913
 31
0.0
  0
LINE
  8
0
 62
     0
 10
70.4949
 20
65.913
 30
0.0
 11
70.4949
 21
62.8124
 31
0.0
  0
LINE
  8
0
 62
     0
 10
70.4949
 20
62.8124
 30
0.0
 11
71.2957
 21
62.8124
 31
0.0
  0
LINE
  8
0
 62
     0
 10
71.2957
 20
62.8124
 30
0.0
 11
71.2957
 21
61.8134
 31
0.0
  0
LINE
  8
0
 62
     0
 10
71.2957
 20
61.8134
 30
0.0
 11
85.295
 21
61.8134
 31
0.0
  0
LINE
  8
0
 62
     0
 10
85.295
 20
61.8134
 30
0.0
 11
85.295
 21
62.8124
 31
0.0
  0
LINE
  8
0
 62
     0
 10
85.295
 20
62.8124
 30
0.0
 11
86.0958
 21
62.8124
 31
0.0
  0
LINE
  8
0
 62
     0
 10
86.0958
 20
62.8124
 30
0.0
 11
86.0958
 21
65.913
 31
0.0
  0
LINE
  8
0
 62
     0
 10
86.0958
 20
65.913
 30
0.0
 11
85.295
 21
65.913
 31
0.0
  0
LINE
  8
0
 62
     0
 10
85.295
 20
65.913
 30
0.0
 11
85.295
 21
71.7144
 31
0.0
  0
LINE
  8
0
 62
     0
 10
85.295
 20
71.7144
 30
0.0
 11
86.0958
 21
71.7144
 31
0.0
  0
LINE
  8
0
 62
     0
 10
86.0958
 20
71.7144
 30
0.0
 11
86.0958
 21
74.8122
 31
0.0
  0
LINE
  8
0
 62
     0
 10
86.0958
 20
74.8122
 30
0.0
 11
85.295
 21
74.8122
 31
0.0
  0
LINE
  8
0
 62
     0
 10
85.295
 20
74.8122
 30
0.0
 11
85.295
 21
75.8126
 31
0.0
  0
LINE
  8
0
 62
     0
 10
85.295
 20
75.8126
 30
0.0
 11
71.2957
 21
75.8126
 31
0.0
  0
LINE
  8
0
 62
     0
 10
52.2457
 20
75.8126
 30
0.0
 11
52.2457
 21
74.8122
 31
0.0
  0
LINE
  8
0
 62
     0
 10
52.2457
 20
74.8122
 30
0.0
 11
51.4449
 21
74.8122
 31
0.0
  0
LINE
  8
0
 62
     0
 10
51.4449
 20
74.8122
 30
0.0
 11
51.4449
 21
71.7144
 31
0.0
  0
LINE
  8
0
 62
     0
 10
51.4449
 20
71.7144
 30
0.0
 11
52.2457
 21
71.7144
 31
0.0
  0
LINE
  8
0
 62
     0
 10
52.2457
 20
71.7144
 30
0.0
 11
52.2457
 21
65.913
 31
0.0
  0
LINE
  8
0
 62
     0
 10
52.2457
 20
65.913
 30
0.0
 11
51.4449
 21
65.913
 31
0.0
  0
LINE
  8
0
 62
     0
 10
51.4449
 20
65.913
 30
0.0
 11
51.4449
 21
62.8124
 31
0.0
  0
LINE
  8
0
 62
     0
 10
51.4449
 20
62.8124
 30
0.0
 11
52.2457
 21
62.8124
 31
0.0
  0
LINE
  8
0
 62
     0
 10
52.2457
 20
62.8124
 30
0.0
 11
52.2457
 21
61.8134
 31
0.0
  0
LINE
  8
0
 62
     0
 10
52.2457
 20
61.8134
 30
0.0
 11
66.245
 21
61.8134
 31
0.0
  0
LINE
  8
0
 62
     0
 10
66.245
 20
61.8134
 30
0.0
 11
66.245
 21
62.8124
 31
0.0
  0
LINE
  8
0
 62
     0
 10
66.245
 20
62.8124
 30
0.0
 11
67.0458
 21
62.8124
 31
0.0
  0
LINE
  8
0
 62
     0
 10
67.0458
 20
62.8124
 30
0.0
 11
67.0458
 21
65.913
 31
0.0
  0
LINE
  8
0
 62
     0
 10
67.0458
 20
65.913
 30
0.0
 11
66.245
 21
65.913
 31
0.0
  0
LINE
  8
0
 62
     0
 10
66.245
 20
65.913
 30
0.0
 11
66.245
 21
71.7144
 31
0.0
  0
LINE
  8
0
 62
     0
 10
66.245
 20
71.7144
 30
0.0
 11
67.0458
 21
71.7144
 31
0.0
  0
LINE
  8
0
 62
     0
 10
67.0458
 20
71.7144
 30
0.0
 11
67.0458
 21
74.8122
 31
0.0
  0
LINE
  8
0
 62
     0
 10
67.0458
 20
74.8122
 30
0.0
 11
66.245
 21
74.8122
 31
0.0
  0
LINE
  8
0
 62
     0
 10
66.245
 20
74.8122
 30
0.0
 11
66.245
 21
75.8126
 31
0.0
  0
LINE
  8
0
 62
     0
 10
66.245
 20
75.8126
 30
0.0
 11
52.2457
 21
75.8126
 31
0.0
  0
LINE
  8
0
 62
     0
 10
33.1956
 20
75.8126
 30
0.0
 11
33.1956
 21
74.8122
 31
0.0
  0
LINE
  8
0
 62
     0
 10
33.1956
 20
74.8122
 30
0.0
 11
32.3949
 21
74.8122
 31
0.0
  0
LINE
  8
0
 62
     0
 10
32.3949
 20
74.8122
 30
0.0
 11
32.3949
 21
71.7144
 31
0.0
  0
LINE
  8
0
 62
     0
 10
32.3949
 20
71.7144
 30
0.0
 11
33.1956
 21
71.7144
 31
0.0
  0
LINE
  8
0
 62
     0
 10
33.1956
 20
71.7144
 30
0.0
 11
33.1956
 21
65.913
 31
0.0
  0
LINE
  8
0
 62
     0
 10
33.1956
 20
65.913
 30
0.0
 11
32.3949
 21
65.913
 31
0.0
  0
LINE
  8
0
 62
     0
 10
32.3949
 20
65.913
 30
0.0
 11
32.3949
 21
62.8124
 31
0.0
  0
LINE
  8
0
 62
     0
 10
32.3949
 20
62.8124
 30
0.0
 11
33.1956
 21
62.8124
 31
0.0
  0
LINE
  8
0
 62
     0
 10
33.1956
 20
62.8124
 30
0.0
 11
33.1956
 21
61.8134
 31
0.0
  0
LINE
  8
0
 62
     0
 10
33.1956
 20
61.8134
 30
0.0
 11
47.195
 21
61.8134
 31
0.0
  0
LINE
  8
0
 62
     0
 10
47.195
 20
61.8134
 30
0.0
 11
47.195
 21
62.8124
 31
0.0
  0
LINE
  8
0
 62
     0
 10
47.195
 20
62.8124
 30
0.0
 11
47.9958
 21
62.8124
 31
0.0
  0
LINE
  8
0
 62
     0
 10
47.9958
 20
62.8124
 30
0.0
 11
47.9958
 21
65.913
 31
0.0
  0
LINE
  8
0
 62
     0
 10
47.9958
 20
65.913
 30
0.0
 11
47.195
 21
65.913
 31
0.0
  0
LINE
  8
0
 62
     0
 10
47.195
 20
65.913
 30
0.0
 11
47.195
 21
71.7144
 31
0.0
  0
LINE
  8
0
 62
     0
 10
47.195
 20
71.7144
 30
0.0
 11
47.9958
 21
71.7144
 31
0.0
  0
LINE
  8
0
 62
     0
 10
47.9958
 20
71.7144
 30
0.0
 11
47.9958
 21
74.8122
 31
0.0
  0
LINE
  8
0
 62
     0
 10
47.9958
 20
74.8122
 30
0.0
 11
47.195
 21
74.8122
 31
0.0
  0
LINE
  8
0
 62
     0
 10
47.195
 20
74.8122
 30
0.0
 11
47.195
 21
75.8126
 31
0.0
  0
LINE
  8
0
 62
     0
 10
47.195
 20
75.8126
 30
0.0
 11
33.1956
 21
75.8126
 31
0.0
  0
LINE
  8
0
 62
     0
 10
9.38308
 20
75.8126
 30
0.0
 11
9.38308
 21
74.8122
 31
0.0
  0
LINE
  8
0
 62
     0
 10
9.38308
 20
74.8122
 30
0.0
 11
8.58241
 21
74.8122
 31
0.0
  0
LINE
  8
0
 62
     0
 10
8.58241
 20
74.8122
 30
0.0
 11
8.58241
 21
71.7144
 31
0.0
  0
LINE
  8
0
 62
     0
 10
8.58241
 20
71.7144
 30
0.0
 11
9.38308
 21
71.7144
 31
0.0
  0
LINE
  8
0
 62
     0
 10
9.38308
 20
71.7144
 30
0.0
 11
9.38308
 21
65.913
 31
0.0
  0
LINE
  8
0
 62
     0
 10
9.38308
 20
65.913
 30
0.0
 11
8.58241
 21
65.913
 31
0.0
  0
LINE
  8
0
 62
     0
 10
8.58241
 20
65.913
 30
0.0
 11
8.58241
 21
62.8124
 31
0.0
  0
LINE
  8
0
 62
     0
 10
8.58241
 20
62.8124
 30
0.0
 11
9.38308
 21
62.8124
 31
0.0
  0
LINE
  8
0
 62
     0
 10
9.38308
 20
62.8124
 30
0.0
 11
9.38308
 21
61.8134
 31
0.0
  0
LINE
  8
0
 62
     0
 10
9.38308
 20
61.8134
 30
0.0
 11
23.3826
 21
61.8134
 31
0.0
  0
LINE
  8
0
 62
     0
 10
23.3826
 20
61.8134
 30
0.0
 11
23.3826
 21
62.8124
 31
0.0
  0
LINE
  8
0
 62
     0
 10
23.3826
 20
62.8124
 30
0.0
 11
24.1818
 21
62.8124
 31
0.0
  0
LINE
  8
0
 62
     0
 10
24.1818
 20
62.8124
 30
0.0
 11
24.1818
 21
65.913
 31
0.0
  0
LINE
  8
0
 62
     0
 10
24.1818
 20
65.913
 30
0.0
 11
23.3826
 21
65.913
 31
0.0
  0
LINE
  8
0
 62
     0
 10
23.3826
 20
65.913
 30
0.0
 11
23.3826
 21
71.7144
 31
0.0
  0
LINE
  8
0
 62
     0
 10
23.3826
 20
71.7144
 30
0.0
 11
24.1818
 21
71.7144
 31
0.0
  0
LINE
  8
0
 62
     0
 10
24.1818
 20
71.7144
 30
0.0
 11
24.1818
 21
74.8122
 31
0.0
  0
LINE
  8
0
 62
     0
 10
24.1818
 20
74.8122
 30
0.0
 11
23.3826
 21
74.8122
 31
0.0
  0
LINE
  8
0
 62
     0
 10
23.3826
 20
74.8122
 30
0.0
 11
23.3826
 21
75.8126
 31
0.0
  0
LINE
  8
0
 62
     0
 10
23.3826
 20
75.8126
 30
0.0
 11
9.38308
 21
75.8126
 31
0.0
  0
LINE
  8
0
 62
     0
 10
314.183
 20
94.8641
 30
0.0
 11
314.183
 21
93.8636
 31
0.0
  0
LINE
  8
0
 62
     0
 10
314.183
 20
93.8636
 30
0.0
 11
313.382
 21
93.8636
 31
0.0
  0
LINE
  8
0
 62
     0
 10
313.382
 20
93.8636
 30
0.0
 11
313.382
 21
90.7644
 31
0.0
  0
LINE
  8
0
 62
     0
 10
313.382
 20
90.7644
 30
0.0
 11
314.183
 21
90.7644
 31
0.0
  0
LINE
  8
0
 62
     0
 10
314.183
 20
90.7644
 30
0.0
 11
314.183
 21
84.9644
 31
0.0
  0
LINE
  8
0
 62
     0
 10
314.183
 20
84.9644
 30
0.0
 11
313.382
 21
84.9644
 31
0.0
  0
LINE
  8
0
 62
     0
 10
313.382
 20
84.9644
 30
0.0
 11
313.382
 21
81.8624
 31
0.0
  0
LINE
  8
0
 62
     0
 10
313.382
 20
81.8624
 30
0.0
 11
314.183
 21
81.8624
 31
0.0
  0
LINE
  8
0
 62
     0
 10
314.183
 20
81.8624
 30
0.0
 11
314.183
 21
80.8634
 31
0.0
  0
LINE
  8
0
 62
     0
 10
314.183
 20
80.8634
 30
0.0
 11
328.182
 21
80.8634
 31
0.0
  0
LINE
  8
0
 62
     0
 10
328.182
 20
80.8634
 30
0.0
 11
328.182
 21
81.8624
 31
0.0
  0
LINE
  8
0
 62
     0
 10
328.182
 20
81.8624
 30
0.0
 11
328.982
 21
81.8624
 31
0.0
  0
LINE
  8
0
 62
     0
 10
328.982
 20
81.8624
 30
0.0
 11
328.982
 21
84.9644
 31
0.0
  0
LINE
  8
0
 62
     0
 10
328.982
 20
84.9644
 30
0.0
 11
328.182
 21
84.9644
 31
0.0
  0
LINE
  8
0
 62
     0
 10
328.182
 20
84.9644
 30
0.0
 11
328.182
 21
90.7644
 31
0.0
  0
LINE
  8
0
 62
     0
 10
328.182
 20
90.7644
 30
0.0
 11
328.982
 21
90.7644
 31
0.0
  0
LINE
  8
0
 62
     0
 10
328.982
 20
90.7644
 30
0.0
 11
328.982
 21
93.8636
 31
0.0
  0
LINE
  8
0
 62
     0
 10
328.982
 20
93.8636
 30
0.0
 11
328.182
 21
93.8636
 31
0.0
  0
LINE
  8
0
 62
     0
 10
328.182
 20
93.8636
 30
0.0
 11
328.182
 21
94.8641
 31
0.0
  0
LINE
  8
0
 62
     0
 10
328.182
 20
94.8641
 30
0.0
 11
314.183
 21
94.8641
 31
0.0
  0
LINE
  8
0
 62
     0
 10
295.133
 20
94.8641
 30
0.0
 11
295.133
 21
93.8636
 31
0.0
  0
LINE
  8
0
 62
     0
 10
295.133
 20
93.8636
 30
0.0
 11
294.332
 21
93.8636
 31
0.0
  0
LINE
  8
0
 62
     0
 10
294.332
 20
93.8636
 30
0.0
 11
294.332
 21
90.7644
 31
0.0
  0
LINE
  8
0
 62
     0
 10
294.332
 20
90.7644
 30
0.0
 11
295.133
 21
90.7644
 31
0.0
  0
LINE
  8
0
 62
     0
 10
295.133
 20
90.7644
 30
0.0
 11
295.133
 21
84.9644
 31
0.0
  0
LINE
  8
0
 62
     0
 10
295.133
 20
84.9644
 30
0.0
 11
294.332
 21
84.9644
 31
0.0
  0
LINE
  8
0
 62
     0
 10
294.332
 20
84.9644
 30
0.0
 11
294.332
 21
81.8624
 31
0.0
  0
LINE
  8
0
 62
     0
 10
294.332
 20
81.8624
 30
0.0
 11
295.133
 21
81.8624
 31
0.0
  0
LINE
  8
0
 62
     0
 10
295.133
 20
81.8624
 30
0.0
 11
295.133
 21
80.8634
 31
0.0
  0
LINE
  8
0
 62
     0
 10
295.133
 20
80.8634
 30
0.0
 11
309.132
 21
80.8634
 31
0.0
  0
LINE
  8
0
 62
     0
 10
309.132
 20
80.8634
 30
0.0
 11
309.132
 21
81.8624
 31
0.0
  0
LINE
  8
0
 62
     0
 10
309.132
 20
81.8624
 30
0.0
 11
309.932
 21
81.8624
 31
0.0
  0
LINE
  8
0
 62
     0
 10
309.932
 20
81.8624
 30
0.0
 11
309.932
 21
84.9644
 31
0.0
  0
LINE
  8
0
 62
     0
 10
309.932
 20
84.9644
 30
0.0
 11
309.132
 21
84.9644
 31
0.0
  0
LINE
  8
0
 62
     0
 10
309.132
 20
84.9644
 30
0.0
 11
309.132
 21
90.7644
 31
0.0
  0
LINE
  8
0
 62
     0
 10
309.132
 20
90.7644
 30
0.0
 11
309.932
 21
90.7644
 31
0.0
  0
LINE
  8
0
 62
     0
 10
309.932
 20
90.7644
 30
0.0
 11
309.932
 21
93.8636
 31
0.0
  0
LINE
  8
0
 62
     0
 10
309.932
 20
93.8636
 30
0.0
 11
309.132
 21
93.8636
 31
0.0
  0
LINE
  8
0
 62
     0
 10
309.132
 20
93.8636
 30
0.0
 11
309.132
 21
94.8641
 31
0.0
  0
LINE
  8
0
 62
     0
 10
309.132
 20
94.8641
 30
0.0
 11
295.133
 21
94.8641
 31
0.0
  0
LINE
  8
0
 62
     0
 10
271.321
 20
94.8641
 30
0.0
 11
271.321
 21
93.8636
 31
0.0
  0
LINE
  8
0
 62
     0
 10
271.321
 20
93.8636
 30
0.0
 11
270.52
 21
93.8636
 31
0.0
  0
LINE
  8
0
 62
     0
 10
270.52
 20
93.8636
 30
0.0
 11
270.52
 21
90.7644
 31
0.0
  0
LINE
  8
0
 62
     0
 10
270.52
 20
90.7644
 30
0.0
 11
271.321
 21
90.7644
 31
0.0
  0
LINE
  8
0
 62
     0
 10
271.321
 20
90.7644
 30
0.0
 11
271.321
 21
84.9644
 31
0.0
  0
LINE
  8
0
 62
     0
 10
271.321
 20
84.9644
 30
0.0
 11
270.52
 21
84.9644
 31
0.0
  0
LINE
  8
0
 62
     0
 10
270.52
 20
84.9644
 30
0.0
 11
270.52
 21
81.8624
 31
0.0
  0
LINE
  8
0
 62
     0
 10
270.52
 20
81.8624
 30
0.0
 11
271.321
 21
81.8624
 31
0.0
  0
LINE
  8
0
 62
     0
 10
271.321
 20
81.8624
 30
0.0
 11
271.321
 21
80.8634
 31
0.0
  0
LINE
  8
0
 62
     0
 10
271.321
 20
80.8634
 30
0.0
 11
285.32
 21
80.8634
 31
0.0
  0
LINE
  8
0
 62
     0
 10
285.32
 20
80.8634
 30
0.0
 11
285.32
 21
81.8624
 31
0.0
  0
LINE
  8
0
 62
     0
 10
285.32
 20
81.8624
 30
0.0
 11
286.121
 21
81.8624
 31
0.0
  0
LINE
  8
0
 62
     0
 10
286.121
 20
81.8624
 30
0.0
 11
286.121
 21
84.9644
 31
0.0
  0
LINE
  8
0
 62
     0
 10
286.121
 20
84.9644
 30
0.0
 11
285.32
 21
84.9644
 31
0.0
  0
LINE
  8
0
 62
     0
 10
285.32
 20
84.9644
 30
0.0
 11
285.32
 21
90.7644
 31
0.0
  0
LINE
  8
0
 62
     0
 10
285.32
 20
90.7644
 30
0.0
 11
286.121
 21
90.7644
 31
0.0
  0
LINE
  8
0
 62
     0
 10
286.121
 20
90.7644
 30
0.0
 11
286.121
 21
93.8636
 31
0.0
  0
LINE
  8
0
 62
     0
 10
286.121
 20
93.8636
 30
0.0
 11
285.32
 21
93.8636
 31
0.0
  0
LINE
  8
0
 62
     0
 10
285.32
 20
93.8636
 30
0.0
 11
285.32
 21
94.8641
 31
0.0
  0
LINE
  8
0
 62
     0
 10
285.32
 20
94.8641
 30
0.0
 11
271.321
 21
94.8641
 31
0.0
  0
LINE
  8
0
 62
     0
 10
252.271
 20
94.8641
 30
0.0
 11
252.271
 21
93.8636
 31
0.0
  0
LINE
  8
0
 62
     0
 10
252.271
 20
93.8636
 30
0.0
 11
251.47
 21
93.8636
 31
0.0
  0
LINE
  8
0
 62
     0
 10
251.47
 20
93.8636
 30
0.0
 11
251.47
 21
90.7644
 31
0.0
  0
LINE
  8
0
 62
     0
 10
251.47
 20
90.7644
 30
0.0
 11
252.271
 21
90.7644
 31
0.0
  0
LINE
  8
0
 62
     0
 10
252.271
 20
90.7644
 30
0.0
 11
252.271
 21
84.9644
 31
0.0
  0
LINE
  8
0
 62
     0
 10
252.271
 20
84.9644
 30
0.0
 11
251.47
 21
84.9644
 31
0.0
  0
LINE
  8
0
 62
     0
 10
251.47
 20
84.9644
 30
0.0
 11
251.47
 21
81.8624
 31
0.0
  0
LINE
  8
0
 62
     0
 10
251.47
 20
81.8624
 30
0.0
 11
252.271
 21
81.8624
 31
0.0
  0
LINE
  8
0
 62
     0
 10
252.271
 20
81.8624
 30
0.0
 11
252.271
 21
80.8634
 31
0.0
  0
LINE
  8
0
 62
     0
 10
252.271
 20
80.8634
 30
0.0
 11
266.27
 21
80.8634
 31
0.0
  0
LINE
  8
0
 62
     0
 10
266.27
 20
80.8634
 30
0.0
 11
266.27
 21
81.8624
 31
0.0
  0
LINE
  8
0
 62
     0
 10
266.27
 20
81.8624
 30
0.0
 11
267.071
 21
81.8624
 31
0.0
  0
LINE
  8
0
 62
     0
 10
267.071
 20
81.8624
 30
0.0
 11
267.071
 21
84.9644
 31
0.0
  0
LINE
  8
0
 62
     0
 10
267.071
 20
84.9644
 30
0.0
 11
266.27
 21
84.9644
 31
0.0
  0
LINE
  8
0
 62
     0
 10
266.27
 20
84.9644
 30
0.0
 11
266.27
 21
90.7644
 31
0.0
  0
LINE
  8
0
 62
     0
 10
266.27
 20
90.7644
 30
0.0
 11
267.071
 21
90.7644
 31
0.0
  0
LINE
  8
0
 62
     0
 10
267.071
 20
90.7644
 30
0.0
 11
267.071
 21
93.8636
 31
0.0
  0
LINE
  8
0
 62
     0
 10
267.071
 20
93.8636
 30
0.0
 11
266.27
 21
93.8636
 31
0.0
  0
LINE
  8
0
 62
     0
 10
266.27
 20
93.8636
 30
0.0
 11
266.27
 21
94.8641
 31
0.0
  0
LINE
  8
0
 62
     0
 10
266.27
 20
94.8641
 30
0.0
 11
252.271
 21
94.8641
 31
0.0
  0
LINE
  8
0
 62
     0
 10
233.221
 20
94.8641
 30
0.0
 11
233.221
 21
93.8636
 31
0.0
  0
LINE
  8
0
 62
     0
 10
233.221
 20
93.8636
 30
0.0
 11
232.42
 21
93.8636
 31
0.0
  0
LINE
  8
0
 62
     0
 10
232.42
 20
93.8636
 30
0.0
 11
232.42
 21
90.7644
 31
0.0
  0
LINE
  8
0
 62
     0
 10
232.42
 20
90.7644
 30
0.0
 11
233.221
 21
90.7644
 31
0.0
  0
LINE
  8
0
 62
     0
 10
233.221
 20
90.7644
 30
0.0
 11
233.221
 21
84.9644
 31
0.0
  0
LINE
  8
0
 62
     0
 10
233.221
 20
84.9644
 30
0.0
 11
232.42
 21
84.9644
 31
0.0
  0
LINE
  8
0
 62
     0
 10
232.42
 20
84.9644
 30
0.0
 11
232.42
 21
81.8624
 31
0.0
  0
LINE
  8
0
 62
     0
 10
232.42
 20
81.8624
 30
0.0
 11
233.221
 21
81.8624
 31
0.0
  0
LINE
  8
0
 62
     0
 10
233.221
 20
81.8624
 30
0.0
 11
233.221
 21
80.8634
 31
0.0
  0
LINE
  8
0
 62
     0
 10
233.221
 20
80.8634
 30
0.0
 11
247.22
 21
80.8634
 31
0.0
  0
LINE
  8
0
 62
     0
 10
247.22
 20
80.8634
 30
0.0
 11
247.22
 21
81.8624
 31
0.0
  0
LINE
  8
0
 62
     0
 10
247.22
 20
81.8624
 30
0.0
 11
248.021
 21
81.8624
 31
0.0
  0
LINE
  8
0
 62
     0
 10
248.021
 20
81.8624
 30
0.0
 11
248.021
 21
84.9644
 31
0.0
  0
LINE
  8
0
 62
     0
 10
248.021
 20
84.9644
 30
0.0
 11
247.22
 21
84.9644
 31
0.0
  0
LINE
  8
0
 62
     0
 10
247.22
 20
84.9644
 30
0.0
 11
247.22
 21
90.7644
 31
0.0
  0
LINE
  8
0
 62
     0
 10
247.22
 20
90.7644
 30
0.0
 11
248.021
 21
90.7644
 31
0.0
  0
LINE
  8
0
 62
     0
 10
248.021
 20
90.7644
 30
0.0
 11
248.021
 21
93.8636
 31
0.0
  0
LINE
  8
0
 62
     0
 10
248.021
 20
93.8636
 30
0.0
 11
247.22
 21
93.8636
 31
0.0
  0
LINE
  8
0
 62
     0
 10
247.22
 20
93.8636
 30
0.0
 11
247.22
 21
94.8641
 31
0.0
  0
LINE
  8
0
 62
     0
 10
247.22
 20
94.8641
 30
0.0
 11
233.221
 21
94.8641
 31
0.0
  0
LINE
  8
0
 62
     0
 10
214.171
 20
94.8641
 30
0.0
 11
214.171
 21
93.8636
 31
0.0
  0
LINE
  8
0
 62
     0
 10
214.171
 20
93.8636
 30
0.0
 11
213.37
 21
93.8636
 31
0.0
  0
LINE
  8
0
 62
     0
 10
213.37
 20
93.8636
 30
0.0
 11
213.37
 21
90.7644
 31
0.0
  0
LINE
  8
0
 62
     0
 10
213.37
 20
90.7644
 30
0.0
 11
214.171
 21
90.7644
 31
0.0
  0
LINE
  8
0
 62
     0
 10
214.171
 20
90.7644
 30
0.0
 11
214.171
 21
84.9644
 31
0.0
  0
LINE
  8
0
 62
     0
 10
214.171
 20
84.9644
 30
0.0
 11
213.37
 21
84.9644
 31
0.0
  0
LINE
  8
0
 62
     0
 10
213.37
 20
84.9644
 30
0.0
 11
213.37
 21
81.8624
 31
0.0
  0
LINE
  8
0
 62
     0
 10
213.37
 20
81.8624
 30
0.0
 11
214.171
 21
81.8624
 31
0.0
  0
LINE
  8
0
 62
     0
 10
214.171
 20
81.8624
 30
0.0
 11
214.171
 21
80.8634
 31
0.0
  0
LINE
  8
0
 62
     0
 10
214.171
 20
80.8634
 30
0.0
 11
228.17
 21
80.8634
 31
0.0
  0
LINE
  8
0
 62
     0
 10
228.17
 20
80.8634
 30
0.0
 11
228.17
 21
81.8624
 31
0.0
  0
LINE
  8
0
 62
     0
 10
228.17
 20
81.8624
 30
0.0
 11
228.971
 21
81.8624
 31
0.0
  0
LINE
  8
0
 62
     0
 10
228.971
 20
81.8624
 30
0.0
 11
228.971
 21
84.9644
 31
0.0
  0
LINE
  8
0
 62
     0
 10
228.971
 20
84.9644
 30
0.0
 11
228.17
 21
84.9644
 31
0.0
  0
LINE
  8
0
 62
     0
 10
228.17
 20
84.9644
 30
0.0
 11
228.17
 21
90.7644
 31
0.0
  0
LINE
  8
0
 62
     0
 10
228.17
 20
90.7644
 30
0.0
 11
228.971
 21
90.7644
 31
0.0
  0
LINE
  8
0
 62
     0
 10
228.971
 20
90.7644
 30
0.0
 11
228.971
 21
93.8636
 31
0.0
  0
LINE
  8
0
 62
     0
 10
228.971
 20
93.8636
 30
0.0
 11
228.17
 21
93.8636
 31
0.0
  0
LINE
  8
0
 62
     0
 10
228.17
 20
93.8636
 30
0.0
 11
228.17
 21
94.8641
 31
0.0
  0
LINE
  8
0
 62
     0
 10
228.17
 20
94.8641
 30
0.0
 11
214.171
 21
94.8641
 31
0.0
  0
LINE
  8
0
 62
     0
 10
195.121
 20
94.8641
 30
0.0
 11
195.121
 21
93.8636
 31
0.0
  0
LINE
  8
0
 62
     0
 10
195.121
 20
93.8636
 30
0.0
 11
194.32
 21
93.8636
 31
0.0
  0
LINE
  8
0
 62
     0
 10
194.32
 20
93.8636
 30
0.0
 11
194.32
 21
90.7644
 31
0.0
  0
LINE
  8
0
 62
     0
 10
194.32
 20
90.7644
 30
0.0
 11
195.121
 21
90.7644
 31
0.0
  0
LINE
  8
0
 62
     0
 10
195.121
 20
90.7644
 30
0.0
 11
195.121
 21
84.9644
 31
0.0
  0
LINE
  8
0
 62
     0
 10
195.121
 20
84.9644
 30
0.0
 11
194.32
 21
84.9644
 31
0.0
  0
LINE
  8
0
 62
     0
 10
194.32
 20
84.9644
 30
0.0
 11
194.32
 21
81.8624
 31
0.0
  0
LINE
  8
0
 62
     0
 10
194.32
 20
81.8624
 30
0.0
 11
195.121
 21
81.8624
 31
0.0
  0
LINE
  8
0
 62
     0
 10
195.121
 20
81.8624
 30
0.0
 11
195.121
 21
80.8634
 31
0.0
  0
LINE
  8
0
 62
     0
 10
195.121
 20
80.8634
 30
0.0
 11
209.12
 21
80.8634
 31
0.0
  0
LINE
  8
0
 62
     0
 10
209.12
 20
80.8634
 30
0.0
 11
209.12
 21
81.8624
 31
0.0
  0
LINE
  8
0
 62
     0
 10
209.12
 20
81.8624
 30
0.0
 11
209.921
 21
81.8624
 31
0.0
  0
LINE
  8
0
 62
     0
 10
209.921
 20
81.8624
 30
0.0
 11
209.921
 21
84.9644
 31
0.0
  0
LINE
  8
0
 62
     0
 10
209.921
 20
84.9644
 30
0.0
 11
209.12
 21
84.9644
 31
0.0
  0
LINE
  8
0
 62
     0
 10
209.12
 20
84.9644
 30
0.0
 11
209.12
 21
90.7644
 31
0.0
  0
LINE
  8
0
 62
     0
 10
209.12
 20
90.7644
 30
0.0
 11
209.921
 21
90.7644
 31
0.0
  0
LINE
  8
0
 62
     0
 10
209.921
 20
90.7644
 30
0.0
 11
209.921
 21
93.8636
 31
0.0
  0
LINE
  8
0
 62
     0
 10
209.921
 20
93.8636
 30
0.0
 11
209.12
 21
93.8636
 31
0.0
  0
LINE
  8
0
 62
     0
 10
209.12
 20
93.8636
 30
0.0
 11
209.12
 21
94.8641
 31
0.0
  0
LINE
  8
0
 62
     0
 10
209.12
 20
94.8641
 30
0.0
 11
195.121
 21
94.8641
 31
0.0
  0
LINE
  8
0
 62
     0
 10
176.071
 20
94.8641
 30
0.0
 11
176.071
 21
93.8636
 31
0.0
  0
LINE
  8
0
 62
     0
 10
176.071
 20
93.8636
 30
0.0
 11
175.27
 21
93.8636
 31
0.0
  0
LINE
  8
0
 62
     0
 10
175.27
 20
93.8636
 30
0.0
 11
175.27
 21
90.7644
 31
0.0
  0
LINE
  8
0
 62
     0
 10
175.27
 20
90.7644
 30
0.0
 11
176.071
 21
90.7644
 31
0.0
  0
LINE
  8
0
 62
     0
 10
176.071
 20
90.7644
 30
0.0
 11
176.071
 21
84.9644
 31
0.0
  0
LINE
  8
0
 62
     0
 10
176.071
 20
84.9644
 30
0.0
 11
175.27
 21
84.9644
 31
0.0
  0
LINE
  8
0
 62
     0
 10
175.27
 20
84.9644
 30
0.0
 11
175.27
 21
81.8624
 31
0.0
  0
LINE
  8
0
 62
     0
 10
175.27
 20
81.8624
 30
0.0
 11
176.071
 21
81.8624
 31
0.0
  0
LINE
  8
0
 62
     0
 10
176.071
 20
81.8624
 30
0.0
 11
176.071
 21
80.8634
 31
0.0
  0
LINE
  8
0
 62
     0
 10
176.071
 20
80.8634
 30
0.0
 11
190.07
 21
80.8634
 31
0.0
  0
LINE
  8
0
 62
     0
 10
190.07
 20
80.8634
 30
0.0
 11
190.07
 21
81.8624
 31
0.0
  0
LINE
  8
0
 62
     0
 10
190.07
 20
81.8624
 30
0.0
 11
190.871
 21
81.8624
 31
0.0
  0
LINE
  8
0
 62
     0
 10
190.871
 20
81.8624
 30
0.0
 11
190.871
 21
84.9644
 31
0.0
  0
LINE
  8
0
 62
     0
 10
190.871
 20
84.9644
 30
0.0
 11
190.07
 21
84.9644
 31
0.0
  0
LINE
  8
0
 62
     0
 10
190.07
 20
84.9644
 30
0.0
 11
190.07
 21
90.7644
 31
0.0
  0
LINE
  8
0
 62
     0
 10
190.07
 20
90.7644
 30
0.0
 11
190.871
 21
90.7644
 31
0.0
  0
LINE
  8
0
 62
     0
 10
190.871
 20
90.7644
 30
0.0
 11
190.871
 21
93.8636
 31
0.0
  0
LINE
  8
0
 62
     0
 10
190.871
 20
93.8636
 30
0.0
 11
190.07
 21
93.8636
 31
0.0
  0
LINE
  8
0
 62
     0
 10
190.07
 20
93.8636
 30
0.0
 11
190.07
 21
94.8641
 31
0.0
  0
LINE
  8
0
 62
     0
 10
190.07
 20
94.8641
 30
0.0
 11
176.071
 21
94.8641
 31
0.0
  0
LINE
  8
0
 62
     0
 10
157.021
 20
94.8641
 30
0.0
 11
157.021
 21
93.8636
 31
0.0
  0
LINE
  8
0
 62
     0
 10
157.021
 20
93.8636
 30
0.0
 11
156.22
 21
93.8636
 31
0.0
  0
LINE
  8
0
 62
     0
 10
156.22
 20
93.8636
 30
0.0
 11
156.22
 21
90.7644
 31
0.0
  0
LINE
  8
0
 62
     0
 10
156.22
 20
90.7644
 30
0.0
 11
157.021
 21
90.7644
 31
0.0
  0
LINE
  8
0
 62
     0
 10
157.021
 20
90.7644
 30
0.0
 11
157.021
 21
84.9644
 31
0.0
  0
LINE
  8
0
 62
     0
 10
157.021
 20
84.9644
 30
0.0
 11
156.22
 21
84.9644
 31
0.0
  0
LINE
  8
0
 62
     0
 10
156.22
 20
84.9644
 30
0.0
 11
156.22
 21
81.8624
 31
0.0
  0
LINE
  8
0
 62
     0
 10
156.22
 20
81.8624
 30
0.0
 11
157.021
 21
81.8624
 31
0.0
  0
LINE
  8
0
 62
     0
 10
157.021
 20
81.8624
 30
0.0
 11
157.021
 21
80.8634
 31
0.0
  0
LINE
  8
0
 62
     0
 10
157.021
 20
80.8634
 30
0.0
 11
171.02
 21
80.8634
 31
0.0
  0
LINE
  8
0
 62
     0
 10
171.02
 20
80.8634
 30
0.0
 11
171.02
 21
81.8624
 31
0.0
  0
LINE
  8
0
 62
     0
 10
171.02
 20
81.8624
 30
0.0
 11
171.821
 21
81.8624
 31
0.0
  0
LINE
  8
0
 62
     0
 10
171.821
 20
81.8624
 30
0.0
 11
171.821
 21
84.9644
 31
0.0
  0
LINE
  8
0
 62
     0
 10
171.821
 20
84.9644
 30
0.0
 11
171.02
 21
84.9644
 31
0.0
  0
LINE
  8
0
 62
     0
 10
171.02
 20
84.9644
 30
0.0
 11
171.02
 21
90.7644
 31
0.0
  0
LINE
  8
0
 62
     0
 10
171.02
 20
90.7644
 30
0.0
 11
171.821
 21
90.7644
 31
0.0
  0
LINE
  8
0
 62
     0
 10
171.821
 20
90.7644
 30
0.0
 11
171.821
 21
93.8636
 31
0.0
  0
LINE
  8
0
 62
     0
 10
171.821
 20
93.8636
 30
0.0
 11
171.02
 21
93.8636
 31
0.0
  0
LINE
  8
0
 62
     0
 10
171.02
 20
93.8636
 30
0.0
 11
171.02
 21
94.8641
 31
0.0
  0
LINE
  8
0
 62
     0
 10
171.02
 20
94.8641
 30
0.0
 11
157.021
 21
94.8641
 31
0.0
  0
LINE
  8
0
 62
     0
 10
137.971
 20
94.8641
 30
0.0
 11
137.971
 21
93.8636
 31
0.0
  0
LINE
  8
0
 62
     0
 10
137.971
 20
93.8636
 30
0.0
 11
137.17
 21
93.8636
 31
0.0
  0
LINE
  8
0
 62
     0
 10
137.17
 20
93.8636
 30
0.0
 11
137.17
 21
90.7644
 31
0.0
  0
LINE
  8
0
 62
     0
 10
137.17
 20
90.7644
 30
0.0
 11
137.971
 21
90.7644
 31
0.0
  0
LINE
  8
0
 62
     0
 10
137.971
 20
90.7644
 30
0.0
 11
137.971
 21
84.9644
 31
0.0
  0
LINE
  8
0
 62
     0
 10
137.971
 20
84.9644
 30
0.0
 11
137.17
 21
84.9644
 31
0.0
  0
LINE
  8
0
 62
     0
 10
137.17
 20
84.9644
 30
0.0
 11
137.17
 21
81.8624
 31
0.0
  0
LINE
  8
0
 62
     0
 10
137.17
 20
81.8624
 30
0.0
 11
137.971
 21
81.8624
 31
0.0
  0
LINE
  8
0
 62
     0
 10
137.971
 20
81.8624
 30
0.0
 11
137.971
 21
80.8634
 31
0.0
  0
LINE
  8
0
 62
     0
 10
137.971
 20
80.8634
 30
0.0
 11
151.97
 21
80.8634
 31
0.0
  0
LINE
  8
0
 62
     0
 10
151.97
 20
80.8634
 30
0.0
 11
151.97
 21
81.8624
 31
0.0
  0
LINE
  8
0
 62
     0
 10
151.97
 20
81.8624
 30
0.0
 11
152.771
 21
81.8624
 31
0.0
  0
LINE
  8
0
 62
     0
 10
152.771
 20
81.8624
 30
0.0
 11
152.771
 21
84.9644
 31
0.0
  0
LINE
  8
0
 62
     0
 10
152.771
 20
84.9644
 30
0.0
 11
151.97
 21
84.9644
 31
0.0
  0
LINE
  8
0
 62
     0
 10
151.97
 20
84.9644
 30
0.0
 11
151.97
 21
90.7644
 31
0.0
  0
LINE
  8
0
 62
     0
 10
151.97
 20
90.7644
 30
0.0
 11
152.771
 21
90.7644
 31
0.0
  0
LINE
  8
0
 62
     0
 10
152.771
 20
90.7644
 30
0.0
 11
152.771
 21
93.8636
 31
0.0
  0
LINE
  8
0
 62
     0
 10
152.771
 20
93.8636
 30
0.0
 11
151.97
 21
93.8636
 31
0.0
  0
LINE
  8
0
 62
     0
 10
151.97
 20
93.8636
 30
0.0
 11
151.97
 21
94.8641
 31
0.0
  0
LINE
  8
0
 62
     0
 10
151.97
 20
94.8641
 30
0.0
 11
137.971
 21
94.8641
 31
0.0
  0
LINE
  8
0
 62
     0
 10
118.919
 20
94.8641
 30
0.0
 11
118.919
 21
93.8636
 31
0.0
  0
LINE
  8
0
 62
     0
 10
118.919
 20
93.8636
 30
0.0
 11
118.12
 21
93.8636
 31
0.0
  0
LINE
  8
0
 62
     0
 10
118.12
 20
93.8636
 30
0.0
 11
118.12
 21
90.7644
 31
0.0
  0
LINE
  8
0
 62
     0
 10
118.12
 20
90.7644
 30
0.0
 11
118.919
 21
90.7644
 31
0.0
  0
LINE
  8
0
 62
     0
 10
118.919
 20
90.7644
 30
0.0
 11
118.919
 21
84.9644
 31
0.0
  0
LINE
  8
0
 62
     0
 10
118.919
 20
84.9644
 30
0.0
 11
118.12
 21
84.9644
 31
0.0
  0
LINE
  8
0
 62
     0
 10
118.12
 20
84.9644
 30
0.0
 11
118.12
 21
81.8624
 31
0.0
  0
LINE
  8
0
 62
     0
 10
118.12
 20
81.8624
 30
0.0
 11
118.919
 21
81.8624
 31
0.0
  0
LINE
  8
0
 62
     0
 10
118.919
 20
81.8624
 30
0.0
 11
118.919
 21
80.8634
 31
0.0
  0
LINE
  8
0
 62
     0
 10
118.919
 20
80.8634
 30
0.0
 11
132.92
 21
80.8634
 31
0.0
  0
LINE
  8
0
 62
     0
 10
132.92
 20
80.8634
 30
0.0
 11
132.92
 21
81.8624
 31
0.0
  0
LINE
  8
0
 62
     0
 10
132.92
 20
81.8624
 30
0.0
 11
133.721
 21
81.8624
 31
0.0
  0
LINE
  8
0
 62
     0
 10
133.721
 20
81.8624
 30
0.0
 11
133.721
 21
84.9644
 31
0.0
  0
LINE
  8
0
 62
     0
 10
133.721
 20
84.9644
 30
0.0
 11
132.92
 21
84.9644
 31
0.0
  0
LINE
  8
0
 62
     0
 10
132.92
 20
84.9644
 30
0.0
 11
132.92
 21
90.7644
 31
0.0
  0
LINE
  8
0
 62
     0
 10
132.92
 20
90.7644
 30
0.0
 11
133.721
 21
90.7644
 31
0.0
  0
LINE
  8
0
 62
     0
 10
133.721
 20
90.7644
 30
0.0
 11
133.721
 21
93.8636
 31
0.0
  0
LINE
  8
0
 62
     0
 10
133.721
 20
93.8636
 30
0.0
 11
132.92
 21
93.8636
 31
0.0
  0
LINE
  8
0
 62
     0
 10
132.92
 20
93.8636
 30
0.0
 11
132.92
 21
94.8641
 31
0.0
  0
LINE
  8
0
 62
     0
 10
132.92
 20
94.8641
 30
0.0
 11
118.919
 21
94.8641
 31
0.0
  0
LINE
  8
0
 62
     0
 10
99.8693
 20
94.8641
 30
0.0
 11
99.8693
 21
93.8636
 31
0.0
  0
LINE
  8
0
 62
     0
 10
99.8693
 20
93.8636
 30
0.0
 11
99.0699
 21
93.8636
 31
0.0
  0
LINE
  8
0
 62
     0
 10
99.0699
 20
93.8636
 30
0.0
 11
99.0699
 21
90.7644
 31
0.0
  0
LINE
  8
0
 62
     0
 10
99.0699
 20
90.7644
 30
0.0
 11
99.8693
 21
90.7644
 31
0.0
  0
LINE
  8
0
 62
     0
 10
99.8693
 20
90.7644
 30
0.0
 11
99.8693
 21
84.9644
 31
0.0
  0
LINE
  8
0
 62
     0
 10
99.8693
 20
84.9644
 30
0.0
 11
99.0699
 21
84.9644
 31
0.0
  0
LINE
  8
0
 62
     0
 10
99.0699
 20
84.9644
 30
0.0
 11
99.0699
 21
81.8624
 31
0.0
  0
LINE
  8
0
 62
     0
 10
99.0699
 20
81.8624
 30
0.0
 11
99.8693
 21
81.8624
 31
0.0
  0
LINE
  8
0
 62
     0
 10
99.8693
 20
81.8624
 30
0.0
 11
99.8693
 21
80.8634
 31
0.0
  0
LINE
  8
0
 62
     0
 10
99.8693
 20
80.8634
 30
0.0
 11
113.87
 21
80.8634
 31
0.0
  0
LINE
  8
0
 62
     0
 10
113.87
 20
80.8634
 30
0.0
 11
113.87
 21
81.8624
 31
0.0
  0
LINE
  8
0
 62
     0
 10
113.87
 20
81.8624
 30
0.0
 11
114.669
 21
81.8624
 31
0.0
  0
LINE
  8
0
 62
     0
 10
114.669
 20
81.8624
 30
0.0
 11
114.669
 21
84.9644
 31
0.0
  0
LINE
  8
0
 62
     0
 10
114.669
 20
84.9644
 30
0.0
 11
113.87
 21
84.9644
 31
0.0
  0
LINE
  8
0
 62
     0
 10
113.87
 20
84.9644
 30
0.0
 11
113.87
 21
90.7644
 31
0.0
  0
LINE
  8
0
 62
     0
 10
113.87
 20
90.7644
 30
0.0
 11
114.669
 21
90.7644
 31
0.0
  0
LINE
  8
0
 62
     0
 10
114.669
 20
90.7644
 30
0.0
 11
114.669
 21
93.8636
 31
0.0
  0
LINE
  8
0
 62
     0
 10
114.669
 20
93.8636
 30
0.0
 11
113.87
 21
93.8636
 31
0.0
  0
LINE
  8
0
 62
     0
 10
113.87
 20
93.8636
 30
0.0
 11
113.87
 21
94.8641
 31
0.0
  0
LINE
  8
0
 62
     0
 10
113.87
 20
94.8641
 30
0.0
 11
99.8693
 21
94.8641
 31
0.0
  0
LINE
  8
0
 62
     0
 10
80.8207
 20
94.8641
 30
0.0
 11
80.8207
 21
93.8636
 31
0.0
  0
LINE
  8
0
 62
     0
 10
80.8207
 20
93.8636
 30
0.0
 11
80.0199
 21
93.8636
 31
0.0
  0
LINE
  8
0
 62
     0
 10
80.0199
 20
93.8636
 30
0.0
 11
80.0199
 21
90.7644
 31
0.0
  0
LINE
  8
0
 62
     0
 10
80.0199
 20
90.7644
 30
0.0
 11
80.8207
 21
90.7644
 31
0.0
  0
LINE
  8
0
 62
     0
 10
80.8207
 20
90.7644
 30
0.0
 11
80.8207
 21
84.9644
 31
0.0
  0
LINE
  8
0
 62
     0
 10
80.8207
 20
84.9644
 30
0.0
 11
80.0199
 21
84.9644
 31
0.0
  0
LINE
  8
0
 62
     0
 10
80.0199
 20
84.9644
 30
0.0
 11
80.0199
 21
81.8624
 31
0.0
  0
LINE
  8
0
 62
     0
 10
80.0199
 20
81.8624
 30
0.0
 11
80.8207
 21
81.8624
 31
0.0
  0
LINE
  8
0
 62
     0
 10
80.8207
 20
81.8624
 30
0.0
 11
80.8207
 21
80.8634
 31
0.0
  0
LINE
  8
0
 62
     0
 10
80.8207
 20
80.8634
 30
0.0
 11
94.82
 21
80.8634
 31
0.0
  0
LINE
  8
0
 62
     0
 10
94.82
 20
80.8634
 30
0.0
 11
94.82
 21
81.8624
 31
0.0
  0
LINE
  8
0
 62
     0
 10
94.82
 20
81.8624
 30
0.0
 11
95.6194
 21
81.8624
 31
0.0
  0
LINE
  8
0
 62
     0
 10
95.6194
 20
81.8624
 30
0.0
 11
95.6194
 21
84.9644
 31
0.0
  0
LINE
  8
0
 62
     0
 10
95.6194
 20
84.9644
 30
0.0
 11
94.82
 21
84.9644
 31
0.0
  0
LINE
  8
0
 62
     0
 10
94.82
 20
84.9644
 30
0.0
 11
94.82
 21
90.7644
 31
0.0
  0
LINE
  8
0
 62
     0
 10
94.82
 20
90.7644
 30
0.0
 11
95.6194
 21
90.7644
 31
0.0
  0
LINE
  8
0
 62
     0
 10
95.6194
 20
90.7644
 30
0.0
 11
95.6194
 21
93.8636
 31
0.0
  0
LINE
  8
0
 62
     0
 10
95.6194
 20
93.8636
 30
0.0
 11
94.82
 21
93.8636
 31
0.0
  0
LINE
  8
0
 62
     0
 10
94.82
 20
93.8636
 30
0.0
 11
94.82
 21
94.8641
 31
0.0
  0
LINE
  8
0
 62
     0
 10
94.82
 20
94.8641
 30
0.0
 11
80.8207
 21
94.8641
 31
0.0
  0
LINE
  8
0
 62
     0
 10
61.7707
 20
94.8641
 30
0.0
 11
61.7707
 21
93.8636
 31
0.0
  0
LINE
  8
0
 62
     0
 10
61.7707
 20
93.8636
 30
0.0
 11
60.9699
 21
93.8636
 31
0.0
  0
LINE
  8
0
 62
     0
 10
60.9699
 20
93.8636
 30
0.0
 11
60.9699
 21
90.7644
 31
0.0
  0
LINE
  8
0
 62
     0
 10
60.9699
 20
90.7644
 30
0.0
 11
61.7707
 21
90.7644
 31
0.0
  0
LINE
  8
0
 62
     0
 10
61.7707
 20
90.7644
 30
0.0
 11
61.7707
 21
84.9644
 31
0.0
  0
LINE
  8
0
 62
     0
 10
61.7707
 20
84.9644
 30
0.0
 11
60.9699
 21
84.9644
 31
0.0
  0
LINE
  8
0
 62
     0
 10
60.9699
 20
84.9644
 30
0.0
 11
60.9699
 21
81.8624
 31
0.0
  0
LINE
  8
0
 62
     0
 10
60.9699
 20
81.8624
 30
0.0
 11
61.7707
 21
81.8624
 31
0.0
  0
LINE
  8
0
 62
     0
 10
61.7707
 20
81.8624
 30
0.0
 11
61.7707
 21
80.8634
 31
0.0
  0
LINE
  8
0
 62
     0
 10
61.7707
 20
80.8634
 30
0.0
 11
75.77
 21
80.8634
 31
0.0
  0
LINE
  8
0
 62
     0
 10
75.77
 20
80.8634
 30
0.0
 11
75.77
 21
81.8624
 31
0.0
  0
LINE
  8
0
 62
     0
 10
75.77
 20
81.8624
 30
0.0
 11
76.5708
 21
81.8624
 31
0.0
  0
LINE
  8
0
 62
     0
 10
76.5708
 20
81.8624
 30
0.0
 11
76.5708
 21
84.9644
 31
0.0
  0
LINE
  8
0
 62
     0
 10
76.5708
 20
84.9644
 30
0.0
 11
75.77
 21
84.9644
 31
0.0
  0
LINE
  8
0
 62
     0
 10
75.77
 20
84.9644
 30
0.0
 11
75.77
 21
90.7644
 31
0.0
  0
LINE
  8
0
 62
     0
 10
75.77
 20
90.7644
 30
0.0
 11
76.5708
 21
90.7644
 31
0.0
  0
LINE
  8
0
 62
     0
 10
76.5708
 20
90.7644
 30
0.0
 11
76.5708
 21
93.8636
 31
0.0
  0
LINE
  8
0
 62
     0
 10
76.5708
 20
93.8636
 30
0.0
 11
75.77
 21
93.8636
 31
0.0
  0
LINE
  8
0
 62
     0
 10
75.77
 20
93.8636
 30
0.0
 11
75.77
 21
94.8641
 31
0.0
  0
LINE
  8
0
 62
     0
 10
75.77
 20
94.8641
 30
0.0
 11
61.7707
 21
94.8641
 31
0.0
  0
LINE
  8
0
 62
     0
 10
42.7207
 20
94.8641
 30
0.0
 11
42.7207
 21
93.8636
 31
0.0
  0
LINE
  8
0
 62
     0
 10
42.7207
 20
93.8636
 30
0.0
 11
41.9199
 21
93.8636
 31
0.0
  0
LINE
  8
0
 62
     0
 10
41.9199
 20
93.8636
 30
0.0
 11
41.9199
 21
90.7644
 31
0.0
  0
LINE
  8
0
 62
     0
 10
41.9199
 20
90.7644
 30
0.0
 11
42.7207
 21
90.7644
 31
0.0
  0
LINE
  8
0
 62
     0
 10
42.7207
 20
90.7644
 30
0.0
 11
42.7207
 21
84.9644
 31
0.0
  0
LINE
  8
0
 62
     0
 10
42.7207
 20
84.9644
 30
0.0
 11
41.9199
 21
84.9644
 31
0.0
  0
LINE
  8
0
 62
     0
 10
41.9199
 20
84.9644
 30
0.0
 11
41.9199
 21
81.8624
 31
0.0
  0
LINE
  8
0
 62
     0
 10
41.9199
 20
81.8624
 30
0.0
 11
42.7207
 21
81.8624
 31
0.0
  0
LINE
  8
0
 62
     0
 10
42.7207
 20
81.8624
 30
0.0
 11
42.7207
 21
80.8634
 31
0.0
  0
LINE
  8
0
 62
     0
 10
42.7207
 20
80.8634
 30
0.0
 11
56.72
 21
80.8634
 31
0.0
  0
LINE
  8
0
 62
     0
 10
56.72
 20
80.8634
 30
0.0
 11
56.72
 21
81.8624
 31
0.0
  0
LINE
  8
0
 62
     0
 10
56.72
 20
81.8624
 30
0.0
 11
57.5208
 21
81.8624
 31
0.0
  0
LINE
  8
0
 62
     0
 10
57.5208
 20
81.8624
 30
0.0
 11
57.5208
 21
84.9644
 31
0.0
  0
LINE
  8
0
 62
     0
 10
57.5208
 20
84.9644
 30
0.0
 11
56.72
 21
84.9644
 31
0.0
  0
LINE
  8
0
 62
     0
 10
56.72
 20
84.9644
 30
0.0
 11
56.72
 21
90.7644
 31
0.0
  0
LINE
  8
0
 62
     0
 10
56.72
 20
90.7644
 30
0.0
 11
57.5208
 21
90.7644
 31
0.0
  0
LINE
  8
0
 62
     0
 10
57.5208
 20
90.7644
 30
0.0
 11
57.5208
 21
93.8636
 31
0.0
  0
LINE
  8
0
 62
     0
 10
57.5208
 20
93.8636
 30
0.0
 11
56.72
 21
93.8636
 31
0.0
  0
LINE
  8
0
 62
     0
 10
56.72
 20
93.8636
 30
0.0
 11
56.72
 21
94.8641
 31
0.0
  0
LINE
  8
0
 62
     0
 10
56.72
 20
94.8641
 30
0.0
 11
42.7207
 21
94.8641
 31
0.0
  0
LINE
  8
0
 62
     0
 10
23.6706
 20
94.8641
 30
0.0
 11
23.6706
 21
93.8636
 31
0.0
  0
LINE
  8
0
 62
     0
 10
23.6706
 20
93.8636
 30
0.0
 11
22.8699
 21
93.8636
 31
0.0
  0
LINE
  8
0
 62
     0
 10
22.8699
 20
93.8636
 30
0.0
 11
22.8699
 21
90.7644
 31
0.0
  0
LINE
  8
0
 62
     0
 10
22.8699
 20
90.7644
 30
0.0
 11
23.6706
 21
90.7644
 31
0.0
  0
LINE
  8
0
 62
     0
 10
23.6706
 20
90.7644
 30
0.0
 11
23.6706
 21
84.9644
 31
0.0
  0
LINE
  8
0
 62
     0
 10
23.6706
 20
84.9644
 30
0.0
 11
22.8699
 21
84.9644
 31
0.0
  0
LINE
  8
0
 62
     0
 10
22.8699
 20
84.9644
 30
0.0
 11
22.8699
 21
81.8624
 31
0.0
  0
LINE
  8
0
 62
     0
 10
22.8699
 20
81.8624
 30
0.0
 11
23.6706
 21
81.8624
 31
0.0
  0
LINE
  8
0
 62
     0
 10
23.6706
 20
81.8624
 30
0.0
 11
23.6706
 21
80.8634
 31
0.0
  0
LINE
  8
0
 62
     0
 10
23.6706
 20
80.8634
 30
0.0
 11
37.67
 21
80.8634
 31
0.0
  0
LINE
  8
0
 62
     0
 10
37.67
 20
80.8634
 30
0.0
 11
37.67
 21
81.8624
 31
0.0
  0
LINE
  8
0
 62
     0
 10
37.67
 20
81.8624
 30
0.0
 11
38.4708
 21
81.8624
 31
0.0
  0
LINE
  8
0
 62
     0
 10
38.4708
 20
81.8624
 30
0.0
 11
38.4708
 21
84.9644
 31
0.0
  0
LINE
  8
0
 62
     0
 10
38.4708
 20
84.9644
 30
0.0
 11
37.67
 21
84.9644
 31
0.0
  0
LINE
  8
0
 62
     0
 10
37.67
 20
84.9644
 30
0.0
 11
37.67
 21
90.7644
 31
0.0
  0
LINE
  8
0
 62
     0
 10
37.67
 20
90.7644
 30
0.0
 11
38.4708
 21
90.7644
 31
0.0
  0
LINE
  8
0
 62
     0
 10
38.4708
 20
90.7644
 30
0.0
 11
38.4708
 21
93.8636
 31
0.0
  0
LINE
  8
0
 62
     0
 10
38.4708
 20
93.8636
 30
0.0
 11
37.67
 21
93.8636
 31
0.0
  0
LINE
  8
0
 62
     0
 10
37.67
 20
93.8636
 30
0.0
 11
37.67
 21
94.8641
 31
0.0
  0
LINE
  8
0
 62
     0
 10
37.67
 20
94.8641
 30
0.0
 11
23.6706
 21
94.8641
 31
0.0
  0
LINE
  8
0
 62
     0
 10
4.6192
 20
94.8641
 30
0.0
 11
4.6192
 21
93.8636
 31
0.0
  0
LINE
  8
0
 62
     0
 10
4.6192
 20
93.8636
 30
0.0
 11
3.81991
 21
93.8636
 31
0.0
  0
LINE
  8
0
 62
     0
 10
3.81991
 20
93.8636
 30
0.0
 11
3.81991
 21
90.7644
 31
0.0
  0
LINE
  8
0
 62
     0
 10
3.81991
 20
90.7644
 30
0.0
 11
4.6192
 21
90.7644
 31
0.0
  0
LINE
  8
0
 62
     0
 10
4.6192
 20
90.7644
 30
0.0
 11
4.6192
 21
84.9644
 31
0.0
  0
LINE
  8
0
 62
     0
 10
4.6192
 20
84.9644
 30
0.0
 11
3.81991
 21
84.9644
 31
0.0
  0
LINE
  8
0
 62
     0
 10
3.81991
 20
84.9644
 30
0.0
 11
3.81991
 21
81.8624
 31
0.0
  0
LINE
  8
0
 62
     0
 10
3.81991
 20
81.8624
 30
0.0
 11
4.6192
 21
81.8624
 31
0.0
  0
LINE
  8
0
 62
     0
 10
4.6192
 20
81.8624
 30
0.0
 11
4.6192
 21
80.8634
 31
0.0
  0
LINE
  8
0
 62
     0
 10
4.6192
 20
80.8634
 30
0.0
 11
18.6201
 21
80.8634
 31
0.0
  0
LINE
  8
0
 62
     0
 10
18.6201
 20
80.8634
 30
0.0
 11
18.6201
 21
81.8624
 31
0.0
  0
LINE
  8
0
 62
     0
 10
18.6201
 20
81.8624
 30
0.0
 11
19.4207
 21
81.8624
 31
0.0
  0
LINE
  8
0
 62
     0
 10
19.4207
 20
81.8624
 30
0.0
 11
19.4207
 21
84.9644
 31
0.0
  0
LINE
  8
0
 62
     0
 10
19.4207
 20
84.9644
 30
0.0
 11
18.6201
 21
84.9644
 31
0.0
  0
LINE
  8
0
 62
     0
 10
18.6201
 20
84.9644
 30
0.0
 11
18.6201
 21
90.7644
 31
0.0
  0
LINE
  8
0
 62
     0
 10
18.6201
 20
90.7644
 30
0.0
 11
19.4207
 21
90.7644
 31
0.0
  0
LINE
  8
0
 62
     0
 10
19.4207
 20
90.7644
 30
0.0
 11
19.4207
 21
93.8636
 31
0.0
  0
LINE
  8
0
 62
     0
 10
19.4207
 20
93.8636
 30
0.0
 11
18.6201
 21
93.8636
 31
0.0
  0
LINE
  8
0
 62
     0
 10
18.6201
 20
93.8636
 30
0.0
 11
18.6201
 21
94.8641
 31
0.0
  0
LINE
  8
0
 62
     0
 10
18.6201
 20
94.8641
 30
0.0
 11
4.6192
 21
94.8641
 31
0.0
  0
ENDSEC
  0
EOF
