  0
SECTION
  2
HEADER
  9
$ACADVER
  1
AC1009
  9
$EXTMIN
 10
0.0
 20
0.0
 30
0.0
  9
$EXTMAX
 10
1000.0
 20
1000.0
 30
0.0
  9
$FILLMODE
 70
 0
  9
$SPLFRAME
 70
 1
  0
ENDSEC
  0
SECTION
  2
TABLES
  0
TABLE
  2
LAYER
 70
1
  0
LAYER
  2
0
 70
     0
 62
     7
  6
CONTINUOUS
  0
ENDTAB
  0
ENDSEC
  0
SECTION
  2
ENTITIES
  0
LINE
  8
0
 62
     0
 10
331.859
 20
99.7409
 30
0.0
 11
331.936
 21
99.7384
 31
0.0
  0
LINE
  8
0
 62
     0
 10
331.936
 20
99.7384
 30
0.0
 11
332.015
 21
99.7285
 31
0.0
  0
LINE
  8
0
 62
     0
 10
332.015
 20
99.7285
 30
0.0
 11
332.092
 21
99.7133
 31
0.0
  0
LINE
  8
0
 62
     0
 10
332.092
 20
99.7133
 30
0.0
 11
332.168
 21
99.6929
 31
0.0
  0
LINE
  8
0
 62
     0
 10
332.168
 20
99.6929
 30
0.0
 11
332.241
 21
99.6654
 31
0.0
  0
LINE
  8
0
 62
     0
 10
332.241
 20
99.6654
 30
0.0
 11
332.312
 21
99.6322
 31
0.0
  0
LINE
  8
0
 62
     0
 10
332.312
 20
99.6322
 30
0.0
 11
332.38
 21
99.5937
 31
0.0
  0
LINE
  8
0
 62
     0
 10
332.38
 20
99.5937
 30
0.0
 11
332.446
 21
99.5507
 31
0.0
  0
LINE
  8
0
 62
     0
 10
332.446
 20
99.5507
 30
0.0
 11
332.507
 21
99.5013
 31
0.0
  0
LINE
  8
0
 62
     0
 10
332.507
 20
99.5013
 30
0.0
 11
332.566
 21
99.4488
 31
0.0
  0
LINE
  8
0
 62
     0
 10
332.566
 20
99.4488
 30
0.0
 11
332.618
 21
99.3909
 31
0.0
  0
LINE
  8
0
 62
     0
 10
332.618
 20
99.3909
 30
0.0
 11
332.668
 21
99.3292
 31
0.0
  0
LINE
  8
0
 62
     0
 10
332.668
 20
99.3292
 30
0.0
 11
332.712
 21
99.2643
 31
0.0
  0
LINE
  8
0
 62
     0
 10
332.712
 20
99.2643
 30
0.0
 11
332.75
 21
99.1941
 31
0.0
  0
LINE
  8
0
 62
     0
 10
332.75
 20
99.1941
 30
0.0
 11
332.782
 21
99.1235
 31
0.0
  0
LINE
  8
0
 62
     0
 10
332.782
 20
99.1235
 30
0.0
 11
332.81
 21
99.0505
 31
0.0
  0
LINE
  8
0
 62
     0
 10
332.81
 20
99.0505
 30
0.0
 11
332.831
 21
98.975
 31
0.0
  0
LINE
  8
0
 62
     0
 10
332.831
 20
98.975
 30
0.0
 11
332.846
 21
98.8977
 31
0.0
  0
LINE
  8
0
 62
     0
 10
332.846
 20
98.8977
 30
0.0
 11
332.855
 21
98.8191
 31
0.0
  0
LINE
  8
0
 62
     0
 10
332.855
 20
98.8191
 30
0.0
 11
332.858
 21
98.7407
 31
0.0
  0
LINE
  8
0
 62
     0
 10
332.858
 20
98.7407
 30
0.0
 11
332.858
 21
1.33945
 31
0.0
  0
LINE
  8
0
 62
     0
 10
332.858
 20
1.33945
 30
0.0
 11
332.855
 21
1.26228
 31
0.0
  0
LINE
  8
0
 62
     0
 10
332.855
 20
1.26228
 30
0.0
 11
332.846
 21
1.18374
 31
0.0
  0
LINE
  8
0
 62
     0
 10
332.846
 20
1.18374
 30
0.0
 11
332.831
 21
1.10657
 31
0.0
  0
LINE
  8
0
 62
     0
 10
332.831
 20
1.10657
 30
0.0
 11
332.81
 21
1.03077
 31
0.0
  0
LINE
  8
0
 62
     0
 10
332.81
 20
1.03077
 30
0.0
 11
332.782
 21
0.957735
 31
0.0
  0
LINE
  8
0
 62
     0
 10
332.782
 20
0.957735
 30
0.0
 11
332.75
 21
0.886079
 31
0.0
  0
LINE
  8
0
 62
     0
 10
332.75
 20
0.886079
 30
0.0
 11
332.712
 21
0.817178
 31
0.0
  0
LINE
  8
0
 62
     0
 10
332.712
 20
0.817178
 30
0.0
 11
332.668
 21
0.752408
 31
0.0
  0
LINE
  8
0
 62
     0
 10
332.668
 20
0.752408
 30
0.0
 11
332.618
 21
0.690397
 31
0.0
  0
LINE
  8
0
 62
     0
 10
332.618
 20
0.690397
 30
0.0
 11
332.566
 21
0.63252
 31
0.0
  0
LINE
  8
0
 62
     0
 10
332.566
 20
0.63252
 30
0.0
 11
332.507
 21
0.580154
 31
0.0
  0
LINE
  8
0
 62
     0
 10
332.507
 20
0.580154
 30
0.0
 11
332.446
 21
0.530546
 31
0.0
  0
LINE
  8
0
 62
     0
 10
332.446
 20
0.530546
 30
0.0
 11
332.38
 21
0.487825
 31
0.0
  0
LINE
  8
0
 62
     0
 10
332.38
 20
0.487825
 30
0.0
 11
332.312
 21
0.449241
 31
0.0
  0
LINE
  8
0
 62
     0
 10
332.312
 20
0.449241
 30
0.0
 11
332.241
 21
0.416168
 31
0.0
  0
LINE
  8
0
 62
     0
 10
332.241
 20
0.416168
 30
0.0
 11
332.168
 21
0.388606
 31
0.0
  0
LINE
  8
0
 62
     0
 10
332.168
 20
0.388606
 30
0.0
 11
332.092
 21
0.367937
 31
0.0
  0
LINE
  8
0
 62
     0
 10
332.092
 20
0.367937
 30
0.0
 11
332.015
 21
0.352778
 31
0.0
  0
LINE
  8
0
 62
     0
 10
332.015
 20
0.352778
 30
0.0
 11
331.936
 21
0.343131
 31
0.0
  0
LINE
  8
0
 62
     0
 10
331.936
 20
0.343131
 30
0.0
 11
331.859
 21
0.338998
 31
0.0
  0
LINE
  8
0
 62
     0
 10
331.859
 20
0.338998
 30
0.0
 11
1.09554
 21
0.338998
 31
0.0
  0
LINE
  8
0
 62
     0
 10
1.09554
 20
0.338998
 30
0.0
 11
1.01699
 21
0.343131
 31
0.0
  0
LINE
  8
0
 62
     0
 10
1.01699
 20
0.343131
 30
0.0
 11
0.938445
 21
0.352778
 31
0.0
  0
LINE
  8
0
 62
     0
 10
0.938445
 20
0.352778
 30
0.0
 11
0.861275
 21
0.367937
 31
0.0
  0
LINE
  8
0
 62
     0
 10
0.861275
 20
0.367937
 30
0.0
 11
0.785481
 21
0.388606
 31
0.0
  0
LINE
  8
0
 62
     0
 10
0.785481
 20
0.388606
 30
0.0
 11
0.712445
 21
0.416168
 31
0.0
  0
LINE
  8
0
 62
     0
 10
0.712445
 20
0.416168
 30
0.0
 11
0.642165
 21
0.449241
 31
0.0
  0
LINE
  8
0
 62
     0
 10
0.642165
 20
0.449241
 30
0.0
 11
0.571885
 21
0.487825
 31
0.0
  0
LINE
  8
0
 62
     0
 10
0.571885
 20
0.487825
 30
0.0
 11
0.507118
 21
0.530546
 31
0.0
  0
LINE
  8
0
 62
     0
 10
0.507118
 20
0.530546
 30
0.0
 11
0.445107
 21
0.580154
 31
0.0
  0
LINE
  8
0
 62
     0
 10
0.445107
 20
0.580154
 30
0.0
 11
0.38723
 21
0.63252
 31
0.0
  0
LINE
  8
0
 62
     0
 10
0.38723
 20
0.63252
 30
0.0
 11
0.334863
 21
0.690397
 31
0.0
  0
LINE
  8
0
 62
     0
 10
0.334863
 20
0.690397
 30
0.0
 11
0.285254
 21
0.752408
 31
0.0
  0
LINE
  8
0
 62
     0
 10
0.285254
 20
0.752408
 30
0.0
 11
0.242535
 21
0.817178
 31
0.0
  0
LINE
  8
0
 62
     0
 10
0.242535
 20
0.817178
 30
0.0
 11
0.20395
 21
0.886079
 31
0.0
  0
LINE
  8
0
 62
     0
 10
0.20395
 20
0.886079
 30
0.0
 11
0.170877
 21
0.957735
 31
0.0
  0
LINE
  8
0
 62
     0
 10
0.170877
 20
0.957735
 30
0.0
 11
0.143316
 21
1.03077
 31
0.0
  0
LINE
  8
0
 62
     0
 10
0.143316
 20
1.03077
 30
0.0
 11
0.122645
 21
1.10657
 31
0.0
  0
LINE
  8
0
 62
     0
 10
0.122645
 20
1.10657
 30
0.0
 11
0.107487
 21
1.18374
 31
0.0
  0
LINE
  8
0
 62
     0
 10
0.107487
 20
1.18374
 30
0.0
 11
0.0978408
 21
1.26228
 31
0.0
  0
LINE
  8
0
 62
     0
 10
0.0978408
 20
1.26228
 30
0.0
 11
0.0950846
 21
1.34083
 31
0.0
  0
LINE
  8
0
 62
     0
 10
0.0950846
 20
1.34083
 30
0.0
 11
0.0950846
 21
98.7407
 31
0.0
  0
LINE
  8
0
 62
     0
 10
0.0950846
 20
98.7407
 30
0.0
 11
0.0978408
 21
98.8191
 31
0.0
  0
LINE
  8
0
 62
     0
 10
0.0978408
 20
98.8191
 30
0.0
 11
0.107487
 21
98.8977
 31
0.0
  0
LINE
  8
0
 62
     0
 10
0.107487
 20
98.8977
 30
0.0
 11
0.122645
 21
98.975
 31
0.0
  0
LINE
  8
0
 62
     0
 10
0.122645
 20
98.975
 30
0.0
 11
0.143316
 21
99.0505
 31
0.0
  0
LINE
  8
0
 62
     0
 10
0.143316
 20
99.0505
 30
0.0
 11
0.170877
 21
99.1235
 31
0.0
  0
LINE
  8
0
 62
     0
 10
0.170877
 20
99.1235
 30
0.0
 11
0.20395
 21
99.1941
 31
0.0
  0
LINE
  8
0
 62
     0
 10
0.20395
 20
99.1941
 30
0.0
 11
0.242535
 21
99.2643
 31
0.0
  0
LINE
  8
0
 62
     0
 10
0.242535
 20
99.2643
 30
0.0
 11
0.285254
 21
99.3292
 31
0.0
  0
LINE
  8
0
 62
     0
 10
0.285254
 20
99.3292
 30
0.0
 11
0.334863
 21
99.3909
 31
0.0
  0
LINE
  8
0
 62
     0
 10
0.334863
 20
99.3909
 30
0.0
 11
0.38723
 21
99.4488
 31
0.0
  0
LINE
  8
0
 62
     0
 10
0.38723
 20
99.4488
 30
0.0
 11
0.445107
 21
99.5013
 31
0.0
  0
LINE
  8
0
 62
     0
 10
0.445107
 20
99.5013
 30
0.0
 11
0.507118
 21
99.5507
 31
0.0
  0
LINE
  8
0
 62
     0
 10
0.507118
 20
99.5507
 30
0.0
 11
0.571885
 21
99.5937
 31
0.0
  0
LINE
  8
0
 62
     0
 10
0.571885
 20
99.5937
 30
0.0
 11
0.642165
 21
99.6322
 31
0.0
  0
LINE
  8
0
 62
     0
 10
0.642165
 20
99.6322
 30
0.0
 11
0.712445
 21
99.6654
 31
0.0
  0
LINE
  8
0
 62
     0
 10
0.712445
 20
99.6654
 30
0.0
 11
0.785481
 21
99.6929
 31
0.0
  0
LINE
  8
0
 62
     0
 10
0.785481
 20
99.6929
 30
0.0
 11
0.861275
 21
99.7133
 31
0.0
  0
LINE
  8
0
 62
     0
 10
0.861275
 20
99.7133
 30
0.0
 11
0.938445
 21
99.7285
 31
0.0
  0
LINE
  8
0
 62
     0
 10
0.938445
 20
99.7285
 30
0.0
 11
1.01699
 21
99.7384
 31
0.0
  0
LINE
  8
0
 62
     0
 10
1.01699
 20
99.7384
 30
0.0
 11
1.09554
 21
99.7409
 31
0.0
  0
LINE
  8
0
 62
     0
 10
1.09554
 20
99.7409
 30
0.0
 11
331.859
 21
99.7409
 31
0.0
  0
LINE
  8
0
 62
     0
 10
138.121
 20
18.8654
 30
0.0
 11
138.121
 21
17.8663
 31
0.0
  0
LINE
  8
0
 62
     0
 10
138.121
 20
17.8663
 30
0.0
 11
137.32
 21
17.8663
 31
0.0
  0
LINE
  8
0
 62
     0
 10
137.32
 20
17.8663
 30
0.0
 11
137.32
 21
14.9159
 31
0.0
  0
LINE
  8
0
 62
     0
 10
137.32
 20
14.9159
 30
0.0
 11
138.121
 21
14.9159
 31
0.0
  0
LINE
  8
0
 62
     0
 10
138.121
 20
14.9159
 30
0.0
 11
138.121
 21
14.1663
 31
0.0
  0
LINE
  8
0
 62
     0
 10
138.121
 20
14.1663
 30
0.0
 11
91.3197
 21
14.1663
 31
0.0
  0
LINE
  8
0
 62
     0
 10
91.3197
 20
14.1663
 30
0.0
 11
91.3197
 21
17.395
 31
0.0
  0
LINE
  8
0
 62
     0
 10
91.3197
 20
17.395
 30
0.0
 11
84.7203
 21
17.395
 31
0.0
  0
LINE
  8
0
 62
     0
 10
84.7203
 20
17.395
 30
0.0
 11
84.7203
 21
14.1663
 31
0.0
  0
LINE
  8
0
 62
     0
 10
84.7203
 20
14.1663
 30
0.0
 11
83.8951
 21
14.1663
 31
0.0
  0
LINE
  8
0
 62
     0
 10
83.8951
 20
14.1663
 30
0.0
 11
83.8951
 21
11.5163
 31
0.0
  0
LINE
  8
0
 62
     0
 10
83.8951
 20
11.5163
 30
0.0
 11
84.7203
 21
11.5163
 31
0.0
  0
LINE
  8
0
 62
     0
 10
84.7203
 20
11.5163
 30
0.0
 11
84.7203
 21
5.24619
 31
0.0
  0
LINE
  8
0
 62
     0
 10
84.7203
 20
5.24619
 30
0.0
 11
86.4457
 21
5.24619
 31
0.0
  0
LINE
  8
0
 62
     0
 10
86.4457
 20
5.24619
 30
0.0
 11
86.4457
 21
4.04594
 31
0.0
  0
LINE
  8
0
 62
     0
 10
86.4457
 20
4.04594
 30
0.0
 11
89.596
 21
4.04594
 31
0.0
  0
LINE
  8
0
 62
     0
 10
89.596
 20
4.04594
 30
0.0
 11
89.596
 21
5.24619
 31
0.0
  0
LINE
  8
0
 62
     0
 10
89.596
 20
5.24619
 30
0.0
 11
91.3197
 21
5.24619
 31
0.0
  0
LINE
  8
0
 62
     0
 10
91.3197
 20
5.24619
 30
0.0
 11
91.3197
 21
9.71656
 31
0.0
  0
LINE
  8
0
 62
     0
 10
91.3197
 20
9.71656
 30
0.0
 11
138.121
 21
9.71656
 31
0.0
  0
LINE
  8
0
 62
     0
 10
138.121
 20
9.71656
 30
0.0
 11
138.121
 21
8.96691
 31
0.0
  0
LINE
  8
0
 62
     0
 10
138.121
 20
8.96691
 30
0.0
 11
137.32
 21
8.96691
 31
0.0
  0
LINE
  8
0
 62
     0
 10
137.32
 20
8.96691
 30
0.0
 11
137.32
 21
6.01514
 31
0.0
  0
LINE
  8
0
 62
     0
 10
137.32
 20
6.01514
 30
0.0
 11
138.121
 21
6.01514
 31
0.0
  0
LINE
  8
0
 62
     0
 10
138.121
 20
6.01514
 30
0.0
 11
138.121
 21
5.01608
 31
0.0
  0
LINE
  8
0
 62
     0
 10
138.121
 20
5.01608
 30
0.0
 11
151.97
 21
5.01608
 31
0.0
  0
LINE
  8
0
 62
     0
 10
151.97
 20
5.01608
 30
0.0
 11
151.97
 21
6.01514
 31
0.0
  0
LINE
  8
0
 62
     0
 10
151.97
 20
6.01514
 30
0.0
 11
152.771
 21
6.01514
 31
0.0
  0
LINE
  8
0
 62
     0
 10
152.771
 20
6.01514
 30
0.0
 11
152.771
 21
8.96691
 31
0.0
  0
LINE
  8
0
 62
     0
 10
152.771
 20
8.96691
 30
0.0
 11
151.97
 21
8.96691
 31
0.0
  0
LINE
  8
0
 62
     0
 10
151.97
 20
8.96691
 30
0.0
 11
151.97
 21
9.71656
 31
0.0
  0
LINE
  8
0
 62
     0
 10
151.97
 20
9.71656
 30
0.0
 11
179.721
 21
9.71656
 31
0.0
  0
LINE
  8
0
 62
     0
 10
179.721
 20
9.71656
 30
0.0
 11
179.721
 21
5.24619
 31
0.0
  0
LINE
  8
0
 62
     0
 10
179.721
 20
5.24619
 30
0.0
 11
181.445
 21
5.24619
 31
0.0
  0
LINE
  8
0
 62
     0
 10
181.445
 20
5.24619
 30
0.0
 11
181.445
 21
4.04594
 31
0.0
  0
LINE
  8
0
 62
     0
 10
181.445
 20
4.04594
 30
0.0
 11
184.595
 21
4.04594
 31
0.0
  0
LINE
  8
0
 62
     0
 10
184.595
 20
4.04594
 30
0.0
 11
184.595
 21
5.24619
 31
0.0
  0
LINE
  8
0
 62
     0
 10
184.595
 20
5.24619
 30
0.0
 11
186.32
 21
5.24619
 31
0.0
  0
LINE
  8
0
 62
     0
 10
186.32
 20
5.24619
 30
0.0
 11
186.32
 21
11.5163
 31
0.0
  0
LINE
  8
0
 62
     0
 10
186.32
 20
11.5163
 30
0.0
 11
187.146
 21
11.5163
 31
0.0
  0
LINE
  8
0
 62
     0
 10
187.146
 20
11.5163
 30
0.0
 11
187.146
 21
14.1663
 31
0.0
  0
LINE
  8
0
 62
     0
 10
187.146
 20
14.1663
 30
0.0
 11
186.32
 21
14.1663
 31
0.0
  0
LINE
  8
0
 62
     0
 10
186.32
 20
14.1663
 30
0.0
 11
186.32
 21
17.395
 31
0.0
  0
LINE
  8
0
 62
     0
 10
186.32
 20
17.395
 30
0.0
 11
179.721
 21
17.395
 31
0.0
  0
LINE
  8
0
 62
     0
 10
179.721
 20
17.395
 30
0.0
 11
179.721
 21
14.1663
 31
0.0
  0
LINE
  8
0
 62
     0
 10
179.721
 20
14.1663
 30
0.0
 11
151.97
 21
14.1663
 31
0.0
  0
LINE
  8
0
 62
     0
 10
151.97
 20
14.1663
 30
0.0
 11
151.97
 21
14.9159
 31
0.0
  0
LINE
  8
0
 62
     0
 10
151.97
 20
14.9159
 30
0.0
 11
152.771
 21
14.9159
 31
0.0
  0
LINE
  8
0
 62
     0
 10
152.771
 20
14.9159
 30
0.0
 11
152.771
 21
17.8663
 31
0.0
  0
LINE
  8
0
 62
     0
 10
152.771
 20
17.8663
 30
0.0
 11
151.97
 21
17.8663
 31
0.0
  0
LINE
  8
0
 62
     0
 10
151.97
 20
17.8663
 30
0.0
 11
151.97
 21
18.8654
 31
0.0
  0
LINE
  8
0
 62
     0
 10
151.97
 20
18.8654
 30
0.0
 11
138.121
 21
18.8654
 31
0.0
  0
LINE
  8
0
 62
     0
 10
314.332
 20
18.8654
 30
0.0
 11
314.332
 21
17.8663
 31
0.0
  0
LINE
  8
0
 62
     0
 10
314.332
 20
17.8663
 30
0.0
 11
313.533
 21
17.8663
 31
0.0
  0
LINE
  8
0
 62
     0
 10
313.533
 20
17.8663
 30
0.0
 11
313.533
 21
14.9159
 31
0.0
  0
LINE
  8
0
 62
     0
 10
313.533
 20
14.9159
 30
0.0
 11
314.332
 21
14.9159
 31
0.0
  0
LINE
  8
0
 62
     0
 10
314.332
 20
14.9159
 30
0.0
 11
314.332
 21
8.96691
 31
0.0
  0
LINE
  8
0
 62
     0
 10
314.332
 20
8.96691
 30
0.0
 11
313.533
 21
8.96691
 31
0.0
  0
LINE
  8
0
 62
     0
 10
313.533
 20
8.96691
 30
0.0
 11
313.533
 21
6.01514
 31
0.0
  0
LINE
  8
0
 62
     0
 10
313.533
 20
6.01514
 30
0.0
 11
314.332
 21
6.01514
 31
0.0
  0
LINE
  8
0
 62
     0
 10
314.332
 20
6.01514
 30
0.0
 11
314.332
 21
5.01608
 31
0.0
  0
LINE
  8
0
 62
     0
 10
314.332
 20
5.01608
 30
0.0
 11
328.182
 21
5.01608
 31
0.0
  0
LINE
  8
0
 62
     0
 10
328.182
 20
5.01608
 30
0.0
 11
328.182
 21
6.01514
 31
0.0
  0
LINE
  8
0
 62
     0
 10
328.182
 20
6.01514
 30
0.0
 11
328.982
 21
6.01514
 31
0.0
  0
LINE
  8
0
 62
     0
 10
328.982
 20
6.01514
 30
0.0
 11
328.982
 21
8.96691
 31
0.0
  0
LINE
  8
0
 62
     0
 10
328.982
 20
8.96691
 30
0.0
 11
328.182
 21
8.96691
 31
0.0
  0
LINE
  8
0
 62
     0
 10
328.182
 20
8.96691
 30
0.0
 11
328.182
 21
14.9159
 31
0.0
  0
LINE
  8
0
 62
     0
 10
328.182
 20
14.9159
 30
0.0
 11
328.982
 21
14.9159
 31
0.0
  0
LINE
  8
0
 62
     0
 10
328.982
 20
14.9159
 30
0.0
 11
328.982
 21
17.8663
 31
0.0
  0
LINE
  8
0
 62
     0
 10
328.982
 20
17.8663
 30
0.0
 11
328.182
 21
17.8663
 31
0.0
  0
LINE
  8
0
 62
     0
 10
328.182
 20
17.8663
 30
0.0
 11
328.182
 21
18.8654
 31
0.0
  0
LINE
  8
0
 62
     0
 10
328.182
 20
18.8654
 30
0.0
 11
314.332
 21
18.8654
 31
0.0
  0
LINE
  8
0
 62
     0
 10
295.282
 20
18.8654
 30
0.0
 11
295.282
 21
17.8663
 31
0.0
  0
LINE
  8
0
 62
     0
 10
295.282
 20
17.8663
 30
0.0
 11
294.483
 21
17.8663
 31
0.0
  0
LINE
  8
0
 62
     0
 10
294.483
 20
17.8663
 30
0.0
 11
294.483
 21
14.9159
 31
0.0
  0
LINE
  8
0
 62
     0
 10
294.483
 20
14.9159
 30
0.0
 11
295.282
 21
14.9159
 31
0.0
  0
LINE
  8
0
 62
     0
 10
295.282
 20
14.9159
 30
0.0
 11
295.282
 21
8.96691
 31
0.0
  0
LINE
  8
0
 62
     0
 10
295.282
 20
8.96691
 30
0.0
 11
294.483
 21
8.96691
 31
0.0
  0
LINE
  8
0
 62
     0
 10
294.483
 20
8.96691
 30
0.0
 11
294.483
 21
6.01514
 31
0.0
  0
LINE
  8
0
 62
     0
 10
294.483
 20
6.01514
 30
0.0
 11
295.282
 21
6.01514
 31
0.0
  0
LINE
  8
0
 62
     0
 10
295.282
 20
6.01514
 30
0.0
 11
295.282
 21
5.01608
 31
0.0
  0
LINE
  8
0
 62
     0
 10
295.282
 20
5.01608
 30
0.0
 11
309.132
 21
5.01608
 31
0.0
  0
LINE
  8
0
 62
     0
 10
309.132
 20
5.01608
 30
0.0
 11
309.132
 21
6.01514
 31
0.0
  0
LINE
  8
0
 62
     0
 10
309.132
 20
6.01514
 30
0.0
 11
309.932
 21
6.01514
 31
0.0
  0
LINE
  8
0
 62
     0
 10
309.932
 20
6.01514
 30
0.0
 11
309.932
 21
8.96691
 31
0.0
  0
LINE
  8
0
 62
     0
 10
309.932
 20
8.96691
 30
0.0
 11
309.132
 21
8.96691
 31
0.0
  0
LINE
  8
0
 62
     0
 10
309.132
 20
8.96691
 30
0.0
 11
309.132
 21
14.9159
 31
0.0
  0
LINE
  8
0
 62
     0
 10
309.132
 20
14.9159
 30
0.0
 11
309.932
 21
14.9159
 31
0.0
  0
LINE
  8
0
 62
     0
 10
309.932
 20
14.9159
 30
0.0
 11
309.932
 21
17.8663
 31
0.0
  0
LINE
  8
0
 62
     0
 10
309.932
 20
17.8663
 30
0.0
 11
309.132
 21
17.8663
 31
0.0
  0
LINE
  8
0
 62
     0
 10
309.132
 20
17.8663
 30
0.0
 11
309.132
 21
18.8654
 31
0.0
  0
LINE
  8
0
 62
     0
 10
309.132
 20
18.8654
 30
0.0
 11
295.282
 21
18.8654
 31
0.0
  0
LINE
  8
0
 62
     0
 10
276.232
 20
18.8654
 30
0.0
 11
276.232
 21
17.8663
 31
0.0
  0
LINE
  8
0
 62
     0
 10
276.232
 20
17.8663
 30
0.0
 11
275.433
 21
17.8663
 31
0.0
  0
LINE
  8
0
 62
     0
 10
275.433
 20
17.8663
 30
0.0
 11
275.433
 21
14.9159
 31
0.0
  0
LINE
  8
0
 62
     0
 10
275.433
 20
14.9159
 30
0.0
 11
276.232
 21
14.9159
 31
0.0
  0
LINE
  8
0
 62
     0
 10
276.232
 20
14.9159
 30
0.0
 11
276.232
 21
8.96691
 31
0.0
  0
LINE
  8
0
 62
     0
 10
276.232
 20
8.96691
 30
0.0
 11
275.433
 21
8.96691
 31
0.0
  0
LINE
  8
0
 62
     0
 10
275.433
 20
8.96691
 30
0.0
 11
275.433
 21
6.01514
 31
0.0
  0
LINE
  8
0
 62
     0
 10
275.433
 20
6.01514
 30
0.0
 11
276.232
 21
6.01514
 31
0.0
  0
LINE
  8
0
 62
     0
 10
276.232
 20
6.01514
 30
0.0
 11
276.232
 21
5.01608
 31
0.0
  0
LINE
  8
0
 62
     0
 10
276.232
 20
5.01608
 30
0.0
 11
290.082
 21
5.01608
 31
0.0
  0
LINE
  8
0
 62
     0
 10
290.082
 20
5.01608
 30
0.0
 11
290.082
 21
6.01514
 31
0.0
  0
LINE
  8
0
 62
     0
 10
290.082
 20
6.01514
 30
0.0
 11
290.882
 21
6.01514
 31
0.0
  0
LINE
  8
0
 62
     0
 10
290.882
 20
6.01514
 30
0.0
 11
290.882
 21
8.96691
 31
0.0
  0
LINE
  8
0
 62
     0
 10
290.882
 20
8.96691
 30
0.0
 11
290.082
 21
8.96691
 31
0.0
  0
LINE
  8
0
 62
     0
 10
290.082
 20
8.96691
 30
0.0
 11
290.082
 21
14.9159
 31
0.0
  0
LINE
  8
0
 62
     0
 10
290.082
 20
14.9159
 30
0.0
 11
290.882
 21
14.9159
 31
0.0
  0
LINE
  8
0
 62
     0
 10
290.882
 20
14.9159
 30
0.0
 11
290.882
 21
17.8663
 31
0.0
  0
LINE
  8
0
 62
     0
 10
290.882
 20
17.8663
 30
0.0
 11
290.082
 21
17.8663
 31
0.0
  0
LINE
  8
0
 62
     0
 10
290.082
 20
17.8663
 30
0.0
 11
290.082
 21
18.8654
 31
0.0
  0
LINE
  8
0
 62
     0
 10
290.082
 20
18.8654
 30
0.0
 11
276.232
 21
18.8654
 31
0.0
  0
LINE
  8
0
 62
     0
 10
252.421
 20
18.8654
 30
0.0
 11
252.421
 21
17.8663
 31
0.0
  0
LINE
  8
0
 62
     0
 10
252.421
 20
17.8663
 30
0.0
 11
251.62
 21
17.8663
 31
0.0
  0
LINE
  8
0
 62
     0
 10
251.62
 20
17.8663
 30
0.0
 11
251.62
 21
14.9159
 31
0.0
  0
LINE
  8
0
 62
     0
 10
251.62
 20
14.9159
 30
0.0
 11
252.421
 21
14.9159
 31
0.0
  0
LINE
  8
0
 62
     0
 10
252.421
 20
14.9159
 30
0.0
 11
252.421
 21
8.96691
 31
0.0
  0
LINE
  8
0
 62
     0
 10
252.421
 20
8.96691
 30
0.0
 11
251.62
 21
8.96691
 31
0.0
  0
LINE
  8
0
 62
     0
 10
251.62
 20
8.96691
 30
0.0
 11
251.62
 21
6.01514
 31
0.0
  0
LINE
  8
0
 62
     0
 10
251.62
 20
6.01514
 30
0.0
 11
252.421
 21
6.01514
 31
0.0
  0
LINE
  8
0
 62
     0
 10
252.421
 20
6.01514
 30
0.0
 11
252.421
 21
5.01608
 31
0.0
  0
LINE
  8
0
 62
     0
 10
252.421
 20
5.01608
 30
0.0
 11
266.27
 21
5.01608
 31
0.0
  0
LINE
  8
0
 62
     0
 10
266.27
 20
5.01608
 30
0.0
 11
266.27
 21
6.01514
 31
0.0
  0
LINE
  8
0
 62
     0
 10
266.27
 20
6.01514
 30
0.0
 11
267.071
 21
6.01514
 31
0.0
  0
LINE
  8
0
 62
     0
 10
267.071
 20
6.01514
 30
0.0
 11
267.071
 21
8.96691
 31
0.0
  0
LINE
  8
0
 62
     0
 10
267.071
 20
8.96691
 30
0.0
 11
266.27
 21
8.96691
 31
0.0
  0
LINE
  8
0
 62
     0
 10
266.27
 20
8.96691
 30
0.0
 11
266.27
 21
14.9159
 31
0.0
  0
LINE
  8
0
 62
     0
 10
266.27
 20
14.9159
 30
0.0
 11
267.071
 21
14.9159
 31
0.0
  0
LINE
  8
0
 62
     0
 10
267.071
 20
14.9159
 30
0.0
 11
267.071
 21
17.8663
 31
0.0
  0
LINE
  8
0
 62
     0
 10
267.071
 20
17.8663
 30
0.0
 11
266.27
 21
17.8663
 31
0.0
  0
LINE
  8
0
 62
     0
 10
266.27
 20
17.8663
 30
0.0
 11
266.27
 21
18.8654
 31
0.0
  0
LINE
  8
0
 62
     0
 10
266.27
 20
18.8654
 30
0.0
 11
252.421
 21
18.8654
 31
0.0
  0
LINE
  8
0
 62
     0
 10
233.371
 20
18.8654
 30
0.0
 11
233.371
 21
17.8663
 31
0.0
  0
LINE
  8
0
 62
     0
 10
233.371
 20
17.8663
 30
0.0
 11
232.57
 21
17.8663
 31
0.0
  0
LINE
  8
0
 62
     0
 10
232.57
 20
17.8663
 30
0.0
 11
232.57
 21
14.9159
 31
0.0
  0
LINE
  8
0
 62
     0
 10
232.57
 20
14.9159
 30
0.0
 11
233.371
 21
14.9159
 31
0.0
  0
LINE
  8
0
 62
     0
 10
233.371
 20
14.9159
 30
0.0
 11
233.371
 21
8.96691
 31
0.0
  0
LINE
  8
0
 62
     0
 10
233.371
 20
8.96691
 30
0.0
 11
232.57
 21
8.96691
 31
0.0
  0
LINE
  8
0
 62
     0
 10
232.57
 20
8.96691
 30
0.0
 11
232.57
 21
6.01514
 31
0.0
  0
LINE
  8
0
 62
     0
 10
232.57
 20
6.01514
 30
0.0
 11
233.371
 21
6.01514
 31
0.0
  0
LINE
  8
0
 62
     0
 10
233.371
 20
6.01514
 30
0.0
 11
233.371
 21
5.01608
 31
0.0
  0
LINE
  8
0
 62
     0
 10
233.371
 20
5.01608
 30
0.0
 11
247.22
 21
5.01608
 31
0.0
  0
LINE
  8
0
 62
     0
 10
247.22
 20
5.01608
 30
0.0
 11
247.22
 21
6.01514
 31
0.0
  0
LINE
  8
0
 62
     0
 10
247.22
 20
6.01514
 30
0.0
 11
248.021
 21
6.01514
 31
0.0
  0
LINE
  8
0
 62
     0
 10
248.021
 20
6.01514
 30
0.0
 11
248.021
 21
8.96691
 31
0.0
  0
LINE
  8
0
 62
     0
 10
248.021
 20
8.96691
 30
0.0
 11
247.22
 21
8.96691
 31
0.0
  0
LINE
  8
0
 62
     0
 10
247.22
 20
8.96691
 30
0.0
 11
247.22
 21
14.9159
 31
0.0
  0
LINE
  8
0
 62
     0
 10
247.22
 20
14.9159
 30
0.0
 11
248.021
 21
14.9159
 31
0.0
  0
LINE
  8
0
 62
     0
 10
248.021
 20
14.9159
 30
0.0
 11
248.021
 21
17.8663
 31
0.0
  0
LINE
  8
0
 62
     0
 10
248.021
 20
17.8663
 30
0.0
 11
247.22
 21
17.8663
 31
0.0
  0
LINE
  8
0
 62
     0
 10
247.22
 20
17.8663
 30
0.0
 11
247.22
 21
18.8654
 31
0.0
  0
LINE
  8
0
 62
     0
 10
247.22
 20
18.8654
 30
0.0
 11
233.371
 21
18.8654
 31
0.0
  0
LINE
  8
0
 62
     0
 10
214.321
 20
18.8654
 30
0.0
 11
214.321
 21
17.8663
 31
0.0
  0
LINE
  8
0
 62
     0
 10
214.321
 20
17.8663
 30
0.0
 11
213.52
 21
17.8663
 31
0.0
  0
LINE
  8
0
 62
     0
 10
213.52
 20
17.8663
 30
0.0
 11
213.52
 21
14.9159
 31
0.0
  0
LINE
  8
0
 62
     0
 10
213.52
 20
14.9159
 30
0.0
 11
214.321
 21
14.9159
 31
0.0
  0
LINE
  8
0
 62
     0
 10
214.321
 20
14.9159
 30
0.0
 11
214.321
 21
8.96691
 31
0.0
  0
LINE
  8
0
 62
     0
 10
214.321
 20
8.96691
 30
0.0
 11
213.52
 21
8.96691
 31
0.0
  0
LINE
  8
0
 62
     0
 10
213.52
 20
8.96691
 30
0.0
 11
213.52
 21
6.01514
 31
0.0
  0
LINE
  8
0
 62
     0
 10
213.52
 20
6.01514
 30
0.0
 11
214.321
 21
6.01514
 31
0.0
  0
LINE
  8
0
 62
     0
 10
214.321
 20
6.01514
 30
0.0
 11
214.321
 21
5.01608
 31
0.0
  0
LINE
  8
0
 62
     0
 10
214.321
 20
5.01608
 30
0.0
 11
228.17
 21
5.01608
 31
0.0
  0
LINE
  8
0
 62
     0
 10
228.17
 20
5.01608
 30
0.0
 11
228.17
 21
6.01514
 31
0.0
  0
LINE
  8
0
 62
     0
 10
228.17
 20
6.01514
 30
0.0
 11
228.971
 21
6.01514
 31
0.0
  0
LINE
  8
0
 62
     0
 10
228.971
 20
6.01514
 30
0.0
 11
228.971
 21
8.96691
 31
0.0
  0
LINE
  8
0
 62
     0
 10
228.971
 20
8.96691
 30
0.0
 11
228.17
 21
8.96691
 31
0.0
  0
LINE
  8
0
 62
     0
 10
228.17
 20
8.96691
 30
0.0
 11
228.17
 21
14.9159
 31
0.0
  0
LINE
  8
0
 62
     0
 10
228.17
 20
14.9159
 30
0.0
 11
228.971
 21
14.9159
 31
0.0
  0
LINE
  8
0
 62
     0
 10
228.971
 20
14.9159
 30
0.0
 11
228.971
 21
17.8663
 31
0.0
  0
LINE
  8
0
 62
     0
 10
228.971
 20
17.8663
 30
0.0
 11
228.17
 21
17.8663
 31
0.0
  0
LINE
  8
0
 62
     0
 10
228.17
 20
17.8663
 30
0.0
 11
228.17
 21
18.8654
 31
0.0
  0
LINE
  8
0
 62
     0
 10
228.17
 20
18.8654
 30
0.0
 11
214.321
 21
18.8654
 31
0.0
  0
LINE
  8
0
 62
     0
 10
195.271
 20
18.8654
 30
0.0
 11
195.271
 21
17.8663
 31
0.0
  0
LINE
  8
0
 62
     0
 10
195.271
 20
17.8663
 30
0.0
 11
194.47
 21
17.8663
 31
0.0
  0
LINE
  8
0
 62
     0
 10
194.47
 20
17.8663
 30
0.0
 11
194.47
 21
14.9159
 31
0.0
  0
LINE
  8
0
 62
     0
 10
194.47
 20
14.9159
 30
0.0
 11
195.271
 21
14.9159
 31
0.0
  0
LINE
  8
0
 62
     0
 10
195.271
 20
14.9159
 30
0.0
 11
195.271
 21
8.96691
 31
0.0
  0
LINE
  8
0
 62
     0
 10
195.271
 20
8.96691
 30
0.0
 11
194.47
 21
8.96691
 31
0.0
  0
LINE
  8
0
 62
     0
 10
194.47
 20
8.96691
 30
0.0
 11
194.47
 21
6.01514
 31
0.0
  0
LINE
  8
0
 62
     0
 10
194.47
 20
6.01514
 30
0.0
 11
195.271
 21
6.01514
 31
0.0
  0
LINE
  8
0
 62
     0
 10
195.271
 20
6.01514
 30
0.0
 11
195.271
 21
5.01608
 31
0.0
  0
LINE
  8
0
 62
     0
 10
195.271
 20
5.01608
 30
0.0
 11
209.12
 21
5.01608
 31
0.0
  0
LINE
  8
0
 62
     0
 10
209.12
 20
5.01608
 30
0.0
 11
209.12
 21
6.01514
 31
0.0
  0
LINE
  8
0
 62
     0
 10
209.12
 20
6.01514
 30
0.0
 11
209.921
 21
6.01514
 31
0.0
  0
LINE
  8
0
 62
     0
 10
209.921
 20
6.01514
 30
0.0
 11
209.921
 21
8.96691
 31
0.0
  0
LINE
  8
0
 62
     0
 10
209.921
 20
8.96691
 30
0.0
 11
209.12
 21
8.96691
 31
0.0
  0
LINE
  8
0
 62
     0
 10
209.12
 20
8.96691
 30
0.0
 11
209.12
 21
14.9159
 31
0.0
  0
LINE
  8
0
 62
     0
 10
209.12
 20
14.9159
 30
0.0
 11
209.921
 21
14.9159
 31
0.0
  0
LINE
  8
0
 62
     0
 10
209.921
 20
14.9159
 30
0.0
 11
209.921
 21
17.8663
 31
0.0
  0
LINE
  8
0
 62
     0
 10
209.921
 20
17.8663
 30
0.0
 11
209.12
 21
17.8663
 31
0.0
  0
LINE
  8
0
 62
     0
 10
209.12
 20
17.8663
 30
0.0
 11
209.12
 21
18.8654
 31
0.0
  0
LINE
  8
0
 62
     0
 10
209.12
 20
18.8654
 30
0.0
 11
195.271
 21
18.8654
 31
0.0
  0
LINE
  8
0
 62
     0
 10
61.9206
 20
18.8654
 30
0.0
 11
61.9206
 21
17.8663
 31
0.0
  0
LINE
  8
0
 62
     0
 10
61.9206
 20
17.8663
 30
0.0
 11
61.1202
 21
17.8663
 31
0.0
  0
LINE
  8
0
 62
     0
 10
61.1202
 20
17.8663
 30
0.0
 11
61.1202
 21
14.9159
 31
0.0
  0
LINE
  8
0
 62
     0
 10
61.1202
 20
14.9159
 30
0.0
 11
61.9206
 21
14.9159
 31
0.0
  0
LINE
  8
0
 62
     0
 10
61.9206
 20
14.9159
 30
0.0
 11
61.9206
 21
8.96691
 31
0.0
  0
LINE
  8
0
 62
     0
 10
61.9206
 20
8.96691
 30
0.0
 11
61.1202
 21
8.96691
 31
0.0
  0
LINE
  8
0
 62
     0
 10
61.1202
 20
8.96691
 30
0.0
 11
61.1202
 21
6.01514
 31
0.0
  0
LINE
  8
0
 62
     0
 10
61.1202
 20
6.01514
 30
0.0
 11
61.9206
 21
6.01514
 31
0.0
  0
LINE
  8
0
 62
     0
 10
61.9206
 20
6.01514
 30
0.0
 11
61.9206
 21
5.01608
 31
0.0
  0
LINE
  8
0
 62
     0
 10
61.9206
 20
5.01608
 30
0.0
 11
75.77
 21
5.01608
 31
0.0
  0
LINE
  8
0
 62
     0
 10
75.77
 20
5.01608
 30
0.0
 11
75.77
 21
6.01514
 31
0.0
  0
LINE
  8
0
 62
     0
 10
75.77
 20
6.01514
 30
0.0
 11
76.5708
 21
6.01514
 31
0.0
  0
LINE
  8
0
 62
     0
 10
76.5708
 20
6.01514
 30
0.0
 11
76.5708
 21
8.96691
 31
0.0
  0
LINE
  8
0
 62
     0
 10
76.5708
 20
8.96691
 30
0.0
 11
75.77
 21
8.96691
 31
0.0
  0
LINE
  8
0
 62
     0
 10
75.77
 20
8.96691
 30
0.0
 11
75.77
 21
14.9159
 31
0.0
  0
LINE
  8
0
 62
     0
 10
75.77
 20
14.9159
 30
0.0
 11
76.5708
 21
14.9159
 31
0.0
  0
LINE
  8
0
 62
     0
 10
76.5708
 20
14.9159
 30
0.0
 11
76.5708
 21
17.8663
 31
0.0
  0
LINE
  8
0
 62
     0
 10
76.5708
 20
17.8663
 30
0.0
 11
75.77
 21
17.8663
 31
0.0
  0
LINE
  8
0
 62
     0
 10
75.77
 20
17.8663
 30
0.0
 11
75.77
 21
18.8654
 31
0.0
  0
LINE
  8
0
 62
     0
 10
75.77
 20
18.8654
 30
0.0
 11
61.9206
 21
18.8654
 31
0.0
  0
LINE
  8
0
 62
     0
 10
42.8706
 20
18.8654
 30
0.0
 11
42.8706
 21
17.8663
 31
0.0
  0
LINE
  8
0
 62
     0
 10
42.8706
 20
17.8663
 30
0.0
 11
42.0702
 21
17.8663
 31
0.0
  0
LINE
  8
0
 62
     0
 10
42.0702
 20
17.8663
 30
0.0
 11
42.0702
 21
14.9159
 31
0.0
  0
LINE
  8
0
 62
     0
 10
42.0702
 20
14.9159
 30
0.0
 11
42.8706
 21
14.9159
 31
0.0
  0
LINE
  8
0
 62
     0
 10
42.8706
 20
14.9159
 30
0.0
 11
42.8706
 21
8.96691
 31
0.0
  0
LINE
  8
0
 62
     0
 10
42.8706
 20
8.96691
 30
0.0
 11
42.0702
 21
8.96691
 31
0.0
  0
LINE
  8
0
 62
     0
 10
42.0702
 20
8.96691
 30
0.0
 11
42.0702
 21
6.01514
 31
0.0
  0
LINE
  8
0
 62
     0
 10
42.0702
 20
6.01514
 30
0.0
 11
42.8706
 21
6.01514
 31
0.0
  0
LINE
  8
0
 62
     0
 10
42.8706
 20
6.01514
 30
0.0
 11
42.8706
 21
5.01608
 31
0.0
  0
LINE
  8
0
 62
     0
 10
42.8706
 20
5.01608
 30
0.0
 11
56.72
 21
5.01608
 31
0.0
  0
LINE
  8
0
 62
     0
 10
56.72
 20
5.01608
 30
0.0
 11
56.72
 21
6.01514
 31
0.0
  0
LINE
  8
0
 62
     0
 10
56.72
 20
6.01514
 30
0.0
 11
57.5208
 21
6.01514
 31
0.0
  0
LINE
  8
0
 62
     0
 10
57.5208
 20
6.01514
 30
0.0
 11
57.5208
 21
8.96691
 31
0.0
  0
LINE
  8
0
 62
     0
 10
57.5208
 20
8.96691
 30
0.0
 11
56.72
 21
8.96691
 31
0.0
  0
LINE
  8
0
 62
     0
 10
56.72
 20
8.96691
 30
0.0
 11
56.72
 21
14.9159
 31
0.0
  0
LINE
  8
0
 62
     0
 10
56.72
 20
14.9159
 30
0.0
 11
57.5208
 21
14.9159
 31
0.0
  0
LINE
  8
0
 62
     0
 10
57.5208
 20
14.9159
 30
0.0
 11
57.5208
 21
17.8663
 31
0.0
  0
LINE
  8
0
 62
     0
 10
57.5208
 20
17.8663
 30
0.0
 11
56.72
 21
17.8663
 31
0.0
  0
LINE
  8
0
 62
     0
 10
56.72
 20
17.8663
 30
0.0
 11
56.72
 21
18.8654
 31
0.0
  0
LINE
  8
0
 62
     0
 10
56.72
 20
18.8654
 30
0.0
 11
42.8706
 21
18.8654
 31
0.0
  0
LINE
  8
0
 62
     0
 10
23.8208
 20
18.8654
 30
0.0
 11
23.8208
 21
17.8663
 31
0.0
  0
LINE
  8
0
 62
     0
 10
23.8208
 20
17.8663
 30
0.0
 11
23.0201
 21
17.8663
 31
0.0
  0
LINE
  8
0
 62
     0
 10
23.0201
 20
17.8663
 30
0.0
 11
23.0201
 21
14.9159
 31
0.0
  0
LINE
  8
0
 62
     0
 10
23.0201
 20
14.9159
 30
0.0
 11
23.8208
 21
14.9159
 31
0.0
  0
LINE
  8
0
 62
     0
 10
23.8208
 20
14.9159
 30
0.0
 11
23.8208
 21
8.96691
 31
0.0
  0
LINE
  8
0
 62
     0
 10
23.8208
 20
8.96691
 30
0.0
 11
23.0201
 21
8.96691
 31
0.0
  0
LINE
  8
0
 62
     0
 10
23.0201
 20
8.96691
 30
0.0
 11
23.0201
 21
6.01514
 31
0.0
  0
LINE
  8
0
 62
     0
 10
23.0201
 20
6.01514
 30
0.0
 11
23.8208
 21
6.01514
 31
0.0
  0
LINE
  8
0
 62
     0
 10
23.8208
 20
6.01514
 30
0.0
 11
23.8208
 21
5.01608
 31
0.0
  0
LINE
  8
0
 62
     0
 10
23.8208
 20
5.01608
 30
0.0
 11
37.67
 21
5.01608
 31
0.0
  0
LINE
  8
0
 62
     0
 10
37.67
 20
5.01608
 30
0.0
 11
37.67
 21
6.01514
 31
0.0
  0
LINE
  8
0
 62
     0
 10
37.67
 20
6.01514
 30
0.0
 11
38.4708
 21
6.01514
 31
0.0
  0
LINE
  8
0
 62
     0
 10
38.4708
 20
6.01514
 30
0.0
 11
38.4708
 21
8.96691
 31
0.0
  0
LINE
  8
0
 62
     0
 10
38.4708
 20
8.96691
 30
0.0
 11
37.67
 21
8.96691
 31
0.0
  0
LINE
  8
0
 62
     0
 10
37.67
 20
8.96691
 30
0.0
 11
37.67
 21
14.9159
 31
0.0
  0
LINE
  8
0
 62
     0
 10
37.67
 20
14.9159
 30
0.0
 11
38.4708
 21
14.9159
 31
0.0
  0
LINE
  8
0
 62
     0
 10
38.4708
 20
14.9159
 30
0.0
 11
38.4708
 21
17.8663
 31
0.0
  0
LINE
  8
0
 62
     0
 10
38.4708
 20
17.8663
 30
0.0
 11
37.67
 21
17.8663
 31
0.0
  0
LINE
  8
0
 62
     0
 10
37.67
 20
17.8663
 30
0.0
 11
37.67
 21
18.8654
 31
0.0
  0
LINE
  8
0
 62
     0
 10
37.67
 20
18.8654
 30
0.0
 11
23.8208
 21
18.8654
 31
0.0
  0
LINE
  8
0
 62
     0
 10
4.77076
 20
18.8654
 30
0.0
 11
4.77076
 21
17.8663
 31
0.0
  0
LINE
  8
0
 62
     0
 10
4.77076
 20
17.8663
 30
0.0
 11
3.97013
 21
17.8663
 31
0.0
  0
LINE
  8
0
 62
     0
 10
3.97013
 20
17.8663
 30
0.0
 11
3.97013
 21
14.9159
 31
0.0
  0
LINE
  8
0
 62
     0
 10
3.97013
 20
14.9159
 30
0.0
 11
4.77076
 21
14.9159
 31
0.0
  0
LINE
  8
0
 62
     0
 10
4.77076
 20
14.9159
 30
0.0
 11
4.77076
 21
8.96691
 31
0.0
  0
LINE
  8
0
 62
     0
 10
4.77076
 20
8.96691
 30
0.0
 11
3.97013
 21
8.96691
 31
0.0
  0
LINE
  8
0
 62
     0
 10
3.97013
 20
8.96691
 30
0.0
 11
3.97013
 21
6.01514
 31
0.0
  0
LINE
  8
0
 62
     0
 10
3.97013
 20
6.01514
 30
0.0
 11
4.77076
 21
6.01514
 31
0.0
  0
LINE
  8
0
 62
     0
 10
4.77076
 20
6.01514
 30
0.0
 11
4.77076
 21
5.01608
 31
0.0
  0
LINE
  8
0
 62
     0
 10
4.77076
 20
5.01608
 30
0.0
 11
18.6201
 21
5.01608
 31
0.0
  0
LINE
  8
0
 62
     0
 10
18.6201
 20
5.01608
 30
0.0
 11
18.6201
 21
6.01514
 31
0.0
  0
LINE
  8
0
 62
     0
 10
18.6201
 20
6.01514
 30
0.0
 11
19.4207
 21
6.01514
 31
0.0
  0
LINE
  8
0
 62
     0
 10
19.4207
 20
6.01514
 30
0.0
 11
19.4207
 21
8.96691
 31
0.0
  0
LINE
  8
0
 62
     0
 10
19.4207
 20
8.96691
 30
0.0
 11
18.6201
 21
8.96691
 31
0.0
  0
LINE
  8
0
 62
     0
 10
18.6201
 20
8.96691
 30
0.0
 11
18.6201
 21
14.9159
 31
0.0
  0
LINE
  8
0
 62
     0
 10
18.6201
 20
14.9159
 30
0.0
 11
19.4207
 21
14.9159
 31
0.0
  0
LINE
  8
0
 62
     0
 10
19.4207
 20
14.9159
 30
0.0
 11
19.4207
 21
17.8663
 31
0.0
  0
LINE
  8
0
 62
     0
 10
19.4207
 20
17.8663
 30
0.0
 11
18.6201
 21
17.8663
 31
0.0
  0
LINE
  8
0
 62
     0
 10
18.6201
 20
17.8663
 30
0.0
 11
18.6201
 21
18.8654
 31
0.0
  0
LINE
  8
0
 62
     0
 10
18.6201
 20
18.8654
 30
0.0
 11
4.77076
 21
18.8654
 31
0.0
  0
LINE
  8
0
 62
     0
 10
254.802
 20
37.9155
 30
0.0
 11
254.802
 21
36.9164
 31
0.0
  0
LINE
  8
0
 62
     0
 10
254.802
 20
36.9164
 30
0.0
 11
254.001
 21
36.9164
 31
0.0
  0
LINE
  8
0
 62
     0
 10
254.001
 20
36.9164
 30
0.0
 11
254.001
 21
33.9659
 31
0.0
  0
LINE
  8
0
 62
     0
 10
254.001
 20
33.9659
 30
0.0
 11
254.802
 21
33.9659
 31
0.0
  0
LINE
  8
0
 62
     0
 10
254.802
 20
33.9659
 30
0.0
 11
254.802
 21
33.2163
 31
0.0
  0
LINE
  8
0
 62
     0
 10
254.802
 20
33.2163
 30
0.0
 11
253.126
 21
33.2163
 31
0.0
  0
LINE
  8
0
 62
     0
 10
253.126
 20
33.2163
 30
0.0
 11
253.126
 21
36.4451
 31
0.0
  0
LINE
  8
0
 62
     0
 10
253.126
 20
36.4451
 30
0.0
 11
246.527
 21
36.4451
 31
0.0
  0
LINE
  8
0
 62
     0
 10
246.527
 20
36.4451
 30
0.0
 11
246.527
 21
33.2163
 31
0.0
  0
LINE
  8
0
 62
     0
 10
246.527
 20
33.2163
 30
0.0
 11
245.702
 21
33.2163
 31
0.0
  0
LINE
  8
0
 62
     0
 10
245.702
 20
33.2163
 30
0.0
 11
245.702
 21
30.5663
 31
0.0
  0
LINE
  8
0
 62
     0
 10
245.702
 20
30.5663
 30
0.0
 11
246.527
 21
30.5663
 31
0.0
  0
LINE
  8
0
 62
     0
 10
246.527
 20
30.5663
 30
0.0
 11
246.527
 21
24.2962
 31
0.0
  0
LINE
  8
0
 62
     0
 10
246.527
 20
24.2962
 30
0.0
 11
248.251
 21
24.2962
 31
0.0
  0
LINE
  8
0
 62
     0
 10
248.251
 20
24.2962
 30
0.0
 11
248.251
 21
23.0959
 31
0.0
  0
LINE
  8
0
 62
     0
 10
248.251
 20
23.0959
 30
0.0
 11
251.401
 21
23.0959
 31
0.0
  0
LINE
  8
0
 62
     0
 10
251.401
 20
23.0959
 30
0.0
 11
251.401
 21
24.2962
 31
0.0
  0
LINE
  8
0
 62
     0
 10
251.401
 20
24.2962
 30
0.0
 11
253.126
 21
24.2962
 31
0.0
  0
LINE
  8
0
 62
     0
 10
253.126
 20
24.2962
 30
0.0
 11
253.126
 21
28.7652
 31
0.0
  0
LINE
  8
0
 62
     0
 10
253.126
 20
28.7652
 30
0.0
 11
254.802
 21
28.7652
 31
0.0
  0
LINE
  8
0
 62
     0
 10
254.802
 20
28.7652
 30
0.0
 11
254.802
 21
28.0155
 31
0.0
  0
LINE
  8
0
 62
     0
 10
254.802
 20
28.0155
 30
0.0
 11
254.001
 21
28.0155
 31
0.0
  0
LINE
  8
0
 62
     0
 10
254.001
 20
28.0155
 30
0.0
 11
254.001
 21
25.0651
 31
0.0
  0
LINE
  8
0
 62
     0
 10
254.001
 20
25.0651
 30
0.0
 11
254.802
 21
25.0651
 31
0.0
  0
LINE
  8
0
 62
     0
 10
254.802
 20
25.0651
 30
0.0
 11
254.802
 21
24.0661
 31
0.0
  0
LINE
  8
0
 62
     0
 10
254.802
 20
24.0661
 30
0.0
 11
268.651
 21
24.0661
 31
0.0
  0
LINE
  8
0
 62
     0
 10
268.651
 20
24.0661
 30
0.0
 11
268.651
 21
25.0651
 31
0.0
  0
LINE
  8
0
 62
     0
 10
268.651
 20
25.0651
 30
0.0
 11
269.452
 21
25.0651
 31
0.0
  0
LINE
  8
0
 62
     0
 10
269.452
 20
25.0651
 30
0.0
 11
269.452
 21
28.0155
 31
0.0
  0
LINE
  8
0
 62
     0
 10
269.452
 20
28.0155
 30
0.0
 11
268.651
 21
28.0155
 31
0.0
  0
LINE
  8
0
 62
     0
 10
268.651
 20
28.0155
 30
0.0
 11
268.651
 21
28.7652
 31
0.0
  0
LINE
  8
0
 62
     0
 10
268.651
 20
28.7652
 30
0.0
 11
270.327
 21
28.7652
 31
0.0
  0
LINE
  8
0
 62
     0
 10
270.327
 20
28.7652
 30
0.0
 11
270.327
 21
24.2962
 31
0.0
  0
LINE
  8
0
 62
     0
 10
270.327
 20
24.2962
 30
0.0
 11
272.051
 21
24.2962
 31
0.0
  0
LINE
  8
0
 62
     0
 10
272.051
 20
24.2962
 30
0.0
 11
272.051
 21
23.0959
 31
0.0
  0
LINE
  8
0
 62
     0
 10
272.051
 20
23.0959
 30
0.0
 11
275.201
 21
23.0959
 31
0.0
  0
LINE
  8
0
 62
     0
 10
275.201
 20
23.0959
 30
0.0
 11
275.201
 21
24.2962
 31
0.0
  0
LINE
  8
0
 62
     0
 10
275.201
 20
24.2962
 30
0.0
 11
276.926
 21
24.2962
 31
0.0
  0
LINE
  8
0
 62
     0
 10
276.926
 20
24.2962
 30
0.0
 11
276.926
 21
30.5663
 31
0.0
  0
LINE
  8
0
 62
     0
 10
276.926
 20
30.5663
 30
0.0
 11
277.752
 21
30.5663
 31
0.0
  0
LINE
  8
0
 62
     0
 10
277.752
 20
30.5663
 30
0.0
 11
277.752
 21
33.2163
 31
0.0
  0
LINE
  8
0
 62
     0
 10
277.752
 20
33.2163
 30
0.0
 11
276.926
 21
33.2163
 31
0.0
  0
LINE
  8
0
 62
     0
 10
276.926
 20
33.2163
 30
0.0
 11
276.926
 21
36.4451
 31
0.0
  0
LINE
  8
0
 62
     0
 10
276.926
 20
36.4451
 30
0.0
 11
270.327
 21
36.4451
 31
0.0
  0
LINE
  8
0
 62
     0
 10
270.327
 20
36.4451
 30
0.0
 11
270.327
 21
33.2163
 31
0.0
  0
LINE
  8
0
 62
     0
 10
270.327
 20
33.2163
 30
0.0
 11
268.651
 21
33.2163
 31
0.0
  0
LINE
  8
0
 62
     0
 10
268.651
 20
33.2163
 30
0.0
 11
268.651
 21
33.9659
 31
0.0
  0
LINE
  8
0
 62
     0
 10
268.651
 20
33.9659
 30
0.0
 11
269.452
 21
33.9659
 31
0.0
  0
LINE
  8
0
 62
     0
 10
269.452
 20
33.9659
 30
0.0
 11
269.452
 21
36.9164
 31
0.0
  0
LINE
  8
0
 62
     0
 10
269.452
 20
36.9164
 30
0.0
 11
268.651
 21
36.9164
 31
0.0
  0
LINE
  8
0
 62
     0
 10
268.651
 20
36.9164
 30
0.0
 11
268.651
 21
37.9155
 31
0.0
  0
LINE
  8
0
 62
     0
 10
268.651
 20
37.9155
 30
0.0
 11
254.802
 21
37.9155
 31
0.0
  0
LINE
  8
0
 62
     0
 10
16.677
 20
37.9155
 30
0.0
 11
16.677
 21
36.9164
 31
0.0
  0
LINE
  8
0
 62
     0
 10
16.677
 20
36.9164
 30
0.0
 11
15.8764
 21
36.9164
 31
0.0
  0
LINE
  8
0
 62
     0
 10
15.8764
 20
36.9164
 30
0.0
 11
15.8764
 21
33.9659
 31
0.0
  0
LINE
  8
0
 62
     0
 10
15.8764
 20
33.9659
 30
0.0
 11
16.677
 21
33.9659
 31
0.0
  0
LINE
  8
0
 62
     0
 10
16.677
 20
33.9659
 30
0.0
 11
16.677
 21
33.2163
 31
0.0
  0
LINE
  8
0
 62
     0
 10
16.677
 20
33.2163
 30
0.0
 11
15.0013
 21
33.2163
 31
0.0
  0
LINE
  8
0
 62
     0
 10
15.0013
 20
33.2163
 30
0.0
 11
15.0013
 21
36.4451
 31
0.0
  0
LINE
  8
0
 62
     0
 10
15.0013
 20
36.4451
 30
0.0
 11
8.4019
 21
36.4451
 31
0.0
  0
LINE
  8
0
 62
     0
 10
8.4019
 20
36.4451
 30
0.0
 11
8.4019
 21
33.2163
 31
0.0
  0
LINE
  8
0
 62
     0
 10
8.4019
 20
33.2163
 30
0.0
 11
7.57647
 21
33.2163
 31
0.0
  0
LINE
  8
0
 62
     0
 10
7.57647
 20
33.2163
 30
0.0
 11
7.57647
 21
30.5663
 31
0.0
  0
LINE
  8
0
 62
     0
 10
7.57647
 20
30.5663
 30
0.0
 11
8.4019
 21
30.5663
 31
0.0
  0
LINE
  8
0
 62
     0
 10
8.4019
 20
30.5663
 30
0.0
 11
8.4019
 21
24.2962
 31
0.0
  0
LINE
  8
0
 62
     0
 10
8.4019
 20
24.2962
 30
0.0
 11
10.1258
 21
24.2962
 31
0.0
  0
LINE
  8
0
 62
     0
 10
10.1258
 20
24.2962
 30
0.0
 11
10.1258
 21
23.0959
 31
0.0
  0
LINE
  8
0
 62
     0
 10
10.1258
 20
23.0959
 30
0.0
 11
13.276
 21
23.0959
 31
0.0
  0
LINE
  8
0
 62
     0
 10
13.276
 20
23.0959
 30
0.0
 11
13.276
 21
24.2962
 31
0.0
  0
LINE
  8
0
 62
     0
 10
13.276
 20
24.2962
 30
0.0
 11
15.0013
 21
24.2962
 31
0.0
  0
LINE
  8
0
 62
     0
 10
15.0013
 20
24.2962
 30
0.0
 11
15.0013
 21
28.7652
 31
0.0
  0
LINE
  8
0
 62
     0
 10
15.0013
 20
28.7652
 30
0.0
 11
16.677
 21
28.7652
 31
0.0
  0
LINE
  8
0
 62
     0
 10
16.677
 20
28.7652
 30
0.0
 11
16.677
 21
28.0155
 31
0.0
  0
LINE
  8
0
 62
     0
 10
16.677
 20
28.0155
 30
0.0
 11
15.8764
 21
28.0155
 31
0.0
  0
LINE
  8
0
 62
     0
 10
15.8764
 20
28.0155
 30
0.0
 11
15.8764
 21
25.0651
 31
0.0
  0
LINE
  8
0
 62
     0
 10
15.8764
 20
25.0651
 30
0.0
 11
16.677
 21
25.0651
 31
0.0
  0
LINE
  8
0
 62
     0
 10
16.677
 20
25.0651
 30
0.0
 11
16.677
 21
24.0661
 31
0.0
  0
LINE
  8
0
 62
     0
 10
16.677
 20
24.0661
 30
0.0
 11
30.5263
 21
24.0661
 31
0.0
  0
LINE
  8
0
 62
     0
 10
30.5263
 20
24.0661
 30
0.0
 11
30.5263
 21
25.0651
 31
0.0
  0
LINE
  8
0
 62
     0
 10
30.5263
 20
25.0651
 30
0.0
 11
31.3269
 21
25.0651
 31
0.0
  0
LINE
  8
0
 62
     0
 10
31.3269
 20
25.0651
 30
0.0
 11
31.3269
 21
28.0155
 31
0.0
  0
LINE
  8
0
 62
     0
 10
31.3269
 20
28.0155
 30
0.0
 11
30.5263
 21
28.0155
 31
0.0
  0
LINE
  8
0
 62
     0
 10
30.5263
 20
28.0155
 30
0.0
 11
30.5263
 21
28.7652
 31
0.0
  0
LINE
  8
0
 62
     0
 10
30.5263
 20
28.7652
 30
0.0
 11
32.202
 21
28.7652
 31
0.0
  0
LINE
  8
0
 62
     0
 10
32.202
 20
28.7652
 30
0.0
 11
32.202
 21
24.2962
 31
0.0
  0
LINE
  8
0
 62
     0
 10
32.202
 20
24.2962
 30
0.0
 11
33.9259
 21
24.2962
 31
0.0
  0
LINE
  8
0
 62
     0
 10
33.9259
 20
24.2962
 30
0.0
 11
33.9259
 21
23.0959
 31
0.0
  0
LINE
  8
0
 62
     0
 10
33.9259
 20
23.0959
 30
0.0
 11
37.0762
 21
23.0959
 31
0.0
  0
LINE
  8
0
 62
     0
 10
37.0762
 20
23.0959
 30
0.0
 11
37.0762
 21
24.2962
 31
0.0
  0
LINE
  8
0
 62
     0
 10
37.0762
 20
24.2962
 30
0.0
 11
38.8013
 21
24.2962
 31
0.0
  0
LINE
  8
0
 62
     0
 10
38.8013
 20
24.2962
 30
0.0
 11
38.8013
 21
30.5663
 31
0.0
  0
LINE
  8
0
 62
     0
 10
38.8013
 20
30.5663
 30
0.0
 11
39.6268
 21
30.5663
 31
0.0
  0
LINE
  8
0
 62
     0
 10
39.6268
 20
30.5663
 30
0.0
 11
39.6268
 21
33.2163
 31
0.0
  0
LINE
  8
0
 62
     0
 10
39.6268
 20
33.2163
 30
0.0
 11
38.8013
 21
33.2163
 31
0.0
  0
LINE
  8
0
 62
     0
 10
38.8013
 20
33.2163
 30
0.0
 11
38.8013
 21
36.4451
 31
0.0
  0
LINE
  8
0
 62
     0
 10
38.8013
 20
36.4451
 30
0.0
 11
32.202
 21
36.4451
 31
0.0
  0
LINE
  8
0
 62
     0
 10
32.202
 20
36.4451
 30
0.0
 11
32.202
 21
33.2163
 31
0.0
  0
LINE
  8
0
 62
     0
 10
32.202
 20
33.2163
 30
0.0
 11
30.5263
 21
33.2163
 31
0.0
  0
LINE
  8
0
 62
     0
 10
30.5263
 20
33.2163
 30
0.0
 11
30.5263
 21
33.9659
 31
0.0
  0
LINE
  8
0
 62
     0
 10
30.5263
 20
33.9659
 30
0.0
 11
31.3269
 21
33.9659
 31
0.0
  0
LINE
  8
0
 62
     0
 10
31.3269
 20
33.9659
 30
0.0
 11
31.3269
 21
36.9164
 31
0.0
  0
LINE
  8
0
 62
     0
 10
31.3269
 20
36.9164
 30
0.0
 11
30.5263
 21
36.9164
 31
0.0
  0
LINE
  8
0
 62
     0
 10
30.5263
 20
36.9164
 30
0.0
 11
30.5263
 21
37.9155
 31
0.0
  0
LINE
  8
0
 62
     0
 10
30.5263
 20
37.9155
 30
0.0
 11
16.677
 21
37.9155
 31
0.0
  0
LINE
  8
0
 62
     0
 10
295.282
 20
37.9155
 30
0.0
 11
295.282
 21
36.9164
 31
0.0
  0
LINE
  8
0
 62
     0
 10
295.282
 20
36.9164
 30
0.0
 11
294.483
 21
36.9164
 31
0.0
  0
LINE
  8
0
 62
     0
 10
294.483
 20
36.9164
 30
0.0
 11
294.483
 21
33.9659
 31
0.0
  0
LINE
  8
0
 62
     0
 10
294.483
 20
33.9659
 30
0.0
 11
295.282
 21
33.9659
 31
0.0
  0
LINE
  8
0
 62
     0
 10
295.282
 20
33.9659
 30
0.0
 11
295.282
 21
28.0155
 31
0.0
  0
LINE
  8
0
 62
     0
 10
295.282
 20
28.0155
 30
0.0
 11
294.483
 21
28.0155
 31
0.0
  0
LINE
  8
0
 62
     0
 10
294.483
 20
28.0155
 30
0.0
 11
294.483
 21
25.0651
 31
0.0
  0
LINE
  8
0
 62
     0
 10
294.483
 20
25.0651
 30
0.0
 11
295.282
 21
25.0651
 31
0.0
  0
LINE
  8
0
 62
     0
 10
295.282
 20
25.0651
 30
0.0
 11
295.282
 21
24.0661
 31
0.0
  0
LINE
  8
0
 62
     0
 10
295.282
 20
24.0661
 30
0.0
 11
309.132
 21
24.0661
 31
0.0
  0
LINE
  8
0
 62
     0
 10
309.132
 20
24.0661
 30
0.0
 11
309.132
 21
25.0651
 31
0.0
  0
LINE
  8
0
 62
     0
 10
309.132
 20
25.0651
 30
0.0
 11
309.932
 21
25.0651
 31
0.0
  0
LINE
  8
0
 62
     0
 10
309.932
 20
25.0651
 30
0.0
 11
309.932
 21
28.0155
 31
0.0
  0
LINE
  8
0
 62
     0
 10
309.932
 20
28.0155
 30
0.0
 11
309.132
 21
28.0155
 31
0.0
  0
LINE
  8
0
 62
     0
 10
309.132
 20
28.0155
 30
0.0
 11
309.132
 21
33.9659
 31
0.0
  0
LINE
  8
0
 62
     0
 10
309.132
 20
33.9659
 30
0.0
 11
309.932
 21
33.9659
 31
0.0
  0
LINE
  8
0
 62
     0
 10
309.932
 20
33.9659
 30
0.0
 11
309.932
 21
36.9164
 31
0.0
  0
LINE
  8
0
 62
     0
 10
309.932
 20
36.9164
 30
0.0
 11
309.132
 21
36.9164
 31
0.0
  0
LINE
  8
0
 62
     0
 10
309.132
 20
36.9164
 30
0.0
 11
309.132
 21
37.9155
 31
0.0
  0
LINE
  8
0
 62
     0
 10
309.132
 20
37.9155
 30
0.0
 11
295.282
 21
37.9155
 31
0.0
  0
LINE
  8
0
 62
     0
 10
219.082
 20
37.9155
 30
0.0
 11
219.082
 21
36.9164
 31
0.0
  0
LINE
  8
0
 62
     0
 10
219.082
 20
36.9164
 30
0.0
 11
218.283
 21
36.9164
 31
0.0
  0
LINE
  8
0
 62
     0
 10
218.283
 20
36.9164
 30
0.0
 11
218.283
 21
33.9659
 31
0.0
  0
LINE
  8
0
 62
     0
 10
218.283
 20
33.9659
 30
0.0
 11
219.082
 21
33.9659
 31
0.0
  0
LINE
  8
0
 62
     0
 10
219.082
 20
33.9659
 30
0.0
 11
219.082
 21
28.0155
 31
0.0
  0
LINE
  8
0
 62
     0
 10
219.082
 20
28.0155
 30
0.0
 11
218.283
 21
28.0155
 31
0.0
  0
LINE
  8
0
 62
     0
 10
218.283
 20
28.0155
 30
0.0
 11
218.283
 21
25.0651
 31
0.0
  0
LINE
  8
0
 62
     0
 10
218.283
 20
25.0651
 30
0.0
 11
219.082
 21
25.0651
 31
0.0
  0
LINE
  8
0
 62
     0
 10
219.082
 20
25.0651
 30
0.0
 11
219.082
 21
24.0661
 31
0.0
  0
LINE
  8
0
 62
     0
 10
219.082
 20
24.0661
 30
0.0
 11
232.932
 21
24.0661
 31
0.0
  0
LINE
  8
0
 62
     0
 10
232.932
 20
24.0661
 30
0.0
 11
232.932
 21
25.0651
 31
0.0
  0
LINE
  8
0
 62
     0
 10
232.932
 20
25.0651
 30
0.0
 11
233.732
 21
25.0651
 31
0.0
  0
LINE
  8
0
 62
     0
 10
233.732
 20
25.0651
 30
0.0
 11
233.732
 21
28.0155
 31
0.0
  0
LINE
  8
0
 62
     0
 10
233.732
 20
28.0155
 30
0.0
 11
232.932
 21
28.0155
 31
0.0
  0
LINE
  8
0
 62
     0
 10
232.932
 20
28.0155
 30
0.0
 11
232.932
 21
33.9659
 31
0.0
  0
LINE
  8
0
 62
     0
 10
232.932
 20
33.9659
 30
0.0
 11
233.732
 21
33.9659
 31
0.0
  0
LINE
  8
0
 62
     0
 10
233.732
 20
33.9659
 30
0.0
 11
233.732
 21
36.9164
 31
0.0
  0
LINE
  8
0
 62
     0
 10
233.732
 20
36.9164
 30
0.0
 11
232.932
 21
36.9164
 31
0.0
  0
LINE
  8
0
 62
     0
 10
232.932
 20
36.9164
 30
0.0
 11
232.932
 21
37.9155
 31
0.0
  0
LINE
  8
0
 62
     0
 10
232.932
 20
37.9155
 30
0.0
 11
219.082
 21
37.9155
 31
0.0
  0
LINE
  8
0
 62
     0
 10
200.032
 20
37.9155
 30
0.0
 11
200.032
 21
36.9164
 31
0.0
  0
LINE
  8
0
 62
     0
 10
200.032
 20
36.9164
 30
0.0
 11
199.233
 21
36.9164
 31
0.0
  0
LINE
  8
0
 62
     0
 10
199.233
 20
36.9164
 30
0.0
 11
199.233
 21
33.9659
 31
0.0
  0
LINE
  8
0
 62
     0
 10
199.233
 20
33.9659
 30
0.0
 11
200.032
 21
33.9659
 31
0.0
  0
LINE
  8
0
 62
     0
 10
200.032
 20
33.9659
 30
0.0
 11
200.032
 21
28.0155
 31
0.0
  0
LINE
  8
0
 62
     0
 10
200.032
 20
28.0155
 30
0.0
 11
199.233
 21
28.0155
 31
0.0
  0
LINE
  8
0
 62
     0
 10
199.233
 20
28.0155
 30
0.0
 11
199.233
 21
25.0651
 31
0.0
  0
LINE
  8
0
 62
     0
 10
199.233
 20
25.0651
 30
0.0
 11
200.032
 21
25.0651
 31
0.0
  0
LINE
  8
0
 62
     0
 10
200.032
 20
25.0651
 30
0.0
 11
200.032
 21
24.0661
 31
0.0
  0
LINE
  8
0
 62
     0
 10
200.032
 20
24.0661
 30
0.0
 11
213.882
 21
24.0661
 31
0.0
  0
LINE
  8
0
 62
     0
 10
213.882
 20
24.0661
 30
0.0
 11
213.882
 21
25.0651
 31
0.0
  0
LINE
  8
0
 62
     0
 10
213.882
 20
25.0651
 30
0.0
 11
214.682
 21
25.0651
 31
0.0
  0
LINE
  8
0
 62
     0
 10
214.682
 20
25.0651
 30
0.0
 11
214.682
 21
28.0155
 31
0.0
  0
LINE
  8
0
 62
     0
 10
214.682
 20
28.0155
 30
0.0
 11
213.882
 21
28.0155
 31
0.0
  0
LINE
  8
0
 62
     0
 10
213.882
 20
28.0155
 30
0.0
 11
213.882
 21
33.9659
 31
0.0
  0
LINE
  8
0
 62
     0
 10
213.882
 20
33.9659
 30
0.0
 11
214.682
 21
33.9659
 31
0.0
  0
LINE
  8
0
 62
     0
 10
214.682
 20
33.9659
 30
0.0
 11
214.682
 21
36.9164
 31
0.0
  0
LINE
  8
0
 62
     0
 10
214.682
 20
36.9164
 30
0.0
 11
213.882
 21
36.9164
 31
0.0
  0
LINE
  8
0
 62
     0
 10
213.882
 20
36.9164
 30
0.0
 11
213.882
 21
37.9155
 31
0.0
  0
LINE
  8
0
 62
     0
 10
213.882
 20
37.9155
 30
0.0
 11
200.032
 21
37.9155
 31
0.0
  0
LINE
  8
0
 62
     0
 10
180.982
 20
37.9155
 30
0.0
 11
180.982
 21
36.9164
 31
0.0
  0
LINE
  8
0
 62
     0
 10
180.982
 20
36.9164
 30
0.0
 11
180.183
 21
36.9164
 31
0.0
  0
LINE
  8
0
 62
     0
 10
180.183
 20
36.9164
 30
0.0
 11
180.183
 21
33.9659
 31
0.0
  0
LINE
  8
0
 62
     0
 10
180.183
 20
33.9659
 30
0.0
 11
180.982
 21
33.9659
 31
0.0
  0
LINE
  8
0
 62
     0
 10
180.982
 20
33.9659
 30
0.0
 11
180.982
 21
28.0155
 31
0.0
  0
LINE
  8
0
 62
     0
 10
180.982
 20
28.0155
 30
0.0
 11
180.183
 21
28.0155
 31
0.0
  0
LINE
  8
0
 62
     0
 10
180.183
 20
28.0155
 30
0.0
 11
180.183
 21
25.0651
 31
0.0
  0
LINE
  8
0
 62
     0
 10
180.183
 20
25.0651
 30
0.0
 11
180.982
 21
25.0651
 31
0.0
  0
LINE
  8
0
 62
     0
 10
180.982
 20
25.0651
 30
0.0
 11
180.982
 21
24.0661
 31
0.0
  0
LINE
  8
0
 62
     0
 10
180.982
 20
24.0661
 30
0.0
 11
194.832
 21
24.0661
 31
0.0
  0
LINE
  8
0
 62
     0
 10
194.832
 20
24.0661
 30
0.0
 11
194.832
 21
25.0651
 31
0.0
  0
LINE
  8
0
 62
     0
 10
194.832
 20
25.0651
 30
0.0
 11
195.632
 21
25.0651
 31
0.0
  0
LINE
  8
0
 62
     0
 10
195.632
 20
25.0651
 30
0.0
 11
195.632
 21
28.0155
 31
0.0
  0
LINE
  8
0
 62
     0
 10
195.632
 20
28.0155
 30
0.0
 11
194.832
 21
28.0155
 31
0.0
  0
LINE
  8
0
 62
     0
 10
194.832
 20
28.0155
 30
0.0
 11
194.832
 21
33.9659
 31
0.0
  0
LINE
  8
0
 62
     0
 10
194.832
 20
33.9659
 30
0.0
 11
195.632
 21
33.9659
 31
0.0
  0
LINE
  8
0
 62
     0
 10
195.632
 20
33.9659
 30
0.0
 11
195.632
 21
36.9164
 31
0.0
  0
LINE
  8
0
 62
     0
 10
195.632
 20
36.9164
 30
0.0
 11
194.832
 21
36.9164
 31
0.0
  0
LINE
  8
0
 62
     0
 10
194.832
 20
36.9164
 30
0.0
 11
194.832
 21
37.9155
 31
0.0
  0
LINE
  8
0
 62
     0
 10
194.832
 20
37.9155
 30
0.0
 11
180.982
 21
37.9155
 31
0.0
  0
LINE
  8
0
 62
     0
 10
161.932
 20
37.9155
 30
0.0
 11
161.932
 21
36.9164
 31
0.0
  0
LINE
  8
0
 62
     0
 10
161.932
 20
36.9164
 30
0.0
 11
161.133
 21
36.9164
 31
0.0
  0
LINE
  8
0
 62
     0
 10
161.133
 20
36.9164
 30
0.0
 11
161.133
 21
33.9659
 31
0.0
  0
LINE
  8
0
 62
     0
 10
161.133
 20
33.9659
 30
0.0
 11
161.932
 21
33.9659
 31
0.0
  0
LINE
  8
0
 62
     0
 10
161.932
 20
33.9659
 30
0.0
 11
161.932
 21
28.0155
 31
0.0
  0
LINE
  8
0
 62
     0
 10
161.932
 20
28.0155
 30
0.0
 11
161.133
 21
28.0155
 31
0.0
  0
LINE
  8
0
 62
     0
 10
161.133
 20
28.0155
 30
0.0
 11
161.133
 21
25.0651
 31
0.0
  0
LINE
  8
0
 62
     0
 10
161.133
 20
25.0651
 30
0.0
 11
161.932
 21
25.0651
 31
0.0
  0
LINE
  8
0
 62
     0
 10
161.932
 20
25.0651
 30
0.0
 11
161.932
 21
24.0661
 31
0.0
  0
LINE
  8
0
 62
     0
 10
161.932
 20
24.0661
 30
0.0
 11
175.782
 21
24.0661
 31
0.0
  0
LINE
  8
0
 62
     0
 10
175.782
 20
24.0661
 30
0.0
 11
175.782
 21
25.0651
 31
0.0
  0
LINE
  8
0
 62
     0
 10
175.782
 20
25.0651
 30
0.0
 11
176.582
 21
25.0651
 31
0.0
  0
LINE
  8
0
 62
     0
 10
176.582
 20
25.0651
 30
0.0
 11
176.582
 21
28.0155
 31
0.0
  0
LINE
  8
0
 62
     0
 10
176.582
 20
28.0155
 30
0.0
 11
175.782
 21
28.0155
 31
0.0
  0
LINE
  8
0
 62
     0
 10
175.782
 20
28.0155
 30
0.0
 11
175.782
 21
33.9659
 31
0.0
  0
LINE
  8
0
 62
     0
 10
175.782
 20
33.9659
 30
0.0
 11
176.582
 21
33.9659
 31
0.0
  0
LINE
  8
0
 62
     0
 10
176.582
 20
33.9659
 30
0.0
 11
176.582
 21
36.9164
 31
0.0
  0
LINE
  8
0
 62
     0
 10
176.582
 20
36.9164
 30
0.0
 11
175.782
 21
36.9164
 31
0.0
  0
LINE
  8
0
 62
     0
 10
175.782
 20
36.9164
 30
0.0
 11
175.782
 21
37.9155
 31
0.0
  0
LINE
  8
0
 62
     0
 10
175.782
 20
37.9155
 30
0.0
 11
161.932
 21
37.9155
 31
0.0
  0
LINE
  8
0
 62
     0
 10
142.882
 20
37.9155
 30
0.0
 11
142.882
 21
36.9164
 31
0.0
  0
LINE
  8
0
 62
     0
 10
142.882
 20
36.9164
 30
0.0
 11
142.083
 21
36.9164
 31
0.0
  0
LINE
  8
0
 62
     0
 10
142.083
 20
36.9164
 30
0.0
 11
142.083
 21
33.9659
 31
0.0
  0
LINE
  8
0
 62
     0
 10
142.083
 20
33.9659
 30
0.0
 11
142.882
 21
33.9659
 31
0.0
  0
LINE
  8
0
 62
     0
 10
142.882
 20
33.9659
 30
0.0
 11
142.882
 21
28.0155
 31
0.0
  0
LINE
  8
0
 62
     0
 10
142.882
 20
28.0155
 30
0.0
 11
142.083
 21
28.0155
 31
0.0
  0
LINE
  8
0
 62
     0
 10
142.083
 20
28.0155
 30
0.0
 11
142.083
 21
25.0651
 31
0.0
  0
LINE
  8
0
 62
     0
 10
142.083
 20
25.0651
 30
0.0
 11
142.882
 21
25.0651
 31
0.0
  0
LINE
  8
0
 62
     0
 10
142.882
 20
25.0651
 30
0.0
 11
142.882
 21
24.0661
 31
0.0
  0
LINE
  8
0
 62
     0
 10
142.882
 20
24.0661
 30
0.0
 11
156.732
 21
24.0661
 31
0.0
  0
LINE
  8
0
 62
     0
 10
156.732
 20
24.0661
 30
0.0
 11
156.732
 21
25.0651
 31
0.0
  0
LINE
  8
0
 62
     0
 10
156.732
 20
25.0651
 30
0.0
 11
157.532
 21
25.0651
 31
0.0
  0
LINE
  8
0
 62
     0
 10
157.532
 20
25.0651
 30
0.0
 11
157.532
 21
28.0155
 31
0.0
  0
LINE
  8
0
 62
     0
 10
157.532
 20
28.0155
 30
0.0
 11
156.732
 21
28.0155
 31
0.0
  0
LINE
  8
0
 62
     0
 10
156.732
 20
28.0155
 30
0.0
 11
156.732
 21
33.9659
 31
0.0
  0
LINE
  8
0
 62
     0
 10
156.732
 20
33.9659
 30
0.0
 11
157.532
 21
33.9659
 31
0.0
  0
LINE
  8
0
 62
     0
 10
157.532
 20
33.9659
 30
0.0
 11
157.532
 21
36.9164
 31
0.0
  0
LINE
  8
0
 62
     0
 10
157.532
 20
36.9164
 30
0.0
 11
156.732
 21
36.9164
 31
0.0
  0
LINE
  8
0
 62
     0
 10
156.732
 20
36.9164
 30
0.0
 11
156.732
 21
37.9155
 31
0.0
  0
LINE
  8
0
 62
     0
 10
156.732
 20
37.9155
 30
0.0
 11
142.882
 21
37.9155
 31
0.0
  0
LINE
  8
0
 62
     0
 10
123.832
 20
37.9155
 30
0.0
 11
123.832
 21
36.9164
 31
0.0
  0
LINE
  8
0
 62
     0
 10
123.832
 20
36.9164
 30
0.0
 11
123.033
 21
36.9164
 31
0.0
  0
LINE
  8
0
 62
     0
 10
123.033
 20
36.9164
 30
0.0
 11
123.033
 21
33.9659
 31
0.0
  0
LINE
  8
0
 62
     0
 10
123.033
 20
33.9659
 30
0.0
 11
123.832
 21
33.9659
 31
0.0
  0
LINE
  8
0
 62
     0
 10
123.832
 20
33.9659
 30
0.0
 11
123.832
 21
28.0155
 31
0.0
  0
LINE
  8
0
 62
     0
 10
123.832
 20
28.0155
 30
0.0
 11
123.033
 21
28.0155
 31
0.0
  0
LINE
  8
0
 62
     0
 10
123.033
 20
28.0155
 30
0.0
 11
123.033
 21
25.0651
 31
0.0
  0
LINE
  8
0
 62
     0
 10
123.033
 20
25.0651
 30
0.0
 11
123.832
 21
25.0651
 31
0.0
  0
LINE
  8
0
 62
     0
 10
123.832
 20
25.0651
 30
0.0
 11
123.832
 21
24.0661
 31
0.0
  0
LINE
  8
0
 62
     0
 10
123.832
 20
24.0661
 30
0.0
 11
137.682
 21
24.0661
 31
0.0
  0
LINE
  8
0
 62
     0
 10
137.682
 20
24.0661
 30
0.0
 11
137.682
 21
25.0651
 31
0.0
  0
LINE
  8
0
 62
     0
 10
137.682
 20
25.0651
 30
0.0
 11
138.482
 21
25.0651
 31
0.0
  0
LINE
  8
0
 62
     0
 10
138.482
 20
25.0651
 30
0.0
 11
138.482
 21
28.0155
 31
0.0
  0
LINE
  8
0
 62
     0
 10
138.482
 20
28.0155
 30
0.0
 11
137.682
 21
28.0155
 31
0.0
  0
LINE
  8
0
 62
     0
 10
137.682
 20
28.0155
 30
0.0
 11
137.682
 21
33.9659
 31
0.0
  0
LINE
  8
0
 62
     0
 10
137.682
 20
33.9659
 30
0.0
 11
138.482
 21
33.9659
 31
0.0
  0
LINE
  8
0
 62
     0
 10
138.482
 20
33.9659
 30
0.0
 11
138.482
 21
36.9164
 31
0.0
  0
LINE
  8
0
 62
     0
 10
138.482
 20
36.9164
 30
0.0
 11
137.682
 21
36.9164
 31
0.0
  0
LINE
  8
0
 62
     0
 10
137.682
 20
36.9164
 30
0.0
 11
137.682
 21
37.9155
 31
0.0
  0
LINE
  8
0
 62
     0
 10
137.682
 20
37.9155
 30
0.0
 11
123.832
 21
37.9155
 31
0.0
  0
LINE
  8
0
 62
     0
 10
104.782
 20
37.9155
 30
0.0
 11
104.782
 21
36.9164
 31
0.0
  0
LINE
  8
0
 62
     0
 10
104.782
 20
36.9164
 30
0.0
 11
103.983
 21
36.9164
 31
0.0
  0
LINE
  8
0
 62
     0
 10
103.983
 20
36.9164
 30
0.0
 11
103.983
 21
33.9659
 31
0.0
  0
LINE
  8
0
 62
     0
 10
103.983
 20
33.9659
 30
0.0
 11
104.782
 21
33.9659
 31
0.0
  0
LINE
  8
0
 62
     0
 10
104.782
 20
33.9659
 30
0.0
 11
104.782
 21
28.0155
 31
0.0
  0
LINE
  8
0
 62
     0
 10
104.782
 20
28.0155
 30
0.0
 11
103.983
 21
28.0155
 31
0.0
  0
LINE
  8
0
 62
     0
 10
103.983
 20
28.0155
 30
0.0
 11
103.983
 21
25.0651
 31
0.0
  0
LINE
  8
0
 62
     0
 10
103.983
 20
25.0651
 30
0.0
 11
104.782
 21
25.0651
 31
0.0
  0
LINE
  8
0
 62
     0
 10
104.782
 20
25.0651
 30
0.0
 11
104.782
 21
24.0661
 31
0.0
  0
LINE
  8
0
 62
     0
 10
104.782
 20
24.0661
 30
0.0
 11
118.632
 21
24.0661
 31
0.0
  0
LINE
  8
0
 62
     0
 10
118.632
 20
24.0661
 30
0.0
 11
118.632
 21
25.0651
 31
0.0
  0
LINE
  8
0
 62
     0
 10
118.632
 20
25.0651
 30
0.0
 11
119.432
 21
25.0651
 31
0.0
  0
LINE
  8
0
 62
     0
 10
119.432
 20
25.0651
 30
0.0
 11
119.432
 21
28.0155
 31
0.0
  0
LINE
  8
0
 62
     0
 10
119.432
 20
28.0155
 30
0.0
 11
118.632
 21
28.0155
 31
0.0
  0
LINE
  8
0
 62
     0
 10
118.632
 20
28.0155
 30
0.0
 11
118.632
 21
33.9659
 31
0.0
  0
LINE
  8
0
 62
     0
 10
118.632
 20
33.9659
 30
0.0
 11
119.432
 21
33.9659
 31
0.0
  0
LINE
  8
0
 62
     0
 10
119.432
 20
33.9659
 30
0.0
 11
119.432
 21
36.9164
 31
0.0
  0
LINE
  8
0
 62
     0
 10
119.432
 20
36.9164
 30
0.0
 11
118.632
 21
36.9164
 31
0.0
  0
LINE
  8
0
 62
     0
 10
118.632
 20
36.9164
 30
0.0
 11
118.632
 21
37.9155
 31
0.0
  0
LINE
  8
0
 62
     0
 10
118.632
 20
37.9155
 30
0.0
 11
104.782
 21
37.9155
 31
0.0
  0
LINE
  8
0
 62
     0
 10
85.7321
 20
37.9155
 30
0.0
 11
85.7321
 21
36.9164
 31
0.0
  0
LINE
  8
0
 62
     0
 10
85.7321
 20
36.9164
 30
0.0
 11
84.9327
 21
36.9164
 31
0.0
  0
LINE
  8
0
 62
     0
 10
84.9327
 20
36.9164
 30
0.0
 11
84.9327
 21
33.9659
 31
0.0
  0
LINE
  8
0
 62
     0
 10
84.9327
 20
33.9659
 30
0.0
 11
85.7321
 21
33.9659
 31
0.0
  0
LINE
  8
0
 62
     0
 10
85.7321
 20
33.9659
 30
0.0
 11
85.7321
 21
28.0155
 31
0.0
  0
LINE
  8
0
 62
     0
 10
85.7321
 20
28.0155
 30
0.0
 11
84.9327
 21
28.0155
 31
0.0
  0
LINE
  8
0
 62
     0
 10
84.9327
 20
28.0155
 30
0.0
 11
84.9327
 21
25.0651
 31
0.0
  0
LINE
  8
0
 62
     0
 10
84.9327
 20
25.0651
 30
0.0
 11
85.7321
 21
25.0651
 31
0.0
  0
LINE
  8
0
 62
     0
 10
85.7321
 20
25.0651
 30
0.0
 11
85.7321
 21
24.0661
 31
0.0
  0
LINE
  8
0
 62
     0
 10
85.7321
 20
24.0661
 30
0.0
 11
99.5825
 21
24.0661
 31
0.0
  0
LINE
  8
0
 62
     0
 10
99.5825
 20
24.0661
 30
0.0
 11
99.5825
 21
25.0651
 31
0.0
  0
LINE
  8
0
 62
     0
 10
99.5825
 20
25.0651
 30
0.0
 11
100.382
 21
25.0651
 31
0.0
  0
LINE
  8
0
 62
     0
 10
100.382
 20
25.0651
 30
0.0
 11
100.382
 21
28.0155
 31
0.0
  0
LINE
  8
0
 62
     0
 10
100.382
 20
28.0155
 30
0.0
 11
99.5825
 21
28.0155
 31
0.0
  0
LINE
  8
0
 62
     0
 10
99.5825
 20
28.0155
 30
0.0
 11
99.5825
 21
33.9659
 31
0.0
  0
LINE
  8
0
 62
     0
 10
99.5825
 20
33.9659
 30
0.0
 11
100.382
 21
33.9659
 31
0.0
  0
LINE
  8
0
 62
     0
 10
100.382
 20
33.9659
 30
0.0
 11
100.382
 21
36.9164
 31
0.0
  0
LINE
  8
0
 62
     0
 10
100.382
 20
36.9164
 30
0.0
 11
99.5825
 21
36.9164
 31
0.0
  0
LINE
  8
0
 62
     0
 10
99.5825
 20
36.9164
 30
0.0
 11
99.5825
 21
37.9155
 31
0.0
  0
LINE
  8
0
 62
     0
 10
99.5825
 20
37.9155
 30
0.0
 11
85.7321
 21
37.9155
 31
0.0
  0
LINE
  8
0
 62
     0
 10
66.6821
 20
37.9155
 30
0.0
 11
66.6821
 21
36.9164
 31
0.0
  0
LINE
  8
0
 62
     0
 10
66.6821
 20
36.9164
 30
0.0
 11
65.8827
 21
36.9164
 31
0.0
  0
LINE
  8
0
 62
     0
 10
65.8827
 20
36.9164
 30
0.0
 11
65.8827
 21
33.9659
 31
0.0
  0
LINE
  8
0
 62
     0
 10
65.8827
 20
33.9659
 30
0.0
 11
66.6821
 21
33.9659
 31
0.0
  0
LINE
  8
0
 62
     0
 10
66.6821
 20
33.9659
 30
0.0
 11
66.6821
 21
28.0155
 31
0.0
  0
LINE
  8
0
 62
     0
 10
66.6821
 20
28.0155
 30
0.0
 11
65.8827
 21
28.0155
 31
0.0
  0
LINE
  8
0
 62
     0
 10
65.8827
 20
28.0155
 30
0.0
 11
65.8827
 21
25.0651
 31
0.0
  0
LINE
  8
0
 62
     0
 10
65.8827
 20
25.0651
 30
0.0
 11
66.6821
 21
25.0651
 31
0.0
  0
LINE
  8
0
 62
     0
 10
66.6821
 20
25.0651
 30
0.0
 11
66.6821
 21
24.0661
 31
0.0
  0
LINE
  8
0
 62
     0
 10
66.6821
 20
24.0661
 30
0.0
 11
80.5325
 21
24.0661
 31
0.0
  0
LINE
  8
0
 62
     0
 10
80.5325
 20
24.0661
 30
0.0
 11
80.5325
 21
25.0651
 31
0.0
  0
LINE
  8
0
 62
     0
 10
80.5325
 20
25.0651
 30
0.0
 11
81.3319
 21
25.0651
 31
0.0
  0
LINE
  8
0
 62
     0
 10
81.3319
 20
25.0651
 30
0.0
 11
81.3319
 21
28.0155
 31
0.0
  0
LINE
  8
0
 62
     0
 10
81.3319
 20
28.0155
 30
0.0
 11
80.5325
 21
28.0155
 31
0.0
  0
LINE
  8
0
 62
     0
 10
80.5325
 20
28.0155
 30
0.0
 11
80.5325
 21
33.9659
 31
0.0
  0
LINE
  8
0
 62
     0
 10
80.5325
 20
33.9659
 30
0.0
 11
81.3319
 21
33.9659
 31
0.0
  0
LINE
  8
0
 62
     0
 10
81.3319
 20
33.9659
 30
0.0
 11
81.3319
 21
36.9164
 31
0.0
  0
LINE
  8
0
 62
     0
 10
81.3319
 20
36.9164
 30
0.0
 11
80.5325
 21
36.9164
 31
0.0
  0
LINE
  8
0
 62
     0
 10
80.5325
 20
36.9164
 30
0.0
 11
80.5325
 21
37.9155
 31
0.0
  0
LINE
  8
0
 62
     0
 10
80.5325
 20
37.9155
 30
0.0
 11
66.6821
 21
37.9155
 31
0.0
  0
LINE
  8
0
 62
     0
 10
47.6321
 20
37.9155
 30
0.0
 11
47.6321
 21
36.9164
 31
0.0
  0
LINE
  8
0
 62
     0
 10
47.6321
 20
36.9164
 30
0.0
 11
46.8327
 21
36.9164
 31
0.0
  0
LINE
  8
0
 62
     0
 10
46.8327
 20
36.9164
 30
0.0
 11
46.8327
 21
33.9659
 31
0.0
  0
LINE
  8
0
 62
     0
 10
46.8327
 20
33.9659
 30
0.0
 11
47.6321
 21
33.9659
 31
0.0
  0
LINE
  8
0
 62
     0
 10
47.6321
 20
33.9659
 30
0.0
 11
47.6321
 21
28.0155
 31
0.0
  0
LINE
  8
0
 62
     0
 10
47.6321
 20
28.0155
 30
0.0
 11
46.8327
 21
28.0155
 31
0.0
  0
LINE
  8
0
 62
     0
 10
46.8327
 20
28.0155
 30
0.0
 11
46.8327
 21
25.0651
 31
0.0
  0
LINE
  8
0
 62
     0
 10
46.8327
 20
25.0651
 30
0.0
 11
47.6321
 21
25.0651
 31
0.0
  0
LINE
  8
0
 62
     0
 10
47.6321
 20
25.0651
 30
0.0
 11
47.6321
 21
24.0661
 31
0.0
  0
LINE
  8
0
 62
     0
 10
47.6321
 20
24.0661
 30
0.0
 11
61.4825
 21
24.0661
 31
0.0
  0
LINE
  8
0
 62
     0
 10
61.4825
 20
24.0661
 30
0.0
 11
61.4825
 21
25.0651
 31
0.0
  0
LINE
  8
0
 62
     0
 10
61.4825
 20
25.0651
 30
0.0
 11
62.2819
 21
25.0651
 31
0.0
  0
LINE
  8
0
 62
     0
 10
62.2819
 20
25.0651
 30
0.0
 11
62.2819
 21
28.0155
 31
0.0
  0
LINE
  8
0
 62
     0
 10
62.2819
 20
28.0155
 30
0.0
 11
61.4825
 21
28.0155
 31
0.0
  0
LINE
  8
0
 62
     0
 10
61.4825
 20
28.0155
 30
0.0
 11
61.4825
 21
33.9659
 31
0.0
  0
LINE
  8
0
 62
     0
 10
61.4825
 20
33.9659
 30
0.0
 11
62.2819
 21
33.9659
 31
0.0
  0
LINE
  8
0
 62
     0
 10
62.2819
 20
33.9659
 30
0.0
 11
62.2819
 21
36.9164
 31
0.0
  0
LINE
  8
0
 62
     0
 10
62.2819
 20
36.9164
 30
0.0
 11
61.4825
 21
36.9164
 31
0.0
  0
LINE
  8
0
 62
     0
 10
61.4825
 20
36.9164
 30
0.0
 11
61.4825
 21
37.9155
 31
0.0
  0
LINE
  8
0
 62
     0
 10
61.4825
 20
37.9155
 30
0.0
 11
47.6321
 21
37.9155
 31
0.0
  0
LINE
  8
0
 62
     0
 10
259.563
 20
56.9655
 30
0.0
 11
259.563
 21
55.9664
 31
0.0
  0
LINE
  8
0
 62
     0
 10
259.563
 20
55.9664
 30
0.0
 11
258.764
 21
55.9664
 31
0.0
  0
LINE
  8
0
 62
     0
 10
258.764
 20
55.9664
 30
0.0
 11
258.764
 21
53.0158
 31
0.0
  0
LINE
  8
0
 62
     0
 10
258.764
 20
53.0158
 30
0.0
 11
259.563
 21
53.0158
 31
0.0
  0
LINE
  8
0
 62
     0
 10
259.563
 20
53.0158
 30
0.0
 11
259.563
 21
52.2661
 31
0.0
  0
LINE
  8
0
 62
     0
 10
259.563
 20
52.2661
 30
0.0
 11
257.889
 21
52.2661
 31
0.0
  0
LINE
  8
0
 62
     0
 10
257.889
 20
52.2661
 30
0.0
 11
257.889
 21
55.4951
 31
0.0
  0
LINE
  8
0
 62
     0
 10
257.889
 20
55.4951
 30
0.0
 11
251.288
 21
55.4951
 31
0.0
  0
LINE
  8
0
 62
     0
 10
251.288
 20
55.4951
 30
0.0
 11
251.288
 21
52.2661
 31
0.0
  0
LINE
  8
0
 62
     0
 10
251.288
 20
52.2661
 30
0.0
 11
250.464
 21
52.2661
 31
0.0
  0
LINE
  8
0
 62
     0
 10
250.464
 20
52.2661
 30
0.0
 11
250.464
 21
49.6164
 31
0.0
  0
LINE
  8
0
 62
     0
 10
250.464
 20
49.6164
 30
0.0
 11
251.288
 21
49.6164
 31
0.0
  0
LINE
  8
0
 62
     0
 10
251.288
 20
49.6164
 30
0.0
 11
251.288
 21
43.3462
 31
0.0
  0
LINE
  8
0
 62
     0
 10
251.288
 20
43.3462
 30
0.0
 11
253.013
 21
43.3462
 31
0.0
  0
LINE
  8
0
 62
     0
 10
253.013
 20
43.3462
 30
0.0
 11
253.013
 21
42.146
 31
0.0
  0
LINE
  8
0
 62
     0
 10
253.013
 20
42.146
 30
0.0
 11
256.162
 21
42.146
 31
0.0
  0
LINE
  8
0
 62
     0
 10
256.162
 20
42.146
 30
0.0
 11
256.162
 21
43.3462
 31
0.0
  0
LINE
  8
0
 62
     0
 10
256.162
 20
43.3462
 30
0.0
 11
257.889
 21
43.3462
 31
0.0
  0
LINE
  8
0
 62
     0
 10
257.889
 20
43.3462
 30
0.0
 11
257.889
 21
47.8151
 31
0.0
  0
LINE
  8
0
 62
     0
 10
257.889
 20
47.8151
 30
0.0
 11
259.563
 21
47.8151
 31
0.0
  0
LINE
  8
0
 62
     0
 10
259.563
 20
47.8151
 30
0.0
 11
259.563
 21
47.0655
 31
0.0
  0
LINE
  8
0
 62
     0
 10
259.563
 20
47.0655
 30
0.0
 11
258.764
 21
47.0655
 31
0.0
  0
LINE
  8
0
 62
     0
 10
258.764
 20
47.0655
 30
0.0
 11
258.764
 21
44.1152
 31
0.0
  0
LINE
  8
0
 62
     0
 10
258.764
 20
44.1152
 30
0.0
 11
259.563
 21
44.1152
 31
0.0
  0
LINE
  8
0
 62
     0
 10
259.563
 20
44.1152
 30
0.0
 11
259.563
 21
43.1161
 31
0.0
  0
LINE
  8
0
 62
     0
 10
259.563
 20
43.1161
 30
0.0
 11
273.414
 21
43.1161
 31
0.0
  0
LINE
  8
0
 62
     0
 10
273.414
 20
43.1161
 30
0.0
 11
273.414
 21
44.1152
 31
0.0
  0
LINE
  8
0
 62
     0
 10
273.414
 20
44.1152
 30
0.0
 11
274.213
 21
44.1152
 31
0.0
  0
LINE
  8
0
 62
     0
 10
274.213
 20
44.1152
 30
0.0
 11
274.213
 21
47.0655
 31
0.0
  0
LINE
  8
0
 62
     0
 10
274.213
 20
47.0655
 30
0.0
 11
273.414
 21
47.0655
 31
0.0
  0
LINE
  8
0
 62
     0
 10
273.414
 20
47.0655
 30
0.0
 11
273.414
 21
47.8151
 31
0.0
  0
LINE
  8
0
 62
     0
 10
273.414
 20
47.8151
 30
0.0
 11
275.088
 21
47.8151
 31
0.0
  0
LINE
  8
0
 62
     0
 10
275.088
 20
47.8151
 30
0.0
 11
275.088
 21
43.3462
 31
0.0
  0
LINE
  8
0
 62
     0
 10
275.088
 20
43.3462
 30
0.0
 11
276.813
 21
43.3462
 31
0.0
  0
LINE
  8
0
 62
     0
 10
276.813
 20
43.3462
 30
0.0
 11
276.813
 21
42.146
 31
0.0
  0
LINE
  8
0
 62
     0
 10
276.813
 20
42.146
 30
0.0
 11
279.964
 21
42.146
 31
0.0
  0
LINE
  8
0
 62
     0
 10
279.964
 20
42.146
 30
0.0
 11
279.964
 21
43.3462
 31
0.0
  0
LINE
  8
0
 62
     0
 10
279.964
 20
43.3462
 30
0.0
 11
281.689
 21
43.3462
 31
0.0
  0
LINE
  8
0
 62
     0
 10
281.689
 20
43.3462
 30
0.0
 11
281.689
 21
49.6164
 31
0.0
  0
LINE
  8
0
 62
     0
 10
281.689
 20
49.6164
 30
0.0
 11
282.513
 21
49.6164
 31
0.0
  0
LINE
  8
0
 62
     0
 10
282.513
 20
49.6164
 30
0.0
 11
282.513
 21
52.2661
 31
0.0
  0
LINE
  8
0
 62
     0
 10
282.513
 20
52.2661
 30
0.0
 11
281.689
 21
52.2661
 31
0.0
  0
LINE
  8
0
 62
     0
 10
281.689
 20
52.2661
 30
0.0
 11
281.689
 21
55.4951
 31
0.0
  0
LINE
  8
0
 62
     0
 10
281.689
 20
55.4951
 30
0.0
 11
275.088
 21
55.4951
 31
0.0
  0
LINE
  8
0
 62
     0
 10
275.088
 20
55.4951
 30
0.0
 11
275.088
 21
52.2661
 31
0.0
  0
LINE
  8
0
 62
     0
 10
275.088
 20
52.2661
 30
0.0
 11
273.414
 21
52.2661
 31
0.0
  0
LINE
  8
0
 62
     0
 10
273.414
 20
52.2661
 30
0.0
 11
273.414
 21
53.0158
 31
0.0
  0
LINE
  8
0
 62
     0
 10
273.414
 20
53.0158
 30
0.0
 11
274.213
 21
53.0158
 31
0.0
  0
LINE
  8
0
 62
     0
 10
274.213
 20
53.0158
 30
0.0
 11
274.213
 21
55.9664
 31
0.0
  0
LINE
  8
0
 62
     0
 10
274.213
 20
55.9664
 30
0.0
 11
273.414
 21
55.9664
 31
0.0
  0
LINE
  8
0
 62
     0
 10
273.414
 20
55.9664
 30
0.0
 11
273.414
 21
56.9655
 31
0.0
  0
LINE
  8
0
 62
     0
 10
273.414
 20
56.9655
 30
0.0
 11
259.563
 21
56.9655
 31
0.0
  0
LINE
  8
0
 62
     0
 10
228.607
 20
56.9655
 30
0.0
 11
228.607
 21
55.9664
 31
0.0
  0
LINE
  8
0
 62
     0
 10
228.607
 20
55.9664
 30
0.0
 11
227.808
 21
55.9664
 31
0.0
  0
LINE
  8
0
 62
     0
 10
227.808
 20
55.9664
 30
0.0
 11
227.808
 21
53.0158
 31
0.0
  0
LINE
  8
0
 62
     0
 10
227.808
 20
53.0158
 30
0.0
 11
228.607
 21
53.0158
 31
0.0
  0
LINE
  8
0
 62
     0
 10
228.607
 20
53.0158
 30
0.0
 11
228.607
 21
47.0655
 31
0.0
  0
LINE
  8
0
 62
     0
 10
228.607
 20
47.0655
 30
0.0
 11
227.808
 21
47.0655
 31
0.0
  0
LINE
  8
0
 62
     0
 10
227.808
 20
47.0655
 30
0.0
 11
227.808
 21
44.1152
 31
0.0
  0
LINE
  8
0
 62
     0
 10
227.808
 20
44.1152
 30
0.0
 11
228.607
 21
44.1152
 31
0.0
  0
LINE
  8
0
 62
     0
 10
228.607
 20
44.1152
 30
0.0
 11
228.607
 21
43.1161
 31
0.0
  0
LINE
  8
0
 62
     0
 10
228.607
 20
43.1161
 30
0.0
 11
242.457
 21
43.1161
 31
0.0
  0
LINE
  8
0
 62
     0
 10
242.457
 20
43.1161
 30
0.0
 11
242.457
 21
44.1152
 31
0.0
  0
LINE
  8
0
 62
     0
 10
242.457
 20
44.1152
 30
0.0
 11
243.257
 21
44.1152
 31
0.0
  0
LINE
  8
0
 62
     0
 10
243.257
 20
44.1152
 30
0.0
 11
243.257
 21
47.0655
 31
0.0
  0
LINE
  8
0
 62
     0
 10
243.257
 20
47.0655
 30
0.0
 11
242.457
 21
47.0655
 31
0.0
  0
LINE
  8
0
 62
     0
 10
242.457
 20
47.0655
 30
0.0
 11
242.457
 21
53.0158
 31
0.0
  0
LINE
  8
0
 62
     0
 10
242.457
 20
53.0158
 30
0.0
 11
243.257
 21
53.0158
 31
0.0
  0
LINE
  8
0
 62
     0
 10
243.257
 20
53.0158
 30
0.0
 11
243.257
 21
55.9664
 31
0.0
  0
LINE
  8
0
 62
     0
 10
243.257
 20
55.9664
 30
0.0
 11
242.457
 21
55.9664
 31
0.0
  0
LINE
  8
0
 62
     0
 10
242.457
 20
55.9664
 30
0.0
 11
242.457
 21
56.9655
 31
0.0
  0
LINE
  8
0
 62
     0
 10
242.457
 20
56.9655
 30
0.0
 11
228.607
 21
56.9655
 31
0.0
  0
LINE
  8
0
 62
     0
 10
209.557
 20
56.9655
 30
0.0
 11
209.557
 21
55.9664
 31
0.0
  0
LINE
  8
0
 62
     0
 10
209.557
 20
55.9664
 30
0.0
 11
208.758
 21
55.9664
 31
0.0
  0
LINE
  8
0
 62
     0
 10
208.758
 20
55.9664
 30
0.0
 11
208.758
 21
53.0158
 31
0.0
  0
LINE
  8
0
 62
     0
 10
208.758
 20
53.0158
 30
0.0
 11
209.557
 21
53.0158
 31
0.0
  0
LINE
  8
0
 62
     0
 10
209.557
 20
53.0158
 30
0.0
 11
209.557
 21
47.0655
 31
0.0
  0
LINE
  8
0
 62
     0
 10
209.557
 20
47.0655
 30
0.0
 11
208.758
 21
47.0655
 31
0.0
  0
LINE
  8
0
 62
     0
 10
208.758
 20
47.0655
 30
0.0
 11
208.758
 21
44.1152
 31
0.0
  0
LINE
  8
0
 62
     0
 10
208.758
 20
44.1152
 30
0.0
 11
209.557
 21
44.1152
 31
0.0
  0
LINE
  8
0
 62
     0
 10
209.557
 20
44.1152
 30
0.0
 11
209.557
 21
43.1161
 31
0.0
  0
LINE
  8
0
 62
     0
 10
209.557
 20
43.1161
 30
0.0
 11
223.407
 21
43.1161
 31
0.0
  0
LINE
  8
0
 62
     0
 10
223.407
 20
43.1161
 30
0.0
 11
223.407
 21
44.1152
 31
0.0
  0
LINE
  8
0
 62
     0
 10
223.407
 20
44.1152
 30
0.0
 11
224.207
 21
44.1152
 31
0.0
  0
LINE
  8
0
 62
     0
 10
224.207
 20
44.1152
 30
0.0
 11
224.207
 21
47.0655
 31
0.0
  0
LINE
  8
0
 62
     0
 10
224.207
 20
47.0655
 30
0.0
 11
223.407
 21
47.0655
 31
0.0
  0
LINE
  8
0
 62
     0
 10
223.407
 20
47.0655
 30
0.0
 11
223.407
 21
53.0158
 31
0.0
  0
LINE
  8
0
 62
     0
 10
223.407
 20
53.0158
 30
0.0
 11
224.207
 21
53.0158
 31
0.0
  0
LINE
  8
0
 62
     0
 10
224.207
 20
53.0158
 30
0.0
 11
224.207
 21
55.9664
 31
0.0
  0
LINE
  8
0
 62
     0
 10
224.207
 20
55.9664
 30
0.0
 11
223.407
 21
55.9664
 31
0.0
  0
LINE
  8
0
 62
     0
 10
223.407
 20
55.9664
 30
0.0
 11
223.407
 21
56.9655
 31
0.0
  0
LINE
  8
0
 62
     0
 10
223.407
 20
56.9655
 30
0.0
 11
209.557
 21
56.9655
 31
0.0
  0
LINE
  8
0
 62
     0
 10
190.507
 20
56.9655
 30
0.0
 11
190.507
 21
55.9664
 31
0.0
  0
LINE
  8
0
 62
     0
 10
190.507
 20
55.9664
 30
0.0
 11
189.708
 21
55.9664
 31
0.0
  0
LINE
  8
0
 62
     0
 10
189.708
 20
55.9664
 30
0.0
 11
189.708
 21
53.0158
 31
0.0
  0
LINE
  8
0
 62
     0
 10
189.708
 20
53.0158
 30
0.0
 11
190.507
 21
53.0158
 31
0.0
  0
LINE
  8
0
 62
     0
 10
190.507
 20
53.0158
 30
0.0
 11
190.507
 21
47.0655
 31
0.0
  0
LINE
  8
0
 62
     0
 10
190.507
 20
47.0655
 30
0.0
 11
189.708
 21
47.0655
 31
0.0
  0
LINE
  8
0
 62
     0
 10
189.708
 20
47.0655
 30
0.0
 11
189.708
 21
44.1152
 31
0.0
  0
LINE
  8
0
 62
     0
 10
189.708
 20
44.1152
 30
0.0
 11
190.507
 21
44.1152
 31
0.0
  0
LINE
  8
0
 62
     0
 10
190.507
 20
44.1152
 30
0.0
 11
190.507
 21
43.1161
 31
0.0
  0
LINE
  8
0
 62
     0
 10
190.507
 20
43.1161
 30
0.0
 11
204.357
 21
43.1161
 31
0.0
  0
LINE
  8
0
 62
     0
 10
204.357
 20
43.1161
 30
0.0
 11
204.357
 21
44.1152
 31
0.0
  0
LINE
  8
0
 62
     0
 10
204.357
 20
44.1152
 30
0.0
 11
205.157
 21
44.1152
 31
0.0
  0
LINE
  8
0
 62
     0
 10
205.157
 20
44.1152
 30
0.0
 11
205.157
 21
47.0655
 31
0.0
  0
LINE
  8
0
 62
     0
 10
205.157
 20
47.0655
 30
0.0
 11
204.357
 21
47.0655
 31
0.0
  0
LINE
  8
0
 62
     0
 10
204.357
 20
47.0655
 30
0.0
 11
204.357
 21
53.0158
 31
0.0
  0
LINE
  8
0
 62
     0
 10
204.357
 20
53.0158
 30
0.0
 11
205.157
 21
53.0158
 31
0.0
  0
LINE
  8
0
 62
     0
 10
205.157
 20
53.0158
 30
0.0
 11
205.157
 21
55.9664
 31
0.0
  0
LINE
  8
0
 62
     0
 10
205.157
 20
55.9664
 30
0.0
 11
204.357
 21
55.9664
 31
0.0
  0
LINE
  8
0
 62
     0
 10
204.357
 20
55.9664
 30
0.0
 11
204.357
 21
56.9655
 31
0.0
  0
LINE
  8
0
 62
     0
 10
204.357
 20
56.9655
 30
0.0
 11
190.507
 21
56.9655
 31
0.0
  0
LINE
  8
0
 62
     0
 10
171.457
 20
56.9655
 30
0.0
 11
171.457
 21
55.9664
 31
0.0
  0
LINE
  8
0
 62
     0
 10
171.457
 20
55.9664
 30
0.0
 11
170.658
 21
55.9664
 31
0.0
  0
LINE
  8
0
 62
     0
 10
170.658
 20
55.9664
 30
0.0
 11
170.658
 21
53.0158
 31
0.0
  0
LINE
  8
0
 62
     0
 10
170.658
 20
53.0158
 30
0.0
 11
171.457
 21
53.0158
 31
0.0
  0
LINE
  8
0
 62
     0
 10
171.457
 20
53.0158
 30
0.0
 11
171.457
 21
47.0655
 31
0.0
  0
LINE
  8
0
 62
     0
 10
171.457
 20
47.0655
 30
0.0
 11
170.658
 21
47.0655
 31
0.0
  0
LINE
  8
0
 62
     0
 10
170.658
 20
47.0655
 30
0.0
 11
170.658
 21
44.1152
 31
0.0
  0
LINE
  8
0
 62
     0
 10
170.658
 20
44.1152
 30
0.0
 11
171.457
 21
44.1152
 31
0.0
  0
LINE
  8
0
 62
     0
 10
171.457
 20
44.1152
 30
0.0
 11
171.457
 21
43.1161
 31
0.0
  0
LINE
  8
0
 62
     0
 10
171.457
 20
43.1161
 30
0.0
 11
185.307
 21
43.1161
 31
0.0
  0
LINE
  8
0
 62
     0
 10
185.307
 20
43.1161
 30
0.0
 11
185.307
 21
44.1152
 31
0.0
  0
LINE
  8
0
 62
     0
 10
185.307
 20
44.1152
 30
0.0
 11
186.107
 21
44.1152
 31
0.0
  0
LINE
  8
0
 62
     0
 10
186.107
 20
44.1152
 30
0.0
 11
186.107
 21
47.0655
 31
0.0
  0
LINE
  8
0
 62
     0
 10
186.107
 20
47.0655
 30
0.0
 11
185.307
 21
47.0655
 31
0.0
  0
LINE
  8
0
 62
     0
 10
185.307
 20
47.0655
 30
0.0
 11
185.307
 21
53.0158
 31
0.0
  0
LINE
  8
0
 62
     0
 10
185.307
 20
53.0158
 30
0.0
 11
186.107
 21
53.0158
 31
0.0
  0
LINE
  8
0
 62
     0
 10
186.107
 20
53.0158
 30
0.0
 11
186.107
 21
55.9664
 31
0.0
  0
LINE
  8
0
 62
     0
 10
186.107
 20
55.9664
 30
0.0
 11
185.307
 21
55.9664
 31
0.0
  0
LINE
  8
0
 62
     0
 10
185.307
 20
55.9664
 30
0.0
 11
185.307
 21
56.9655
 31
0.0
  0
LINE
  8
0
 62
     0
 10
185.307
 20
56.9655
 30
0.0
 11
171.457
 21
56.9655
 31
0.0
  0
LINE
  8
0
 62
     0
 10
152.407
 20
56.9655
 30
0.0
 11
152.407
 21
55.9664
 31
0.0
  0
LINE
  8
0
 62
     0
 10
152.407
 20
55.9664
 30
0.0
 11
151.608
 21
55.9664
 31
0.0
  0
LINE
  8
0
 62
     0
 10
151.608
 20
55.9664
 30
0.0
 11
151.608
 21
53.0158
 31
0.0
  0
LINE
  8
0
 62
     0
 10
151.608
 20
53.0158
 30
0.0
 11
152.407
 21
53.0158
 31
0.0
  0
LINE
  8
0
 62
     0
 10
152.407
 20
53.0158
 30
0.0
 11
152.407
 21
47.0655
 31
0.0
  0
LINE
  8
0
 62
     0
 10
152.407
 20
47.0655
 30
0.0
 11
151.608
 21
47.0655
 31
0.0
  0
LINE
  8
0
 62
     0
 10
151.608
 20
47.0655
 30
0.0
 11
151.608
 21
44.1152
 31
0.0
  0
LINE
  8
0
 62
     0
 10
151.608
 20
44.1152
 30
0.0
 11
152.407
 21
44.1152
 31
0.0
  0
LINE
  8
0
 62
     0
 10
152.407
 20
44.1152
 30
0.0
 11
152.407
 21
43.1161
 31
0.0
  0
LINE
  8
0
 62
     0
 10
152.407
 20
43.1161
 30
0.0
 11
166.257
 21
43.1161
 31
0.0
  0
LINE
  8
0
 62
     0
 10
166.257
 20
43.1161
 30
0.0
 11
166.257
 21
44.1152
 31
0.0
  0
LINE
  8
0
 62
     0
 10
166.257
 20
44.1152
 30
0.0
 11
167.057
 21
44.1152
 31
0.0
  0
LINE
  8
0
 62
     0
 10
167.057
 20
44.1152
 30
0.0
 11
167.057
 21
47.0655
 31
0.0
  0
LINE
  8
0
 62
     0
 10
167.057
 20
47.0655
 30
0.0
 11
166.257
 21
47.0655
 31
0.0
  0
LINE
  8
0
 62
     0
 10
166.257
 20
47.0655
 30
0.0
 11
166.257
 21
53.0158
 31
0.0
  0
LINE
  8
0
 62
     0
 10
166.257
 20
53.0158
 30
0.0
 11
167.057
 21
53.0158
 31
0.0
  0
LINE
  8
0
 62
     0
 10
167.057
 20
53.0158
 30
0.0
 11
167.057
 21
55.9664
 31
0.0
  0
LINE
  8
0
 62
     0
 10
167.057
 20
55.9664
 30
0.0
 11
166.257
 21
55.9664
 31
0.0
  0
LINE
  8
0
 62
     0
 10
166.257
 20
55.9664
 30
0.0
 11
166.257
 21
56.9655
 31
0.0
  0
LINE
  8
0
 62
     0
 10
166.257
 20
56.9655
 30
0.0
 11
152.407
 21
56.9655
 31
0.0
  0
LINE
  8
0
 62
     0
 10
133.357
 20
56.9655
 30
0.0
 11
133.357
 21
55.9664
 31
0.0
  0
LINE
  8
0
 62
     0
 10
133.357
 20
55.9664
 30
0.0
 11
132.558
 21
55.9664
 31
0.0
  0
LINE
  8
0
 62
     0
 10
132.558
 20
55.9664
 30
0.0
 11
132.558
 21
53.0158
 31
0.0
  0
LINE
  8
0
 62
     0
 10
132.558
 20
53.0158
 30
0.0
 11
133.357
 21
53.0158
 31
0.0
  0
LINE
  8
0
 62
     0
 10
133.357
 20
53.0158
 30
0.0
 11
133.357
 21
47.0655
 31
0.0
  0
LINE
  8
0
 62
     0
 10
133.357
 20
47.0655
 30
0.0
 11
132.558
 21
47.0655
 31
0.0
  0
LINE
  8
0
 62
     0
 10
132.558
 20
47.0655
 30
0.0
 11
132.558
 21
44.1152
 31
0.0
  0
LINE
  8
0
 62
     0
 10
132.558
 20
44.1152
 30
0.0
 11
133.357
 21
44.1152
 31
0.0
  0
LINE
  8
0
 62
     0
 10
133.357
 20
44.1152
 30
0.0
 11
133.357
 21
43.1161
 31
0.0
  0
LINE
  8
0
 62
     0
 10
133.357
 20
43.1161
 30
0.0
 11
147.207
 21
43.1161
 31
0.0
  0
LINE
  8
0
 62
     0
 10
147.207
 20
43.1161
 30
0.0
 11
147.207
 21
44.1152
 31
0.0
  0
LINE
  8
0
 62
     0
 10
147.207
 20
44.1152
 30
0.0
 11
148.007
 21
44.1152
 31
0.0
  0
LINE
  8
0
 62
     0
 10
148.007
 20
44.1152
 30
0.0
 11
148.007
 21
47.0655
 31
0.0
  0
LINE
  8
0
 62
     0
 10
148.007
 20
47.0655
 30
0.0
 11
147.207
 21
47.0655
 31
0.0
  0
LINE
  8
0
 62
     0
 10
147.207
 20
47.0655
 30
0.0
 11
147.207
 21
53.0158
 31
0.0
  0
LINE
  8
0
 62
     0
 10
147.207
 20
53.0158
 30
0.0
 11
148.007
 21
53.0158
 31
0.0
  0
LINE
  8
0
 62
     0
 10
148.007
 20
53.0158
 30
0.0
 11
148.007
 21
55.9664
 31
0.0
  0
LINE
  8
0
 62
     0
 10
148.007
 20
55.9664
 30
0.0
 11
147.207
 21
55.9664
 31
0.0
  0
LINE
  8
0
 62
     0
 10
147.207
 20
55.9664
 30
0.0
 11
147.207
 21
56.9655
 31
0.0
  0
LINE
  8
0
 62
     0
 10
147.207
 20
56.9655
 30
0.0
 11
133.357
 21
56.9655
 31
0.0
  0
LINE
  8
0
 62
     0
 10
114.307
 20
56.9655
 30
0.0
 11
114.307
 21
55.9664
 31
0.0
  0
LINE
  8
0
 62
     0
 10
114.307
 20
55.9664
 30
0.0
 11
113.508
 21
55.9664
 31
0.0
  0
LINE
  8
0
 62
     0
 10
113.508
 20
55.9664
 30
0.0
 11
113.508
 21
53.0158
 31
0.0
  0
LINE
  8
0
 62
     0
 10
113.508
 20
53.0158
 30
0.0
 11
114.307
 21
53.0158
 31
0.0
  0
LINE
  8
0
 62
     0
 10
114.307
 20
53.0158
 30
0.0
 11
114.307
 21
47.0655
 31
0.0
  0
LINE
  8
0
 62
     0
 10
114.307
 20
47.0655
 30
0.0
 11
113.508
 21
47.0655
 31
0.0
  0
LINE
  8
0
 62
     0
 10
113.508
 20
47.0655
 30
0.0
 11
113.508
 21
44.1152
 31
0.0
  0
LINE
  8
0
 62
     0
 10
113.508
 20
44.1152
 30
0.0
 11
114.307
 21
44.1152
 31
0.0
  0
LINE
  8
0
 62
     0
 10
114.307
 20
44.1152
 30
0.0
 11
114.307
 21
43.1161
 31
0.0
  0
LINE
  8
0
 62
     0
 10
114.307
 20
43.1161
 30
0.0
 11
128.157
 21
43.1161
 31
0.0
  0
LINE
  8
0
 62
     0
 10
128.157
 20
43.1161
 30
0.0
 11
128.157
 21
44.1152
 31
0.0
  0
LINE
  8
0
 62
     0
 10
128.157
 20
44.1152
 30
0.0
 11
128.957
 21
44.1152
 31
0.0
  0
LINE
  8
0
 62
     0
 10
128.957
 20
44.1152
 30
0.0
 11
128.957
 21
47.0655
 31
0.0
  0
LINE
  8
0
 62
     0
 10
128.957
 20
47.0655
 30
0.0
 11
128.157
 21
47.0655
 31
0.0
  0
LINE
  8
0
 62
     0
 10
128.157
 20
47.0655
 30
0.0
 11
128.157
 21
53.0158
 31
0.0
  0
LINE
  8
0
 62
     0
 10
128.157
 20
53.0158
 30
0.0
 11
128.957
 21
53.0158
 31
0.0
  0
LINE
  8
0
 62
     0
 10
128.957
 20
53.0158
 30
0.0
 11
128.957
 21
55.9664
 31
0.0
  0
LINE
  8
0
 62
     0
 10
128.957
 20
55.9664
 30
0.0
 11
128.157
 21
55.9664
 31
0.0
  0
LINE
  8
0
 62
     0
 10
128.157
 20
55.9664
 30
0.0
 11
128.157
 21
56.9655
 31
0.0
  0
LINE
  8
0
 62
     0
 10
128.157
 20
56.9655
 30
0.0
 11
114.307
 21
56.9655
 31
0.0
  0
LINE
  8
0
 62
     0
 10
95.2571
 20
56.9655
 30
0.0
 11
95.2571
 21
55.9664
 31
0.0
  0
LINE
  8
0
 62
     0
 10
95.2571
 20
55.9664
 30
0.0
 11
94.4577
 21
55.9664
 31
0.0
  0
LINE
  8
0
 62
     0
 10
94.4577
 20
55.9664
 30
0.0
 11
94.4577
 21
53.0158
 31
0.0
  0
LINE
  8
0
 62
     0
 10
94.4577
 20
53.0158
 30
0.0
 11
95.2571
 21
53.0158
 31
0.0
  0
LINE
  8
0
 62
     0
 10
95.2571
 20
53.0158
 30
0.0
 11
95.2571
 21
47.0655
 31
0.0
  0
LINE
  8
0
 62
     0
 10
95.2571
 20
47.0655
 30
0.0
 11
94.4577
 21
47.0655
 31
0.0
  0
LINE
  8
0
 62
     0
 10
94.4577
 20
47.0655
 30
0.0
 11
94.4577
 21
44.1152
 31
0.0
  0
LINE
  8
0
 62
     0
 10
94.4577
 20
44.1152
 30
0.0
 11
95.2571
 21
44.1152
 31
0.0
  0
LINE
  8
0
 62
     0
 10
95.2571
 20
44.1152
 30
0.0
 11
95.2571
 21
43.1161
 31
0.0
  0
LINE
  8
0
 62
     0
 10
95.2571
 20
43.1161
 30
0.0
 11
109.107
 21
43.1161
 31
0.0
  0
LINE
  8
0
 62
     0
 10
109.107
 20
43.1161
 30
0.0
 11
109.107
 21
44.1152
 31
0.0
  0
LINE
  8
0
 62
     0
 10
109.107
 20
44.1152
 30
0.0
 11
109.907
 21
44.1152
 31
0.0
  0
LINE
  8
0
 62
     0
 10
109.907
 20
44.1152
 30
0.0
 11
109.907
 21
47.0655
 31
0.0
  0
LINE
  8
0
 62
     0
 10
109.907
 20
47.0655
 30
0.0
 11
109.107
 21
47.0655
 31
0.0
  0
LINE
  8
0
 62
     0
 10
109.107
 20
47.0655
 30
0.0
 11
109.107
 21
53.0158
 31
0.0
  0
LINE
  8
0
 62
     0
 10
109.107
 20
53.0158
 30
0.0
 11
109.907
 21
53.0158
 31
0.0
  0
LINE
  8
0
 62
     0
 10
109.907
 20
53.0158
 30
0.0
 11
109.907
 21
55.9664
 31
0.0
  0
LINE
  8
0
 62
     0
 10
109.907
 20
55.9664
 30
0.0
 11
109.107
 21
55.9664
 31
0.0
  0
LINE
  8
0
 62
     0
 10
109.107
 20
55.9664
 30
0.0
 11
109.107
 21
56.9655
 31
0.0
  0
LINE
  8
0
 62
     0
 10
109.107
 20
56.9655
 30
0.0
 11
95.2571
 21
56.9655
 31
0.0
  0
LINE
  8
0
 62
     0
 10
76.2071
 20
56.9655
 30
0.0
 11
76.2071
 21
55.9664
 31
0.0
  0
LINE
  8
0
 62
     0
 10
76.2071
 20
55.9664
 30
0.0
 11
75.4077
 21
55.9664
 31
0.0
  0
LINE
  8
0
 62
     0
 10
75.4077
 20
55.9664
 30
0.0
 11
75.4077
 21
53.0158
 31
0.0
  0
LINE
  8
0
 62
     0
 10
75.4077
 20
53.0158
 30
0.0
 11
76.2071
 21
53.0158
 31
0.0
  0
LINE
  8
0
 62
     0
 10
76.2071
 20
53.0158
 30
0.0
 11
76.2071
 21
47.0655
 31
0.0
  0
LINE
  8
0
 62
     0
 10
76.2071
 20
47.0655
 30
0.0
 11
75.4077
 21
47.0655
 31
0.0
  0
LINE
  8
0
 62
     0
 10
75.4077
 20
47.0655
 30
0.0
 11
75.4077
 21
44.1152
 31
0.0
  0
LINE
  8
0
 62
     0
 10
75.4077
 20
44.1152
 30
0.0
 11
76.2071
 21
44.1152
 31
0.0
  0
LINE
  8
0
 62
     0
 10
76.2071
 20
44.1152
 30
0.0
 11
76.2071
 21
43.1161
 31
0.0
  0
LINE
  8
0
 62
     0
 10
76.2071
 20
43.1161
 30
0.0
 11
90.0575
 21
43.1161
 31
0.0
  0
LINE
  8
0
 62
     0
 10
90.0575
 20
43.1161
 30
0.0
 11
90.0575
 21
44.1152
 31
0.0
  0
LINE
  8
0
 62
     0
 10
90.0575
 20
44.1152
 30
0.0
 11
90.8569
 21
44.1152
 31
0.0
  0
LINE
  8
0
 62
     0
 10
90.8569
 20
44.1152
 30
0.0
 11
90.8569
 21
47.0655
 31
0.0
  0
LINE
  8
0
 62
     0
 10
90.8569
 20
47.0655
 30
0.0
 11
90.0575
 21
47.0655
 31
0.0
  0
LINE
  8
0
 62
     0
 10
90.0575
 20
47.0655
 30
0.0
 11
90.0575
 21
53.0158
 31
0.0
  0
LINE
  8
0
 62
     0
 10
90.0575
 20
53.0158
 30
0.0
 11
90.8569
 21
53.0158
 31
0.0
  0
LINE
  8
0
 62
     0
 10
90.8569
 20
53.0158
 30
0.0
 11
90.8569
 21
55.9664
 31
0.0
  0
LINE
  8
0
 62
     0
 10
90.8569
 20
55.9664
 30
0.0
 11
90.0575
 21
55.9664
 31
0.0
  0
LINE
  8
0
 62
     0
 10
90.0575
 20
55.9664
 30
0.0
 11
90.0575
 21
56.9655
 31
0.0
  0
LINE
  8
0
 62
     0
 10
90.0575
 20
56.9655
 30
0.0
 11
76.2071
 21
56.9655
 31
0.0
  0
LINE
  8
0
 62
     0
 10
57.1571
 20
56.9655
 30
0.0
 11
57.1571
 21
55.9664
 31
0.0
  0
LINE
  8
0
 62
     0
 10
57.1571
 20
55.9664
 30
0.0
 11
56.3577
 21
55.9664
 31
0.0
  0
LINE
  8
0
 62
     0
 10
56.3577
 20
55.9664
 30
0.0
 11
56.3577
 21
53.0158
 31
0.0
  0
LINE
  8
0
 62
     0
 10
56.3577
 20
53.0158
 30
0.0
 11
57.1571
 21
53.0158
 31
0.0
  0
LINE
  8
0
 62
     0
 10
57.1571
 20
53.0158
 30
0.0
 11
57.1571
 21
47.0655
 31
0.0
  0
LINE
  8
0
 62
     0
 10
57.1571
 20
47.0655
 30
0.0
 11
56.3577
 21
47.0655
 31
0.0
  0
LINE
  8
0
 62
     0
 10
56.3577
 20
47.0655
 30
0.0
 11
56.3577
 21
44.1152
 31
0.0
  0
LINE
  8
0
 62
     0
 10
56.3577
 20
44.1152
 30
0.0
 11
57.1571
 21
44.1152
 31
0.0
  0
LINE
  8
0
 62
     0
 10
57.1571
 20
44.1152
 30
0.0
 11
57.1571
 21
43.1161
 31
0.0
  0
LINE
  8
0
 62
     0
 10
57.1571
 20
43.1161
 30
0.0
 11
71.0075
 21
43.1161
 31
0.0
  0
LINE
  8
0
 62
     0
 10
71.0075
 20
43.1161
 30
0.0
 11
71.0075
 21
44.1152
 31
0.0
  0
LINE
  8
0
 62
     0
 10
71.0075
 20
44.1152
 30
0.0
 11
71.8069
 21
44.1152
 31
0.0
  0
LINE
  8
0
 62
     0
 10
71.8069
 20
44.1152
 30
0.0
 11
71.8069
 21
47.0655
 31
0.0
  0
LINE
  8
0
 62
     0
 10
71.8069
 20
47.0655
 30
0.0
 11
71.0075
 21
47.0655
 31
0.0
  0
LINE
  8
0
 62
     0
 10
71.0075
 20
47.0655
 30
0.0
 11
71.0075
 21
53.0158
 31
0.0
  0
LINE
  8
0
 62
     0
 10
71.0075
 20
53.0158
 30
0.0
 11
71.8069
 21
53.0158
 31
0.0
  0
LINE
  8
0
 62
     0
 10
71.8069
 20
53.0158
 30
0.0
 11
71.8069
 21
55.9664
 31
0.0
  0
LINE
  8
0
 62
     0
 10
71.8069
 20
55.9664
 30
0.0
 11
71.0075
 21
55.9664
 31
0.0
  0
LINE
  8
0
 62
     0
 10
71.0075
 20
55.9664
 30
0.0
 11
71.0075
 21
56.9655
 31
0.0
  0
LINE
  8
0
 62
     0
 10
71.0075
 20
56.9655
 30
0.0
 11
57.1571
 21
56.9655
 31
0.0
  0
LINE
  8
0
 62
     0
 10
38.1071
 20
56.9655
 30
0.0
 11
38.1071
 21
55.9664
 31
0.0
  0
LINE
  8
0
 62
     0
 10
38.1071
 20
55.9664
 30
0.0
 11
37.3077
 21
55.9664
 31
0.0
  0
LINE
  8
0
 62
     0
 10
37.3077
 20
55.9664
 30
0.0
 11
37.3077
 21
53.0158
 31
0.0
  0
LINE
  8
0
 62
     0
 10
37.3077
 20
53.0158
 30
0.0
 11
38.1071
 21
53.0158
 31
0.0
  0
LINE
  8
0
 62
     0
 10
38.1071
 20
53.0158
 30
0.0
 11
38.1071
 21
47.0655
 31
0.0
  0
LINE
  8
0
 62
     0
 10
38.1071
 20
47.0655
 30
0.0
 11
37.3077
 21
47.0655
 31
0.0
  0
LINE
  8
0
 62
     0
 10
37.3077
 20
47.0655
 30
0.0
 11
37.3077
 21
44.1152
 31
0.0
  0
LINE
  8
0
 62
     0
 10
37.3077
 20
44.1152
 30
0.0
 11
38.1071
 21
44.1152
 31
0.0
  0
LINE
  8
0
 62
     0
 10
38.1071
 20
44.1152
 30
0.0
 11
38.1071
 21
43.1161
 31
0.0
  0
LINE
  8
0
 62
     0
 10
38.1071
 20
43.1161
 30
0.0
 11
51.9575
 21
43.1161
 31
0.0
  0
LINE
  8
0
 62
     0
 10
51.9575
 20
43.1161
 30
0.0
 11
51.9575
 21
44.1152
 31
0.0
  0
LINE
  8
0
 62
     0
 10
51.9575
 20
44.1152
 30
0.0
 11
52.7569
 21
44.1152
 31
0.0
  0
LINE
  8
0
 62
     0
 10
52.7569
 20
44.1152
 30
0.0
 11
52.7569
 21
47.0655
 31
0.0
  0
LINE
  8
0
 62
     0
 10
52.7569
 20
47.0655
 30
0.0
 11
51.9575
 21
47.0655
 31
0.0
  0
LINE
  8
0
 62
     0
 10
51.9575
 20
47.0655
 30
0.0
 11
51.9575
 21
53.0158
 31
0.0
  0
LINE
  8
0
 62
     0
 10
51.9575
 20
53.0158
 30
0.0
 11
52.7569
 21
53.0158
 31
0.0
  0
LINE
  8
0
 62
     0
 10
52.7569
 20
53.0158
 30
0.0
 11
52.7569
 21
55.9664
 31
0.0
  0
LINE
  8
0
 62
     0
 10
52.7569
 20
55.9664
 30
0.0
 11
51.9575
 21
55.9664
 31
0.0
  0
LINE
  8
0
 62
     0
 10
51.9575
 20
55.9664
 30
0.0
 11
51.9575
 21
56.9655
 31
0.0
  0
LINE
  8
0
 62
     0
 10
51.9575
 20
56.9655
 30
0.0
 11
38.1071
 21
56.9655
 31
0.0
  0
LINE
  8
0
 62
     0
 10
11.9131
 20
56.9655
 30
0.0
 11
11.9131
 21
55.9664
 31
0.0
  0
LINE
  8
0
 62
     0
 10
11.9131
 20
55.9664
 30
0.0
 11
11.1139
 21
55.9664
 31
0.0
  0
LINE
  8
0
 62
     0
 10
11.1139
 20
55.9664
 30
0.0
 11
11.1139
 21
53.0158
 31
0.0
  0
LINE
  8
0
 62
     0
 10
11.1139
 20
53.0158
 30
0.0
 11
11.9131
 21
53.0158
 31
0.0
  0
LINE
  8
0
 62
     0
 10
11.9131
 20
53.0158
 30
0.0
 11
11.9131
 21
47.0655
 31
0.0
  0
LINE
  8
0
 62
     0
 10
11.9131
 20
47.0655
 30
0.0
 11
11.1139
 21
47.0655
 31
0.0
  0
LINE
  8
0
 62
     0
 10
11.1139
 20
47.0655
 30
0.0
 11
11.1139
 21
44.1152
 31
0.0
  0
LINE
  8
0
 62
     0
 10
11.1139
 20
44.1152
 30
0.0
 11
11.9131
 21
44.1152
 31
0.0
  0
LINE
  8
0
 62
     0
 10
11.9131
 20
44.1152
 30
0.0
 11
11.9131
 21
43.1161
 31
0.0
  0
LINE
  8
0
 62
     0
 10
11.9131
 20
43.1161
 30
0.0
 11
25.7638
 21
43.1161
 31
0.0
  0
LINE
  8
0
 62
     0
 10
25.7638
 20
43.1161
 30
0.0
 11
25.7638
 21
44.1152
 31
0.0
  0
LINE
  8
0
 62
     0
 10
25.7638
 20
44.1152
 30
0.0
 11
26.5631
 21
44.1152
 31
0.0
  0
LINE
  8
0
 62
     0
 10
26.5631
 20
44.1152
 30
0.0
 11
26.5631
 21
47.0655
 31
0.0
  0
LINE
  8
0
 62
     0
 10
26.5631
 20
47.0655
 30
0.0
 11
25.7638
 21
47.0655
 31
0.0
  0
LINE
  8
0
 62
     0
 10
25.7638
 20
47.0655
 30
0.0
 11
25.7638
 21
53.0158
 31
0.0
  0
LINE
  8
0
 62
     0
 10
25.7638
 20
53.0158
 30
0.0
 11
26.5631
 21
53.0158
 31
0.0
  0
LINE
  8
0
 62
     0
 10
26.5631
 20
53.0158
 30
0.0
 11
26.5631
 21
55.9664
 31
0.0
  0
LINE
  8
0
 62
     0
 10
26.5631
 20
55.9664
 30
0.0
 11
25.7638
 21
55.9664
 31
0.0
  0
LINE
  8
0
 62
     0
 10
25.7638
 20
55.9664
 30
0.0
 11
25.7638
 21
56.9655
 31
0.0
  0
LINE
  8
0
 62
     0
 10
25.7638
 20
56.9655
 30
0.0
 11
11.9131
 21
56.9655
 31
0.0
  0
LINE
  8
0
 62
     0
 10
314.332
 20
76.0155
 30
0.0
 11
314.332
 21
75.0164
 31
0.0
  0
LINE
  8
0
 62
     0
 10
314.332
 20
75.0164
 30
0.0
 11
313.533
 21
75.0164
 31
0.0
  0
LINE
  8
0
 62
     0
 10
313.533
 20
75.0164
 30
0.0
 11
313.533
 21
72.0672
 31
0.0
  0
LINE
  8
0
 62
     0
 10
313.533
 20
72.0672
 30
0.0
 11
314.332
 21
72.0672
 31
0.0
  0
LINE
  8
0
 62
     0
 10
314.332
 20
72.0672
 30
0.0
 11
314.332
 21
66.1155
 31
0.0
  0
LINE
  8
0
 62
     0
 10
314.332
 20
66.1155
 30
0.0
 11
313.533
 21
66.1155
 31
0.0
  0
LINE
  8
0
 62
     0
 10
313.533
 20
66.1155
 30
0.0
 11
313.533
 21
63.1652
 31
0.0
  0
LINE
  8
0
 62
     0
 10
313.533
 20
63.1652
 30
0.0
 11
314.332
 21
63.1652
 31
0.0
  0
LINE
  8
0
 62
     0
 10
314.332
 20
63.1652
 30
0.0
 11
314.332
 21
62.1661
 31
0.0
  0
LINE
  8
0
 62
     0
 10
314.332
 20
62.1661
 30
0.0
 11
328.182
 21
62.1661
 31
0.0
  0
LINE
  8
0
 62
     0
 10
328.182
 20
62.1661
 30
0.0
 11
328.182
 21
63.1652
 31
0.0
  0
LINE
  8
0
 62
     0
 10
328.182
 20
63.1652
 30
0.0
 11
328.982
 21
63.1652
 31
0.0
  0
LINE
  8
0
 62
     0
 10
328.982
 20
63.1652
 30
0.0
 11
328.982
 21
66.1155
 31
0.0
  0
LINE
  8
0
 62
     0
 10
328.982
 20
66.1155
 30
0.0
 11
328.182
 21
66.1155
 31
0.0
  0
LINE
  8
0
 62
     0
 10
328.182
 20
66.1155
 30
0.0
 11
328.182
 21
72.0672
 31
0.0
  0
LINE
  8
0
 62
     0
 10
328.182
 20
72.0672
 30
0.0
 11
328.982
 21
72.0672
 31
0.0
  0
LINE
  8
0
 62
     0
 10
328.982
 20
72.0672
 30
0.0
 11
328.982
 21
75.0164
 31
0.0
  0
LINE
  8
0
 62
     0
 10
328.982
 20
75.0164
 30
0.0
 11
328.182
 21
75.0164
 31
0.0
  0
LINE
  8
0
 62
     0
 10
328.182
 20
75.0164
 30
0.0
 11
328.182
 21
76.0155
 31
0.0
  0
LINE
  8
0
 62
     0
 10
328.182
 20
76.0155
 30
0.0
 11
314.332
 21
76.0155
 31
0.0
  0
LINE
  8
0
 62
     0
 10
295.282
 20
76.0155
 30
0.0
 11
295.282
 21
75.0164
 31
0.0
  0
LINE
  8
0
 62
     0
 10
295.282
 20
75.0164
 30
0.0
 11
294.483
 21
75.0164
 31
0.0
  0
LINE
  8
0
 62
     0
 10
294.483
 20
75.0164
 30
0.0
 11
294.483
 21
72.0672
 31
0.0
  0
LINE
  8
0
 62
     0
 10
294.483
 20
72.0672
 30
0.0
 11
295.282
 21
72.0672
 31
0.0
  0
LINE
  8
0
 62
     0
 10
295.282
 20
72.0672
 30
0.0
 11
295.282
 21
66.1155
 31
0.0
  0
LINE
  8
0
 62
     0
 10
295.282
 20
66.1155
 30
0.0
 11
294.483
 21
66.1155
 31
0.0
  0
LINE
  8
0
 62
     0
 10
294.483
 20
66.1155
 30
0.0
 11
294.483
 21
63.1652
 31
0.0
  0
LINE
  8
0
 62
     0
 10
294.483
 20
63.1652
 30
0.0
 11
295.282
 21
63.1652
 31
0.0
  0
LINE
  8
0
 62
     0
 10
295.282
 20
63.1652
 30
0.0
 11
295.282
 21
62.1661
 31
0.0
  0
LINE
  8
0
 62
     0
 10
295.282
 20
62.1661
 30
0.0
 11
309.132
 21
62.1661
 31
0.0
  0
LINE
  8
0
 62
     0
 10
309.132
 20
62.1661
 30
0.0
 11
309.132
 21
63.1652
 31
0.0
  0
LINE
  8
0
 62
     0
 10
309.132
 20
63.1652
 30
0.0
 11
309.932
 21
63.1652
 31
0.0
  0
LINE
  8
0
 62
     0
 10
309.932
 20
63.1652
 30
0.0
 11
309.932
 21
66.1155
 31
0.0
  0
LINE
  8
0
 62
     0
 10
309.932
 20
66.1155
 30
0.0
 11
309.132
 21
66.1155
 31
0.0
  0
LINE
  8
0
 62
     0
 10
309.132
 20
66.1155
 30
0.0
 11
309.132
 21
72.0672
 31
0.0
  0
LINE
  8
0
 62
     0
 10
309.132
 20
72.0672
 30
0.0
 11
309.932
 21
72.0672
 31
0.0
  0
LINE
  8
0
 62
     0
 10
309.932
 20
72.0672
 30
0.0
 11
309.932
 21
75.0164
 31
0.0
  0
LINE
  8
0
 62
     0
 10
309.932
 20
75.0164
 30
0.0
 11
309.132
 21
75.0164
 31
0.0
  0
LINE
  8
0
 62
     0
 10
309.132
 20
75.0164
 30
0.0
 11
309.132
 21
76.0155
 31
0.0
  0
LINE
  8
0
 62
     0
 10
309.132
 20
76.0155
 30
0.0
 11
295.282
 21
76.0155
 31
0.0
  0
LINE
  8
0
 62
     0
 10
266.707
 20
76.0155
 30
0.0
 11
266.707
 21
75.0164
 31
0.0
  0
LINE
  8
0
 62
     0
 10
266.707
 20
75.0164
 30
0.0
 11
265.908
 21
75.0164
 31
0.0
  0
LINE
  8
0
 62
     0
 10
265.908
 20
75.0164
 30
0.0
 11
265.908
 21
72.0672
 31
0.0
  0
LINE
  8
0
 62
     0
 10
265.908
 20
72.0672
 30
0.0
 11
266.707
 21
72.0672
 31
0.0
  0
LINE
  8
0
 62
     0
 10
266.707
 20
72.0672
 30
0.0
 11
266.707
 21
66.1155
 31
0.0
  0
LINE
  8
0
 62
     0
 10
266.707
 20
66.1155
 30
0.0
 11
265.908
 21
66.1155
 31
0.0
  0
LINE
  8
0
 62
     0
 10
265.908
 20
66.1155
 30
0.0
 11
265.908
 21
63.1652
 31
0.0
  0
LINE
  8
0
 62
     0
 10
265.908
 20
63.1652
 30
0.0
 11
266.707
 21
63.1652
 31
0.0
  0
LINE
  8
0
 62
     0
 10
266.707
 20
63.1652
 30
0.0
 11
266.707
 21
62.1661
 31
0.0
  0
LINE
  8
0
 62
     0
 10
266.707
 20
62.1661
 30
0.0
 11
280.557
 21
62.1661
 31
0.0
  0
LINE
  8
0
 62
     0
 10
280.557
 20
62.1661
 30
0.0
 11
280.557
 21
63.1652
 31
0.0
  0
LINE
  8
0
 62
     0
 10
280.557
 20
63.1652
 30
0.0
 11
281.357
 21
63.1652
 31
0.0
  0
LINE
  8
0
 62
     0
 10
281.357
 20
63.1652
 30
0.0
 11
281.357
 21
66.1155
 31
0.0
  0
LINE
  8
0
 62
     0
 10
281.357
 20
66.1155
 30
0.0
 11
280.557
 21
66.1155
 31
0.0
  0
LINE
  8
0
 62
     0
 10
280.557
 20
66.1155
 30
0.0
 11
280.557
 21
72.0672
 31
0.0
  0
LINE
  8
0
 62
     0
 10
280.557
 20
72.0672
 30
0.0
 11
281.357
 21
72.0672
 31
0.0
  0
LINE
  8
0
 62
     0
 10
281.357
 20
72.0672
 30
0.0
 11
281.357
 21
75.0164
 31
0.0
  0
LINE
  8
0
 62
     0
 10
281.357
 20
75.0164
 30
0.0
 11
280.557
 21
75.0164
 31
0.0
  0
LINE
  8
0
 62
     0
 10
280.557
 20
75.0164
 30
0.0
 11
280.557
 21
76.0155
 31
0.0
  0
LINE
  8
0
 62
     0
 10
280.557
 20
76.0155
 30
0.0
 11
266.707
 21
76.0155
 31
0.0
  0
LINE
  8
0
 62
     0
 10
242.896
 20
76.0155
 30
0.0
 11
242.896
 21
75.0164
 31
0.0
  0
LINE
  8
0
 62
     0
 10
242.896
 20
75.0164
 30
0.0
 11
242.095
 21
75.0164
 31
0.0
  0
LINE
  8
0
 62
     0
 10
242.095
 20
75.0164
 30
0.0
 11
242.095
 21
72.0672
 31
0.0
  0
LINE
  8
0
 62
     0
 10
242.095
 20
72.0672
 30
0.0
 11
242.896
 21
72.0672
 31
0.0
  0
LINE
  8
0
 62
     0
 10
242.896
 20
72.0672
 30
0.0
 11
242.896
 21
66.1155
 31
0.0
  0
LINE
  8
0
 62
     0
 10
242.896
 20
66.1155
 30
0.0
 11
242.095
 21
66.1155
 31
0.0
  0
LINE
  8
0
 62
     0
 10
242.095
 20
66.1155
 30
0.0
 11
242.095
 21
63.1652
 31
0.0
  0
LINE
  8
0
 62
     0
 10
242.095
 20
63.1652
 30
0.0
 11
242.896
 21
63.1652
 31
0.0
  0
LINE
  8
0
 62
     0
 10
242.896
 20
63.1652
 30
0.0
 11
242.896
 21
62.1661
 31
0.0
  0
LINE
  8
0
 62
     0
 10
242.896
 20
62.1661
 30
0.0
 11
256.745
 21
62.1661
 31
0.0
  0
LINE
  8
0
 62
     0
 10
256.745
 20
62.1661
 30
0.0
 11
256.745
 21
63.1652
 31
0.0
  0
LINE
  8
0
 62
     0
 10
256.745
 20
63.1652
 30
0.0
 11
257.546
 21
63.1652
 31
0.0
  0
LINE
  8
0
 62
     0
 10
257.546
 20
63.1652
 30
0.0
 11
257.546
 21
66.1155
 31
0.0
  0
LINE
  8
0
 62
     0
 10
257.546
 20
66.1155
 30
0.0
 11
256.745
 21
66.1155
 31
0.0
  0
LINE
  8
0
 62
     0
 10
256.745
 20
66.1155
 30
0.0
 11
256.745
 21
72.0672
 31
0.0
  0
LINE
  8
0
 62
     0
 10
256.745
 20
72.0672
 30
0.0
 11
257.546
 21
72.0672
 31
0.0
  0
LINE
  8
0
 62
     0
 10
257.546
 20
72.0672
 30
0.0
 11
257.546
 21
75.0164
 31
0.0
  0
LINE
  8
0
 62
     0
 10
257.546
 20
75.0164
 30
0.0
 11
256.745
 21
75.0164
 31
0.0
  0
LINE
  8
0
 62
     0
 10
256.745
 20
75.0164
 30
0.0
 11
256.745
 21
76.0155
 31
0.0
  0
LINE
  8
0
 62
     0
 10
256.745
 20
76.0155
 30
0.0
 11
242.896
 21
76.0155
 31
0.0
  0
LINE
  8
0
 62
     0
 10
223.846
 20
76.0155
 30
0.0
 11
223.846
 21
75.0164
 31
0.0
  0
LINE
  8
0
 62
     0
 10
223.846
 20
75.0164
 30
0.0
 11
223.045
 21
75.0164
 31
0.0
  0
LINE
  8
0
 62
     0
 10
223.045
 20
75.0164
 30
0.0
 11
223.045
 21
72.0672
 31
0.0
  0
LINE
  8
0
 62
     0
 10
223.045
 20
72.0672
 30
0.0
 11
223.846
 21
72.0672
 31
0.0
  0
LINE
  8
0
 62
     0
 10
223.846
 20
72.0672
 30
0.0
 11
223.846
 21
66.1155
 31
0.0
  0
LINE
  8
0
 62
     0
 10
223.846
 20
66.1155
 30
0.0
 11
223.045
 21
66.1155
 31
0.0
  0
LINE
  8
0
 62
     0
 10
223.045
 20
66.1155
 30
0.0
 11
223.045
 21
63.1652
 31
0.0
  0
LINE
  8
0
 62
     0
 10
223.045
 20
63.1652
 30
0.0
 11
223.846
 21
63.1652
 31
0.0
  0
LINE
  8
0
 62
     0
 10
223.846
 20
63.1652
 30
0.0
 11
223.846
 21
62.1661
 31
0.0
  0
LINE
  8
0
 62
     0
 10
223.846
 20
62.1661
 30
0.0
 11
237.695
 21
62.1661
 31
0.0
  0
LINE
  8
0
 62
     0
 10
237.695
 20
62.1661
 30
0.0
 11
237.695
 21
63.1652
 31
0.0
  0
LINE
  8
0
 62
     0
 10
237.695
 20
63.1652
 30
0.0
 11
238.496
 21
63.1652
 31
0.0
  0
LINE
  8
0
 62
     0
 10
238.496
 20
63.1652
 30
0.0
 11
238.496
 21
66.1155
 31
0.0
  0
LINE
  8
0
 62
     0
 10
238.496
 20
66.1155
 30
0.0
 11
237.695
 21
66.1155
 31
0.0
  0
LINE
  8
0
 62
     0
 10
237.695
 20
66.1155
 30
0.0
 11
237.695
 21
72.0672
 31
0.0
  0
LINE
  8
0
 62
     0
 10
237.695
 20
72.0672
 30
0.0
 11
238.496
 21
72.0672
 31
0.0
  0
LINE
  8
0
 62
     0
 10
238.496
 20
72.0672
 30
0.0
 11
238.496
 21
75.0164
 31
0.0
  0
LINE
  8
0
 62
     0
 10
238.496
 20
75.0164
 30
0.0
 11
237.695
 21
75.0164
 31
0.0
  0
LINE
  8
0
 62
     0
 10
237.695
 20
75.0164
 30
0.0
 11
237.695
 21
76.0155
 31
0.0
  0
LINE
  8
0
 62
     0
 10
237.695
 20
76.0155
 30
0.0
 11
223.846
 21
76.0155
 31
0.0
  0
LINE
  8
0
 62
     0
 10
204.796
 20
76.0155
 30
0.0
 11
204.796
 21
75.0164
 31
0.0
  0
LINE
  8
0
 62
     0
 10
204.796
 20
75.0164
 30
0.0
 11
203.995
 21
75.0164
 31
0.0
  0
LINE
  8
0
 62
     0
 10
203.995
 20
75.0164
 30
0.0
 11
203.995
 21
72.0672
 31
0.0
  0
LINE
  8
0
 62
     0
 10
203.995
 20
72.0672
 30
0.0
 11
204.796
 21
72.0672
 31
0.0
  0
LINE
  8
0
 62
     0
 10
204.796
 20
72.0672
 30
0.0
 11
204.796
 21
66.1155
 31
0.0
  0
LINE
  8
0
 62
     0
 10
204.796
 20
66.1155
 30
0.0
 11
203.995
 21
66.1155
 31
0.0
  0
LINE
  8
0
 62
     0
 10
203.995
 20
66.1155
 30
0.0
 11
203.995
 21
63.1652
 31
0.0
  0
LINE
  8
0
 62
     0
 10
203.995
 20
63.1652
 30
0.0
 11
204.796
 21
63.1652
 31
0.0
  0
LINE
  8
0
 62
     0
 10
204.796
 20
63.1652
 30
0.0
 11
204.796
 21
62.1661
 31
0.0
  0
LINE
  8
0
 62
     0
 10
204.796
 20
62.1661
 30
0.0
 11
218.645
 21
62.1661
 31
0.0
  0
LINE
  8
0
 62
     0
 10
218.645
 20
62.1661
 30
0.0
 11
218.645
 21
63.1652
 31
0.0
  0
LINE
  8
0
 62
     0
 10
218.645
 20
63.1652
 30
0.0
 11
219.446
 21
63.1652
 31
0.0
  0
LINE
  8
0
 62
     0
 10
219.446
 20
63.1652
 30
0.0
 11
219.446
 21
66.1155
 31
0.0
  0
LINE
  8
0
 62
     0
 10
219.446
 20
66.1155
 30
0.0
 11
218.645
 21
66.1155
 31
0.0
  0
LINE
  8
0
 62
     0
 10
218.645
 20
66.1155
 30
0.0
 11
218.645
 21
72.0672
 31
0.0
  0
LINE
  8
0
 62
     0
 10
218.645
 20
72.0672
 30
0.0
 11
219.446
 21
72.0672
 31
0.0
  0
LINE
  8
0
 62
     0
 10
219.446
 20
72.0672
 30
0.0
 11
219.446
 21
75.0164
 31
0.0
  0
LINE
  8
0
 62
     0
 10
219.446
 20
75.0164
 30
0.0
 11
218.645
 21
75.0164
 31
0.0
  0
LINE
  8
0
 62
     0
 10
218.645
 20
75.0164
 30
0.0
 11
218.645
 21
76.0155
 31
0.0
  0
LINE
  8
0
 62
     0
 10
218.645
 20
76.0155
 30
0.0
 11
204.796
 21
76.0155
 31
0.0
  0
LINE
  8
0
 62
     0
 10
185.746
 20
76.0155
 30
0.0
 11
185.746
 21
75.0164
 31
0.0
  0
LINE
  8
0
 62
     0
 10
185.746
 20
75.0164
 30
0.0
 11
184.945
 21
75.0164
 31
0.0
  0
LINE
  8
0
 62
     0
 10
184.945
 20
75.0164
 30
0.0
 11
184.945
 21
72.0672
 31
0.0
  0
LINE
  8
0
 62
     0
 10
184.945
 20
72.0672
 30
0.0
 11
185.746
 21
72.0672
 31
0.0
  0
LINE
  8
0
 62
     0
 10
185.746
 20
72.0672
 30
0.0
 11
185.746
 21
66.1155
 31
0.0
  0
LINE
  8
0
 62
     0
 10
185.746
 20
66.1155
 30
0.0
 11
184.945
 21
66.1155
 31
0.0
  0
LINE
  8
0
 62
     0
 10
184.945
 20
66.1155
 30
0.0
 11
184.945
 21
63.1652
 31
0.0
  0
LINE
  8
0
 62
     0
 10
184.945
 20
63.1652
 30
0.0
 11
185.746
 21
63.1652
 31
0.0
  0
LINE
  8
0
 62
     0
 10
185.746
 20
63.1652
 30
0.0
 11
185.746
 21
62.1661
 31
0.0
  0
LINE
  8
0
 62
     0
 10
185.746
 20
62.1661
 30
0.0
 11
199.595
 21
62.1661
 31
0.0
  0
LINE
  8
0
 62
     0
 10
199.595
 20
62.1661
 30
0.0
 11
199.595
 21
63.1652
 31
0.0
  0
LINE
  8
0
 62
     0
 10
199.595
 20
63.1652
 30
0.0
 11
200.396
 21
63.1652
 31
0.0
  0
LINE
  8
0
 62
     0
 10
200.396
 20
63.1652
 30
0.0
 11
200.396
 21
66.1155
 31
0.0
  0
LINE
  8
0
 62
     0
 10
200.396
 20
66.1155
 30
0.0
 11
199.595
 21
66.1155
 31
0.0
  0
LINE
  8
0
 62
     0
 10
199.595
 20
66.1155
 30
0.0
 11
199.595
 21
72.0672
 31
0.0
  0
LINE
  8
0
 62
     0
 10
199.595
 20
72.0672
 30
0.0
 11
200.396
 21
72.0672
 31
0.0
  0
LINE
  8
0
 62
     0
 10
200.396
 20
72.0672
 30
0.0
 11
200.396
 21
75.0164
 31
0.0
  0
LINE
  8
0
 62
     0
 10
200.396
 20
75.0164
 30
0.0
 11
199.595
 21
75.0164
 31
0.0
  0
LINE
  8
0
 62
     0
 10
199.595
 20
75.0164
 30
0.0
 11
199.595
 21
76.0155
 31
0.0
  0
LINE
  8
0
 62
     0
 10
199.595
 20
76.0155
 30
0.0
 11
185.746
 21
76.0155
 31
0.0
  0
LINE
  8
0
 62
     0
 10
166.696
 20
76.0155
 30
0.0
 11
166.696
 21
75.0164
 31
0.0
  0
LINE
  8
0
 62
     0
 10
166.696
 20
75.0164
 30
0.0
 11
165.895
 21
75.0164
 31
0.0
  0
LINE
  8
0
 62
     0
 10
165.895
 20
75.0164
 30
0.0
 11
165.895
 21
72.0672
 31
0.0
  0
LINE
  8
0
 62
     0
 10
165.895
 20
72.0672
 30
0.0
 11
166.696
 21
72.0672
 31
0.0
  0
LINE
  8
0
 62
     0
 10
166.696
 20
72.0672
 30
0.0
 11
166.696
 21
66.1155
 31
0.0
  0
LINE
  8
0
 62
     0
 10
166.696
 20
66.1155
 30
0.0
 11
165.895
 21
66.1155
 31
0.0
  0
LINE
  8
0
 62
     0
 10
165.895
 20
66.1155
 30
0.0
 11
165.895
 21
63.1652
 31
0.0
  0
LINE
  8
0
 62
     0
 10
165.895
 20
63.1652
 30
0.0
 11
166.696
 21
63.1652
 31
0.0
  0
LINE
  8
0
 62
     0
 10
166.696
 20
63.1652
 30
0.0
 11
166.696
 21
62.1661
 31
0.0
  0
LINE
  8
0
 62
     0
 10
166.696
 20
62.1661
 30
0.0
 11
180.545
 21
62.1661
 31
0.0
  0
LINE
  8
0
 62
     0
 10
180.545
 20
62.1661
 30
0.0
 11
180.545
 21
63.1652
 31
0.0
  0
LINE
  8
0
 62
     0
 10
180.545
 20
63.1652
 30
0.0
 11
181.346
 21
63.1652
 31
0.0
  0
LINE
  8
0
 62
     0
 10
181.346
 20
63.1652
 30
0.0
 11
181.346
 21
66.1155
 31
0.0
  0
LINE
  8
0
 62
     0
 10
181.346
 20
66.1155
 30
0.0
 11
180.545
 21
66.1155
 31
0.0
  0
LINE
  8
0
 62
     0
 10
180.545
 20
66.1155
 30
0.0
 11
180.545
 21
72.0672
 31
0.0
  0
LINE
  8
0
 62
     0
 10
180.545
 20
72.0672
 30
0.0
 11
181.346
 21
72.0672
 31
0.0
  0
LINE
  8
0
 62
     0
 10
181.346
 20
72.0672
 30
0.0
 11
181.346
 21
75.0164
 31
0.0
  0
LINE
  8
0
 62
     0
 10
181.346
 20
75.0164
 30
0.0
 11
180.545
 21
75.0164
 31
0.0
  0
LINE
  8
0
 62
     0
 10
180.545
 20
75.0164
 30
0.0
 11
180.545
 21
76.0155
 31
0.0
  0
LINE
  8
0
 62
     0
 10
180.545
 20
76.0155
 30
0.0
 11
166.696
 21
76.0155
 31
0.0
  0
LINE
  8
0
 62
     0
 10
147.645
 20
76.0155
 30
0.0
 11
147.645
 21
75.0164
 31
0.0
  0
LINE
  8
0
 62
     0
 10
147.645
 20
75.0164
 30
0.0
 11
146.845
 21
75.0164
 31
0.0
  0
LINE
  8
0
 62
     0
 10
146.845
 20
75.0164
 30
0.0
 11
146.845
 21
72.0672
 31
0.0
  0
LINE
  8
0
 62
     0
 10
146.845
 20
72.0672
 30
0.0
 11
147.645
 21
72.0672
 31
0.0
  0
LINE
  8
0
 62
     0
 10
147.645
 20
72.0672
 30
0.0
 11
147.645
 21
66.1155
 31
0.0
  0
LINE
  8
0
 62
     0
 10
147.645
 20
66.1155
 30
0.0
 11
146.845
 21
66.1155
 31
0.0
  0
LINE
  8
0
 62
     0
 10
146.845
 20
66.1155
 30
0.0
 11
146.845
 21
63.1652
 31
0.0
  0
LINE
  8
0
 62
     0
 10
146.845
 20
63.1652
 30
0.0
 11
147.645
 21
63.1652
 31
0.0
  0
LINE
  8
0
 62
     0
 10
147.645
 20
63.1652
 30
0.0
 11
147.645
 21
62.1661
 31
0.0
  0
LINE
  8
0
 62
     0
 10
147.645
 20
62.1661
 30
0.0
 11
161.495
 21
62.1661
 31
0.0
  0
LINE
  8
0
 62
     0
 10
161.495
 20
62.1661
 30
0.0
 11
161.495
 21
63.1652
 31
0.0
  0
LINE
  8
0
 62
     0
 10
161.495
 20
63.1652
 30
0.0
 11
162.296
 21
63.1652
 31
0.0
  0
LINE
  8
0
 62
     0
 10
162.296
 20
63.1652
 30
0.0
 11
162.296
 21
66.1155
 31
0.0
  0
LINE
  8
0
 62
     0
 10
162.296
 20
66.1155
 30
0.0
 11
161.495
 21
66.1155
 31
0.0
  0
LINE
  8
0
 62
     0
 10
161.495
 20
66.1155
 30
0.0
 11
161.495
 21
72.0672
 31
0.0
  0
LINE
  8
0
 62
     0
 10
161.495
 20
72.0672
 30
0.0
 11
162.296
 21
72.0672
 31
0.0
  0
LINE
  8
0
 62
     0
 10
162.296
 20
72.0672
 30
0.0
 11
162.296
 21
75.0164
 31
0.0
  0
LINE
  8
0
 62
     0
 10
162.296
 20
75.0164
 30
0.0
 11
161.495
 21
75.0164
 31
0.0
  0
LINE
  8
0
 62
     0
 10
161.495
 20
75.0164
 30
0.0
 11
161.495
 21
76.0155
 31
0.0
  0
LINE
  8
0
 62
     0
 10
161.495
 20
76.0155
 30
0.0
 11
147.645
 21
76.0155
 31
0.0
  0
LINE
  8
0
 62
     0
 10
128.595
 20
76.0155
 30
0.0
 11
128.595
 21
75.0164
 31
0.0
  0
LINE
  8
0
 62
     0
 10
128.595
 20
75.0164
 30
0.0
 11
127.795
 21
75.0164
 31
0.0
  0
LINE
  8
0
 62
     0
 10
127.795
 20
75.0164
 30
0.0
 11
127.795
 21
72.0672
 31
0.0
  0
LINE
  8
0
 62
     0
 10
127.795
 20
72.0672
 30
0.0
 11
128.595
 21
72.0672
 31
0.0
  0
LINE
  8
0
 62
     0
 10
128.595
 20
72.0672
 30
0.0
 11
128.595
 21
66.1155
 31
0.0
  0
LINE
  8
0
 62
     0
 10
128.595
 20
66.1155
 30
0.0
 11
127.795
 21
66.1155
 31
0.0
  0
LINE
  8
0
 62
     0
 10
127.795
 20
66.1155
 30
0.0
 11
127.795
 21
63.1652
 31
0.0
  0
LINE
  8
0
 62
     0
 10
127.795
 20
63.1652
 30
0.0
 11
128.595
 21
63.1652
 31
0.0
  0
LINE
  8
0
 62
     0
 10
128.595
 20
63.1652
 30
0.0
 11
128.595
 21
62.1661
 31
0.0
  0
LINE
  8
0
 62
     0
 10
128.595
 20
62.1661
 30
0.0
 11
142.445
 21
62.1661
 31
0.0
  0
LINE
  8
0
 62
     0
 10
142.445
 20
62.1661
 30
0.0
 11
142.445
 21
63.1652
 31
0.0
  0
LINE
  8
0
 62
     0
 10
142.445
 20
63.1652
 30
0.0
 11
143.244
 21
63.1652
 31
0.0
  0
LINE
  8
0
 62
     0
 10
143.244
 20
63.1652
 30
0.0
 11
143.244
 21
66.1155
 31
0.0
  0
LINE
  8
0
 62
     0
 10
143.244
 20
66.1155
 30
0.0
 11
142.445
 21
66.1155
 31
0.0
  0
LINE
  8
0
 62
     0
 10
142.445
 20
66.1155
 30
0.0
 11
142.445
 21
72.0672
 31
0.0
  0
LINE
  8
0
 62
     0
 10
142.445
 20
72.0672
 30
0.0
 11
143.244
 21
72.0672
 31
0.0
  0
LINE
  8
0
 62
     0
 10
143.244
 20
72.0672
 30
0.0
 11
143.244
 21
75.0164
 31
0.0
  0
LINE
  8
0
 62
     0
 10
143.244
 20
75.0164
 30
0.0
 11
142.445
 21
75.0164
 31
0.0
  0
LINE
  8
0
 62
     0
 10
142.445
 20
75.0164
 30
0.0
 11
142.445
 21
76.0155
 31
0.0
  0
LINE
  8
0
 62
     0
 10
142.445
 20
76.0155
 30
0.0
 11
128.595
 21
76.0155
 31
0.0
  0
LINE
  8
0
 62
     0
 10
109.545
 20
76.0155
 30
0.0
 11
109.545
 21
75.0164
 31
0.0
  0
LINE
  8
0
 62
     0
 10
109.545
 20
75.0164
 30
0.0
 11
108.745
 21
75.0164
 31
0.0
  0
LINE
  8
0
 62
     0
 10
108.745
 20
75.0164
 30
0.0
 11
108.745
 21
72.0672
 31
0.0
  0
LINE
  8
0
 62
     0
 10
108.745
 20
72.0672
 30
0.0
 11
109.545
 21
72.0672
 31
0.0
  0
LINE
  8
0
 62
     0
 10
109.545
 20
72.0672
 30
0.0
 11
109.545
 21
66.1155
 31
0.0
  0
LINE
  8
0
 62
     0
 10
109.545
 20
66.1155
 30
0.0
 11
108.745
 21
66.1155
 31
0.0
  0
LINE
  8
0
 62
     0
 10
108.745
 20
66.1155
 30
0.0
 11
108.745
 21
63.1652
 31
0.0
  0
LINE
  8
0
 62
     0
 10
108.745
 20
63.1652
 30
0.0
 11
109.545
 21
63.1652
 31
0.0
  0
LINE
  8
0
 62
     0
 10
109.545
 20
63.1652
 30
0.0
 11
109.545
 21
62.1661
 31
0.0
  0
LINE
  8
0
 62
     0
 10
109.545
 20
62.1661
 30
0.0
 11
123.395
 21
62.1661
 31
0.0
  0
LINE
  8
0
 62
     0
 10
123.395
 20
62.1661
 30
0.0
 11
123.395
 21
63.1652
 31
0.0
  0
LINE
  8
0
 62
     0
 10
123.395
 20
63.1652
 30
0.0
 11
124.196
 21
63.1652
 31
0.0
  0
LINE
  8
0
 62
     0
 10
124.196
 20
63.1652
 30
0.0
 11
124.196
 21
66.1155
 31
0.0
  0
LINE
  8
0
 62
     0
 10
124.196
 20
66.1155
 30
0.0
 11
123.395
 21
66.1155
 31
0.0
  0
LINE
  8
0
 62
     0
 10
123.395
 20
66.1155
 30
0.0
 11
123.395
 21
72.0672
 31
0.0
  0
LINE
  8
0
 62
     0
 10
123.395
 20
72.0672
 30
0.0
 11
124.196
 21
72.0672
 31
0.0
  0
LINE
  8
0
 62
     0
 10
124.196
 20
72.0672
 30
0.0
 11
124.196
 21
75.0164
 31
0.0
  0
LINE
  8
0
 62
     0
 10
124.196
 20
75.0164
 30
0.0
 11
123.395
 21
75.0164
 31
0.0
  0
LINE
  8
0
 62
     0
 10
123.395
 20
75.0164
 30
0.0
 11
123.395
 21
76.0155
 31
0.0
  0
LINE
  8
0
 62
     0
 10
123.395
 20
76.0155
 30
0.0
 11
109.545
 21
76.0155
 31
0.0
  0
LINE
  8
0
 62
     0
 10
90.4946
 20
76.0155
 30
0.0
 11
90.4946
 21
75.0164
 31
0.0
  0
LINE
  8
0
 62
     0
 10
90.4946
 20
75.0164
 30
0.0
 11
89.6952
 21
75.0164
 31
0.0
  0
LINE
  8
0
 62
     0
 10
89.6952
 20
75.0164
 30
0.0
 11
89.6952
 21
72.0672
 31
0.0
  0
LINE
  8
0
 62
     0
 10
89.6952
 20
72.0672
 30
0.0
 11
90.4946
 21
72.0672
 31
0.0
  0
LINE
  8
0
 62
     0
 10
90.4946
 20
72.0672
 30
0.0
 11
90.4946
 21
66.1155
 31
0.0
  0
LINE
  8
0
 62
     0
 10
90.4946
 20
66.1155
 30
0.0
 11
89.6952
 21
66.1155
 31
0.0
  0
LINE
  8
0
 62
     0
 10
89.6952
 20
66.1155
 30
0.0
 11
89.6952
 21
63.1652
 31
0.0
  0
LINE
  8
0
 62
     0
 10
89.6952
 20
63.1652
 30
0.0
 11
90.4946
 21
63.1652
 31
0.0
  0
LINE
  8
0
 62
     0
 10
90.4946
 20
63.1652
 30
0.0
 11
90.4946
 21
62.1661
 31
0.0
  0
LINE
  8
0
 62
     0
 10
90.4946
 20
62.1661
 30
0.0
 11
104.345
 21
62.1661
 31
0.0
  0
LINE
  8
0
 62
     0
 10
104.345
 20
62.1661
 30
0.0
 11
104.345
 21
63.1652
 31
0.0
  0
LINE
  8
0
 62
     0
 10
104.345
 20
63.1652
 30
0.0
 11
105.144
 21
63.1652
 31
0.0
  0
LINE
  8
0
 62
     0
 10
105.144
 20
63.1652
 30
0.0
 11
105.144
 21
66.1155
 31
0.0
  0
LINE
  8
0
 62
     0
 10
105.144
 20
66.1155
 30
0.0
 11
104.345
 21
66.1155
 31
0.0
  0
LINE
  8
0
 62
     0
 10
104.345
 20
66.1155
 30
0.0
 11
104.345
 21
72.0672
 31
0.0
  0
LINE
  8
0
 62
     0
 10
104.345
 20
72.0672
 30
0.0
 11
105.144
 21
72.0672
 31
0.0
  0
LINE
  8
0
 62
     0
 10
105.144
 20
72.0672
 30
0.0
 11
105.144
 21
75.0164
 31
0.0
  0
LINE
  8
0
 62
     0
 10
105.144
 20
75.0164
 30
0.0
 11
104.345
 21
75.0164
 31
0.0
  0
LINE
  8
0
 62
     0
 10
104.345
 20
75.0164
 30
0.0
 11
104.345
 21
76.0155
 31
0.0
  0
LINE
  8
0
 62
     0
 10
104.345
 20
76.0155
 30
0.0
 11
90.4946
 21
76.0155
 31
0.0
  0
LINE
  8
0
 62
     0
 10
71.4456
 20
76.0155
 30
0.0
 11
71.4456
 21
75.0164
 31
0.0
  0
LINE
  8
0
 62
     0
 10
71.4456
 20
75.0164
 30
0.0
 11
70.6452
 21
75.0164
 31
0.0
  0
LINE
  8
0
 62
     0
 10
70.6452
 20
75.0164
 30
0.0
 11
70.6452
 21
72.0672
 31
0.0
  0
LINE
  8
0
 62
     0
 10
70.6452
 20
72.0672
 30
0.0
 11
71.4456
 21
72.0672
 31
0.0
  0
LINE
  8
0
 62
     0
 10
71.4456
 20
72.0672
 30
0.0
 11
71.4456
 21
66.1155
 31
0.0
  0
LINE
  8
0
 62
     0
 10
71.4456
 20
66.1155
 30
0.0
 11
70.6452
 21
66.1155
 31
0.0
  0
LINE
  8
0
 62
     0
 10
70.6452
 20
66.1155
 30
0.0
 11
70.6452
 21
63.1652
 31
0.0
  0
LINE
  8
0
 62
     0
 10
70.6452
 20
63.1652
 30
0.0
 11
71.4456
 21
63.1652
 31
0.0
  0
LINE
  8
0
 62
     0
 10
71.4456
 20
63.1652
 30
0.0
 11
71.4456
 21
62.1661
 31
0.0
  0
LINE
  8
0
 62
     0
 10
71.4456
 20
62.1661
 30
0.0
 11
85.295
 21
62.1661
 31
0.0
  0
LINE
  8
0
 62
     0
 10
85.295
 20
62.1661
 30
0.0
 11
85.295
 21
63.1652
 31
0.0
  0
LINE
  8
0
 62
     0
 10
85.295
 20
63.1652
 30
0.0
 11
86.0944
 21
63.1652
 31
0.0
  0
LINE
  8
0
 62
     0
 10
86.0944
 20
63.1652
 30
0.0
 11
86.0944
 21
66.1155
 31
0.0
  0
LINE
  8
0
 62
     0
 10
86.0944
 20
66.1155
 30
0.0
 11
85.295
 21
66.1155
 31
0.0
  0
LINE
  8
0
 62
     0
 10
85.295
 20
66.1155
 30
0.0
 11
85.295
 21
72.0672
 31
0.0
  0
LINE
  8
0
 62
     0
 10
85.295
 20
72.0672
 30
0.0
 11
86.0944
 21
72.0672
 31
0.0
  0
LINE
  8
0
 62
     0
 10
86.0944
 20
72.0672
 30
0.0
 11
86.0944
 21
75.0164
 31
0.0
  0
LINE
  8
0
 62
     0
 10
86.0944
 20
75.0164
 30
0.0
 11
85.295
 21
75.0164
 31
0.0
  0
LINE
  8
0
 62
     0
 10
85.295
 20
75.0164
 30
0.0
 11
85.295
 21
76.0155
 31
0.0
  0
LINE
  8
0
 62
     0
 10
85.295
 20
76.0155
 30
0.0
 11
71.4456
 21
76.0155
 31
0.0
  0
LINE
  8
0
 62
     0
 10
52.3956
 20
76.0155
 30
0.0
 11
52.3956
 21
75.0164
 31
0.0
  0
LINE
  8
0
 62
     0
 10
52.3956
 20
75.0164
 30
0.0
 11
51.5952
 21
75.0164
 31
0.0
  0
LINE
  8
0
 62
     0
 10
51.5952
 20
75.0164
 30
0.0
 11
51.5952
 21
72.0672
 31
0.0
  0
LINE
  8
0
 62
     0
 10
51.5952
 20
72.0672
 30
0.0
 11
52.3956
 21
72.0672
 31
0.0
  0
LINE
  8
0
 62
     0
 10
52.3956
 20
72.0672
 30
0.0
 11
52.3956
 21
66.1155
 31
0.0
  0
LINE
  8
0
 62
     0
 10
52.3956
 20
66.1155
 30
0.0
 11
51.5952
 21
66.1155
 31
0.0
  0
LINE
  8
0
 62
     0
 10
51.5952
 20
66.1155
 30
0.0
 11
51.5952
 21
63.1652
 31
0.0
  0
LINE
  8
0
 62
     0
 10
51.5952
 20
63.1652
 30
0.0
 11
52.3956
 21
63.1652
 31
0.0
  0
LINE
  8
0
 62
     0
 10
52.3956
 20
63.1652
 30
0.0
 11
52.3956
 21
62.1661
 31
0.0
  0
LINE
  8
0
 62
     0
 10
52.3956
 20
62.1661
 30
0.0
 11
66.245
 21
62.1661
 31
0.0
  0
LINE
  8
0
 62
     0
 10
66.245
 20
62.1661
 30
0.0
 11
66.245
 21
63.1652
 31
0.0
  0
LINE
  8
0
 62
     0
 10
66.245
 20
63.1652
 30
0.0
 11
67.0444
 21
63.1652
 31
0.0
  0
LINE
  8
0
 62
     0
 10
67.0444
 20
63.1652
 30
0.0
 11
67.0444
 21
66.1155
 31
0.0
  0
LINE
  8
0
 62
     0
 10
67.0444
 20
66.1155
 30
0.0
 11
66.245
 21
66.1155
 31
0.0
  0
LINE
  8
0
 62
     0
 10
66.245
 20
66.1155
 30
0.0
 11
66.245
 21
72.0672
 31
0.0
  0
LINE
  8
0
 62
     0
 10
66.245
 20
72.0672
 30
0.0
 11
67.0444
 21
72.0672
 31
0.0
  0
LINE
  8
0
 62
     0
 10
67.0444
 20
72.0672
 30
0.0
 11
67.0444
 21
75.0164
 31
0.0
  0
LINE
  8
0
 62
     0
 10
67.0444
 20
75.0164
 30
0.0
 11
66.245
 21
75.0164
 31
0.0
  0
LINE
  8
0
 62
     0
 10
66.245
 20
75.0164
 30
0.0
 11
66.245
 21
76.0155
 31
0.0
  0
LINE
  8
0
 62
     0
 10
66.245
 20
76.0155
 30
0.0
 11
52.3956
 21
76.0155
 31
0.0
  0
LINE
  8
0
 62
     0
 10
33.3458
 20
76.0155
 30
0.0
 11
33.3458
 21
75.0164
 31
0.0
  0
LINE
  8
0
 62
     0
 10
33.3458
 20
75.0164
 30
0.0
 11
32.5451
 21
75.0164
 31
0.0
  0
LINE
  8
0
 62
     0
 10
32.5451
 20
75.0164
 30
0.0
 11
32.5451
 21
72.0672
 31
0.0
  0
LINE
  8
0
 62
     0
 10
32.5451
 20
72.0672
 30
0.0
 11
33.3458
 21
72.0672
 31
0.0
  0
LINE
  8
0
 62
     0
 10
33.3458
 20
72.0672
 30
0.0
 11
33.3458
 21
66.1155
 31
0.0
  0
LINE
  8
0
 62
     0
 10
33.3458
 20
66.1155
 30
0.0
 11
32.5451
 21
66.1155
 31
0.0
  0
LINE
  8
0
 62
     0
 10
32.5451
 20
66.1155
 30
0.0
 11
32.5451
 21
63.1652
 31
0.0
  0
LINE
  8
0
 62
     0
 10
32.5451
 20
63.1652
 30
0.0
 11
33.3458
 21
63.1652
 31
0.0
  0
LINE
  8
0
 62
     0
 10
33.3458
 20
63.1652
 30
0.0
 11
33.3458
 21
62.1661
 31
0.0
  0
LINE
  8
0
 62
     0
 10
33.3458
 20
62.1661
 30
0.0
 11
47.195
 21
62.1661
 31
0.0
  0
LINE
  8
0
 62
     0
 10
47.195
 20
62.1661
 30
0.0
 11
47.195
 21
63.1652
 31
0.0
  0
LINE
  8
0
 62
     0
 10
47.195
 20
63.1652
 30
0.0
 11
47.9958
 21
63.1652
 31
0.0
  0
LINE
  8
0
 62
     0
 10
47.9958
 20
63.1652
 30
0.0
 11
47.9958
 21
66.1155
 31
0.0
  0
LINE
  8
0
 62
     0
 10
47.9958
 20
66.1155
 30
0.0
 11
47.195
 21
66.1155
 31
0.0
  0
LINE
  8
0
 62
     0
 10
47.195
 20
66.1155
 30
0.0
 11
47.195
 21
72.0672
 31
0.0
  0
LINE
  8
0
 62
     0
 10
47.195
 20
72.0672
 30
0.0
 11
47.9958
 21
72.0672
 31
0.0
  0
LINE
  8
0
 62
     0
 10
47.9958
 20
72.0672
 30
0.0
 11
47.9958
 21
75.0164
 31
0.0
  0
LINE
  8
0
 62
     0
 10
47.9958
 20
75.0164
 30
0.0
 11
47.195
 21
75.0164
 31
0.0
  0
LINE
  8
0
 62
     0
 10
47.195
 20
75.0164
 30
0.0
 11
47.195
 21
76.0155
 31
0.0
  0
LINE
  8
0
 62
     0
 10
47.195
 20
76.0155
 30
0.0
 11
33.3458
 21
76.0155
 31
0.0
  0
LINE
  8
0
 62
     0
 10
9.53188
 20
76.0155
 30
0.0
 11
9.53188
 21
75.0164
 31
0.0
  0
LINE
  8
0
 62
     0
 10
9.53188
 20
75.0164
 30
0.0
 11
8.73263
 21
75.0164
 31
0.0
  0
LINE
  8
0
 62
     0
 10
8.73263
 20
75.0164
 30
0.0
 11
8.73263
 21
72.0672
 31
0.0
  0
LINE
  8
0
 62
     0
 10
8.73263
 20
72.0672
 30
0.0
 11
9.53188
 21
72.0672
 31
0.0
  0
LINE
  8
0
 62
     0
 10
9.53188
 20
72.0672
 30
0.0
 11
9.53188
 21
66.1155
 31
0.0
  0
LINE
  8
0
 62
     0
 10
9.53188
 20
66.1155
 30
0.0
 11
8.73263
 21
66.1155
 31
0.0
  0
LINE
  8
0
 62
     0
 10
8.73263
 20
66.1155
 30
0.0
 11
8.73263
 21
63.1652
 31
0.0
  0
LINE
  8
0
 62
     0
 10
8.73263
 20
63.1652
 30
0.0
 11
9.53188
 21
63.1652
 31
0.0
  0
LINE
  8
0
 62
     0
 10
9.53188
 20
63.1652
 30
0.0
 11
9.53188
 21
62.1661
 31
0.0
  0
LINE
  8
0
 62
     0
 10
9.53188
 20
62.1661
 30
0.0
 11
23.3826
 21
62.1661
 31
0.0
  0
LINE
  8
0
 62
     0
 10
23.3826
 20
62.1661
 30
0.0
 11
23.3826
 21
63.1652
 31
0.0
  0
LINE
  8
0
 62
     0
 10
23.3826
 20
63.1652
 30
0.0
 11
24.1818
 21
63.1652
 31
0.0
  0
LINE
  8
0
 62
     0
 10
24.1818
 20
63.1652
 30
0.0
 11
24.1818
 21
66.1155
 31
0.0
  0
LINE
  8
0
 62
     0
 10
24.1818
 20
66.1155
 30
0.0
 11
23.3826
 21
66.1155
 31
0.0
  0
LINE
  8
0
 62
     0
 10
23.3826
 20
66.1155
 30
0.0
 11
23.3826
 21
72.0672
 31
0.0
  0
LINE
  8
0
 62
     0
 10
23.3826
 20
72.0672
 30
0.0
 11
24.1818
 21
72.0672
 31
0.0
  0
LINE
  8
0
 62
     0
 10
24.1818
 20
72.0672
 30
0.0
 11
24.1818
 21
75.0164
 31
0.0
  0
LINE
  8
0
 62
     0
 10
24.1818
 20
75.0164
 30
0.0
 11
23.3826
 21
75.0164
 31
0.0
  0
LINE
  8
0
 62
     0
 10
23.3826
 20
75.0164
 30
0.0
 11
23.3826
 21
76.0155
 31
0.0
  0
LINE
  8
0
 62
     0
 10
23.3826
 20
76.0155
 30
0.0
 11
9.53188
 21
76.0155
 31
0.0
  0
LINE
  8
0
 62
     0
 10
314.332
 20
95.0655
 30
0.0
 11
314.332
 21
94.0664
 31
0.0
  0
LINE
  8
0
 62
     0
 10
314.332
 20
94.0664
 30
0.0
 11
313.533
 21
94.0664
 31
0.0
  0
LINE
  8
0
 62
     0
 10
313.533
 20
94.0664
 30
0.0
 11
313.533
 21
91.1158
 31
0.0
  0
LINE
  8
0
 62
     0
 10
313.533
 20
91.1158
 30
0.0
 11
314.332
 21
91.1158
 31
0.0
  0
LINE
  8
0
 62
     0
 10
314.332
 20
91.1158
 30
0.0
 11
314.332
 21
85.1655
 31
0.0
  0
LINE
  8
0
 62
     0
 10
314.332
 20
85.1655
 30
0.0
 11
313.533
 21
85.1655
 31
0.0
  0
LINE
  8
0
 62
     0
 10
313.533
 20
85.1655
 30
0.0
 11
313.533
 21
82.2152
 31
0.0
  0
LINE
  8
0
 62
     0
 10
313.533
 20
82.2152
 30
0.0
 11
314.332
 21
82.2152
 31
0.0
  0
LINE
  8
0
 62
     0
 10
314.332
 20
82.2152
 30
0.0
 11
314.332
 21
81.2161
 31
0.0
  0
LINE
  8
0
 62
     0
 10
314.332
 20
81.2161
 30
0.0
 11
328.182
 21
81.2161
 31
0.0
  0
LINE
  8
0
 62
     0
 10
328.182
 20
81.2161
 30
0.0
 11
328.182
 21
82.2152
 31
0.0
  0
LINE
  8
0
 62
     0
 10
328.182
 20
82.2152
 30
0.0
 11
328.982
 21
82.2152
 31
0.0
  0
LINE
  8
0
 62
     0
 10
328.982
 20
82.2152
 30
0.0
 11
328.982
 21
85.1655
 31
0.0
  0
LINE
  8
0
 62
     0
 10
328.982
 20
85.1655
 30
0.0
 11
328.182
 21
85.1655
 31
0.0
  0
LINE
  8
0
 62
     0
 10
328.182
 20
85.1655
 30
0.0
 11
328.182
 21
91.1158
 31
0.0
  0
LINE
  8
0
 62
     0
 10
328.182
 20
91.1158
 30
0.0
 11
328.982
 21
91.1158
 31
0.0
  0
LINE
  8
0
 62
     0
 10
328.982
 20
91.1158
 30
0.0
 11
328.982
 21
94.0664
 31
0.0
  0
LINE
  8
0
 62
     0
 10
328.982
 20
94.0664
 30
0.0
 11
328.182
 21
94.0664
 31
0.0
  0
LINE
  8
0
 62
     0
 10
328.182
 20
94.0664
 30
0.0
 11
328.182
 21
95.0655
 31
0.0
  0
LINE
  8
0
 62
     0
 10
328.182
 20
95.0655
 30
0.0
 11
314.332
 21
95.0655
 31
0.0
  0
LINE
  8
0
 62
     0
 10
295.282
 20
95.0655
 30
0.0
 11
295.282
 21
94.0664
 31
0.0
  0
LINE
  8
0
 62
     0
 10
295.282
 20
94.0664
 30
0.0
 11
294.483
 21
94.0664
 31
0.0
  0
LINE
  8
0
 62
     0
 10
294.483
 20
94.0664
 30
0.0
 11
294.483
 21
91.1158
 31
0.0
  0
LINE
  8
0
 62
     0
 10
294.483
 20
91.1158
 30
0.0
 11
295.282
 21
91.1158
 31
0.0
  0
LINE
  8
0
 62
     0
 10
295.282
 20
91.1158
 30
0.0
 11
295.282
 21
85.1655
 31
0.0
  0
LINE
  8
0
 62
     0
 10
295.282
 20
85.1655
 30
0.0
 11
294.483
 21
85.1655
 31
0.0
  0
LINE
  8
0
 62
     0
 10
294.483
 20
85.1655
 30
0.0
 11
294.483
 21
82.2152
 31
0.0
  0
LINE
  8
0
 62
     0
 10
294.483
 20
82.2152
 30
0.0
 11
295.282
 21
82.2152
 31
0.0
  0
LINE
  8
0
 62
     0
 10
295.282
 20
82.2152
 30
0.0
 11
295.282
 21
81.2161
 31
0.0
  0
LINE
  8
0
 62
     0
 10
295.282
 20
81.2161
 30
0.0
 11
309.132
 21
81.2161
 31
0.0
  0
LINE
  8
0
 62
     0
 10
309.132
 20
81.2161
 30
0.0
 11
309.132
 21
82.2152
 31
0.0
  0
LINE
  8
0
 62
     0
 10
309.132
 20
82.2152
 30
0.0
 11
309.932
 21
82.2152
 31
0.0
  0
LINE
  8
0
 62
     0
 10
309.932
 20
82.2152
 30
0.0
 11
309.932
 21
85.1655
 31
0.0
  0
LINE
  8
0
 62
     0
 10
309.932
 20
85.1655
 30
0.0
 11
309.132
 21
85.1655
 31
0.0
  0
LINE
  8
0
 62
     0
 10
309.132
 20
85.1655
 30
0.0
 11
309.132
 21
91.1158
 31
0.0
  0
LINE
  8
0
 62
     0
 10
309.132
 20
91.1158
 30
0.0
 11
309.932
 21
91.1158
 31
0.0
  0
LINE
  8
0
 62
     0
 10
309.932
 20
91.1158
 30
0.0
 11
309.932
 21
94.0664
 31
0.0
  0
LINE
  8
0
 62
     0
 10
309.932
 20
94.0664
 30
0.0
 11
309.132
 21
94.0664
 31
0.0
  0
LINE
  8
0
 62
     0
 10
309.132
 20
94.0664
 30
0.0
 11
309.132
 21
95.0655
 31
0.0
  0
LINE
  8
0
 62
     0
 10
309.132
 20
95.0655
 30
0.0
 11
295.282
 21
95.0655
 31
0.0
  0
LINE
  8
0
 62
     0
 10
271.471
 20
95.0655
 30
0.0
 11
271.471
 21
94.0664
 31
0.0
  0
LINE
  8
0
 62
     0
 10
271.471
 20
94.0664
 30
0.0
 11
270.67
 21
94.0664
 31
0.0
  0
LINE
  8
0
 62
     0
 10
270.67
 20
94.0664
 30
0.0
 11
270.67
 21
91.1158
 31
0.0
  0
LINE
  8
0
 62
     0
 10
270.67
 20
91.1158
 30
0.0
 11
271.471
 21
91.1158
 31
0.0
  0
LINE
  8
0
 62
     0
 10
271.471
 20
91.1158
 30
0.0
 11
271.471
 21
85.1655
 31
0.0
  0
LINE
  8
0
 62
     0
 10
271.471
 20
85.1655
 30
0.0
 11
270.67
 21
85.1655
 31
0.0
  0
LINE
  8
0
 62
     0
 10
270.67
 20
85.1655
 30
0.0
 11
270.67
 21
82.2152
 31
0.0
  0
LINE
  8
0
 62
     0
 10
270.67
 20
82.2152
 30
0.0
 11
271.471
 21
82.2152
 31
0.0
  0
LINE
  8
0
 62
     0
 10
271.471
 20
82.2152
 30
0.0
 11
271.471
 21
81.2161
 31
0.0
  0
LINE
  8
0
 62
     0
 10
271.471
 20
81.2161
 30
0.0
 11
285.32
 21
81.2161
 31
0.0
  0
LINE
  8
0
 62
     0
 10
285.32
 20
81.2161
 30
0.0
 11
285.32
 21
82.2152
 31
0.0
  0
LINE
  8
0
 62
     0
 10
285.32
 20
82.2152
 30
0.0
 11
286.121
 21
82.2152
 31
0.0
  0
LINE
  8
0
 62
     0
 10
286.121
 20
82.2152
 30
0.0
 11
286.121
 21
85.1655
 31
0.0
  0
LINE
  8
0
 62
     0
 10
286.121
 20
85.1655
 30
0.0
 11
285.32
 21
85.1655
 31
0.0
  0
LINE
  8
0
 62
     0
 10
285.32
 20
85.1655
 30
0.0
 11
285.32
 21
91.1158
 31
0.0
  0
LINE
  8
0
 62
     0
 10
285.32
 20
91.1158
 30
0.0
 11
286.121
 21
91.1158
 31
0.0
  0
LINE
  8
0
 62
     0
 10
286.121
 20
91.1158
 30
0.0
 11
286.121
 21
94.0664
 31
0.0
  0
LINE
  8
0
 62
     0
 10
286.121
 20
94.0664
 30
0.0
 11
285.32
 21
94.0664
 31
0.0
  0
LINE
  8
0
 62
     0
 10
285.32
 20
94.0664
 30
0.0
 11
285.32
 21
95.0655
 31
0.0
  0
LINE
  8
0
 62
     0
 10
285.32
 20
95.0655
 30
0.0
 11
271.471
 21
95.0655
 31
0.0
  0
LINE
  8
0
 62
     0
 10
252.421
 20
95.0655
 30
0.0
 11
252.421
 21
94.0664
 31
0.0
  0
LINE
  8
0
 62
     0
 10
252.421
 20
94.0664
 30
0.0
 11
251.62
 21
94.0664
 31
0.0
  0
LINE
  8
0
 62
     0
 10
251.62
 20
94.0664
 30
0.0
 11
251.62
 21
91.1158
 31
0.0
  0
LINE
  8
0
 62
     0
 10
251.62
 20
91.1158
 30
0.0
 11
252.421
 21
91.1158
 31
0.0
  0
LINE
  8
0
 62
     0
 10
252.421
 20
91.1158
 30
0.0
 11
252.421
 21
85.1655
 31
0.0
  0
LINE
  8
0
 62
     0
 10
252.421
 20
85.1655
 30
0.0
 11
251.62
 21
85.1655
 31
0.0
  0
LINE
  8
0
 62
     0
 10
251.62
 20
85.1655
 30
0.0
 11
251.62
 21
82.2152
 31
0.0
  0
LINE
  8
0
 62
     0
 10
251.62
 20
82.2152
 30
0.0
 11
252.421
 21
82.2152
 31
0.0
  0
LINE
  8
0
 62
     0
 10
252.421
 20
82.2152
 30
0.0
 11
252.421
 21
81.2161
 31
0.0
  0
LINE
  8
0
 62
     0
 10
252.421
 20
81.2161
 30
0.0
 11
266.27
 21
81.2161
 31
0.0
  0
LINE
  8
0
 62
     0
 10
266.27
 20
81.2161
 30
0.0
 11
266.27
 21
82.2152
 31
0.0
  0
LINE
  8
0
 62
     0
 10
266.27
 20
82.2152
 30
0.0
 11
267.071
 21
82.2152
 31
0.0
  0
LINE
  8
0
 62
     0
 10
267.071
 20
82.2152
 30
0.0
 11
267.071
 21
85.1655
 31
0.0
  0
LINE
  8
0
 62
     0
 10
267.071
 20
85.1655
 30
0.0
 11
266.27
 21
85.1655
 31
0.0
  0
LINE
  8
0
 62
     0
 10
266.27
 20
85.1655
 30
0.0
 11
266.27
 21
91.1158
 31
0.0
  0
LINE
  8
0
 62
     0
 10
266.27
 20
91.1158
 30
0.0
 11
267.071
 21
91.1158
 31
0.0
  0
LINE
  8
0
 62
     0
 10
267.071
 20
91.1158
 30
0.0
 11
267.071
 21
94.0664
 31
0.0
  0
LINE
  8
0
 62
     0
 10
267.071
 20
94.0664
 30
0.0
 11
266.27
 21
94.0664
 31
0.0
  0
LINE
  8
0
 62
     0
 10
266.27
 20
94.0664
 30
0.0
 11
266.27
 21
95.0655
 31
0.0
  0
LINE
  8
0
 62
     0
 10
266.27
 20
95.0655
 30
0.0
 11
252.421
 21
95.0655
 31
0.0
  0
LINE
  8
0
 62
     0
 10
233.371
 20
95.0655
 30
0.0
 11
233.371
 21
94.0664
 31
0.0
  0
LINE
  8
0
 62
     0
 10
233.371
 20
94.0664
 30
0.0
 11
232.57
 21
94.0664
 31
0.0
  0
LINE
  8
0
 62
     0
 10
232.57
 20
94.0664
 30
0.0
 11
232.57
 21
91.1158
 31
0.0
  0
LINE
  8
0
 62
     0
 10
232.57
 20
91.1158
 30
0.0
 11
233.371
 21
91.1158
 31
0.0
  0
LINE
  8
0
 62
     0
 10
233.371
 20
91.1158
 30
0.0
 11
233.371
 21
85.1655
 31
0.0
  0
LINE
  8
0
 62
     0
 10
233.371
 20
85.1655
 30
0.0
 11
232.57
 21
85.1655
 31
0.0
  0
LINE
  8
0
 62
     0
 10
232.57
 20
85.1655
 30
0.0
 11
232.57
 21
82.2152
 31
0.0
  0
LINE
  8
0
 62
     0
 10
232.57
 20
82.2152
 30
0.0
 11
233.371
 21
82.2152
 31
0.0
  0
LINE
  8
0
 62
     0
 10
233.371
 20
82.2152
 30
0.0
 11
233.371
 21
81.2161
 31
0.0
  0
LINE
  8
0
 62
     0
 10
233.371
 20
81.2161
 30
0.0
 11
247.22
 21
81.2161
 31
0.0
  0
LINE
  8
0
 62
     0
 10
247.22
 20
81.2161
 30
0.0
 11
247.22
 21
82.2152
 31
0.0
  0
LINE
  8
0
 62
     0
 10
247.22
 20
82.2152
 30
0.0
 11
248.021
 21
82.2152
 31
0.0
  0
LINE
  8
0
 62
     0
 10
248.021
 20
82.2152
 30
0.0
 11
248.021
 21
85.1655
 31
0.0
  0
LINE
  8
0
 62
     0
 10
248.021
 20
85.1655
 30
0.0
 11
247.22
 21
85.1655
 31
0.0
  0
LINE
  8
0
 62
     0
 10
247.22
 20
85.1655
 30
0.0
 11
247.22
 21
91.1158
 31
0.0
  0
LINE
  8
0
 62
     0
 10
247.22
 20
91.1158
 30
0.0
 11
248.021
 21
91.1158
 31
0.0
  0
LINE
  8
0
 62
     0
 10
248.021
 20
91.1158
 30
0.0
 11
248.021
 21
94.0664
 31
0.0
  0
LINE
  8
0
 62
     0
 10
248.021
 20
94.0664
 30
0.0
 11
247.22
 21
94.0664
 31
0.0
  0
LINE
  8
0
 62
     0
 10
247.22
 20
94.0664
 30
0.0
 11
247.22
 21
95.0655
 31
0.0
  0
LINE
  8
0
 62
     0
 10
247.22
 20
95.0655
 30
0.0
 11
233.371
 21
95.0655
 31
0.0
  0
LINE
  8
0
 62
     0
 10
214.321
 20
95.0655
 30
0.0
 11
214.321
 21
94.0664
 31
0.0
  0
LINE
  8
0
 62
     0
 10
214.321
 20
94.0664
 30
0.0
 11
213.52
 21
94.0664
 31
0.0
  0
LINE
  8
0
 62
     0
 10
213.52
 20
94.0664
 30
0.0
 11
213.52
 21
91.1158
 31
0.0
  0
LINE
  8
0
 62
     0
 10
213.52
 20
91.1158
 30
0.0
 11
214.321
 21
91.1158
 31
0.0
  0
LINE
  8
0
 62
     0
 10
214.321
 20
91.1158
 30
0.0
 11
214.321
 21
85.1655
 31
0.0
  0
LINE
  8
0
 62
     0
 10
214.321
 20
85.1655
 30
0.0
 11
213.52
 21
85.1655
 31
0.0
  0
LINE
  8
0
 62
     0
 10
213.52
 20
85.1655
 30
0.0
 11
213.52
 21
82.2152
 31
0.0
  0
LINE
  8
0
 62
     0
 10
213.52
 20
82.2152
 30
0.0
 11
214.321
 21
82.2152
 31
0.0
  0
LINE
  8
0
 62
     0
 10
214.321
 20
82.2152
 30
0.0
 11
214.321
 21
81.2161
 31
0.0
  0
LINE
  8
0
 62
     0
 10
214.321
 20
81.2161
 30
0.0
 11
228.17
 21
81.2161
 31
0.0
  0
LINE
  8
0
 62
     0
 10
228.17
 20
81.2161
 30
0.0
 11
228.17
 21
82.2152
 31
0.0
  0
LINE
  8
0
 62
     0
 10
228.17
 20
82.2152
 30
0.0
 11
228.971
 21
82.2152
 31
0.0
  0
LINE
  8
0
 62
     0
 10
228.971
 20
82.2152
 30
0.0
 11
228.971
 21
85.1655
 31
0.0
  0
LINE
  8
0
 62
     0
 10
228.971
 20
85.1655
 30
0.0
 11
228.17
 21
85.1655
 31
0.0
  0
LINE
  8
0
 62
     0
 10
228.17
 20
85.1655
 30
0.0
 11
228.17
 21
91.1158
 31
0.0
  0
LINE
  8
0
 62
     0
 10
228.17
 20
91.1158
 30
0.0
 11
228.971
 21
91.1158
 31
0.0
  0
LINE
  8
0
 62
     0
 10
228.971
 20
91.1158
 30
0.0
 11
228.971
 21
94.0664
 31
0.0
  0
LINE
  8
0
 62
     0
 10
228.971
 20
94.0664
 30
0.0
 11
228.17
 21
94.0664
 31
0.0
  0
LINE
  8
0
 62
     0
 10
228.17
 20
94.0664
 30
0.0
 11
228.17
 21
95.0655
 31
0.0
  0
LINE
  8
0
 62
     0
 10
228.17
 20
95.0655
 30
0.0
 11
214.321
 21
95.0655
 31
0.0
  0
LINE
  8
0
 62
     0
 10
195.271
 20
95.0655
 30
0.0
 11
195.271
 21
94.0664
 31
0.0
  0
LINE
  8
0
 62
     0
 10
195.271
 20
94.0664
 30
0.0
 11
194.47
 21
94.0664
 31
0.0
  0
LINE
  8
0
 62
     0
 10
194.47
 20
94.0664
 30
0.0
 11
194.47
 21
91.1158
 31
0.0
  0
LINE
  8
0
 62
     0
 10
194.47
 20
91.1158
 30
0.0
 11
195.271
 21
91.1158
 31
0.0
  0
LINE
  8
0
 62
     0
 10
195.271
 20
91.1158
 30
0.0
 11
195.271
 21
85.1655
 31
0.0
  0
LINE
  8
0
 62
     0
 10
195.271
 20
85.1655
 30
0.0
 11
194.47
 21
85.1655
 31
0.0
  0
LINE
  8
0
 62
     0
 10
194.47
 20
85.1655
 30
0.0
 11
194.47
 21
82.2152
 31
0.0
  0
LINE
  8
0
 62
     0
 10
194.47
 20
82.2152
 30
0.0
 11
195.271
 21
82.2152
 31
0.0
  0
LINE
  8
0
 62
     0
 10
195.271
 20
82.2152
 30
0.0
 11
195.271
 21
81.2161
 31
0.0
  0
LINE
  8
0
 62
     0
 10
195.271
 20
81.2161
 30
0.0
 11
209.12
 21
81.2161
 31
0.0
  0
LINE
  8
0
 62
     0
 10
209.12
 20
81.2161
 30
0.0
 11
209.12
 21
82.2152
 31
0.0
  0
LINE
  8
0
 62
     0
 10
209.12
 20
82.2152
 30
0.0
 11
209.921
 21
82.2152
 31
0.0
  0
LINE
  8
0
 62
     0
 10
209.921
 20
82.2152
 30
0.0
 11
209.921
 21
85.1655
 31
0.0
  0
LINE
  8
0
 62
     0
 10
209.921
 20
85.1655
 30
0.0
 11
209.12
 21
85.1655
 31
0.0
  0
LINE
  8
0
 62
     0
 10
209.12
 20
85.1655
 30
0.0
 11
209.12
 21
91.1158
 31
0.0
  0
LINE
  8
0
 62
     0
 10
209.12
 20
91.1158
 30
0.0
 11
209.921
 21
91.1158
 31
0.0
  0
LINE
  8
0
 62
     0
 10
209.921
 20
91.1158
 30
0.0
 11
209.921
 21
94.0664
 31
0.0
  0
LINE
  8
0
 62
     0
 10
209.921
 20
94.0664
 30
0.0
 11
209.12
 21
94.0664
 31
0.0
  0
LINE
  8
0
 62
     0
 10
209.12
 20
94.0664
 30
0.0
 11
209.12
 21
95.0655
 31
0.0
  0
LINE
  8
0
 62
     0
 10
209.12
 20
95.0655
 30
0.0
 11
195.271
 21
95.0655
 31
0.0
  0
LINE
  8
0
 62
     0
 10
176.221
 20
95.0655
 30
0.0
 11
176.221
 21
94.0664
 31
0.0
  0
LINE
  8
0
 62
     0
 10
176.221
 20
94.0664
 30
0.0
 11
175.42
 21
94.0664
 31
0.0
  0
LINE
  8
0
 62
     0
 10
175.42
 20
94.0664
 30
0.0
 11
175.42
 21
91.1158
 31
0.0
  0
LINE
  8
0
 62
     0
 10
175.42
 20
91.1158
 30
0.0
 11
176.221
 21
91.1158
 31
0.0
  0
LINE
  8
0
 62
     0
 10
176.221
 20
91.1158
 30
0.0
 11
176.221
 21
85.1655
 31
0.0
  0
LINE
  8
0
 62
     0
 10
176.221
 20
85.1655
 30
0.0
 11
175.42
 21
85.1655
 31
0.0
  0
LINE
  8
0
 62
     0
 10
175.42
 20
85.1655
 30
0.0
 11
175.42
 21
82.2152
 31
0.0
  0
LINE
  8
0
 62
     0
 10
175.42
 20
82.2152
 30
0.0
 11
176.221
 21
82.2152
 31
0.0
  0
LINE
  8
0
 62
     0
 10
176.221
 20
82.2152
 30
0.0
 11
176.221
 21
81.2161
 31
0.0
  0
LINE
  8
0
 62
     0
 10
176.221
 20
81.2161
 30
0.0
 11
190.07
 21
81.2161
 31
0.0
  0
LINE
  8
0
 62
     0
 10
190.07
 20
81.2161
 30
0.0
 11
190.07
 21
82.2152
 31
0.0
  0
LINE
  8
0
 62
     0
 10
190.07
 20
82.2152
 30
0.0
 11
190.871
 21
82.2152
 31
0.0
  0
LINE
  8
0
 62
     0
 10
190.871
 20
82.2152
 30
0.0
 11
190.871
 21
85.1655
 31
0.0
  0
LINE
  8
0
 62
     0
 10
190.871
 20
85.1655
 30
0.0
 11
190.07
 21
85.1655
 31
0.0
  0
LINE
  8
0
 62
     0
 10
190.07
 20
85.1655
 30
0.0
 11
190.07
 21
91.1158
 31
0.0
  0
LINE
  8
0
 62
     0
 10
190.07
 20
91.1158
 30
0.0
 11
190.871
 21
91.1158
 31
0.0
  0
LINE
  8
0
 62
     0
 10
190.871
 20
91.1158
 30
0.0
 11
190.871
 21
94.0664
 31
0.0
  0
LINE
  8
0
 62
     0
 10
190.871
 20
94.0664
 30
0.0
 11
190.07
 21
94.0664
 31
0.0
  0
LINE
  8
0
 62
     0
 10
190.07
 20
94.0664
 30
0.0
 11
190.07
 21
95.0655
 31
0.0
  0
LINE
  8
0
 62
     0
 10
190.07
 20
95.0655
 30
0.0
 11
176.221
 21
95.0655
 31
0.0
  0
LINE
  8
0
 62
     0
 10
157.171
 20
95.0655
 30
0.0
 11
157.171
 21
94.0664
 31
0.0
  0
LINE
  8
0
 62
     0
 10
157.171
 20
94.0664
 30
0.0
 11
156.37
 21
94.0664
 31
0.0
  0
LINE
  8
0
 62
     0
 10
156.37
 20
94.0664
 30
0.0
 11
156.37
 21
91.1158
 31
0.0
  0
LINE
  8
0
 62
     0
 10
156.37
 20
91.1158
 30
0.0
 11
157.171
 21
91.1158
 31
0.0
  0
LINE
  8
0
 62
     0
 10
157.171
 20
91.1158
 30
0.0
 11
157.171
 21
85.1655
 31
0.0
  0
LINE
  8
0
 62
     0
 10
157.171
 20
85.1655
 30
0.0
 11
156.37
 21
85.1655
 31
0.0
  0
LINE
  8
0
 62
     0
 10
156.37
 20
85.1655
 30
0.0
 11
156.37
 21
82.2152
 31
0.0
  0
LINE
  8
0
 62
     0
 10
156.37
 20
82.2152
 30
0.0
 11
157.171
 21
82.2152
 31
0.0
  0
LINE
  8
0
 62
     0
 10
157.171
 20
82.2152
 30
0.0
 11
157.171
 21
81.2161
 31
0.0
  0
LINE
  8
0
 62
     0
 10
157.171
 20
81.2161
 30
0.0
 11
171.02
 21
81.2161
 31
0.0
  0
LINE
  8
0
 62
     0
 10
171.02
 20
81.2161
 30
0.0
 11
171.02
 21
82.2152
 31
0.0
  0
LINE
  8
0
 62
     0
 10
171.02
 20
82.2152
 30
0.0
 11
171.821
 21
82.2152
 31
0.0
  0
LINE
  8
0
 62
     0
 10
171.821
 20
82.2152
 30
0.0
 11
171.821
 21
85.1655
 31
0.0
  0
LINE
  8
0
 62
     0
 10
171.821
 20
85.1655
 30
0.0
 11
171.02
 21
85.1655
 31
0.0
  0
LINE
  8
0
 62
     0
 10
171.02
 20
85.1655
 30
0.0
 11
171.02
 21
91.1158
 31
0.0
  0
LINE
  8
0
 62
     0
 10
171.02
 20
91.1158
 30
0.0
 11
171.821
 21
91.1158
 31
0.0
  0
LINE
  8
0
 62
     0
 10
171.821
 20
91.1158
 30
0.0
 11
171.821
 21
94.0664
 31
0.0
  0
LINE
  8
0
 62
     0
 10
171.821
 20
94.0664
 30
0.0
 11
171.02
 21
94.0664
 31
0.0
  0
LINE
  8
0
 62
     0
 10
171.02
 20
94.0664
 30
0.0
 11
171.02
 21
95.0655
 31
0.0
  0
LINE
  8
0
 62
     0
 10
171.02
 20
95.0655
 30
0.0
 11
157.171
 21
95.0655
 31
0.0
  0
LINE
  8
0
 62
     0
 10
138.121
 20
95.0655
 30
0.0
 11
138.121
 21
94.0664
 31
0.0
  0
LINE
  8
0
 62
     0
 10
138.121
 20
94.0664
 30
0.0
 11
137.32
 21
94.0664
 31
0.0
  0
LINE
  8
0
 62
     0
 10
137.32
 20
94.0664
 30
0.0
 11
137.32
 21
91.1158
 31
0.0
  0
LINE
  8
0
 62
     0
 10
137.32
 20
91.1158
 30
0.0
 11
138.121
 21
91.1158
 31
0.0
  0
LINE
  8
0
 62
     0
 10
138.121
 20
91.1158
 30
0.0
 11
138.121
 21
85.1655
 31
0.0
  0
LINE
  8
0
 62
     0
 10
138.121
 20
85.1655
 30
0.0
 11
137.32
 21
85.1655
 31
0.0
  0
LINE
  8
0
 62
     0
 10
137.32
 20
85.1655
 30
0.0
 11
137.32
 21
82.2152
 31
0.0
  0
LINE
  8
0
 62
     0
 10
137.32
 20
82.2152
 30
0.0
 11
138.121
 21
82.2152
 31
0.0
  0
LINE
  8
0
 62
     0
 10
138.121
 20
82.2152
 30
0.0
 11
138.121
 21
81.2161
 31
0.0
  0
LINE
  8
0
 62
     0
 10
138.121
 20
81.2161
 30
0.0
 11
151.97
 21
81.2161
 31
0.0
  0
LINE
  8
0
 62
     0
 10
151.97
 20
81.2161
 30
0.0
 11
151.97
 21
82.2152
 31
0.0
  0
LINE
  8
0
 62
     0
 10
151.97
 20
82.2152
 30
0.0
 11
152.771
 21
82.2152
 31
0.0
  0
LINE
  8
0
 62
     0
 10
152.771
 20
82.2152
 30
0.0
 11
152.771
 21
85.1655
 31
0.0
  0
LINE
  8
0
 62
     0
 10
152.771
 20
85.1655
 30
0.0
 11
151.97
 21
85.1655
 31
0.0
  0
LINE
  8
0
 62
     0
 10
151.97
 20
85.1655
 30
0.0
 11
151.97
 21
91.1158
 31
0.0
  0
LINE
  8
0
 62
     0
 10
151.97
 20
91.1158
 30
0.0
 11
152.771
 21
91.1158
 31
0.0
  0
LINE
  8
0
 62
     0
 10
152.771
 20
91.1158
 30
0.0
 11
152.771
 21
94.0664
 31
0.0
  0
LINE
  8
0
 62
     0
 10
152.771
 20
94.0664
 30
0.0
 11
151.97
 21
94.0664
 31
0.0
  0
LINE
  8
0
 62
     0
 10
151.97
 20
94.0664
 30
0.0
 11
151.97
 21
95.0655
 31
0.0
  0
LINE
  8
0
 62
     0
 10
151.97
 20
95.0655
 30
0.0
 11
138.121
 21
95.0655
 31
0.0
  0
LINE
  8
0
 62
     0
 10
119.071
 20
95.0655
 30
0.0
 11
119.071
 21
94.0664
 31
0.0
  0
LINE
  8
0
 62
     0
 10
119.071
 20
94.0664
 30
0.0
 11
118.27
 21
94.0664
 31
0.0
  0
LINE
  8
0
 62
     0
 10
118.27
 20
94.0664
 30
0.0
 11
118.27
 21
91.1158
 31
0.0
  0
LINE
  8
0
 62
     0
 10
118.27
 20
91.1158
 30
0.0
 11
119.071
 21
91.1158
 31
0.0
  0
LINE
  8
0
 62
     0
 10
119.071
 20
91.1158
 30
0.0
 11
119.071
 21
85.1655
 31
0.0
  0
LINE
  8
0
 62
     0
 10
119.071
 20
85.1655
 30
0.0
 11
118.27
 21
85.1655
 31
0.0
  0
LINE
  8
0
 62
     0
 10
118.27
 20
85.1655
 30
0.0
 11
118.27
 21
82.2152
 31
0.0
  0
LINE
  8
0
 62
     0
 10
118.27
 20
82.2152
 30
0.0
 11
119.071
 21
82.2152
 31
0.0
  0
LINE
  8
0
 62
     0
 10
119.071
 20
82.2152
 30
0.0
 11
119.071
 21
81.2161
 31
0.0
  0
LINE
  8
0
 62
     0
 10
119.071
 20
81.2161
 30
0.0
 11
132.92
 21
81.2161
 31
0.0
  0
LINE
  8
0
 62
     0
 10
132.92
 20
81.2161
 30
0.0
 11
132.92
 21
82.2152
 31
0.0
  0
LINE
  8
0
 62
     0
 10
132.92
 20
82.2152
 30
0.0
 11
133.721
 21
82.2152
 31
0.0
  0
LINE
  8
0
 62
     0
 10
133.721
 20
82.2152
 30
0.0
 11
133.721
 21
85.1655
 31
0.0
  0
LINE
  8
0
 62
     0
 10
133.721
 20
85.1655
 30
0.0
 11
132.92
 21
85.1655
 31
0.0
  0
LINE
  8
0
 62
     0
 10
132.92
 20
85.1655
 30
0.0
 11
132.92
 21
91.1158
 31
0.0
  0
LINE
  8
0
 62
     0
 10
132.92
 20
91.1158
 30
0.0
 11
133.721
 21
91.1158
 31
0.0
  0
LINE
  8
0
 62
     0
 10
133.721
 20
91.1158
 30
0.0
 11
133.721
 21
94.0664
 31
0.0
  0
LINE
  8
0
 62
     0
 10
133.721
 20
94.0664
 30
0.0
 11
132.92
 21
94.0664
 31
0.0
  0
LINE
  8
0
 62
     0
 10
132.92
 20
94.0664
 30
0.0
 11
132.92
 21
95.0655
 31
0.0
  0
LINE
  8
0
 62
     0
 10
132.92
 20
95.0655
 30
0.0
 11
119.071
 21
95.0655
 31
0.0
  0
LINE
  8
0
 62
     0
 10
100.021
 20
95.0655
 30
0.0
 11
100.021
 21
94.0664
 31
0.0
  0
LINE
  8
0
 62
     0
 10
100.021
 20
94.0664
 30
0.0
 11
99.2202
 21
94.0664
 31
0.0
  0
LINE
  8
0
 62
     0
 10
99.2202
 20
94.0664
 30
0.0
 11
99.2202
 21
91.1158
 31
0.0
  0
LINE
  8
0
 62
     0
 10
99.2202
 20
91.1158
 30
0.0
 11
100.021
 21
91.1158
 31
0.0
  0
LINE
  8
0
 62
     0
 10
100.021
 20
91.1158
 30
0.0
 11
100.021
 21
85.1655
 31
0.0
  0
LINE
  8
0
 62
     0
 10
100.021
 20
85.1655
 30
0.0
 11
99.2202
 21
85.1655
 31
0.0
  0
LINE
  8
0
 62
     0
 10
99.2202
 20
85.1655
 30
0.0
 11
99.2202
 21
82.2152
 31
0.0
  0
LINE
  8
0
 62
     0
 10
99.2202
 20
82.2152
 30
0.0
 11
100.021
 21
82.2152
 31
0.0
  0
LINE
  8
0
 62
     0
 10
100.021
 20
82.2152
 30
0.0
 11
100.021
 21
81.2161
 31
0.0
  0
LINE
  8
0
 62
     0
 10
100.021
 20
81.2161
 30
0.0
 11
113.87
 21
81.2161
 31
0.0
  0
LINE
  8
0
 62
     0
 10
113.87
 20
81.2161
 30
0.0
 11
113.87
 21
82.2152
 31
0.0
  0
LINE
  8
0
 62
     0
 10
113.87
 20
82.2152
 30
0.0
 11
114.669
 21
82.2152
 31
0.0
  0
LINE
  8
0
 62
     0
 10
114.669
 20
82.2152
 30
0.0
 11
114.669
 21
85.1655
 31
0.0
  0
LINE
  8
0
 62
     0
 10
114.669
 20
85.1655
 30
0.0
 11
113.87
 21
85.1655
 31
0.0
  0
LINE
  8
0
 62
     0
 10
113.87
 20
85.1655
 30
0.0
 11
113.87
 21
91.1158
 31
0.0
  0
LINE
  8
0
 62
     0
 10
113.87
 20
91.1158
 30
0.0
 11
114.669
 21
91.1158
 31
0.0
  0
LINE
  8
0
 62
     0
 10
114.669
 20
91.1158
 30
0.0
 11
114.669
 21
94.0664
 31
0.0
  0
LINE
  8
0
 62
     0
 10
114.669
 20
94.0664
 30
0.0
 11
113.87
 21
94.0664
 31
0.0
  0
LINE
  8
0
 62
     0
 10
113.87
 20
94.0664
 30
0.0
 11
113.87
 21
95.0655
 31
0.0
  0
LINE
  8
0
 62
     0
 10
113.87
 20
95.0655
 30
0.0
 11
100.021
 21
95.0655
 31
0.0
  0
LINE
  8
0
 62
     0
 10
80.9706
 20
95.0655
 30
0.0
 11
80.9706
 21
94.0664
 31
0.0
  0
LINE
  8
0
 62
     0
 10
80.9706
 20
94.0664
 30
0.0
 11
80.1702
 21
94.0664
 31
0.0
  0
LINE
  8
0
 62
     0
 10
80.1702
 20
94.0664
 30
0.0
 11
80.1702
 21
91.1158
 31
0.0
  0
LINE
  8
0
 62
     0
 10
80.1702
 20
91.1158
 30
0.0
 11
80.9706
 21
91.1158
 31
0.0
  0
LINE
  8
0
 62
     0
 10
80.9706
 20
91.1158
 30
0.0
 11
80.9706
 21
85.1655
 31
0.0
  0
LINE
  8
0
 62
     0
 10
80.9706
 20
85.1655
 30
0.0
 11
80.1702
 21
85.1655
 31
0.0
  0
LINE
  8
0
 62
     0
 10
80.1702
 20
85.1655
 30
0.0
 11
80.1702
 21
82.2152
 31
0.0
  0
LINE
  8
0
 62
     0
 10
80.1702
 20
82.2152
 30
0.0
 11
80.9706
 21
82.2152
 31
0.0
  0
LINE
  8
0
 62
     0
 10
80.9706
 20
82.2152
 30
0.0
 11
80.9706
 21
81.2161
 31
0.0
  0
LINE
  8
0
 62
     0
 10
80.9706
 20
81.2161
 30
0.0
 11
94.82
 21
81.2161
 31
0.0
  0
LINE
  8
0
 62
     0
 10
94.82
 20
81.2161
 30
0.0
 11
94.82
 21
82.2152
 31
0.0
  0
LINE
  8
0
 62
     0
 10
94.82
 20
82.2152
 30
0.0
 11
95.6194
 21
82.2152
 31
0.0
  0
LINE
  8
0
 62
     0
 10
95.6194
 20
82.2152
 30
0.0
 11
95.6194
 21
85.1655
 31
0.0
  0
LINE
  8
0
 62
     0
 10
95.6194
 20
85.1655
 30
0.0
 11
94.82
 21
85.1655
 31
0.0
  0
LINE
  8
0
 62
     0
 10
94.82
 20
85.1655
 30
0.0
 11
94.82
 21
91.1158
 31
0.0
  0
LINE
  8
0
 62
     0
 10
94.82
 20
91.1158
 30
0.0
 11
95.6194
 21
91.1158
 31
0.0
  0
LINE
  8
0
 62
     0
 10
95.6194
 20
91.1158
 30
0.0
 11
95.6194
 21
94.0664
 31
0.0
  0
LINE
  8
0
 62
     0
 10
95.6194
 20
94.0664
 30
0.0
 11
94.82
 21
94.0664
 31
0.0
  0
LINE
  8
0
 62
     0
 10
94.82
 20
94.0664
 30
0.0
 11
94.82
 21
95.0655
 31
0.0
  0
LINE
  8
0
 62
     0
 10
94.82
 20
95.0655
 30
0.0
 11
80.9706
 21
95.0655
 31
0.0
  0
LINE
  8
0
 62
     0
 10
61.9206
 20
95.0655
 30
0.0
 11
61.9206
 21
94.0664
 31
0.0
  0
LINE
  8
0
 62
     0
 10
61.9206
 20
94.0664
 30
0.0
 11
61.1202
 21
94.0664
 31
0.0
  0
LINE
  8
0
 62
     0
 10
61.1202
 20
94.0664
 30
0.0
 11
61.1202
 21
91.1158
 31
0.0
  0
LINE
  8
0
 62
     0
 10
61.1202
 20
91.1158
 30
0.0
 11
61.9206
 21
91.1158
 31
0.0
  0
LINE
  8
0
 62
     0
 10
61.9206
 20
91.1158
 30
0.0
 11
61.9206
 21
85.1655
 31
0.0
  0
LINE
  8
0
 62
     0
 10
61.9206
 20
85.1655
 30
0.0
 11
61.1202
 21
85.1655
 31
0.0
  0
LINE
  8
0
 62
     0
 10
61.1202
 20
85.1655
 30
0.0
 11
61.1202
 21
82.2152
 31
0.0
  0
LINE
  8
0
 62
     0
 10
61.1202
 20
82.2152
 30
0.0
 11
61.9206
 21
82.2152
 31
0.0
  0
LINE
  8
0
 62
     0
 10
61.9206
 20
82.2152
 30
0.0
 11
61.9206
 21
81.2161
 31
0.0
  0
LINE
  8
0
 62
     0
 10
61.9206
 20
81.2161
 30
0.0
 11
75.77
 21
81.2161
 31
0.0
  0
LINE
  8
0
 62
     0
 10
75.77
 20
81.2161
 30
0.0
 11
75.77
 21
82.2152
 31
0.0
  0
LINE
  8
0
 62
     0
 10
75.77
 20
82.2152
 30
0.0
 11
76.5708
 21
82.2152
 31
0.0
  0
LINE
  8
0
 62
     0
 10
76.5708
 20
82.2152
 30
0.0
 11
76.5708
 21
85.1655
 31
0.0
  0
LINE
  8
0
 62
     0
 10
76.5708
 20
85.1655
 30
0.0
 11
75.77
 21
85.1655
 31
0.0
  0
LINE
  8
0
 62
     0
 10
75.77
 20
85.1655
 30
0.0
 11
75.77
 21
91.1158
 31
0.0
  0
LINE
  8
0
 62
     0
 10
75.77
 20
91.1158
 30
0.0
 11
76.5708
 21
91.1158
 31
0.0
  0
LINE
  8
0
 62
     0
 10
76.5708
 20
91.1158
 30
0.0
 11
76.5708
 21
94.0664
 31
0.0
  0
LINE
  8
0
 62
     0
 10
76.5708
 20
94.0664
 30
0.0
 11
75.77
 21
94.0664
 31
0.0
  0
LINE
  8
0
 62
     0
 10
75.77
 20
94.0664
 30
0.0
 11
75.77
 21
95.0655
 31
0.0
  0
LINE
  8
0
 62
     0
 10
75.77
 20
95.0655
 30
0.0
 11
61.9206
 21
95.0655
 31
0.0
  0
LINE
  8
0
 62
     0
 10
42.8706
 20
95.0655
 30
0.0
 11
42.8706
 21
94.0664
 31
0.0
  0
LINE
  8
0
 62
     0
 10
42.8706
 20
94.0664
 30
0.0
 11
42.0702
 21
94.0664
 31
0.0
  0
LINE
  8
0
 62
     0
 10
42.0702
 20
94.0664
 30
0.0
 11
42.0702
 21
91.1158
 31
0.0
  0
LINE
  8
0
 62
     0
 10
42.0702
 20
91.1158
 30
0.0
 11
42.8706
 21
91.1158
 31
0.0
  0
LINE
  8
0
 62
     0
 10
42.8706
 20
91.1158
 30
0.0
 11
42.8706
 21
85.1655
 31
0.0
  0
LINE
  8
0
 62
     0
 10
42.8706
 20
85.1655
 30
0.0
 11
42.0702
 21
85.1655
 31
0.0
  0
LINE
  8
0
 62
     0
 10
42.0702
 20
85.1655
 30
0.0
 11
42.0702
 21
82.2152
 31
0.0
  0
LINE
  8
0
 62
     0
 10
42.0702
 20
82.2152
 30
0.0
 11
42.8706
 21
82.2152
 31
0.0
  0
LINE
  8
0
 62
     0
 10
42.8706
 20
82.2152
 30
0.0
 11
42.8706
 21
81.2161
 31
0.0
  0
LINE
  8
0
 62
     0
 10
42.8706
 20
81.2161
 30
0.0
 11
56.72
 21
81.2161
 31
0.0
  0
LINE
  8
0
 62
     0
 10
56.72
 20
81.2161
 30
0.0
 11
56.72
 21
82.2152
 31
0.0
  0
LINE
  8
0
 62
     0
 10
56.72
 20
82.2152
 30
0.0
 11
57.5208
 21
82.2152
 31
0.0
  0
LINE
  8
0
 62
     0
 10
57.5208
 20
82.2152
 30
0.0
 11
57.5208
 21
85.1655
 31
0.0
  0
LINE
  8
0
 62
     0
 10
57.5208
 20
85.1655
 30
0.0
 11
56.72
 21
85.1655
 31
0.0
  0
LINE
  8
0
 62
     0
 10
56.72
 20
85.1655
 30
0.0
 11
56.72
 21
91.1158
 31
0.0
  0
LINE
  8
0
 62
     0
 10
56.72
 20
91.1158
 30
0.0
 11
57.5208
 21
91.1158
 31
0.0
  0
LINE
  8
0
 62
     0
 10
57.5208
 20
91.1158
 30
0.0
 11
57.5208
 21
94.0664
 31
0.0
  0
LINE
  8
0
 62
     0
 10
57.5208
 20
94.0664
 30
0.0
 11
56.72
 21
94.0664
 31
0.0
  0
LINE
  8
0
 62
     0
 10
56.72
 20
94.0664
 30
0.0
 11
56.72
 21
95.0655
 31
0.0
  0
LINE
  8
0
 62
     0
 10
56.72
 20
95.0655
 30
0.0
 11
42.8706
 21
95.0655
 31
0.0
  0
LINE
  8
0
 62
     0
 10
23.8208
 20
95.0655
 30
0.0
 11
23.8208
 21
94.0664
 31
0.0
  0
LINE
  8
0
 62
     0
 10
23.8208
 20
94.0664
 30
0.0
 11
23.0201
 21
94.0664
 31
0.0
  0
LINE
  8
0
 62
     0
 10
23.0201
 20
94.0664
 30
0.0
 11
23.0201
 21
91.1158
 31
0.0
  0
LINE
  8
0
 62
     0
 10
23.0201
 20
91.1158
 30
0.0
 11
23.8208
 21
91.1158
 31
0.0
  0
LINE
  8
0
 62
     0
 10
23.8208
 20
91.1158
 30
0.0
 11
23.8208
 21
85.1655
 31
0.0
  0
LINE
  8
0
 62
     0
 10
23.8208
 20
85.1655
 30
0.0
 11
23.0201
 21
85.1655
 31
0.0
  0
LINE
  8
0
 62
     0
 10
23.0201
 20
85.1655
 30
0.0
 11
23.0201
 21
82.2152
 31
0.0
  0
LINE
  8
0
 62
     0
 10
23.0201
 20
82.2152
 30
0.0
 11
23.8208
 21
82.2152
 31
0.0
  0
LINE
  8
0
 62
     0
 10
23.8208
 20
82.2152
 30
0.0
 11
23.8208
 21
81.2161
 31
0.0
  0
LINE
  8
0
 62
     0
 10
23.8208
 20
81.2161
 30
0.0
 11
37.67
 21
81.2161
 31
0.0
  0
LINE
  8
0
 62
     0
 10
37.67
 20
81.2161
 30
0.0
 11
37.67
 21
82.2152
 31
0.0
  0
LINE
  8
0
 62
     0
 10
37.67
 20
82.2152
 30
0.0
 11
38.4708
 21
82.2152
 31
0.0
  0
LINE
  8
0
 62
     0
 10
38.4708
 20
82.2152
 30
0.0
 11
38.4708
 21
85.1655
 31
0.0
  0
LINE
  8
0
 62
     0
 10
38.4708
 20
85.1655
 30
0.0
 11
37.67
 21
85.1655
 31
0.0
  0
LINE
  8
0
 62
     0
 10
37.67
 20
85.1655
 30
0.0
 11
37.67
 21
91.1158
 31
0.0
  0
LINE
  8
0
 62
     0
 10
37.67
 20
91.1158
 30
0.0
 11
38.4708
 21
91.1158
 31
0.0
  0
LINE
  8
0
 62
     0
 10
38.4708
 20
91.1158
 30
0.0
 11
38.4708
 21
94.0664
 31
0.0
  0
LINE
  8
0
 62
     0
 10
38.4708
 20
94.0664
 30
0.0
 11
37.67
 21
94.0664
 31
0.0
  0
LINE
  8
0
 62
     0
 10
37.67
 20
94.0664
 30
0.0
 11
37.67
 21
95.0655
 31
0.0
  0
LINE
  8
0
 62
     0
 10
37.67
 20
95.0655
 30
0.0
 11
23.8208
 21
95.0655
 31
0.0
  0
LINE
  8
0
 62
     0
 10
4.77076
 20
95.0655
 30
0.0
 11
4.77076
 21
94.0664
 31
0.0
  0
LINE
  8
0
 62
     0
 10
4.77076
 20
94.0664
 30
0.0
 11
3.97013
 21
94.0664
 31
0.0
  0
LINE
  8
0
 62
     0
 10
3.97013
 20
94.0664
 30
0.0
 11
3.97013
 21
91.1158
 31
0.0
  0
LINE
  8
0
 62
     0
 10
3.97013
 20
91.1158
 30
0.0
 11
4.77076
 21
91.1158
 31
0.0
  0
LINE
  8
0
 62
     0
 10
4.77076
 20
91.1158
 30
0.0
 11
4.77076
 21
85.1655
 31
0.0
  0
LINE
  8
0
 62
     0
 10
4.77076
 20
85.1655
 30
0.0
 11
3.97013
 21
85.1655
 31
0.0
  0
LINE
  8
0
 62
     0
 10
3.97013
 20
85.1655
 30
0.0
 11
3.97013
 21
82.2152
 31
0.0
  0
LINE
  8
0
 62
     0
 10
3.97013
 20
82.2152
 30
0.0
 11
4.77076
 21
82.2152
 31
0.0
  0
LINE
  8
0
 62
     0
 10
4.77076
 20
82.2152
 30
0.0
 11
4.77076
 21
81.2161
 31
0.0
  0
LINE
  8
0
 62
     0
 10
4.77076
 20
81.2161
 30
0.0
 11
18.6201
 21
81.2161
 31
0.0
  0
LINE
  8
0
 62
     0
 10
18.6201
 20
81.2161
 30
0.0
 11
18.6201
 21
82.2152
 31
0.0
  0
LINE
  8
0
 62
     0
 10
18.6201
 20
82.2152
 30
0.0
 11
19.4207
 21
82.2152
 31
0.0
  0
LINE
  8
0
 62
     0
 10
19.4207
 20
82.2152
 30
0.0
 11
19.4207
 21
85.1655
 31
0.0
  0
LINE
  8
0
 62
     0
 10
19.4207
 20
85.1655
 30
0.0
 11
18.6201
 21
85.1655
 31
0.0
  0
LINE
  8
0
 62
     0
 10
18.6201
 20
85.1655
 30
0.0
 11
18.6201
 21
91.1158
 31
0.0
  0
LINE
  8
0
 62
     0
 10
18.6201
 20
91.1158
 30
0.0
 11
19.4207
 21
91.1158
 31
0.0
  0
LINE
  8
0
 62
     0
 10
19.4207
 20
91.1158
 30
0.0
 11
19.4207
 21
94.0664
 31
0.0
  0
LINE
  8
0
 62
     0
 10
19.4207
 20
94.0664
 30
0.0
 11
18.6201
 21
94.0664
 31
0.0
  0
LINE
  8
0
 62
     0
 10
18.6201
 20
94.0664
 30
0.0
 11
18.6201
 21
95.0655
 31
0.0
  0
LINE
  8
0
 62
     0
 10
18.6201
 20
95.0655
 30
0.0
 11
4.77076
 21
95.0655
 31
0.0
  0
ENDSEC
  0
EOF
